<svg width="334" height="554" viewBox="0 0 334 554" fill="none" xmlns="http://www.w3.org/2000/svg">
<path d="M88.7234 216.777C75.6283 173.953 -4.91857 140.242 -43.5551 128.739C-47.5367 257.331 -55.5 516.284 -55.5 523.363C-55.5 532.211 -5.06604 551.677 13.0725 553.004C31.211 554.331 54.6584 511.418 57.7552 487.528C60.852 463.638 115.71 408.78 127.655 396.836C139.6 384.891 157.296 316.318 157.296 306.143C157.296 295.968 105.092 270.308 88.7234 216.777Z" fill="#14232C"/>
<g clip-path="url(#clip0)">
<path d="M41.8701 249.475C41.0799 242.903 52.4408 240.686 61.2626 231.25C73.3357 218.249 77.3178 194.679 69.0908 180.175C64.0916 171.358 58.9144 173.457 52.2456 162.379C45.0159 150.246 42.9072 133.641 48.2823 130.141C49.1675 129.542 50.2286 129.249 51.3188 129.304C52.409 129.358 53.4745 129.757 54.368 130.444C55.8993 132.183 53.8676 135.025 53.1532 139.576C51.1965 152.014 61.2248 162.658 62.4536 163.958C64.0651 165.611 66.0953 167.711 67.4112 167.127C69.551 166.211 65.3734 158.062 65.593 147.969C66.0011 132.482 76.3554 128.283 73.9776 115.187C73.0443 110.095 71.5029 110.835 69.4948 104.425C64.1938 87.4919 70.4874 67.4755 77.4327 66.7746C78.9555 66.7546 80.4685 67.2653 81.7231 68.2228C82.9777 69.1802 83.8993 70.5276 84.3367 72.0436C84.7288 75.185 80.1739 77.0611 80.9166 78.9019C81.6593 80.7428 86.0593 80.9735 89.6094 80.1726C94.2198 79.1406 96.2652 76.3184 97.8409 77.4378C98.3514 77.9558 98.6988 78.6153 98.8343 79.3237C98.9698 80.0321 98.8866 80.7539 98.5964 81.3875C96.7585 85.5961 86.923 80.8191 81.2808 86.0627C78.4596 88.6845 77.961 92.7048 77.3149 97.7975C77.1861 98.8569 76.1436 107.194 78.1239 107.975C80.1042 108.757 81.9243 101.266 89.1162 93.3659C98.1588 83.3658 105.061 83.9296 106.457 76.9086C107.457 71.807 104.008 70.7442 104.172 62.2191C104.228 57.3566 105.529 48.43 109.962 47.4618C111.27 47.2467 112.637 47.5076 113.827 48.1999C115.017 48.8921 115.958 49.9727 116.487 51.2567C116.941 53.1204 115.171 54.2524 113.427 57.1902C110.537 62.1242 109.454 68.7536 111.081 69.867C112.708 70.9804 118.33 67.0743 121.751 62.1862C125.171 57.2982 125.125 53.212 127.715 52.8675C128.963 52.8918 130.187 53.3608 131.176 54.1933C132.165 55.0258 132.857 56.1695 133.132 57.4267C133.54 59.5864 131.959 61.3532 128.471 64.8171C121.877 71.3343 118.533 74.0816 118.533 74.0816C106.166 84.2856 104.533 86.4999 105.115 88.1872C105.696 89.8746 108.196 90.4449 108.703 90.5367C113.308 91.5079 116.655 86.9946 122.953 81.4162C129.835 75.3177 138.129 68.0104 143.422 70.4198C144.694 71.0562 145.754 72.0825 146.446 73.3472C147.139 74.612 147.427 76.0483 147.268 77.4444C146.634 79.8223 143.341 80.1518 134.632 85.128C132.63 86.244 131.827 86.7681 131.923 87.3491C132.181 88.7295 137.865 90.3397 142.04 88.314C145.305 86.7387 145.655 83.9094 147.637 84.1308C148.893 84.5541 149.984 85.4132 150.715 86.5538C151.445 87.6944 151.767 89.0416 151.623 90.3532C150.958 94.2529 143.952 96.5543 138.127 95.865C132.302 95.1757 131.709 92.1439 126.119 91.6748C121.585 91.3305 120.673 93.2239 114.194 94.7211C104.229 97.0332 102.72 93.3973 97.3934 95.9231C94.1517 97.4526 94.2777 99.0422 85.3578 112.517C80.3024 120.179 78.3702 122.482 79.3213 123.62C81.2045 126.351 94.8092 120.676 95.6381 120.31C100.685 118.183 103.799 116.066 105.372 117.422C106.488 118.358 106.636 120.904 105.758 122.685C102.6 129.04 88.4793 121.747 81.0111 129.367C78.7008 131.725 77.6309 135.198 75.486 142.177C73.9463 147.18 73.144 149.674 74.1804 150.695C76.7559 153.184 90.2236 148.074 95.1114 137.997C96.234 135.606 97.0129 132.715 98.8966 132.593C100.78 132.471 103.749 136.012 103.309 138.55C102.87 141.089 99.1773 141.723 99.4384 143.308C99.6996 144.892 101.919 145.539 103.995 145.695C109.111 146.08 110.664 141.097 115.123 141.493C118.087 141.772 120.909 144.297 120.765 145.896C120.556 148.246 113.975 148.108 113.762 150.372C113.549 152.637 120.628 154.461 120.484 156.825C120.42 158.34 117.611 159.572 115.063 159.858C108 160.669 104.272 153.975 97.5171 151.897C93.2184 150.567 86.6002 150.778 76.7718 158.232C75.1353 165.818 74.7339 173.694 75.5833 181.551C76.7076 191.865 78.8721 191.225 78.6374 197.799C78.2982 206.15 74.6527 210.752 70.6107 228.246C69.9554 231.315 69.587 232.952 70.3623 233.594C72.7993 235.56 84.1141 227.287 90.7004 215.775C92.8796 212.614 94.3727 208.991 95.0869 205.133C96.6357 193.712 88.1881 187.772 91.0424 177.48C91.9161 174.481 93.5471 171.806 95.7775 169.715C97.3459 168.251 99.9316 165.85 102.549 166.752C103.491 167.075 104.318 167.707 104.896 168.545C105.474 169.384 105.77 170.38 105.738 171.376C105.228 173.169 102.149 172.322 100.06 174.88C98.878 176.342 98.1183 178.777 99.0704 180.239C100.28 181.993 103.637 181.796 104.98 181.693C108.052 181.486 109.479 180.179 110.401 181.073C110.827 181.548 111.102 182.141 111.184 182.767C111.267 183.393 111.153 184.018 110.859 184.551C109.359 187.321 103.832 184.25 100.372 187.312C99.4959 188.306 98.8366 189.484 98.434 190.772C98.0315 192.061 97.8941 193.434 98.03 194.809C97.9663 198.294 99.0906 203.784 101.311 204.311C103.532 204.839 105.806 199.976 110.696 190.546C119.482 173.782 120.836 171.083 123.721 164.976C131.096 149.302 131.5 147.435 130.747 144.896C128.392 137.019 118.702 135.025 118.714 127.928C118.668 123.842 122.002 122.043 120.751 118.582C119.501 115.121 116.613 115.877 114.01 112.142C111.407 108.407 110.762 102.205 113.422 99.753C115.004 98.3091 117.798 98.0592 118.862 99.1198C120.172 100.658 117.08 103.731 118.591 107.248C119.293 108.911 120.845 110.517 121.907 110.168C123.772 109.617 121.328 102.655 124.362 100.504C125.349 99.9211 126.524 99.72 127.684 99.9347C128.844 100.149 129.916 100.767 130.717 101.68C132.092 103.674 129.818 106.124 128.352 111.958C127.06 117.124 127.033 122.602 128.274 127.924C129.138 131.388 131.575 138.178 134.017 138.141C136.458 138.105 136.221 131.651 140.283 121.703C143.587 114.099 147.738 106.945 152.657 100.375C156.556 95.2163 158.797 93.2004 159.14 88.9937C159.482 84.787 157.137 83.3157 156.588 77.2532C156.135 72.0946 157.021 64.7775 160.194 64.0314C161.364 63.9778 162.541 64.3194 163.544 65.004C164.547 65.6885 165.32 66.6782 165.745 67.8212C166.838 70.7733 163.99 72.4722 163.812 77.8011C163.75 79.9618 164.075 84.0908 165.565 84.5634C167.755 85.2882 172.392 77.9436 174.426 70.4821C175.749 65.3363 176.11 59.9313 175.492 54.5413C174.658 45.2925 172.019 43.4355 173.175 37.433C174.003 33.1267 176.664 27.3795 180.036 27.5254C181.054 27.627 182.029 28.0655 182.813 28.7736C183.597 29.4818 184.145 30.4204 184.374 31.4456C184.831 34.278 181.154 35.1367 179.725 39.8575C178.819 42.8054 178.964 46.7939 180.501 47.6163C182.039 48.4387 184.319 46.2783 188.857 42.2076C193.81 37.7333 194.627 36.0232 196.474 36.2497C199.805 36.6587 203.06 42.8261 201.696 45.1491C200.822 46.5752 198.774 45.5753 195.373 46.3912C188.813 47.9731 185.408 54.4099 184.345 56.407C181.787 61.2592 180.541 67.8537 182.074 68.709C183.606 69.5643 186.666 62.4248 195.573 58.0178C197.973 56.8341 205.062 53.3278 209.223 56.5473C211.836 58.5688 212.858 62.8644 211.602 64.2595C210.347 65.6546 208.105 63.7299 204.213 63.4723C202.798 63.3894 199.531 63.4359 193.61 66.9892C183.96 72.7316 180.811 79.58 169.206 90.7289C161.979 97.6536 156.451 101.495 157.693 105.227C158.021 105.968 158.499 106.636 159.093 107.186C159.688 107.736 160.385 108.154 161.137 108.411C166.97 110.801 175.57 105.224 178.517 98.1618C180.261 94.0181 178.727 92.517 180.931 88.8795C184.084 83.7642 190.592 80.9824 192.172 82.5104C193.389 83.6716 191.748 87.3619 191.552 87.7615C189.461 92.5272 185.198 93.3788 185.618 95.6771C185.787 96.2764 186.128 96.8189 186.596 97.232C187.064 97.6451 187.637 97.9091 188.238 97.9885C191.848 98.4404 193.498 89.5378 196.391 89.9547C198.349 90.222 200.47 94.5835 199.538 97.8144C198.606 101.045 195.352 101.553 190.299 103.832C177.653 109.611 178.317 114.594 170.551 115.391C163.745 116.054 162.219 112.312 156.764 113.808C148.5 116.213 144.64 127.257 146.179 128.726C147.275 129.793 150.856 125.5 157.878 125.835C158.944 125.894 163.233 126.083 163.873 127.936C164.513 129.789 160.7 133.625 156.452 135.142C151.624 136.824 148.954 134.841 145.542 135.4C134.816 137.09 129.656 161.766 133.053 163.717C136.45 165.669 154.295 149.541 156.273 147.706C156.746 147.177 157.329 146.764 157.985 146.495C158.641 146.225 159.353 146.106 160.074 146.144C160.823 146.264 161.527 146.627 162.082 147.177C162.636 147.728 163.011 148.437 163.151 149.199C163.261 151.77 158.066 153.441 158.274 153.944C158.482 154.448 168.223 149.761 170.794 152.605C172.119 154.045 171.607 157.604 169.786 159.183C167.41 161.204 164.268 158.899 157.944 159.054C154.611 159.181 151.356 159.902 148.327 161.186C143.198 163.296 138.693 166.634 135.173 170.932C127.734 179.238 126.012 183.132 118.572 192.762C105.371 210.159 99.1032 217.952 99.1032 217.952C95.6758 222.227 93.8086 224.544 94.4098 225.335C95.7843 227.329 108.382 220.554 117.722 213.76C127.777 206.474 132.786 202.844 134.601 196.592C137.12 187.825 132.282 181.573 137.021 175.541C139.967 171.774 144.997 170.306 145.797 171.224C146.597 172.143 144.438 173.956 143.681 178.566C143.625 178.928 142.951 183.217 143.916 183.61C144.88 184.004 147.14 175.946 152.787 174.728C155.571 174.103 159.005 175.264 159.549 176.978C160.093 178.691 156.614 181.766 151.951 185.334C146.625 189.389 143.555 190.565 142.013 194.599C141.84 195.071 140.738 198.096 141.753 198.925C143.151 200.108 147.769 196.394 149.688 194.836C177.207 172.919 186.873 169.371 186.495 159.779C186.282 154.485 183.08 150.163 185.27 143.33C186.338 139.652 187.925 138.94 187.744 136.064C187.456 130.381 181.233 129.113 180.229 123.276C179.225 117.439 183.793 111.642 185.856 112.101C187.269 112.421 188.111 116.135 188.234 118.403C188.412 121.516 187.329 122.439 188.048 124.767C188.659 126.698 190.303 128.8 191.789 128.746C193.276 128.691 193.819 126.905 194.956 124.856C197.721 119.861 202.696 114.696 204.88 115.572C206.35 116.176 206.795 119.634 206.224 122.263C205.61 125.393 203.607 126.509 200.556 129.642C196.714 133.541 193.772 138.277 191.925 143.535C191.746 144.158 189.368 151.886 191.431 153.229C192.471 153.894 194.311 152.743 202.537 145.217C215.133 133.737 216.405 131.361 217.259 129.183C218.96 124.775 217.887 123.662 220.282 118.452C221.066 116.735 224.976 108.215 229.049 108.936C229.788 109.094 230.476 109.471 231.027 110.019C231.577 110.566 231.964 111.26 232.139 112.011C232.5 114.262 229.609 115.256 226.623 119.609C224.694 122.439 223.038 126.228 223.923 127.029C225.085 128.111 229.823 122.52 233.046 124.18C233.823 124.67 234.452 125.379 234.851 126.215C235.249 127.052 235.4 127.977 235.284 128.872C234.527 133.483 225 131.846 220.09 138.996C218.64 141.114 217.221 144.563 218.424 146.027C220.308 148.317 227.853 144.908 230.022 143.913C240.583 139.13 244.55 132.542 246.951 133.974C248.571 134.916 248.821 139.097 247.461 142.27C244.067 150.493 229.687 152.673 219.408 151.232C213.533 150.43 211.562 148.818 207.912 150.158C203.084 151.958 203.116 156.025 197.514 162.534C190.511 170.628 183.669 172.081 184.454 174.304C185.239 176.528 192.497 176.523 197.666 175.577C201.897 174.554 205.938 172.935 209.677 170.765C219.173 165.805 222.55 162.301 225.145 163.893C225.947 164.479 226.566 165.294 226.917 166.226C227.267 167.159 227.332 168.164 227.102 169.103C225.473 174.579 211.308 170.317 207.005 177.784C205.816 179.839 205.352 182.865 206.612 184.29C208.856 186.861 217.322 184.788 223.301 181.077C226.29 179.222 227.815 177.494 229.47 178.205C230.571 178.973 231.375 180.117 231.726 181.413C232.077 182.71 231.949 184.066 231.369 185.22C230.329 186.848 228.241 186.553 223.791 186.974C214.841 187.822 214.893 189.787 210.379 189.311C205.307 188.749 205.033 186.261 197.992 183.646C193.28 181.799 188.287 181.006 183.361 181.323C176.957 182.004 174.16 185.344 165.53 191.883C163.464 193.308 157.377 197.505 144.874 205.421C136.942 210.88 128.695 215.87 120.171 220.366C105.442 227.346 95.5355 228.294 95.8635 230.539C96.1916 232.783 105.076 231.157 120.585 235.639C130.425 238.413 134.828 241.26 137.944 238.905C139.858 237.38 140.163 233.199 140.678 224.902C141.194 216.605 140.59 213.198 143.055 210.822C145.519 208.446 149.543 208.172 150.576 209.43C151.61 210.687 149.375 212.552 147.442 218.15C146.622 220.539 145.046 225.89 145.985 226.448C146.925 227.007 149.687 222.249 154.648 216.299C161.989 207.53 167.462 204.051 176.557 198.427C179.734 196.442 182.758 194.798 185.651 195.979C188.545 197.161 190.331 200.193 189.692 201.84C189.054 203.486 186.854 203.15 184.899 203.41C176.187 204.564 169.21 212.816 170.126 214.626C171.041 216.436 179.442 214.349 184.671 212.567C192.333 209.931 195.683 206.709 198.156 208.445C199.029 209.196 199.628 210.226 199.844 211.35C200.06 212.474 199.879 213.618 199.333 214.575C198.111 215.858 195.693 213.879 192.906 215.183C190.807 216.159 189.245 218.678 189.839 219.739C191.025 221.862 199.181 217.209 202.161 220.566C202.786 221.311 203.161 222.234 203.228 223.19C203.294 224.145 203.048 225.078 202.529 225.842C201.348 227.185 198.921 226.359 193.16 225.038C193.16 225.038 186.86 223.499 181.469 222.716C177.097 221.814 172.66 221.501 168.272 221.787C164.029 222.005 159.936 223.18 156.287 225.228C154.57 226.235 147.772 230.246 147.392 236.89C147.253 237.599 147.264 238.338 147.422 239.06C147.581 239.781 147.884 240.469 148.313 241.079C150.328 243.278 153.761 240.94 159.778 241.144C167.391 241.453 169.174 245.606 173.552 244.117C175.381 243.473 175.181 242.7 180.809 236.672C187.21 229.876 188.597 229.596 189.566 229.956C190.337 230.383 190.959 231.053 191.335 231.86C191.711 232.667 191.818 233.565 191.639 234.41C190.846 237.28 186.015 236.464 184.666 239.894C184.394 240.565 184.282 241.3 184.341 242.041C184.4 242.782 184.626 243.508 185.003 244.162C185.691 245.159 187.304 246.252 197.937 244.95C208.57 243.647 209.9 242.2 210.519 241.45C211.463 240.184 212.142 238.726 212.517 237.16C212.893 235.594 212.958 233.95 212.708 232.323C211.864 226.758 207.958 226.48 206.605 220.619C206.189 218.394 206.214 216.13 206.678 213.965C207.143 211.799 208.038 209.777 209.309 208.019C210.015 207.033 211.66 204.634 213.141 205.054C214.622 205.473 215.56 208.562 215.372 211.103C215.129 214.771 212.783 215.389 212.598 218.899C212.433 221.513 213.457 224.807 214.989 225.22C216.522 225.634 217.956 222.086 222.216 216.767C228.281 209.202 231.516 209.472 233.924 203.517C235.382 199.924 234.167 199.85 235.785 195.322C237.631 190.332 240.603 185.908 244.47 182.392C247.161 179.742 252.859 174.137 255.579 175.791C257.101 176.712 257.539 179.88 256.592 182.004C255.334 184.842 252.246 184.383 248.541 186.849C243.582 190.269 241.35 196.279 242.217 197.093C243.083 197.907 247.206 193.476 256.62 189.602C262.22 187.27 264.769 187.189 266.287 188.466C266.79 188.898 267.184 189.447 267.433 190.062C267.683 190.676 267.779 191.337 267.714 191.982C267.21 195.271 261.345 196.373 257.19 197.503C243.965 201.358 232.577 211.534 233.899 215.299C234.625 217.357 239.626 218.379 243.256 217.494C247.531 216.458 249.147 212.932 251.131 213.799C251.961 214.392 252.586 215.243 252.904 216.215C253.222 217.187 253.214 218.222 252.881 219.151C251.278 223.58 240.969 223.101 239.232 223.034C232.727 222.725 230.384 220.694 227.47 222.497C225.816 223.637 224.995 225.38 223.494 229.033C221.524 233.773 220.194 237.19 221.41 238.793C223.562 241.633 233.038 238.893 240.213 234.828C247.816 230.497 248.46 227.171 260.458 217.397C271.765 208.189 274.511 208.472 275.731 209.277C276.531 210.027 277.101 210.995 277.365 212.054C277.63 213.112 277.575 214.209 277.209 215.2C276.029 218.955 271.065 217.907 264.785 222.708C263.846 223.355 259.093 227.074 259.878 228.856C260.896 231.096 269.945 229.709 276.227 227.965C285.229 225.464 287.394 222.412 295.102 222.215C298.877 222.141 303.995 222.73 304.29 224.203C304.444 224.95 303.316 225.845 300.04 227.486C291.643 231.629 284.195 233.089 284.284 233.498C284.372 233.908 302.622 230.265 304.502 234.439C305.101 235.791 303.998 237.728 302.859 238.69C298.97 242.577 292.082 239.621 277.232 236.979C265.669 234.922 259.899 233.871 255.38 235.076C246.706 237.41 245.804 242.414 237.871 242.325C234.144 241.841 230.428 242.579 227.266 244.432C226.459 244.989 224.824 246.116 225.08 246.969C225.727 248.993 237.379 250.576 246.418 245.755C248.832 244.473 251.047 242.74 252.875 243.744C253.773 244.379 254.435 245.309 254.742 246.366C255.048 247.423 254.979 248.536 254.546 249.504C252.91 252.397 246.306 250.538 246.086 251.867C245.951 252.636 247.998 254.077 250.228 254.658C255.3 255.984 258.93 252.364 260.414 253.752C261.501 254.767 261.059 257.984 259.705 259.799C255.087 265.925 241.237 254.563 216.806 253.38C205.043 252.844 199.557 255.097 178.551 253.817C176.023 253.649 173.425 253.499 169.948 253.161C157.494 251.729 145.13 249.15 133.009 245.456C110.144 239.31 98.5507 236.245 90.6872 236.579C76.4708 237.146 64.9394 242.009 65.1785 243.08C65.4177 244.15 74.1757 241.817 88.1501 242.828C96.8649 243.407 106.65 244.131 117.316 249.188C129.701 255.089 129.829 260.501 138.392 261.302C144.852 261.907 152.734 259.59 158.273 257.976C164.252 256.236 168.692 254.233 170.407 256.197C170.882 256.795 171.147 257.531 171.158 258.28C171.169 259.029 170.925 259.745 170.467 260.303C168.872 261.609 165.678 258.223 163.799 259.518C163.308 259.944 162.969 260.526 162.833 261.18C162.696 261.834 162.769 262.527 163.04 263.16C164.321 265.983 169.989 264.957 170.722 267.186C170.803 267.858 170.684 268.528 170.383 269.108C170.081 269.689 169.61 270.153 169.03 270.441C166.016 272.019 162.542 266.739 155.718 265.767C151.853 265.227 146.845 266.003 146.491 267.983C145.893 270.895 155.169 278.116 164.521 278.051C169.702 278.007 173.753 275.361 181.529 270.116C193.517 262.056 197.964 255.843 202.01 257.73C202.869 258.142 203.602 258.801 204.114 259.622C204.626 260.444 204.894 261.389 204.882 262.338C204.122 266.421 192.53 265.649 192.469 268.455C192.394 269.713 194.531 271.445 196.755 271.736C201.136 272.421 203.167 267.167 206.609 268.058C207.771 268.423 208.794 269.184 209.502 270.211C210.21 271.237 210.558 272.464 210.485 273.68C209.689 276.906 201.848 278.077 195.551 277.066C189.255 276.054 186.11 272.9 183.062 274.589C180.783 275.867 179.41 279.343 180.483 281.221C182.199 284.273 190.036 283.016 197.789 281.758C203.554 281.143 209.165 279.718 214.466 277.523C225.496 272.535 227.347 266.376 235.086 266.746C238.62 266.927 242.758 268.426 243.049 270.255C243.267 271.576 241.43 272.489 235.865 275.915C225.588 282.236 225.42 283.117 221.524 284.422C215.798 286.369 212.498 285.763 212.429 286.869C212.336 288.463 219.045 292.042 224.201 290.193C226.943 289.185 227.155 287.362 230.514 283.752C235.954 277.853 243.547 273.912 244.855 275.245C245.569 275.959 244.595 278.366 243.322 280.097C240.193 283.96 235.291 282.399 233.992 285.5C233.321 287.14 233.814 289.623 235.036 290.31C237.66 291.824 241.863 284.132 247.047 285.499C248.742 285.948 250.505 287.379 250.514 288.638C250.523 289.896 247.636 291.298 238.066 293.78C222.029 297.897 219.458 297.787 217.362 297.32C211.691 296.29 210.911 294.034 205.14 291.895C194.967 288.116 187.882 291.589 180.202 292.15C167.734 293.041 163.856 285.568 132.896 268.004C111.808 256.074 101.121 250.061 93.9759 249.87C73.9987 249.439 62.5665 264.617 48.7928 257.143C47.5658 256.489 42.3526 253.672 41.8701 249.475Z" fill="#D6D077"/>
</g>
<g clip-path="url(#clip1)">
<path d="M57.2566 317.393C61.2591 315.733 64.6648 322.501 72.1715 326.392C82.5003 331.701 98.0583 330.043 105.744 322.293C110.417 317.583 108.178 314.692 113.98 308.53C120.348 301.828 130.44 297.563 133.596 300.331C134.13 300.783 134.502 301.4 134.661 302.097C134.819 302.793 134.756 303.535 134.481 304.22C133.656 305.492 131.506 304.715 128.511 305.069C120.327 306.036 115.392 314.238 114.791 315.242C114.034 316.55 113.069 318.201 113.67 318.927C114.626 320.113 119.022 316.04 125.422 314.393C135.254 311.911 139.731 317.694 147.564 313.88C150.608 312.391 149.869 311.551 153.554 309.152C163.288 302.816 177.015 303.243 178.685 307.496C178.967 308.452 178.913 309.496 178.531 310.456C178.15 311.416 177.463 312.235 176.585 312.779C174.675 313.581 172.687 311.043 171.658 311.836C170.63 312.63 171.262 315.443 172.395 317.539C173.861 320.262 176.001 321.052 175.574 322.243C175.338 322.656 174.984 322.992 174.561 323.203C174.139 323.413 173.669 323.488 173.219 323.418C170.241 323.004 171.512 315.96 167.21 313.332C165.059 312.018 162.437 312.414 159.113 312.908C158.423 313.014 152.985 313.831 152.842 315.218C152.7 316.604 157.742 316.426 163.993 319.561C171.894 323.492 172.76 327.942 177.431 327.579C180.823 327.307 180.883 324.946 186.285 323.542C189.359 322.717 195.215 321.959 196.609 324.581C196.976 325.367 197.053 326.275 196.827 327.147C196.601 328.02 196.087 328.803 195.371 329.364C194.277 329.98 193.25 329.064 191.091 328.485C187.47 327.536 183.101 328.026 182.687 329.248C182.273 330.47 185.729 333.323 189.414 334.614C193.099 335.905 195.666 335.154 196.342 336.725C196.547 337.515 196.468 338.37 196.118 339.14C195.768 339.911 195.17 340.549 194.426 340.945C193.137 341.584 191.744 340.9 188.944 339.314C183.671 336.312 181.348 334.69 181.348 334.69C172.731 328.701 171.047 328.063 170.086 328.728C169.125 329.393 169.208 331.069 169.24 331.405C169.442 334.479 172.878 335.79 177.508 338.772C182.568 342.031 188.64 345.966 188.057 349.727C187.881 350.641 187.422 351.491 186.747 352.151C186.073 352.811 185.219 353.247 184.311 353.393C182.7 353.415 181.91 351.398 177.234 346.789C176.176 345.724 175.704 345.311 175.355 345.474C174.531 345.882 174.521 349.748 176.536 352.021C178.106 353.8 179.951 353.52 180.162 354.809C180.118 355.675 179.769 356.515 179.179 357.177C178.59 357.839 177.798 358.28 176.946 358.421C174.37 358.692 171.681 354.683 171.085 350.891C170.49 347.098 172.295 346.187 171.602 342.582C171.018 339.663 169.663 339.424 167.574 335.605C164.355 329.734 166.379 328.14 163.845 325.23C162.308 323.458 161.329 323.818 151.26 320.579C145.537 318.749 143.744 317.938 143.195 318.739C141.806 320.409 147.789 327.979 148.166 328.437C150.399 331.241 152.284 332.829 151.707 334.06C151.315 334.929 149.737 335.472 148.459 335.234C143.896 334.367 145.995 324.179 139.872 320.82C137.977 319.781 135.599 319.721 130.822 319.603C127.397 319.518 125.683 319.453 125.223 320.287C124.11 322.35 129.712 329.934 136.926 331.232C138.632 331.517 140.591 331.497 141.001 332.662C141.412 333.828 139.705 336.325 138.028 336.497C136.35 336.669 135.297 334.454 134.345 334.898C133.392 335.343 133.378 336.856 133.646 338.192C134.309 341.484 137.724 341.582 138.262 344.462C138.611 346.38 137.518 348.605 136.485 348.796C134.967 349.08 133.89 344.908 132.426 345.175C130.961 345.441 131.063 350.225 129.548 350.552C128.582 350.78 127.309 349.227 126.678 347.672C124.918 343.364 128.477 339.831 128.592 335.207C128.67 332.262 127.367 328.129 120.931 323.253C115.861 323.563 110.827 324.703 106.025 326.628C99.7241 329.16 100.51 330.411 96.3256 331.426C91.0024 332.689 87.4575 331.205 75.7183 331.752C73.668 331.881 72.5715 331.939 72.3041 332.541C71.4957 334.424 78.7102 340.092 87.13 342.207C89.5079 343.021 92.0549 343.322 94.6126 343.089C102.084 342.046 104.334 335.672 111.324 335.65C113.369 335.671 115.343 336.225 117.055 337.261C118.255 337.991 120.225 339.196 120.12 341.004C120.083 341.656 119.831 342.288 119.405 342.801C118.979 343.313 118.403 343.676 117.77 343.832C116.55 343.828 116.539 341.737 114.558 340.873C113.427 340.387 111.758 340.339 111.006 341.197C110.114 342.27 110.832 344.351 111.134 345.179C111.808 347.079 112.884 347.747 112.483 348.485C112.26 348.838 111.934 349.116 111.554 349.279C111.175 349.441 110.761 349.48 110.372 349.389C108.362 348.934 109.32 344.907 106.778 343.269C105.996 342.892 105.138 342.685 104.255 342.659C103.371 342.633 102.482 342.79 101.639 343.118C99.4315 343.695 96.1708 345.374 96.2311 346.867C96.2915 348.36 99.7579 348.933 106.566 350.347C118.684 352.919 120.625 353.295 124.983 354.033C136.166 355.91 137.413 355.834 138.881 354.91C143.428 352.033 142.971 345.573 147.446 344.326C150.013 343.575 151.736 345.357 153.696 343.957C155.656 342.557 154.669 340.871 156.563 338.57C158.456 336.269 162.25 334.766 164.266 336.009C165.456 336.751 166.108 338.467 165.627 339.325C164.89 340.423 162.406 339.017 160.457 340.591C159.533 341.328 158.795 342.59 159.203 343.197C159.88 344.276 163.835 341.504 165.728 343.036C166.27 343.555 166.604 344.26 166.674 345.029C166.744 345.798 166.544 346.583 166.11 347.249C165.097 348.468 163.151 347.468 159.215 347.576C155.731 347.675 152.273 348.627 149.139 350.35C147.109 351.507 143.261 354.244 143.716 355.776C144.171 357.309 148.196 356.018 155.184 356.818C160.56 357.556 165.802 358.907 170.813 360.845C174.753 362.39 176.42 363.446 179.132 362.918C181.843 362.389 182.356 360.651 186.079 359.233C189.25 358.036 194.018 357.3 195.05 359.167C195.29 359.896 195.283 360.698 195.029 361.451C194.775 362.204 194.288 362.866 193.643 363.336C191.976 364.547 190.401 363.053 187.012 363.883C185.639 364.226 183.094 365.161 183.06 366.183C182.991 367.692 188.439 369.315 193.501 369.278C196.978 369.201 200.448 368.473 203.736 367.13C209.417 364.969 210.12 362.978 214.108 362.644C216.968 362.405 221.061 363.066 221.565 365.216C221.681 365.876 221.577 366.568 221.269 367.187C220.962 367.806 220.467 368.318 219.862 368.644C218.157 369.432 216.966 367.267 213.738 367.201C211.72 367.152 209.232 367.948 208.986 369.063C208.739 370.177 210.504 371.232 213.872 373.372C217.568 375.702 218.79 375.914 218.974 377.118C219.305 379.29 215.994 382.432 214.289 381.983C213.235 381.685 213.503 380.217 212.388 378.218C210.231 374.364 205.572 373.356 204.126 373.04C200.615 372.286 196.239 372.667 195.971 373.783C195.703 374.9 200.743 375.566 205.096 380.401C206.266 381.703 209.73 385.551 208.436 388.742C207.625 390.747 205.098 392.15 203.997 391.606C202.896 391.061 203.712 389.308 203.186 386.81C202.988 385.903 202.381 383.853 199.095 380.75C193.77 375.684 188.897 374.91 179.818 369.568C174.176 366.238 170.778 363.434 168.646 364.877C168.237 365.214 167.9 365.634 167.659 366.106C167.417 366.577 167.277 367.091 167.248 367.61C166.773 371.709 171.809 376.142 176.781 376.751C179.7 377.117 180.375 375.885 183.057 376.63C186.839 377.713 189.743 381.322 189.059 382.589C188.542 383.56 185.927 383.179 185.64 383.126C182.267 382.651 180.976 380.115 179.602 380.786C179.254 380.999 178.973 381.309 178.795 381.678C178.618 382.046 178.553 382.453 178.609 382.846C178.962 385.201 184.865 384.667 185.114 386.563C185.292 387.845 182.918 389.953 180.717 389.937C178.516 389.921 177.621 387.96 175.291 385.178C169.412 378.231 166.389 379.53 164.514 374.777C162.893 370.606 164.981 368.982 163.073 365.809C160.096 361.026 152.453 360.546 151.8 361.776C151.321 362.655 154.66 364.153 155.691 368.638C155.843 369.32 156.481 372.056 155.427 372.787C154.372 373.518 151.281 371.793 149.573 369.385C147.66 366.64 148.437 364.606 147.482 362.555C144.52 356.094 128.056 357.206 127.427 359.692C126.798 362.178 140.118 370.572 141.624 371.494C142.041 371.698 142.404 371.993 142.69 372.358C142.976 372.724 143.177 373.152 143.28 373.613C143.337 374.106 143.233 374.614 142.984 375.061C142.735 375.508 142.355 375.87 141.899 376.092C140.298 376.616 138.326 373.638 138.046 373.858C137.766 374.078 142.442 379.388 141.104 381.512C140.431 382.601 138.098 382.908 136.781 382.039C135.087 380.899 135.984 378.512 134.768 374.554C134.098 372.475 133.068 370.552 131.724 368.87C129.487 366.011 126.586 363.762 123.255 362.304C116.705 359.085 113.947 358.688 106.562 355.702C93.2639 350.46 87.2443 347.887 87.2443 347.887C83.9439 346.483 82.1536 345.717 81.7612 346.235C80.748 347.454 87.2451 354.195 93.1786 358.88C99.5485 363.928 102.722 366.443 106.983 366.481C112.953 366.519 116.038 362.364 120.677 364.283C123.572 365.474 125.387 368.384 124.95 369.051C124.512 369.718 122.988 368.677 119.948 369.015C119.711 369.044 116.889 369.378 116.811 370.055C116.734 370.733 122.212 370.732 123.978 374.075C124.864 375.719 124.739 378.089 123.756 378.735C122.772 379.38 120.219 377.732 117.146 375.424C113.649 372.785 112.365 371.058 109.55 370.8C109.221 370.774 107.12 370.614 106.777 371.401C106.279 372.491 109.436 374.745 110.758 375.679C129.436 389.145 133.381 394.61 139.36 392.675C142.659 391.605 144.816 388.822 149.51 388.994C152.016 389.017 152.746 389.891 154.526 389.269C158.057 388.082 157.755 383.936 161.256 382.271C164.757 380.606 169.218 382.459 169.294 383.841C169.342 384.788 167.15 385.975 165.743 386.454C163.813 387.116 163.04 386.597 161.699 387.462C160.59 388.189 159.556 389.596 159.854 390.524C160.151 391.451 161.372 391.477 162.865 391.831C166.501 392.691 170.637 394.912 170.471 396.444C170.35 397.477 168.249 398.369 166.491 398.474C164.411 398.64 163.353 397.576 160.839 396.207C157.702 394.475 154.198 393.458 150.557 393.224C150.133 393.222 144.842 393.09 144.361 394.627C144.126 395.4 145.176 396.356 151.374 400.21C160.836 406.118 162.559 406.499 164.082 406.652C167.161 406.944 167.673 406.072 171.38 406.659C172.6 406.85 178.661 407.807 178.927 410.501C178.958 410.995 178.842 411.496 178.594 411.939C178.347 412.383 177.978 412.75 177.535 412.993C176.18 413.618 175.043 411.972 171.772 410.86C169.647 410.145 166.966 409.772 166.618 410.471C166.142 411.394 170.503 413.392 170.027 415.716C169.855 416.293 169.52 416.814 169.063 417.214C168.607 417.613 168.05 417.872 167.465 417.957C164.426 418.295 163.773 412.001 158.398 410.172C156.807 409.632 154.383 409.348 153.673 410.365C152.563 411.957 156.046 416.109 157.056 417.3C161.938 423.11 166.791 424.445 166.313 426.212C166.006 427.399 163.416 428.296 161.175 428C155.393 427.315 151.476 418.638 150.567 411.905C150.033 408.061 150.701 406.534 149.211 404.471C147.222 401.746 144.665 402.485 139.572 400.107C133.233 397.125 131.107 393.07 129.845 393.957C128.582 394.845 129.869 399.419 131.38 402.509C132.772 404.994 134.507 407.255 136.536 409.227C141.341 414.335 144.147 415.843 143.602 417.76C143.375 418.369 142.971 418.904 142.445 419.289C141.919 419.675 141.297 419.893 140.665 419.915C136.926 419.856 137.107 410.176 131.64 408.784C130.135 408.399 128.146 408.642 127.47 409.688C126.247 411.556 129.051 416.525 132.447 419.637C134.144 421.192 135.503 421.848 135.347 423.017C135.058 423.846 134.48 424.555 133.725 425.006C132.97 425.456 132.092 425.616 131.262 425.454C130.052 425.087 129.869 423.718 128.817 420.989C126.7 415.498 125.471 415.878 124.973 412.949C124.43 409.654 125.949 409.041 126.352 404.141C126.682 400.845 126.299 397.558 125.229 394.51C123.667 390.594 121.067 389.422 115.42 385.14C114.157 384.09 110.435 380.996 103.236 374.516C98.3923 370.483 93.7894 366.168 89.4485 361.591C82.4452 353.544 80.0954 347.468 78.7389 348.072C77.3825 348.675 79.9787 353.987 79.8964 364.554C79.8885 371.245 78.8729 374.523 80.9079 376.071C82.2078 377.007 84.8965 376.46 90.2164 375.317C95.5363 374.175 97.5771 373.192 99.51 374.325C101.443 375.458 102.328 377.945 101.718 378.819C101.108 379.693 99.5376 378.614 95.668 378.386C94.0175 378.292 90.3661 378.245 90.1804 378.936C89.9948 379.626 93.4814 380.526 98.1087 382.6C104.933 385.676 108.094 388.51 113.246 393.246C115.059 394.898 116.63 396.513 116.397 398.545C116.164 400.577 114.569 402.24 113.418 402.128C112.268 402.017 112.091 400.571 111.581 399.385C109.313 394.099 102.879 391.161 101.9 392.058C100.921 392.955 103.722 397.88 105.77 400.861C108.786 405.223 111.409 406.765 110.752 408.63C110.434 409.313 109.89 409.873 109.22 410.208C108.55 410.543 107.797 410.631 107.097 410.456C106.073 409.913 106.892 408.039 105.578 406.513C104.591 405.363 102.728 404.824 102.164 405.386C101.036 406.509 105.411 410.826 103.822 413.298C103.463 413.823 102.947 414.223 102.357 414.434C101.767 414.645 101.135 414.655 100.562 414.462C99.5066 413.956 99.5983 412.28 99.412 408.416C99.412 408.416 99.2675 404.173 98.8076 400.638C98.6032 397.723 98.0153 394.871 97.0595 392.156C96.1717 389.521 94.7076 387.149 92.7714 385.211C91.8329 384.308 88.1033 380.733 83.8488 381.669C83.3774 381.707 82.9133 381.844 82.4866 382.071C82.06 382.299 81.6801 382.612 81.3716 382.99C80.3423 384.648 82.4226 386.398 83.3581 390.226C84.5099 395.079 82.2079 396.937 83.9207 399.433C84.6498 400.472 85.1017 400.209 89.8959 402.689C95.3109 405.522 95.7326 406.346 95.6766 407.021C95.5439 407.582 95.2316 408.093 94.7895 408.472C94.3473 408.852 93.8008 409.078 93.2367 409.115C91.2877 409.123 90.9475 405.934 88.5472 405.69C88.0764 405.637 87.5935 405.697 87.1369 405.865C86.6802 406.033 86.2626 406.304 85.9174 406.658C85.4108 407.267 85.0069 408.477 87.708 414.948C90.4092 421.418 91.5563 422.001 92.1387 422.258C93.1034 422.629 94.1422 422.799 95.1956 422.759C96.249 422.718 97.2963 422.469 98.2775 422.023C101.636 420.507 101.12 417.997 104.574 416.108C105.903 415.452 107.334 415.067 108.781 414.977C110.228 414.887 111.661 415.093 112.993 415.584C113.74 415.854 115.542 416.466 115.54 417.474C115.537 418.482 113.756 419.619 112.122 419.95C109.767 420.445 108.963 419.076 106.718 419.58C105.042 419.938 103.147 421.166 103.157 422.205C103.167 423.244 105.657 423.521 109.763 425.264C115.602 427.749 116.005 429.835 120.183 430.3C122.706 430.583 122.537 429.804 125.677 430.023C129.148 430.304 132.462 431.395 135.361 433.21C137.507 434.437 142.047 437.037 141.486 439.044C141.175 440.166 139.256 441.002 137.75 440.781C135.739 440.49 135.482 438.463 133.272 436.564C130.24 434.043 126.058 433.7 125.698 434.39C125.338 435.08 128.86 436.895 132.966 442.143C135.426 445.259 135.928 446.851 135.392 448.034C135.208 448.427 134.932 448.772 134.589 449.038C134.246 449.304 133.846 449.482 133.428 449.555C131.266 449.819 129.534 446.318 128.088 443.899C123.32 436.246 114.893 430.869 112.754 432.368C111.585 433.189 111.825 436.522 113.025 438.653C114.434 441.164 116.942 441.558 116.746 442.962C116.52 443.59 116.094 444.135 115.537 444.507C114.981 444.879 114.328 445.057 113.683 445.012C110.608 444.785 109.087 438.203 108.822 437.096C107.867 432.942 108.732 431.106 107.08 429.589C106.07 428.749 104.826 428.539 102.259 428.239C98.9228 427.836 96.534 427.602 95.739 428.652C94.33 430.51 97.7322 435.997 101.563 439.8C105.637 443.826 107.847 443.643 116.128 449.477C123.931 454.974 124.238 456.754 123.946 457.666C123.616 458.302 123.106 458.833 122.486 459.187C121.866 459.54 121.164 459.7 120.476 459.645C117.9 459.565 117.683 456.251 113.547 453.143C112.973 452.665 109.788 450.327 108.804 451.137C107.573 452.175 110.047 457.633 112.257 461.283C115.425 466.514 117.731 467.339 119.219 472.161C119.932 474.527 120.467 477.857 119.59 478.303C119.147 478.533 118.383 477.98 116.77 476.206C112.674 471.646 110.437 467.211 110.195 467.339C109.952 467.467 115.475 478.324 113.177 480.247C112.431 480.864 111.015 480.511 110.208 479.963C107.07 478.2 107.715 473.336 106.754 463.51C106.005 455.859 105.647 452.037 104.089 449.402C101.084 444.349 97.7712 444.666 96.4242 439.65C96.0704 437.216 94.9481 435.004 93.2211 433.34C92.7272 432.929 91.728 432.098 91.2355 432.41C90.0743 433.176 91.1374 440.8 95.7737 445.643C97.0088 446.938 98.4925 448.027 98.1833 449.357C97.9421 450.035 97.4729 450.617 96.861 450.997C96.2491 451.377 95.5352 451.53 94.849 451.429C92.7364 450.909 92.7399 446.419 91.8637 446.515C91.355 446.566 90.8087 448.111 90.8373 449.619C90.8985 453.05 93.8219 454.697 93.2094 455.878C92.7622 456.743 90.6565 457.032 89.2729 456.501C84.5957 454.673 89.307 443.936 85.7318 428.33C83.9899 420.822 81.5993 417.763 78.6912 404.298C78.3505 402.675 77.9855 401.012 77.5839 398.761C76.2835 390.659 75.7223 382.411 75.9072 374.119C75.7368 358.622 75.6182 350.774 74.0171 345.878C71.1454 337.019 66.0414 330.612 65.4091 330.952C64.7768 331.292 67.7959 336.398 69.63 345.384C70.8062 350.978 72.0805 357.273 70.7797 364.889C69.2508 373.738 65.863 374.776 66.8723 380.314C67.6336 384.492 70.4878 389.049 72.4845 392.255C74.6387 395.715 76.686 398.159 75.7512 399.587C75.4585 399.992 75.0414 400.29 74.5713 400.429C74.1012 400.568 73.6073 400.541 73.174 400.351C72.0694 399.577 73.6383 396.965 72.4898 396.01C72.1343 395.776 71.7079 395.665 71.2715 395.695C70.8352 395.725 70.4113 395.893 70.0605 396.175C68.5082 397.482 70.157 400.872 68.8817 401.729C68.4726 401.899 68.0297 401.942 67.6105 401.855C67.1912 401.767 66.8152 401.553 66.5313 401.238C65.0037 399.618 67.717 396.494 67.1225 392.022C66.7797 389.491 65.4045 386.472 64.0946 386.599C62.1537 386.738 59.243 393.861 60.9381 399.742C61.8817 403 64.266 405.085 68.9462 409.058C76.1458 415.187 80.848 416.891 80.3741 419.774C80.2665 420.389 79.9807 420.967 79.5537 421.435C79.1266 421.903 78.5779 422.239 77.9783 422.399C75.2706 422.642 73.707 415.201 71.9277 415.659C71.1217 415.834 70.4079 417.487 70.6182 418.94C70.9611 421.821 74.6315 422.173 74.6784 424.5C74.654 425.296 74.3552 426.076 73.8336 426.703C73.3119 427.331 72.6002 427.767 71.8212 427.936C69.6473 428.005 67.5227 423.271 67.0465 419.124C66.5703 414.977 68.0022 412.437 66.3982 410.815C65.1901 409.604 62.7567 409.354 61.7631 410.362C60.1433 411.983 62.3213 416.7 64.4851 421.364C65.8921 424.888 67.7823 428.172 70.1031 431.125C75.197 437.194 79.4057 437.271 80.5413 442.214C81.0524 444.473 80.8393 447.346 79.7382 447.853C78.9444 448.224 78.0438 447.227 74.9007 444.326C69.0995 438.968 68.5145 439.017 67.0037 436.792C64.7637 433.529 64.5621 431.341 63.8528 431.494C62.832 431.717 61.7626 436.578 63.8397 439.5C64.96 441.05 66.1463 440.861 69.0156 442.34C73.6949 444.725 77.5218 448.813 76.9126 449.873C76.5891 450.449 74.9001 450.261 73.5841 449.765C70.5959 448.476 70.713 445.111 68.5288 444.841C67.377 444.708 65.8989 445.458 65.6822 446.349C65.192 448.271 70.7832 449.559 70.8384 453.068C70.8554 454.216 70.2651 455.58 69.4734 455.808C68.6817 456.036 67.2878 454.465 64.0315 448.873C58.6007 439.494 58.2154 437.854 58.1389 436.451C57.785 432.694 59.0692 431.804 59.3963 427.789C59.979 420.709 56.5371 416.859 54.826 412.118C52.0592 404.418 56.083 400.652 61.6769 378.035C65.4661 362.636 67.3654 354.837 66.2224 350.301C62.9611 337.635 51.3746 333.114 53.6485 323.112C53.8436 322.223 54.697 318.44 57.2566 317.393Z" fill="#CF68C5"/>
</g>
<defs>
<clipPath id="clip0">
<rect width="282.017" height="250.557" fill="white" transform="translate(173.335) rotate(55.4119)"/>
</clipPath>
<clipPath id="clip1">
<rect width="184.594" height="164.002" fill="white" transform="translate(237.727 356.126) rotate(129.737)"/>
</clipPath>
</defs>
</svg>
