<svg width="1440" height="937" viewBox="0 0 1440 937" fill="none" xmlns="http://www.w3.org/2000/svg">
<g clip-path="url(#clip0)">
<path d="M108.935 351.927C101.434 348.4 101.069 335.774 100.65 330.7C99.3155 318.189 92.1261 313.511 58.8815 279.856C35.6883 256.207 23.9451 244.455 18.3102 236.026C11.409 225.701 -10.1816 193.346 2.06126 178.032C6.26999 172.788 14.7258 169.23 20.6331 171.359C30.6996 174.981 25.8242 192.39 33.7758 215.525C39.3587 231.755 48.4258 241.943 66.5437 262.26C85.5522 283.61 90.5998 282.79 106.156 302.668C121.713 322.547 132.067 343.288 126.267 349.291C123.935 351.331 121.018 352.661 117.915 353.101C114.835 353.545 111.715 353.137 108.935 351.927Z" fill="#D24D8A"/>
<path d="M101.491 356.233C98.9047 362.024 88.1952 365.525 83.6623 362.698C79.6228 360.202 83.4309 354.601 80.1971 347.469C74.6159 335.179 57.1929 337.966 52.1427 325.902C50.134 321.117 50.0698 313.973 53.4155 311.847C63.4609 305.499 108.16 341.292 101.491 356.233Z" fill="#D24D8A"/>
<path d="M136.982 342.598C129.527 340.903 123.517 332.923 115.767 297.754C108.781 265.905 105.261 250.004 107.488 234.587C110.713 212.481 120.041 197.014 130.062 180.446C149.388 148.449 159.177 149.771 175.535 118.387C187.256 95.9639 194.034 82.9627 189.921 68.7599C188.297 62.9605 184.341 55.281 187.458 45.9013C189.129 40.8985 193.345 33.6504 198.783 33.0335C206.436 32.4529 213.676 45.0603 216.435 53.9509C220.459 66.646 218.667 81.4712 205.565 107.784C195.36 128.344 188.105 136.069 170.944 160.892C145.066 198.352 132.111 217.087 129.425 234.321C124.97 263.245 135.468 293.204 136.587 296.361C143.96 316.718 155.619 332.935 148.814 340.002C147.203 341.342 145.272 342.283 143.202 342.738C141.132 343.192 138.991 343.143 136.982 342.598Z" fill="#D24D8A"/>
<path d="M163.632 336.852C157.131 335.108 156.667 325.824 151.559 307.71C148.205 295.086 143.586 282.831 137.763 271.108C134.93 265.647 132.009 261.18 119.548 245.438C98.038 218.378 93.3817 214.992 81.9556 199.961C71.3291 186.164 62.0003 171.494 54.071 156.11C43.65 135.606 30.1718 109.079 40.4028 98.8633C42.5699 96.8874 45.2817 95.5372 48.2016 94.9804C51.1215 94.4236 54.1208 94.6847 56.8272 95.7313C66.849 100.147 62.8149 117.102 67.7425 137.55C70.6186 149.723 79.0176 161.818 95.8385 185.97C113.885 211.874 119.329 214.258 138.771 242.398C146.99 254.149 154.481 266.355 161.205 278.957C173.492 302.065 184.25 322.819 175.791 332.444C174.35 334.151 172.453 335.466 170.308 336.243C168.163 337.021 165.853 337.231 163.632 336.852Z" fill="#D24D8A"/>
<path d="M192.668 327.716C184.718 312.931 171.786 244.72 171.786 244.72C167.799 223.695 162.936 233.877 114.38 147.126C105.492 131.259 92.7986 107.889 102.462 91.9526C102.988 91.0861 107.841 83.2528 112.943 83.6997C117.259 84.0852 120.287 90.2421 125.001 107.185C129.714 124.128 131.241 134.583 132.678 140.904C137.343 161.489 147.064 165.426 164.127 192.231C173.38 206.777 178.568 218.739 188.884 242.681C188.884 242.681 215.647 304.703 203.766 327.39C203.045 328.749 200.98 332.705 198.231 332.787C195.482 332.87 193.43 329.004 192.668 327.716Z" fill="#D24D8A"/>
<path d="M225.948 317.859C229.63 313.357 226.891 306.087 226.028 303.483C224.156 297.753 225.843 284.583 229.191 257.907C233.086 226.387 260.38 210.077 292.607 147.945C303.59 126.823 310.355 109.604 310.799 88.7767C311.136 73.765 308.338 47.0909 296.687 44.7263C294.185 44.4621 291.632 44.8711 289.317 45.9067C287.003 46.9423 285.021 48.5626 283.598 50.5828C276.791 60.0267 289.149 71.8257 291.629 89.7383C293.633 104.282 286.067 118.286 270.934 146.293C256.204 173.594 251.519 174.156 236.381 201.79C225.796 221.111 218.872 233.715 214.118 252.748C207.839 278.025 213.827 280.319 214.746 316.026C214.774 317.081 214.832 319.911 216.733 320.973C218.634 322.035 223.728 320.546 225.948 317.859Z" fill="#D24D8A"/>
<path d="M250.917 310.3C237.938 304.273 250.411 279.169 239.368 252.272C235.731 243.346 233.963 244.904 201.857 210.9C182.539 190.355 172.723 179.877 165.437 169.253C165.437 169.253 150.795 147.867 142.506 110.535C140.993 103.704 139.51 94.9562 144.585 90.6572C146.127 89.3619 148.031 88.5245 150.048 88.2553C152.065 87.986 154.1 88.2973 155.886 89.1483C161.397 92.483 158.419 103.075 158.097 111.702C157.499 126.256 166.998 139.418 186.029 165.14C193.985 175.89 196.343 178.106 223.31 209.861C249.561 240.847 252.224 244.51 255.559 251.05C266.221 272.175 273.378 302.725 262.564 309.789C260.793 310.798 258.796 311.374 256.759 311.463C254.722 311.553 252.712 311.153 250.917 310.3Z" fill="#D24D8A"/>
<path d="M281.546 301.719C267.038 297.622 276.853 261.722 264.903 219.192C257.169 191.587 250.906 199.159 238.855 164.132C224.99 123.827 226.951 95.5386 235.008 74.7047C236.589 70.5715 242.684 54.4155 249.431 54.6519C256.177 54.8882 259.418 70.8676 259.798 72.7001C262.885 86.8152 259.16 96.6468 256.689 110.004C254.535 123.888 253.915 137.897 254.84 151.803C256.253 173.893 264.318 179.076 277.237 210.639C280.416 218.411 309 288.241 290.531 300.171C289.221 301.029 287.738 301.613 286.186 301.88C284.634 302.148 283.05 302.093 281.546 301.719Z" fill="#D24D8A"/>
<path d="M307.096 296.218C298.204 292.736 297.408 277.854 296.454 253.947C295.748 236.882 295.363 227.639 297.6 214.284C299.737 201.645 301.777 199.51 312.69 168.838C325.676 131.737 327.989 120.206 336.281 118.446C342.629 117.261 350.406 122.369 352.584 128.232C355.403 135.792 348.802 143.584 342.609 153.669C336.416 163.754 332.401 175.293 324.77 197.29C314.47 227.289 307.899 246.393 313.831 267.686C316.862 278.502 323.107 289.824 318.046 294.651C316.524 295.851 314.691 296.634 312.755 296.911C310.819 297.188 308.858 296.948 307.096 296.218Z" fill="#D24D8A"/>
<path d="M334.106 285.336C329.398 281.526 333.782 272.26 337.484 257.338C346.337 222.771 340.053 208.332 353.331 198.263C353.832 197.904 361.816 191.946 365.767 194.247C369.719 196.549 366.221 207.787 362.704 223.251C354.305 261.225 360.761 277.711 348.625 284.583C343.988 287.226 337.386 287.982 334.106 285.336Z" fill="#D24D8A"/>
</g>
<g clip-path="url(#clip1)">
<path d="M1203.81 181.262C1190.4 233.115 1189.21 277.404 1183.66 277.043C1178.1 276.681 1182.5 240.871 1153.93 220.374C1150.53 217.873 1137.61 208.875 1121.71 209.594C1103.64 210.374 1091.67 223.244 1087.56 234.179C1083.46 245.115 1086.68 254.537 1090.44 265.354C1107.65 314.351 1117.46 322.473 1129.07 355.422C1138.6 382.394 1137.67 393.119 1151.03 401.091C1159.06 405.836 1164.67 405.111 1193.78 411.354C1225.06 418.053 1223.71 419.998 1232.74 420.708C1263.14 423.437 1269.54 400.744 1318.31 377.27C1355.62 359.34 1373.53 362.246 1383.36 344.295C1390.28 332.124 1391.64 312.818 1379.01 302.401C1369.79 294.81 1354 292.768 1343.34 293.837C1334.15 294.612 1328.76 297.561 1327.73 296.373C1325.48 293.729 1355.24 283.089 1362.69 260.58C1367.86 245.04 1362.59 222.979 1346.4 214.751C1333.64 208.253 1317.45 212.043 1311.9 213.334C1295.21 217.199 1287.74 225.967 1285.68 224.565C1281.52 221.689 1322.27 192.467 1317.42 155.182C1317.09 152.869 1312.76 123.58 1286.36 111.897C1274 106.924 1260.26 105.946 1248.01 109.168C1232.94 113.585 1218.12 125.997 1203.81 181.262Z" fill="#84648A"/>
<path d="M1289.15 155.263C1279.05 159.674 1265.09 152.013 1258.42 146.104C1251.76 140.196 1243.45 128.482 1249.31 121.24C1254.54 114.785 1268.01 116.173 1275.4 118.369C1285.26 121.287 1296.78 129.301 1297.57 139.694C1298.02 144.985 1296 152.242 1289.15 155.263Z" fill="#423B44"/>
<path d="M1326.23 224.291C1328.19 223.434 1330.39 222.937 1332.68 222.829C1334.97 222.721 1337.3 223.006 1339.54 223.665C1342.92 224.585 1346.01 226.242 1348.48 228.452C1350.94 230.662 1352.68 233.338 1353.5 236.183C1354.46 239.525 1354.04 242.927 1352.31 245.833C1350.59 248.739 1347.67 250.977 1344.02 252.178C1335.1 254.669 1324.75 249.138 1321 242.083C1319.27 238.866 1318.85 235.362 1319.8 232.136C1320.74 228.909 1323.01 226.146 1326.23 224.291Z" fill="#423B44"/>
<path d="M1354.48 306.618C1362.47 304.812 1370.93 312.577 1372.47 313.984C1374.01 315.391 1383.54 324.221 1379.33 332.411C1378.15 334.642 1376.22 336.503 1373.75 337.794C1371.28 339.086 1368.37 339.758 1365.33 339.739C1355.12 339.427 1347.24 329.922 1346.03 322.148C1345.17 316.533 1347.28 308.259 1354.48 306.618Z" fill="#423B44"/>
<path d="M1133.09 240.511C1128.91 244.222 1123.02 246.349 1116.62 246.469C1114.09 246.509 1104.59 246.593 1100.75 241.914C1096.07 236.254 1101.59 226.435 1109.37 221.856C1117.15 217.278 1132.28 215.89 1137.59 221.796C1142.34 227.018 1138.16 235.897 1133.09 240.511Z" fill="#423B44"/>
</g>
<g clip-path="url(#clip2)">
<path d="M-75 832.818C-55.7804 821.877 -27.8459 806.119 6.02836 787.632C153.249 707.199 261.563 648.064 355.716 614.682C538.082 550.035 701.28 569.969 785.965 581.273C992.167 608.78 1135.83 691.524 1208.9 734.567C1303.14 790.121 1390.52 858.128 1469 937V512.505C1373.91 442.449 1271.96 383.79 1164.96 337.579C1079.21 300.578 963.74 251.855 806.118 235.401C698.79 224.265 615.583 232.45 518.032 242.167C392.884 254.612 330.323 260.848 256.843 288.467C183.362 316.085 140.28 346.627 37.1532 374.914C0.214729 385.046 -37.2299 392.919 -75 398.495L-75 832.818Z" fill="#494034"/>
<path d="M-75 832.819C-55.7804 821.877 -27.8459 806.119 6.02836 787.632C153.249 707.199 261.563 648.064 355.716 614.683C538.082 550.035 701.28 569.97 785.965 581.273C992.167 608.78 1135.83 691.524 1208.9 734.567C1303.14 790.121 1390.52 858.129 1469 937V792.532C1392.96 730.958 1313.43 674.517 1230.87 623.536C1072.24 525.535 989.885 472.219 868.368 449.612C827.257 441.928 741.275 444.489 568.999 449.612C387.437 455.013 339.946 464.925 313.594 471.217C290.509 476.785 190.936 501.842 71.9352 568.494C20.4017 597.378 -28.7534 630.908 -75 668.722L-75 832.819Z" fill="#322C22"/>
</g>
<path d="M636.891 355.771C636.159 350.051 735.172 343.307 840.932 348.508C938.86 353.428 1024.12 367.877 1023.01 372.346C1022.25 375.438 981.265 370.906 911.968 376.48C864.003 380.321 862.362 384.168 833.311 383.748C800.007 383.272 790.232 377.953 727.462 368.393C663.139 358.591 637.269 358.66 636.891 355.771Z" fill="#974F27"/>
<path d="M1113 558.588C1112.34 554.357 1178.64 545.723 1249.83 546.007C1315.74 546.262 1373.46 554.129 1372.74 557.367C1372.33 559.696 1344.58 557.765 1298.3 564.354C1266.22 568.898 1265.22 571.852 1245.7 572.562C1223.25 573.357 1216.59 569.722 1174.13 564.751C1130.73 559.696 1113.34 560.633 1113 558.588Z" fill="#974F27"/>
<path d="M827.747 441.5C827.183 430.154 967.432 417.229 1116.23 428.757C1254.1 439.436 1373.14 469.053 1371.23 477.942C1369.92 484.083 1312.42 474.731 1214.24 485.211C1146.27 492.471 1143.63 500.195 1102.68 499.078C1055.56 497.797 1042.34 487.157 954.544 467.493C864.564 447.529 828.045 447.302 827.747 441.5Z" fill="#974F27"/>
<defs>
<clipPath id="clip0">
<rect width="359" height="289" fill="white" transform="translate(-29 96.856) rotate(-15.652)"/>
</clipPath>
<clipPath id="clip1">
<rect width="315" height="315" fill="white" transform="translate(1126.12 72.584) rotate(13.5001)"/>
</clipPath>
<clipPath id="clip2">
<rect width="1544" height="707" fill="white" transform="translate(-75 230)"/>
</clipPath>
</defs>
</svg>
