<svg width="525" height="1129" viewBox="0 0 525 1129" fill="none" xmlns="http://www.w3.org/2000/svg">
<g clip-path="url(#clip0)">
<path d="M433.756 483.038C433.976 475.755 435.598 468.523 438.528 461.765C441.035 456.554 443.402 454.617 443.158 450.658C442.915 446.699 439.281 440.715 434.961 441.044C430.641 441.374 427.608 447.069 427.38 451.441C427.152 455.813 429.879 457.206 432.066 462.251C436.4 472.447 433.148 483.036 433.756 483.038Z" fill="#758A29"/>
<path d="M411.893 439.306C407.574 437.413 403.792 434.475 400.852 430.728C398.507 427.519 398.063 425.196 395.664 424.56C394.103 424.141 392.418 424.351 390.943 425.15C389.469 425.949 388.311 427.277 387.699 428.874C387.371 430.587 387.581 432.339 388.298 433.868C389.016 435.397 390.202 436.622 391.682 437.36C394.126 438.501 395.738 436.724 399.377 436.122C403.836 435.739 408.226 436.856 411.893 439.306Z" fill="#758A29"/>
<path d="M504.281 629.13C504.654 621.838 506.453 614.632 509.57 607.948C512.231 602.792 514.66 600.999 514.378 596.752C514.097 592.504 510.785 586.665 506.434 586.923C502.083 587.18 498.936 592.714 498.601 597.139C498.267 601.565 501.101 602.904 503.003 608.092C507.253 618.594 503.745 629.093 504.281 629.13Z" fill="#758A29"/>
<path d="M529.583 692.988C519.867 642.093 493.17 592.805 479.416 566.675C466.139 541.447 450.19 511.154 435.032 476.69C410.192 420.191 414.275 413.617 393.655 363.555C358.581 278.454 339.625 280.002 316.779 210.914C297.048 151.407 294.523 100.01 291.125 100.666C288.709 101.091 288.76 127.092 291.751 151.482C299.658 215.796 325.637 247.538 355.96 306.588C391.754 376.361 374.057 368.322 420.467 467.778C453.296 538.208 462.551 543.164 480.888 593.058C493.094 626.111 507.873 658.001 520.292 690.947C523.322 699.035 529.946 716.813 531.925 716.081C533.904 715.349 530.54 697.993 529.583 692.988Z" fill="#3CAA35"/>
<path d="M502.726 623.241C496.615 630.133 453.92 600.611 425.958 576.889C383.244 540.925 350.537 498.962 358.395 487.504C360.819 484.002 368.236 481.719 374.4 479.848C379.571 478.204 384.908 477.322 390.249 477.229C404.474 477.359 415.07 495.904 425.819 512.003C448.143 545.408 449.768 536.164 478.043 577.899C496.569 605.14 506.194 619.346 502.726 623.241Z" fill="#50AE32"/>
<path d="M267.135 248.614C298.145 294.459 328.272 298.089 382.662 359.385C400.653 379.696 412.648 396.572 407.286 407.389C402.345 417.38 384.753 417.978 381.345 418.113C318.223 420.328 267.56 307.563 249.354 267.565C227.282 218.453 225.987 194.877 226.624 179.854C228.962 129.478 256.401 91.229 258.295 91.9001C260.189 92.5712 234.579 132.841 240.175 182.429C243.595 212.704 257.191 233.471 267.135 248.614Z" fill="#399236"/>
<path d="M309.747 500.52C311.475 515.1 324.11 522.657 347.964 536.903C362.051 545.31 382.716 550.802 424.083 561.769C438.815 565.769 448.366 567.811 456.526 562.346C465.583 556.254 471.16 542.432 467.55 533.407C464.874 526.634 457.648 524.256 452.742 522.335C431.89 514.215 415.076 499.017 381.555 468.568C365.275 453.803 363.677 449.516 356.032 448.973C335.109 447.384 306.841 476.526 309.747 500.52Z" fill="#2B7130"/>
<path d="M469.916 567.547C464.082 563.804 459.081 558.86 455.205 553.003C452.382 548.191 452.127 545.203 448.687 543.466C445.248 541.729 438.294 541.979 436.124 545.968C433.953 549.956 436.868 555.381 440.348 557.712C443.828 560.043 446.494 558.395 451.969 558.932C462.767 559.952 469.598 568.014 469.916 567.547Z" fill="#758A29"/>
<path d="M406.487 394.055C400.404 370.572 398.138 346.032 399.779 321.413C400.699 315.254 401.183 309.055 401.227 302.866C400.478 286.329 395.261 270.558 386.168 257.335C378.585 246.667 369.124 237.611 358.246 230.608C344.392 221.338 336.567 220.578 333.044 211.554C330.553 204.907 332.378 198.722 335.901 186.46C339.726 173.728 345.311 161.558 352.478 150.34C364.406 131.48 372.08 127.795 371.87 117.016C371.76 109.566 368.107 107.235 369.858 100.78C372.866 89.8304 386.309 85.6577 385.467 83.3162C384.625 80.9746 375.322 81.0024 367.527 86.1087C353.313 95.4973 360.217 113.223 347.008 137.423C335.683 158.174 325.099 155.247 319.436 172.667C312.226 194.815 323.894 216.332 325.796 219.72C334.109 234.499 341.076 232.179 359.269 252.257C371.383 265.607 380.642 275.871 383.679 291.372C387.666 311.662 375.75 314.76 377.085 338.227C378.735 368.119 398.581 370.82 397.249 399.93C396.755 410.186 393.858 419.192 399.393 427.863C403.914 434.893 412.759 439.704 416.063 437.032C420.395 433.932 412.841 421.405 406.487 394.055Z" fill="#2C692D"/>
<path d="M541.317 231.429C529.184 238.551 519.011 248.89 511.902 261.323C502.906 278.05 504.535 291.802 503.131 310.151C500.762 340.968 492.816 346.326 482.988 385.02C472.947 424.524 471.945 455.093 470.481 499.191C468.68 555.003 473.322 592.695 470.998 593.03C468.673 593.365 466.353 566.224 456.245 517.325C446.031 467.777 443.885 471.622 443.22 456.595C441.874 421.81 453.839 415.528 466.619 353.359C475.854 308.599 471.329 303.458 481.549 284.755C502.164 246.955 541.036 230.78 541.317 231.429Z" fill="#499E35"/>
</g>
<g clip-path="url(#clip1)">
<path d="M410.951 794.11C404.691 790.969 397.667 789.206 390.29 788.926C384.458 788.948 381.465 790.343 378.271 788.285C375.077 786.227 372.129 779.961 374.892 775.939C377.656 771.917 384.198 771.609 388.011 773.402C391.824 775.195 391.428 778.471 394.417 782.906C400.51 791.788 411.299 793.522 410.951 794.11Z" fill="#758A29"/>
<path d="M386.704 752.852C387.594 747.808 387.296 742.802 385.834 738.236C384.48 734.493 382.78 732.995 383.624 730.384C384.17 728.682 385.317 727.152 386.838 726.095C388.359 725.038 390.145 724.531 391.841 724.675C393.473 725.146 394.828 726.156 395.702 727.553C396.577 728.95 396.926 730.661 396.696 732.43C396.25 735.316 393.825 736.056 391.225 739.295C388.336 743.426 386.75 748.182 386.704 752.852Z" fill="#758A29"/>
<path d="M493.394 929.513C487.039 926.515 479.934 924.935 472.512 924.869C466.638 925.066 463.731 926.587 460.316 924.36C456.901 922.132 453.889 916.244 456.61 912.159C459.331 908.074 465.802 907.581 469.721 909.295C473.641 911.01 473.138 914.365 476.412 918.591C482.811 927.532 493.671 928.977 493.394 929.513Z" fill="#758A29"/>
<path d="M532.612 983.36C495.342 950.539 469.198 902.053 455.108 876.733C441.503 852.29 425.171 822.934 404.87 792.421C371.585 742.409 363.699 743.326 333.406 700.354C281.923 627.285 294.136 609.683 249.101 555.801C210.343 509.339 168.512 483.236 171.021 480.254C172.769 478.116 194.636 490.137 213.455 504.256C263.066 541.508 274.846 581.222 307.125 637.707C345.285 704.414 348.699 683.615 405.747 774.245C446.166 838.391 445.014 849.614 476.48 890.303C497.29 917.314 515.642 946.276 536.239 973.444C541.307 980.095 552.467 994.68 550.711 996.255C548.956 997.83 536.276 986.588 532.612 983.36Z" fill="#3CAA35"/>
<path d="M489.33 925.298C498.652 922.568 498.36 867.726 494.475 829.789C488.77 771.962 472.253 721.041 458.082 723.358C453.737 724.088 447.547 730.202 442.423 735.295C438.063 739.535 434.249 744.285 431.097 749.402C423.02 763.205 432.54 781.981 439.912 799.778C455.196 836.727 446.476 834.041 465.351 880.575C477.63 911.015 484.055 926.855 489.33 925.298Z" fill="#50AE32"/>
<path d="M309.421 525.197C330.183 576.266 315.902 607.043 336.221 687.813C342.972 714.547 350.281 733.906 362.477 733.706C373.734 733.532 384.362 716.812 386.436 713.581C424.628 653.617 358.819 552.75 335.613 516.744C306.955 472.807 287.846 460.701 274.828 454.399C231.059 433.463 183.056 442.362 182.532 444.501C182.007 446.639 230.658 440.438 269.198 468.677C292.726 485.92 302.391 508.617 309.421 525.197Z" fill="#399236"/>
<path d="M497.04 682.351C508.324 690.734 507.416 706.42 505.686 736.025C504.659 753.506 497.391 776 482.821 821.015C477.711 837.09 473.934 847.258 464.636 852.625C454.293 858.57 439.444 857.594 433.92 849.952C429.757 844.248 431.913 836.171 433.119 830.547C438.28 806.663 435.158 783.421 428.806 737.015C425.741 714.488 423.051 710.97 426.992 703.334C437.696 682.388 478.506 668.496 497.04 682.351Z" fill="#2B7130"/>
<path d="M461.31 867.957C461.515 860.597 460.229 853.489 457.528 847.047C455.099 842.105 452.73 840.482 453.247 836.359C453.763 832.237 457.976 825.634 462.584 825.373C467.192 825.113 470.083 830.426 470.043 834.862C470.003 839.298 467.081 841.114 464.383 846.651C459.028 857.553 461.886 867.865 461.31 867.957Z" fill="#758A29"/>
<path d="M351.707 726.795C335.431 710.106 316.069 696.617 294.392 686.867C288.676 684.92 283.177 682.534 277.939 679.726C264.444 671.389 254.165 659.088 248.262 644.214C243.642 631.976 241.46 618.665 241.823 604.932C241.989 587.279 245.853 579.369 240.28 571.81C236.116 566.343 229.857 565.258 217.504 563.016C204.579 560.85 191.116 560.642 177.545 562.401C154.797 565.241 147.277 570.959 138.321 565.793C132.11 562.257 132.25 557.653 125.806 556.373C114.853 554.239 103.603 565.305 102.116 563.413C100.628 561.522 106.006 552.546 114.792 547.366C130.879 537.956 141.833 552.788 169.815 551.169C193.807 549.782 197.434 538.208 215.363 540.758C238.164 543.99 249.57 565.17 251.328 568.568C258.99 583.404 253.027 589.067 259.466 615.888C263.737 633.738 267.052 647.409 278.359 657.481C293.152 670.675 302.617 660.589 321.612 672.684C345.836 688.042 336.69 708.458 361.971 720.575C370.892 724.82 380.144 726.167 384.261 735.507C387.579 743.112 386.541 753.873 382.389 755.835C377.285 758.592 371.083 745.527 351.707 726.795Z" fill="#2C692D"/>
<path d="M137.157 782.18C150.138 773.737 164.699 768.669 179.261 767.526C198.525 766.535 209.169 774.441 225.43 781.533C252.745 793.434 261.83 788.224 300.072 796.545C339.119 805.033 365.439 818.139 403.419 837.03C451.457 860.987 480.527 882.826 482.147 880.734C483.768 878.643 462.246 863.905 426.882 831.625C391.035 798.943 395.508 798.64 383.236 791.079C354.715 773.762 342.539 782.429 282.829 766.153C239.82 754.466 238.094 747.727 216.463 748.989C172.765 751.501 136.773 781.61 137.157 782.18Z" fill="#499E35"/>
</g>
<defs>
<clipPath id="clip0">
<rect width="321.091" height="681.677" fill="white" transform="matrix(-0.893338 0.449385 0.397755 0.917492 440.986 0)"/>
</clipPath>
<clipPath id="clip1">
<rect width="355.705" height="663.183" fill="white" transform="matrix(0.805704 -0.592318 0.558921 0.829221 0 578.69)"/>
</clipPath>
</defs>
</svg>
