<svg width="356" height="559" viewBox="0 0 356 559" fill="none" xmlns="http://www.w3.org/2000/svg">
<g clip-path="url(#clip0)">
<path d="M-11.7317 144.898C-12.2356 140.766 -7.05805 136.053 -5.04942 134.055C-0.175636 129.015 -0.116613 124.584 5.17784 99.7402C8.94243 82.3462 10.7558 73.6195 12.7911 68.4216C15.2848 62.0546 23.1077 42.1168 32.731 41.2285C36.0309 40.9303 39.7455 42.8597 40.4133 45.8791C41.5538 51.0223 32.9974 55.4735 25.4304 66.8806C20.1229 74.885 18.2575 82.0264 14.5468 96.282C10.6394 111.251 12.3123 112.875 8.11 125.996C3.90765 139.118 -2.02658 150.572 -6.0627 150.54C-7.5291 150.391 -8.85355 149.763 -9.85527 148.741C-10.8524 147.73 -11.5043 146.395 -11.7317 144.898V144.898Z" fill="#D24D8A"/>
<path d="M-15.4928 143.625C-18.5931 144.739 -22.8781 141.931 -22.8922 139.182C-22.9144 136.74 -19.5711 136.16 -17.4449 132.346C-13.7826 125.77 -19.5386 120.148 -15.831 113.856C-14.3618 111.358 -11.3951 108.746 -9.62532 109.249C-4.32605 110.772 -7.49452 140.751 -15.4928 143.625Z" fill="#D24D8A"/>
<path d="M-0.443083 152.193C-1.70024 148.742 0.0485206 143.564 12.6952 127.874C24.1564 113.677 29.8702 106.577 36.8963 101.84C46.9799 95.059 55.8985 93.0059 65.4599 90.8178C83.918 86.5815 85.9459 90.7865 103.366 85.6426C115.821 81.9802 123.038 79.8501 127.886 73.1397C129.88 70.4204 132.045 66.133 136.784 63.9214C139.314 62.7451 143.453 61.7236 145.144 63.57C147.403 66.2723 144.046 73.5949 141.059 77.8653C136.818 83.996 130.153 88.6847 115.71 93.2303C104.432 96.7945 99.2938 96.8317 84.4027 99.2931C61.9355 103.015 50.696 104.871 42.7897 110.092C29.5343 118.875 19.7885 133.723 18.7644 135.293C12.2053 145.474 8.50466 155.785 3.75959 155.756C2.77532 155.628 1.87298 155.234 1.13768 154.611C0.402381 153.987 -0.141646 153.155 -0.443083 152.193V152.193Z" fill="#D24D8A"/>
<path d="M8.98118 160.253C7.99607 157.148 11.7514 153.608 17.9708 145.102C22.3597 139.252 26.2609 133.055 29.6225 126.592C31.1568 123.535 32.2524 120.805 35.5432 110.361C41.1761 92.3712 41.3632 89.3723 44.6297 79.5786C47.5913 70.5364 51.2599 61.6715 55.5954 53.0808C61.4127 41.6869 68.9401 26.9475 75.9036 27.1405C77.3001 27.2494 78.5788 27.7924 79.5809 28.7019C80.5831 29.6115 81.2646 30.8475 81.5408 32.2567C82.3378 37.6706 74.1929 42.2773 66.951 51.5602C62.6249 57.0645 59.7869 64.6426 54.1325 79.7938C48.0695 96.0461 48.5089 98.9816 41.8795 116.575C39.1381 123.96 36.0142 131.232 32.523 138.357C26.1095 151.404 20.2768 163.017 14.0269 163.284C12.9343 163.355 11.8852 163.109 10.9951 162.574C10.1049 162.039 9.40809 161.236 8.98118 160.253V160.253Z" fill="#D24D8A"/>
<path d="M20.4503 167.995C24.5302 159.613 49.6118 129.981 49.6118 129.981C57.3424 120.847 51.8081 122.685 75.2441 72.7787C79.5288 63.648 85.9441 50.3511 95.1473 48.2558C95.6478 48.1419 100.199 47.1511 101.357 49.2547C102.333 51.0372 100.56 54.4199 94.7256 62.3516C88.8914 70.2834 84.9268 74.6519 82.6654 77.4888C75.2974 86.7211 76.2149 91.8471 69.5164 108.052C65.8799 116.842 62.2511 123.15 54.9699 135.75C54.9699 135.75 36.1189 168.403 23.5117 172.101C22.7538 172.318 20.5573 172.966 19.7983 171.949C19.0393 170.933 20.1132 168.751 20.4503 167.995Z" fill="#D24D8A"/>
<path d="M33.3388 177.09C36.19 176.86 38.5047 173.184 39.3649 171.913C41.2646 169.124 47.2101 164.995 59.2344 156.606C73.4261 146.67 87.4327 151.149 121.877 140.906C133.594 137.434 142.57 133.771 151.386 126.395C157.745 121.085 168.148 110.357 166.065 105.066C165.516 104.019 164.672 103.195 163.63 102.689C162.587 102.183 161.388 102.016 160.169 102.206C154.43 103.037 152.759 112.015 145.932 119.448C140.385 125.479 132.542 127.672 116.855 132.059C101.57 136.343 100.1 134.764 84.5684 139.013C73.7081 141.984 66.6189 143.915 57.4162 149.001C45.204 155.768 45.8237 158.877 31.1522 172.163C30.7189 172.556 29.5523 173.603 29.6096 174.711C29.6669 175.819 31.6318 177.218 33.3388 177.09Z" fill="#D24D8A"/>
<path d="M43.0773 183.855C42.174 176.732 55.9469 172.384 64.2705 158.438C67.0401 153.82 65.9232 153.712 71.6638 129.174C75.1532 114.38 76.9423 106.848 79.4596 100.226C79.4596 100.226 84.5323 86.9065 97.9403 70.2279C100.395 67.1773 103.658 63.4441 106.791 63.8182C107.738 63.9357 108.59 64.3572 109.234 65.0272C109.878 65.6973 110.285 66.5846 110.4 67.5726C110.459 70.8777 105.251 73.5814 101.562 76.5845C95.326 81.6288 92.3322 90.0126 86.6047 106.574C84.2117 113.495 83.9073 115.196 77.752 136.962C71.7289 158.178 70.9007 160.519 69.0483 164.157C63.0353 175.868 52.1615 189.659 46.3609 188.102C45.4727 187.794 44.7056 187.242 44.1313 186.499C43.557 185.756 43.1944 184.846 43.0773 183.855V183.855Z" fill="#D24D8A"/>
<path d="M54.7342 192.403C52.6214 185.397 70.203 176.127 84.8171 156.172C94.3085 143.228 89.4955 143.588 100.949 126.312C114.129 106.435 126.461 96.9332 137.287 92.4525C139.43 91.5568 147.784 88.0238 149.464 90.677C151.143 93.3302 145.323 100.352 144.658 101.161C139.576 107.449 134.488 109.593 128.257 113.492C121.89 117.701 115.876 122.54 110.311 127.93C101.457 136.47 101.418 141.417 91.6403 157.768C89.2323 161.793 67.5996 197.969 57.7491 195.262C57.0452 195.074 56.4107 194.721 55.8899 194.227C55.369 193.733 54.9746 193.11 54.7342 192.403Z" fill="#D24D8A"/>
<path d="M63.7664 200.133C62.8771 195.488 68.8831 189.794 78.6173 180.77C85.5587 174.32 89.3177 170.825 95.4854 166.838C101.328 163.073 102.757 163.076 118.444 156.118C137.363 147.62 142.79 144.323 145.71 146.841C147.878 148.828 147.795 153.638 145.919 156.591C143.505 160.402 138.511 160.713 132.666 162.009C126.822 163.306 120.944 165.958 109.745 171.022C94.5001 177.97 84.7887 182.39 77.459 192.361C73.7402 197.432 70.6571 203.911 67.3073 203.733C66.4049 203.589 65.5945 203.175 64.9685 202.539C64.3424 201.902 63.9259 201.069 63.7664 200.133V200.133Z" fill="#D24D8A"/>
<path d="M75.4307 206.471C75.781 203.299 80.8068 201.611 88.0152 197.614C104.786 188.461 109.161 180.839 116.866 182.245C117.148 182.305 121.741 183.185 121.821 185.523C121.902 187.86 116.286 190.6 108.9 194.864C90.8252 205.424 85.6411 213.853 79.5721 211.724C77.2456 210.917 75.19 208.678 75.4307 206.471Z" fill="#D24D8A"/>
</g>
<path d="M82.9923 212.836C70.4176 171.713 -6.92856 139.342 -44.0298 128.296C-47.8532 251.778 -55.5 500.441 -55.5 507.239C-55.5 515.735 -7.07017 534.427 10.3476 535.702C27.7653 536.976 50.281 495.768 53.2547 472.828C56.2285 449.887 108.907 397.209 120.377 385.739C131.847 374.269 148.84 308.421 148.84 298.65C148.84 288.88 98.7108 264.24 82.9923 212.836Z" fill="#14232C"/>
<g clip-path="url(#clip1)">
<path d="M75.3851 299.037C74.6262 292.725 85.5357 290.597 94.0069 281.536C105.6 269.051 109.424 246.418 101.524 232.491C96.7235 224.023 91.752 226.039 85.3482 215.401C78.4059 203.751 76.3809 187.805 81.5424 184.444C82.3925 183.869 83.4114 183.588 84.4583 183.64C85.5052 183.693 86.5283 184.075 87.3863 184.736C88.8567 186.405 86.9058 189.134 86.2197 193.505C84.3408 205.448 93.9706 215.669 95.1506 216.917C96.698 218.505 98.6476 220.522 99.9112 219.961C101.966 219.081 97.9543 211.256 98.1652 201.564C98.5571 186.692 108.5 182.66 106.217 170.085C105.32 165.195 103.84 165.905 101.912 159.75C96.8216 143.49 102.865 124.269 109.534 123.596C110.997 123.577 112.45 124.067 113.654 124.987C114.859 125.906 115.744 127.2 116.164 128.656C116.541 131.672 112.167 133.474 112.88 135.242C113.593 137.009 117.818 137.231 121.227 136.462C125.654 135.471 127.619 132.761 129.132 133.836C129.622 134.333 129.955 134.966 130.086 135.647C130.216 136.327 130.136 137.02 129.857 137.628C128.092 141.67 118.648 137.083 113.23 142.118C110.521 144.635 110.042 148.496 109.421 153.386C109.298 154.404 108.297 162.409 110.198 163.159C112.1 163.91 113.848 156.717 120.754 149.131C129.437 139.528 136.065 140.069 137.405 133.327C138.366 128.429 135.054 127.408 135.211 119.222C135.265 114.552 136.515 105.98 140.771 105.051C142.028 104.844 143.34 105.095 144.483 105.76C145.626 106.424 146.529 107.462 147.037 108.695C147.472 110.485 145.773 111.571 144.099 114.393C141.324 119.13 140.283 125.496 141.846 126.566C143.408 127.635 148.807 123.884 152.091 119.19C155.376 114.496 155.332 110.572 157.819 110.242C159.017 110.265 160.192 110.715 161.142 111.515C162.092 112.314 162.756 113.412 163.02 114.62C163.412 116.694 161.894 118.39 158.545 121.716C152.213 127.975 149.002 130.613 149.002 130.613C137.126 140.411 135.558 142.538 136.116 144.158C136.675 145.778 139.075 146.326 139.562 146.414C143.985 147.347 147.198 143.013 153.246 137.656C159.855 131.8 167.819 124.783 172.901 127.096C174.122 127.708 175.141 128.693 175.806 129.908C176.471 131.122 176.747 132.501 176.594 133.842C175.986 136.125 172.824 136.442 164.461 141.22C162.538 142.292 161.767 142.795 161.859 143.353C162.108 144.679 167.566 146.225 171.574 144.28C174.71 142.767 175.046 140.05 176.949 140.263C178.155 140.669 179.203 141.494 179.904 142.589C180.606 143.685 180.915 144.978 180.777 146.238C180.138 149.983 173.411 152.192 167.817 151.531C162.224 150.869 161.653 147.957 156.286 147.507C151.932 147.176 151.056 148.994 144.835 150.432C135.266 152.652 133.817 149.161 128.702 151.586C125.589 153.055 125.71 154.581 117.145 167.52C112.29 174.878 110.435 177.09 111.348 178.183C113.156 180.805 126.22 175.356 127.016 175.004C131.863 172.962 134.853 170.928 136.363 172.231C137.435 173.13 137.577 175.574 136.734 177.285C133.701 183.387 120.142 176.384 112.971 183.701C110.752 185.965 109.725 189.3 107.665 196.002C106.187 200.806 105.416 203.201 106.411 204.182C108.885 206.572 121.817 201.664 126.511 191.989C127.589 189.692 128.337 186.917 130.145 186.799C131.954 186.682 134.805 190.082 134.383 192.52C133.961 194.957 130.415 195.566 130.666 197.088C130.917 198.61 133.048 199.23 135.041 199.381C139.954 199.75 141.445 194.965 145.727 195.345C148.574 195.613 151.283 198.038 151.145 199.574C150.944 201.83 144.624 201.698 144.42 203.872C144.216 206.046 151.014 207.798 150.875 210.068C150.814 211.523 148.116 212.706 145.67 212.98C138.887 213.759 135.307 207.332 128.821 205.336C124.693 204.059 118.338 204.261 108.9 211.419C107.328 218.703 106.943 226.266 107.759 233.812C108.838 243.715 110.917 243.101 110.691 249.414C110.366 257.433 106.865 261.853 102.984 278.651C102.354 281.598 102.001 283.17 102.745 283.786C105.085 285.675 115.95 277.731 122.275 266.676C124.368 263.64 125.801 260.161 126.487 256.456C127.974 245.489 119.862 239.785 122.603 229.902C123.442 227.022 125.009 224.454 127.15 222.446C128.656 221.04 131.139 218.735 133.652 219.6C134.557 219.911 135.351 220.517 135.906 221.323C136.461 222.128 136.746 223.085 136.715 224.041C136.225 225.763 133.268 224.949 131.262 227.406C130.128 228.809 129.398 231.148 130.312 232.551C131.474 234.236 134.697 234.047 135.987 233.948C138.937 233.75 140.307 232.494 141.192 233.353C141.602 233.809 141.866 234.379 141.945 234.979C142.024 235.58 141.914 236.18 141.632 236.693C140.192 239.352 134.885 236.403 131.562 239.343C130.721 240.298 130.088 241.429 129.701 242.666C129.315 243.904 129.183 245.223 129.313 246.543C129.252 249.89 130.332 255.161 132.464 255.667C134.597 256.174 136.781 251.505 141.476 242.449C149.912 226.351 151.213 223.76 153.983 217.895C161.066 202.844 161.453 201.052 160.73 198.613C158.469 191.05 149.163 189.134 149.175 182.32C149.131 178.396 152.332 176.669 151.132 173.345C149.931 170.021 147.158 170.747 144.658 167.161C142.159 163.575 141.539 157.619 144.094 155.264C145.613 153.877 148.296 153.638 149.317 154.656C150.575 156.133 147.606 159.084 149.057 162.461C149.732 164.058 151.222 165.601 152.241 165.265C154.032 164.736 151.685 158.051 154.599 155.985C155.547 155.425 156.675 155.232 157.789 155.439C158.903 155.645 159.933 156.238 160.702 157.115C162.022 159.029 159.838 161.382 158.431 166.984C157.19 171.945 157.164 177.206 158.356 182.316C159.185 185.642 161.525 192.162 163.87 192.127C166.214 192.092 165.987 185.894 169.887 176.341C173.06 169.04 177.046 162.17 181.77 155.862C185.514 150.908 187.666 148.972 187.995 144.932C188.323 140.893 186.072 139.48 185.544 133.658C185.109 128.705 185.961 121.678 189.007 120.962C190.131 120.91 191.261 121.239 192.224 121.896C193.187 122.553 193.929 123.504 194.337 124.601C195.387 127.436 192.653 129.067 192.481 134.184C192.421 136.259 192.733 140.224 194.164 140.678C196.268 141.374 200.72 134.321 202.674 127.156C203.943 122.215 204.29 117.025 203.697 111.849C202.896 102.968 200.362 101.184 201.472 95.4205C202.267 91.2853 204.823 85.7664 208.06 85.9065C209.038 86.0042 209.974 86.4253 210.727 87.1052C211.48 87.7852 212.006 88.6865 212.226 89.671C212.665 92.3909 209.134 93.2154 207.762 97.7487C206.892 100.579 207.031 104.409 208.507 105.199C209.984 105.989 212.173 103.914 216.531 100.005C221.287 95.7089 222.071 94.0667 223.845 94.2842C227.044 94.6769 230.169 100.599 228.859 102.83C228.02 104.199 226.054 103.239 222.788 104.023C216.489 105.542 213.219 111.723 212.199 113.64C209.742 118.3 208.546 124.632 210.017 125.454C211.488 126.275 214.427 119.419 222.981 115.187C225.284 114.051 232.092 110.684 236.087 113.775C238.597 115.716 239.578 119.841 238.373 121.181C237.167 122.521 235.014 120.672 231.277 120.425C229.918 120.345 226.781 120.39 221.096 123.802C211.829 129.316 208.804 135.893 197.661 146.599C190.721 153.248 185.413 156.937 186.606 160.52C186.921 161.232 187.379 161.874 187.95 162.402C188.521 162.929 189.19 163.331 189.912 163.578C195.514 165.873 203.772 160.517 206.602 153.736C208.277 149.757 206.804 148.316 208.92 144.823C211.948 139.911 218.197 137.239 219.715 138.707C220.883 139.822 219.307 143.365 219.119 143.749C217.111 148.325 213.017 149.143 213.421 151.35C213.583 151.926 213.91 152.447 214.36 152.843C214.809 153.24 215.359 153.493 215.936 153.57C219.403 154.004 220.987 145.455 223.765 145.855C225.646 146.112 227.682 150.3 226.787 153.402C225.892 156.505 222.768 156.993 217.916 159.181C205.772 164.73 206.41 169.515 198.952 170.28C192.417 170.917 190.951 167.324 185.714 168.761C177.777 171.07 174.071 181.675 175.549 183.085C176.601 184.11 180.04 179.988 186.783 180.309C187.807 180.366 191.925 180.548 192.54 182.327C193.155 184.107 189.492 187.79 185.413 189.247C180.778 190.862 178.214 188.958 174.937 189.494C164.638 191.117 159.683 214.812 162.945 216.687C166.207 218.561 183.343 203.074 185.242 201.312C185.696 200.804 186.256 200.407 186.886 200.148C187.515 199.889 188.199 199.775 188.892 199.812C189.611 199.927 190.287 200.275 190.82 200.804C191.352 201.332 191.712 202.013 191.847 202.745C191.952 205.214 186.963 206.819 187.163 207.302C187.363 207.785 196.717 203.285 199.186 206.016C200.458 207.398 199.967 210.816 198.218 212.332C195.936 214.273 192.92 212.06 186.847 212.209C183.645 212.33 180.52 213.023 177.612 214.256C172.687 216.282 168.361 219.487 164.981 223.615C157.837 231.591 156.183 235.33 149.039 244.577C136.363 261.283 130.344 268.766 130.344 268.766C127.053 272.871 125.26 275.096 125.837 275.856C127.157 277.77 139.253 271.265 148.223 264.741C157.878 257.744 162.688 254.258 164.431 248.255C166.85 239.836 162.205 233.833 166.755 228.04C169.584 224.423 174.414 223.013 175.182 223.895C175.95 224.778 173.877 226.518 173.15 230.946C173.097 231.293 172.449 235.411 173.375 235.789C174.302 236.167 176.472 228.429 181.894 227.26C184.567 226.659 187.865 227.775 188.387 229.42C188.91 231.065 185.569 234.018 181.091 237.445C175.977 241.338 173.029 242.467 171.548 246.341C171.382 246.795 170.324 249.699 171.299 250.495C172.641 251.631 177.076 248.065 178.919 246.569C205.344 225.523 214.626 222.116 214.263 212.905C214.058 207.821 210.984 203.671 213.087 197.109C214.112 193.578 215.636 192.894 215.463 190.133C215.186 184.675 209.21 183.458 208.246 177.852C207.282 172.247 211.668 166.68 213.649 167.122C215.006 167.429 215.814 170.995 215.932 173.173C216.103 176.162 215.064 177.048 215.754 179.284C216.341 181.139 217.919 183.157 219.347 183.105C220.775 183.052 221.296 181.337 222.388 179.37C225.043 174.573 229.82 169.613 231.918 170.454C233.329 171.034 233.756 174.355 233.207 176.88C232.618 179.885 230.695 180.956 227.766 183.965C224.076 187.71 221.251 192.257 219.477 197.306C219.305 197.905 217.022 205.325 219.002 206.615C220.002 207.253 221.768 206.148 229.668 198.922C241.763 187.898 242.984 185.616 243.805 183.525C245.438 179.292 244.408 178.223 246.707 173.22C247.46 171.571 251.215 163.39 255.126 164.082C255.835 164.234 256.496 164.596 257.025 165.122C257.553 165.648 257.925 166.313 258.093 167.035C258.439 169.197 255.664 170.151 252.797 174.331C250.944 177.048 249.354 180.687 250.204 181.456C251.319 182.495 255.869 177.126 258.964 178.72C259.711 179.191 260.314 179.872 260.697 180.675C261.08 181.478 261.225 182.366 261.113 183.226C260.386 187.653 251.237 186.082 246.523 192.948C245.13 194.981 243.768 198.293 244.923 199.699C246.732 201.898 253.978 198.625 256.06 197.669C266.202 193.076 270.011 186.75 272.317 188.125C273.872 189.03 274.112 193.045 272.806 196.092C269.547 203.988 255.739 206.081 245.868 204.697C240.226 203.927 238.334 202.379 234.829 203.666C230.192 205.395 230.223 209.299 224.844 215.55C218.12 223.322 211.549 224.718 212.303 226.853C213.057 228.988 220.027 228.983 224.99 228.075C229.053 227.093 232.933 225.538 236.523 223.455C245.643 218.692 248.885 215.326 251.377 216.856C252.148 217.418 252.742 218.2 253.078 219.096C253.415 219.992 253.477 220.957 253.256 221.858C251.692 227.117 238.09 223.024 233.958 230.195C232.816 232.168 232.371 235.073 233.581 236.442C235.735 238.91 243.865 236.92 249.606 233.356C252.477 231.575 253.941 229.915 255.53 230.599C256.587 231.336 257.359 232.434 257.696 233.679C258.033 234.924 257.911 236.227 257.353 237.335C256.355 238.898 254.35 238.615 250.077 239.019C241.483 239.834 241.532 241.72 237.198 241.263C232.328 240.723 232.065 238.335 225.303 235.824C220.778 234.05 215.983 233.288 211.254 233.592C205.104 234.246 202.418 237.454 194.131 243.733C192.147 245.101 186.302 249.131 174.295 256.733C166.679 261.975 158.759 266.767 150.574 271.084C136.431 277.786 126.918 278.697 127.233 280.853C127.548 283.008 136.08 281.446 150.972 285.751C160.421 288.414 164.649 291.148 167.641 288.887C169.479 287.422 169.772 283.407 170.267 275.44C170.762 267.473 170.182 264.201 172.549 261.919C174.915 259.638 178.779 259.374 179.772 260.582C180.764 261.79 178.618 263.581 176.762 268.956C175.975 271.25 174.461 276.389 175.363 276.925C176.265 277.461 178.917 272.892 183.681 267.179C190.731 258.759 195.986 255.417 204.719 250.017C207.77 248.111 210.674 246.532 213.453 247.666C216.231 248.801 217.947 251.713 217.333 253.294C216.72 254.875 214.607 254.552 212.73 254.802C204.365 255.91 197.665 263.834 198.544 265.572C199.423 267.311 207.49 265.306 212.512 263.595C219.869 261.063 223.086 257.97 225.46 259.637C226.299 260.358 226.874 261.347 227.082 262.427C227.289 263.506 227.115 264.604 226.591 265.523C225.418 266.756 223.096 264.855 220.419 266.107C218.404 267.045 216.904 269.463 217.474 270.482C218.613 272.521 226.445 268.052 229.307 271.276C229.907 271.992 230.267 272.878 230.331 273.796C230.395 274.713 230.158 275.609 229.659 276.342C228.526 277.632 226.195 276.839 220.663 275.57C220.663 275.57 214.613 274.093 209.437 273.341C205.239 272.474 200.977 272.174 196.764 272.448C192.689 272.658 188.759 273.786 185.255 275.753C183.606 276.72 177.079 280.571 176.714 286.952C176.581 287.632 176.59 288.342 176.743 289.035C176.895 289.728 177.186 290.389 177.598 290.974C179.533 293.086 182.829 290.841 188.607 291.037C195.918 291.333 197.63 295.321 201.834 293.891C203.591 293.273 203.398 292.53 208.803 286.742C214.949 280.216 216.281 279.947 217.212 280.294C217.952 280.703 218.55 281.347 218.911 282.122C219.271 282.897 219.374 283.758 219.203 284.57C218.441 287.326 213.802 286.542 212.507 289.836C212.245 290.48 212.138 291.186 212.194 291.898C212.251 292.609 212.469 293.307 212.831 293.934C213.491 294.891 215.04 295.942 225.25 294.691C235.46 293.44 236.738 292.051 237.333 291.33C238.239 290.115 238.891 288.715 239.251 287.211C239.612 285.707 239.674 284.129 239.434 282.566C238.624 277.222 234.873 276.956 233.574 271.327C233.174 269.19 233.198 267.017 233.644 264.937C234.091 262.858 234.95 260.916 236.171 259.228C236.848 258.281 238.427 255.977 239.85 256.38C241.272 256.783 242.173 259.749 241.993 262.19C241.759 265.711 239.507 266.304 239.329 269.675C239.17 272.185 240.153 275.348 241.625 275.746C243.097 276.143 244.474 272.736 248.564 267.628C254.388 260.364 257.495 260.623 259.807 254.905C261.207 251.454 260.04 251.383 261.594 247.035C263.366 242.244 266.22 237.995 269.934 234.619C272.518 232.075 277.989 226.692 280.601 228.28C282.063 229.165 282.484 232.207 281.575 234.246C280.366 236.972 277.401 236.531 273.844 238.899C269.081 242.183 266.938 247.954 267.77 248.736C268.602 249.518 272.562 245.262 281.602 241.543C286.978 239.304 289.426 239.226 290.884 240.452C291.367 240.866 291.745 241.394 291.985 241.984C292.224 242.574 292.317 243.209 292.254 243.828C291.77 246.986 286.139 248.045 282.149 249.13C269.45 252.831 258.514 262.603 259.783 266.219C260.48 268.195 265.283 269.177 268.769 268.326C272.874 267.331 274.425 263.946 276.33 264.778C277.128 265.347 277.728 266.165 278.033 267.098C278.338 268.031 278.33 269.025 278.011 269.918C276.472 274.171 266.572 273.71 264.904 273.646C258.658 273.349 256.408 271.399 253.609 273.131C252.022 274.225 251.233 275.899 249.792 279.406C247.9 283.959 246.623 287.24 247.791 288.779C249.857 291.506 258.956 288.875 265.846 284.971C273.147 280.813 273.765 277.618 285.287 268.233C296.145 259.391 298.781 259.663 299.953 260.436C300.721 261.156 301.269 262.086 301.522 263.102C301.776 264.118 301.724 265.172 301.373 266.123C300.239 269.729 295.473 268.723 289.442 273.333C288.54 273.955 283.976 277.526 284.73 279.237C285.707 281.388 294.397 280.055 300.429 278.381C309.074 275.979 311.152 273.049 318.554 272.859C322.179 272.789 327.094 273.354 327.377 274.769C327.525 275.486 326.441 276.346 323.296 277.922C315.233 281.9 308.081 283.301 308.166 283.695C308.251 284.088 325.775 280.59 327.58 284.598C328.156 285.896 327.096 287.756 326.003 288.68C322.269 292.413 315.654 289.574 301.394 287.037C290.29 285.062 284.75 284.053 280.41 285.209C272.081 287.451 271.215 292.256 263.598 292.171C260.018 291.705 256.45 292.414 253.414 294.194C252.638 294.728 251.069 295.811 251.314 296.63C251.936 298.574 263.125 300.094 271.805 295.465C274.123 294.233 276.249 292.569 278.005 293.533C278.867 294.143 279.503 295.036 279.798 296.051C280.092 297.066 280.025 298.135 279.61 299.064C278.039 301.842 271.698 300.057 271.486 301.333C271.357 302.072 273.322 303.456 275.463 304.013C280.334 305.287 283.819 301.81 285.244 303.143C286.289 304.118 285.864 307.207 284.564 308.951C280.129 314.833 266.83 303.922 243.369 302.786C232.074 302.271 226.806 304.435 206.634 303.206C204.207 303.044 201.712 302.9 198.374 302.576C186.414 301.201 174.541 298.725 162.902 295.177C140.946 289.275 129.813 286.332 122.262 286.653C108.611 287.198 97.5376 291.867 97.7672 292.895C97.9969 293.923 106.407 291.683 119.826 292.654C128.194 293.21 137.59 293.905 147.833 298.761C159.725 304.428 159.849 309.624 168.071 310.394C174.274 310.975 181.843 308.749 187.162 307.2C192.904 305.528 197.167 303.605 198.814 305.492C199.27 306.066 199.525 306.773 199.536 307.492C199.546 308.211 199.311 308.898 198.871 309.435C197.34 310.688 194.273 307.437 192.469 308.681C191.997 309.09 191.672 309.648 191.541 310.276C191.41 310.905 191.479 311.57 191.74 312.178C192.97 314.888 198.412 313.903 199.117 316.044C199.194 316.689 199.081 317.332 198.791 317.889C198.501 318.447 198.049 318.893 197.492 319.169C194.598 320.685 191.261 315.614 184.709 314.681C180.997 314.162 176.188 314.908 175.849 316.809C175.275 319.605 184.182 326.54 193.162 326.477C198.137 326.435 202.028 323.894 209.495 318.858C221.006 311.118 225.276 305.151 229.161 306.963C229.986 307.359 230.69 307.992 231.182 308.781C231.674 309.569 231.93 310.477 231.919 311.388C231.189 315.309 220.058 314.568 220 317.263C219.928 318.47 221.98 320.134 224.115 320.413C228.322 321.071 230.273 316.025 233.578 316.881C234.694 317.232 235.676 317.963 236.356 318.948C237.035 319.934 237.369 321.112 237.3 322.279C236.535 325.377 229.006 326.502 222.959 325.531C216.913 324.559 213.893 321.53 210.966 323.153C208.777 324.38 207.459 327.717 208.49 329.521C210.138 332.451 217.663 331.244 225.108 330.036C230.644 329.446 236.032 328.078 241.122 325.97C251.714 321.18 253.492 315.266 260.923 315.621C264.316 315.795 268.29 317.235 268.57 318.991C268.779 320.259 267.015 321.136 261.671 324.426C251.803 330.496 251.641 331.342 247.899 332.594C242.402 334.465 239.232 333.882 239.166 334.945C239.077 336.475 245.519 339.912 250.47 338.137C253.103 337.168 253.307 335.418 256.532 331.951C261.756 326.287 269.048 322.502 270.304 323.783C270.989 324.468 270.054 326.779 268.831 328.441C265.827 332.151 261.12 330.652 259.873 333.63C259.228 335.204 259.702 337.589 260.875 338.249C263.395 339.703 267.431 332.316 272.408 333.629C274.036 334.06 275.729 335.434 275.738 336.643C275.746 337.852 272.975 339.198 263.785 341.581C248.385 345.534 245.916 345.429 243.904 344.981C238.457 343.991 237.708 341.825 232.167 339.771C222.398 336.142 215.595 339.477 208.22 340.015C196.247 340.871 192.523 333.695 162.794 316.829C142.544 305.373 132.281 299.599 125.42 299.416C106.237 299.002 95.259 313.576 82.0327 306.4C80.8544 305.772 75.8483 303.067 75.3851 299.037Z" fill="#D6D077"/>
</g>
<g clip-path="url(#clip2)">
<path d="M28.1361 385.497C31.9795 383.903 35.2499 390.402 42.4583 394.138C52.3766 399.236 67.3164 397.644 74.6965 390.202C79.1837 385.679 77.0341 382.903 82.6058 376.986C88.7204 370.55 98.411 366.454 101.442 369.113C101.955 369.547 102.312 370.139 102.464 370.808C102.617 371.477 102.556 372.19 102.292 372.847C101.5 374.069 99.435 373.322 96.5593 373.663C88.7002 374.591 83.9617 382.467 83.3839 383.432C82.6568 384.688 81.7307 386.273 82.3075 386.97C83.2256 388.109 87.4475 384.197 93.5926 382.616C103.034 380.233 107.334 385.786 114.855 382.123C117.778 380.694 117.069 379.887 120.607 377.583C129.954 371.5 143.136 371.909 144.739 375.993C145.01 376.911 144.958 377.914 144.591 378.835C144.225 379.757 143.566 380.544 142.723 381.066C140.889 381.837 138.98 379.399 137.992 380.161C137.004 380.923 137.612 383.625 138.699 385.637C140.106 388.252 142.162 389.011 141.752 390.154C141.525 390.551 141.185 390.873 140.779 391.076C140.374 391.278 139.923 391.35 139.49 391.282C136.631 390.885 137.852 384.121 133.72 381.597C131.655 380.335 129.137 380.716 125.945 381.19C125.282 381.292 120.06 382.077 119.924 383.408C119.787 384.739 124.629 384.568 130.631 387.579C138.218 391.353 139.049 395.626 143.535 395.278C146.792 395.017 146.85 392.75 152.037 391.401C154.989 390.61 160.612 389.881 161.951 392.399C162.303 393.154 162.377 394.026 162.16 394.864C161.944 395.701 161.449 396.454 160.762 396.992C159.711 397.583 158.726 396.705 156.652 396.148C153.175 395.237 148.979 395.707 148.582 396.881C148.184 398.055 151.503 400.794 155.042 402.034C158.581 403.274 161.046 402.552 161.694 404.061C161.891 404.82 161.815 405.64 161.479 406.38C161.144 407.12 160.569 407.733 159.855 408.113C158.617 408.727 157.279 408.07 154.591 406.547C149.527 403.664 147.297 402.106 147.297 402.106C139.022 396.355 137.404 395.743 136.482 396.381C135.56 397.02 135.639 398.63 135.669 398.952C135.864 401.904 139.163 403.163 143.609 406.027C148.468 409.156 154.299 412.934 153.739 416.546C153.57 417.424 153.129 418.24 152.481 418.874C151.834 419.508 151.013 419.926 150.141 420.067C148.595 420.087 147.836 418.15 143.346 413.725C142.33 412.703 141.877 412.306 141.542 412.462C140.75 412.853 140.741 416.567 142.676 418.749C144.184 420.458 145.955 420.189 146.158 421.426C146.115 422.258 145.78 423.064 145.214 423.7C144.648 424.336 143.887 424.759 143.069 424.895C140.596 425.154 138.014 421.306 137.442 417.663C136.87 414.021 138.604 413.147 137.938 409.685C137.377 406.882 136.076 406.652 134.07 402.985C130.978 397.348 132.922 395.817 130.489 393.023C129.013 391.32 128.073 391.667 118.404 388.557C112.908 386.799 111.186 386.02 110.659 386.789C109.326 388.393 115.071 395.662 115.433 396.102C117.577 398.795 119.387 400.319 118.834 401.502C118.457 402.336 116.941 402.858 115.714 402.629C111.332 401.797 113.348 392.013 107.468 388.788C105.649 387.79 103.366 387.732 98.7779 387.62C95.4889 387.537 93.843 387.475 93.4014 388.276C92.3326 390.257 97.7121 397.54 104.64 398.786C106.278 399.06 108.159 399.04 108.553 400.159C108.947 401.278 107.308 403.676 105.697 403.841C104.087 404.007 103.076 401.88 102.161 402.307C101.246 402.734 101.232 404.187 101.49 405.47C102.126 408.631 105.405 408.725 105.923 411.49C106.257 413.332 105.209 415.468 104.216 415.652C102.758 415.925 101.724 411.919 100.318 412.175C98.9116 412.43 99.0096 417.024 97.5545 417.339C96.6269 417.557 95.4045 416.066 94.7991 414.573C93.1086 410.436 96.5262 407.043 96.6365 402.603C96.7114 399.775 95.4601 395.806 89.2805 391.124C84.4118 391.422 79.5774 392.516 74.9663 394.365C68.916 396.797 69.6706 397.998 65.6526 398.972C60.5409 400.185 57.1369 398.76 45.8642 399.285C43.8953 399.41 42.8425 399.465 42.5856 400.043C41.8094 401.852 48.7371 407.294 56.8224 409.325C59.1058 410.107 61.5516 410.395 64.0077 410.172C71.1824 409.17 73.3424 403.049 80.0554 403.029C82.0188 403.048 83.9145 403.581 85.5587 404.576C86.7109 405.276 88.6027 406.433 88.5017 408.17C88.4659 408.795 88.2241 409.403 87.8149 409.895C87.4057 410.387 86.8528 410.736 86.2446 410.885C85.073 410.881 85.063 408.874 83.1602 408.044C82.0748 407.577 80.4718 407.531 79.7493 408.355C78.8931 409.385 79.5823 411.383 79.8724 412.179C80.5194 414.003 81.5529 414.644 81.1683 415.354C80.9534 415.693 80.6409 415.96 80.2763 416.116C79.9117 416.272 79.514 416.309 79.1412 416.222C77.2105 415.784 78.1305 411.918 75.6898 410.344C74.9392 409.983 74.1148 409.784 73.2666 409.759C72.4184 409.734 71.564 409.884 70.755 410.2C68.6351 410.753 65.5039 412.366 65.5619 413.8C65.6198 415.233 68.9485 415.784 75.4858 417.141C87.1228 419.611 88.986 419.973 93.1716 420.681C103.909 422.483 105.108 422.41 106.517 421.523C110.883 418.761 110.445 412.558 114.742 411.36C117.207 410.638 118.861 412.35 120.743 411.006C122.626 409.661 121.678 408.042 123.496 405.833C125.314 403.623 128.958 402.179 130.894 403.373C132.036 404.085 132.662 405.733 132.2 406.557C131.492 407.611 129.107 406.262 127.235 407.774C126.349 408.481 125.64 409.693 126.032 410.276C126.682 411.311 130.48 408.65 132.297 410.121C132.817 410.619 133.138 411.296 133.205 412.034C133.272 412.773 133.081 413.527 132.664 414.167C131.691 415.337 129.822 414.377 126.043 414.481C122.697 414.576 119.377 415.49 116.367 417.145C114.418 418.256 110.723 420.883 111.159 422.355C111.596 423.826 115.462 422.587 122.172 423.355C127.334 424.064 132.369 425.361 137.18 427.222C140.964 428.706 142.564 429.72 145.168 429.212C147.772 428.705 148.264 427.036 151.84 425.674C154.885 424.525 159.463 423.818 160.453 425.611C160.685 426.311 160.678 427.081 160.434 427.804C160.19 428.527 159.722 429.163 159.103 429.614C157.502 430.777 155.99 429.342 152.735 430.139C151.417 430.469 148.973 431.366 148.94 432.348C148.874 433.797 154.106 435.356 158.967 435.32C162.305 435.246 165.638 434.547 168.794 433.258C174.25 431.183 174.926 429.27 178.754 428.95C181.501 428.72 185.431 429.355 185.915 431.42C186.026 432.053 185.927 432.718 185.631 433.312C185.336 433.907 184.861 434.398 184.28 434.711C182.643 435.468 181.499 433.389 178.399 433.326C176.462 433.278 174.072 434.043 173.836 435.113C173.599 436.183 175.294 437.196 178.528 439.251C182.077 441.489 183.25 441.693 183.427 442.849C183.745 444.934 180.565 447.951 178.928 447.52C177.917 447.234 178.174 445.825 177.103 443.905C175.031 440.204 170.558 439.236 169.169 438.932C165.798 438.208 161.596 438.574 161.338 439.647C161.081 440.719 165.921 441.358 170.101 446.001C171.224 447.252 174.55 450.947 173.308 454.011C172.529 455.936 170.103 457.284 169.045 456.761C167.988 456.238 168.772 454.554 168.267 452.155C168.077 451.285 167.494 449.316 164.338 446.336C159.224 441.472 154.545 440.728 145.828 435.599C140.41 432.401 137.146 429.708 135.099 431.094C134.706 431.418 134.383 431.821 134.151 432.274C133.919 432.727 133.785 433.22 133.757 433.718C133.301 437.654 138.137 441.911 142.911 442.496C145.714 442.848 146.362 441.664 148.938 442.38C152.569 443.42 155.357 446.886 154.701 448.102C154.205 449.035 151.693 448.669 151.418 448.618C148.179 448.162 146.939 445.726 145.62 446.371C145.286 446.575 145.016 446.874 144.845 447.227C144.675 447.58 144.612 447.972 144.666 448.349C145.006 450.61 150.673 450.097 150.912 451.919C151.083 453.149 148.804 455.173 146.69 455.158C144.577 455.142 143.717 453.26 141.48 450.589C135.835 443.917 132.932 445.165 131.131 440.601C129.575 436.595 131.58 435.036 129.748 431.989C126.889 427.396 119.55 426.935 118.923 428.116C118.463 428.961 121.669 430.399 122.659 434.705C122.804 435.36 123.418 437.988 122.405 438.69C121.393 439.392 118.424 437.735 116.784 435.422C114.947 432.787 115.693 430.834 114.776 428.864C111.932 422.66 96.1224 423.728 95.5181 426.115C94.9138 428.502 107.704 436.563 109.151 437.448C109.551 437.644 109.9 437.927 110.175 438.278C110.449 438.629 110.642 439.04 110.741 439.483C110.796 439.957 110.696 440.444 110.457 440.873C110.218 441.302 109.853 441.65 109.415 441.864C107.878 442.367 105.984 439.507 105.715 439.718C105.446 439.93 109.937 445.028 108.652 447.068C108.006 448.114 105.765 448.409 104.5 447.575C102.873 446.48 103.735 444.187 102.567 440.387C101.924 438.39 100.935 436.543 99.6439 434.928C97.4962 432.183 94.711 430.023 91.512 428.623C85.2222 425.532 82.5735 425.151 75.4819 422.284C62.7125 417.25 56.9321 414.78 56.9321 414.78C53.7629 413.431 52.0437 412.695 51.6669 413.193C50.694 414.363 56.9329 420.836 62.6306 425.335C68.7474 430.183 71.7947 432.597 75.8862 432.634C81.6196 432.67 84.5817 428.681 89.0367 430.524C91.8166 431.667 93.5595 434.462 93.1392 435.102C92.7189 435.742 91.2553 434.743 88.3367 435.068C88.1084 435.096 85.3987 435.416 85.3242 436.067C85.2497 436.717 90.5102 436.716 92.2057 439.927C93.057 441.506 92.9373 443.781 91.9929 444.401C91.0484 445.021 88.5967 443.438 85.6454 441.222C82.2873 438.688 81.0545 437.03 78.3512 436.781C78.036 436.757 76.0184 436.603 75.689 437.359C75.2104 438.406 78.2421 440.57 79.5111 441.466C97.4474 454.398 101.236 459.645 106.977 457.788C110.144 456.759 112.216 454.088 116.723 454.253C119.13 454.274 119.831 455.114 121.54 454.516C124.931 453.377 124.641 449.395 128.003 447.797C131.365 446.198 135.649 447.978 135.721 449.304C135.767 450.214 133.663 451.354 132.311 451.813C130.458 452.45 129.716 451.951 128.429 452.782C127.364 453.479 126.371 454.831 126.656 455.721C126.942 456.612 128.115 456.637 129.548 456.977C133.04 457.802 137.011 459.936 136.851 461.406C136.735 462.399 134.718 463.255 133.03 463.356C131.032 463.516 130.017 462.493 127.603 461.179C124.59 459.516 121.225 458.54 117.729 458.315C117.321 458.312 112.241 458.186 111.779 459.662C111.553 460.405 112.562 461.322 118.513 465.023C127.599 470.696 129.254 471.062 130.717 471.209C133.673 471.49 134.164 470.652 137.724 471.216C138.896 471.399 144.716 472.318 144.971 474.905C145.001 475.38 144.89 475.86 144.652 476.286C144.414 476.712 144.06 477.064 143.635 477.298C142.334 477.898 141.242 476.318 138.101 475.25C136.061 474.563 133.486 474.205 133.152 474.876C132.694 475.763 136.882 477.681 136.425 479.913C136.26 480.467 135.938 480.968 135.5 481.351C135.061 481.734 134.527 481.983 133.966 482.064C131.047 482.389 130.42 476.346 125.259 474.589C123.731 474.071 121.403 473.798 120.721 474.775C119.655 476.303 122.999 480.291 123.97 481.434C128.658 487.013 133.318 488.295 132.859 489.991C132.564 491.132 130.077 491.993 127.925 491.708C122.373 491.051 118.612 482.719 117.738 476.253C117.226 472.562 117.867 471.096 116.436 469.115C114.527 466.498 112.071 467.208 107.181 464.924C101.094 462.06 99.0522 458.166 97.8398 459.019C96.6275 459.871 97.8632 464.263 99.3135 467.23C100.651 469.617 102.317 471.788 104.265 473.682C108.879 478.586 111.573 480.035 111.05 481.876C110.832 482.461 110.444 482.974 109.939 483.344C109.434 483.715 108.837 483.924 108.23 483.945C104.639 483.889 104.813 474.593 99.5635 473.257C98.1181 472.886 96.2083 473.12 95.5597 474.124C94.3851 475.918 97.0773 480.69 100.338 483.678C101.969 485.172 103.273 485.801 103.124 486.923C102.846 487.72 102.29 488.401 101.565 488.833C100.84 489.266 99.9977 489.419 99.2011 489.264C98.0392 488.911 97.8632 487.597 96.8528 484.976C94.8196 479.704 93.6396 480.069 93.1612 477.256C92.6398 474.092 94.0987 473.503 94.4853 468.798C94.8031 465.633 94.4351 462.476 93.4072 459.55C91.9075 455.789 89.4111 454.664 83.9885 450.552C82.7753 449.543 79.2018 446.573 72.2882 440.35C67.6371 436.477 63.2172 432.334 59.0487 427.939C52.3237 420.211 50.0673 414.377 48.7648 414.957C47.4622 415.536 49.9553 420.637 49.8762 430.783C49.8687 437.209 48.8934 440.357 50.8476 441.843C52.0958 442.742 54.6777 442.216 59.7862 441.12C64.8947 440.023 66.8543 439.079 68.7104 440.167C70.5666 441.255 71.4161 443.643 70.8304 444.482C70.2447 445.321 68.737 444.286 65.0211 444.066C63.4362 443.976 59.9299 443.931 59.7516 444.594C59.5733 445.257 62.9214 446.121 67.3648 448.112C73.9179 451.066 76.953 453.787 81.9007 458.336C83.6414 459.922 85.1499 461.473 84.9264 463.424C84.7028 465.376 83.1708 466.972 82.066 466.865C80.9612 466.758 80.7911 465.37 80.3018 464.231C78.124 459.155 71.9452 456.334 71.0053 457.195C70.0655 458.056 72.755 462.786 74.7217 465.648C77.6182 469.837 80.1367 471.317 79.5057 473.108C79.2001 473.764 78.6783 474.302 78.0347 474.624C77.391 474.945 76.668 475.03 75.9964 474.862C75.0122 474.34 75.7995 472.541 74.5369 471.076C73.5896 469.971 71.8004 469.454 71.2588 469.993C70.1756 471.072 74.3766 475.217 72.8511 477.591C72.5061 478.095 72.0112 478.479 71.4444 478.682C70.8775 478.884 70.2711 478.894 69.7206 478.709C68.7072 478.223 68.7952 476.614 68.6163 472.903C68.6163 472.903 68.4776 468.829 68.036 465.434C67.8396 462.635 67.2752 459.896 66.3573 457.289C65.5048 454.758 64.0989 452.481 62.2396 450.62C61.3384 449.753 57.757 446.32 53.6715 447.219C53.2189 447.255 52.7733 447.386 52.3636 447.605C51.9538 447.823 51.5891 448.124 51.2929 448.487C50.3044 450.08 52.3021 451.76 53.2004 455.436C54.3064 460.096 52.0958 461.88 53.7407 464.277C54.4408 465.274 54.8747 465.022 59.4784 467.404C64.6782 470.124 65.0831 470.915 65.0294 471.563C64.9019 472.102 64.602 472.593 64.1775 472.957C63.7529 473.321 63.2281 473.539 62.6865 473.574C60.8149 473.582 60.4882 470.519 58.1833 470.286C57.7312 470.235 57.2674 470.292 56.829 470.453C56.3905 470.614 55.9895 470.875 55.6579 471.214C55.1715 471.799 54.7837 472.961 57.3775 479.175C59.9712 485.388 61.0728 485.948 61.6321 486.195C62.5584 486.551 63.556 486.714 64.5675 486.676C65.579 486.637 66.5847 486.397 67.5269 485.97C70.7515 484.514 70.2562 482.103 73.5735 480.289C74.8495 479.659 76.2235 479.29 77.6129 479.203C79.0022 479.117 80.3782 479.315 81.6578 479.786C82.3746 480.045 84.1055 480.633 84.103 481.601C84.1006 482.569 82.3907 483.661 80.8209 483.979C78.5601 484.454 77.788 483.14 75.6324 483.624C74.0223 483.967 72.2028 485.146 72.2127 486.144C72.2225 487.142 74.6131 487.407 78.5556 489.082C84.1634 491.468 84.5497 493.471 88.5621 493.917C90.9844 494.189 90.8228 493.441 93.8374 493.651C97.1707 493.921 100.353 494.968 103.137 496.712C105.198 497.89 109.557 500.386 109.019 502.314C108.72 503.391 106.877 504.194 105.431 503.982C103.499 503.702 103.253 501.756 101.131 499.933C98.2194 497.512 94.2038 497.182 93.8581 497.845C93.5124 498.507 96.8944 500.25 100.837 505.289C103.199 508.282 103.681 509.811 103.166 510.946C102.99 511.324 102.725 511.656 102.395 511.911C102.066 512.166 101.682 512.337 101.281 512.407C99.2049 512.66 97.5418 509.298 96.1526 506.976C91.5742 499.627 83.482 494.464 81.4277 495.903C80.3056 496.692 80.5363 499.892 81.6887 501.938C83.0416 504.349 85.4497 504.728 85.2618 506.076C85.0441 506.679 84.635 507.202 84.1009 507.559C83.5668 507.917 82.9392 508.088 82.3201 508.044C79.3677 507.826 77.9073 501.506 77.6528 500.444C76.735 496.455 77.5664 494.692 75.9801 493.234C75.0095 492.427 73.8152 492.226 71.35 491.938C68.1466 491.551 65.8527 491.327 65.0893 492.335C63.7363 494.119 67.0033 499.388 70.6821 503.04C74.5937 506.906 76.7163 506.731 84.6684 512.332C92.1611 517.611 92.4559 519.32 92.1758 520.196C91.8581 520.807 91.3688 521.316 90.7733 521.656C90.1777 521.996 89.5043 522.149 88.8429 522.096C86.37 522.019 86.1613 518.837 82.1895 515.852C81.638 515.394 78.5803 513.149 77.6352 513.927C76.4527 514.923 78.829 520.164 80.9508 523.669C83.9934 528.692 86.2075 529.484 87.636 534.115C88.3214 536.387 88.8343 539.584 87.9929 540.013C87.5674 540.233 86.8336 539.702 85.2843 537.999C81.3511 533.621 79.2033 529.361 78.9704 529.484C78.7376 529.607 84.041 540.033 81.8343 541.88C81.1182 542.472 79.7584 542.133 78.9831 541.607C75.9702 539.914 76.5891 535.243 75.6667 525.808C74.9475 518.461 74.6039 514.791 73.1076 512.261C70.2221 507.408 67.0408 507.712 65.7472 502.896C65.4075 500.558 64.3298 498.435 62.6715 496.836C62.1972 496.442 61.2376 495.644 60.7648 495.944C59.6497 496.679 60.6705 504 65.1226 508.651C66.3087 509.894 67.7334 510.94 67.4365 512.217C67.2048 512.868 66.7543 513.427 66.1667 513.792C65.5791 514.157 64.8936 514.304 64.2347 514.206C62.2061 513.707 62.2094 509.396 61.368 509.488C60.8795 509.537 60.3549 511.02 60.3823 512.468C60.4412 515.763 63.2484 517.345 62.6602 518.478C62.2308 519.309 60.2088 519.587 58.8802 519.077C54.3888 517.322 58.9129 507.011 55.4798 492.025C53.8071 484.816 51.5115 481.879 48.7189 468.949C48.3918 467.39 48.0412 465.793 47.6556 463.632C46.4069 455.851 45.868 447.931 46.0455 439.968C45.8819 425.088 45.768 417.552 44.2306 412.85C41.473 404.343 36.5718 398.19 35.9646 398.517C35.3575 398.843 38.2566 403.747 40.0178 412.376C41.1473 417.748 42.3709 423.792 41.1218 431.106C39.6537 439.603 36.4004 440.599 37.3697 445.917C38.1007 449.929 40.8415 454.306 42.7589 457.384C44.8274 460.707 46.7934 463.053 45.8957 464.425C45.6147 464.814 45.2142 465.099 44.7628 465.233C44.3113 465.367 43.837 465.34 43.421 465.158C42.3602 464.415 43.8669 461.907 42.7639 460.99C42.4226 460.765 42.0131 460.659 41.5941 460.687C41.1751 460.716 40.768 460.877 40.4311 461.149C38.9406 462.403 40.5239 465.659 39.2992 466.482C38.9064 466.644 38.4811 466.687 38.0785 466.603C37.6759 466.519 37.3149 466.312 37.0423 466.011C35.5753 464.455 38.1808 461.455 37.61 457.161C37.2807 454.73 35.9602 451.831 34.7024 451.953C32.8386 452.086 30.0436 458.926 31.6713 464.574C32.5774 467.702 34.867 469.704 39.3612 473.519C46.2747 479.405 50.79 481.041 50.335 483.81C50.2316 484.4 49.9572 484.956 49.5471 485.405C49.137 485.854 48.6101 486.177 48.0343 486.331C45.4343 486.564 43.9328 479.418 42.2242 479.858C41.4503 480.026 40.7648 481.613 40.9667 483.008C41.296 485.776 44.8205 486.113 44.8656 488.347C44.8422 489.112 44.5553 489.861 44.0543 490.463C43.5534 491.066 42.87 491.485 42.122 491.648C40.0344 491.713 37.9942 487.167 37.537 483.185C37.0797 479.203 38.4547 476.764 36.9144 475.206C35.7544 474.044 33.4176 473.803 32.4635 474.772C30.9081 476.329 32.9995 480.858 35.0773 485.336C36.4284 488.72 38.2436 491.874 40.4721 494.709C45.3635 500.537 49.4051 500.612 50.4956 505.358C50.9863 507.527 50.7817 510.286 49.7243 510.773C48.9621 511.129 48.0972 510.172 45.079 507.386C39.5084 502.24 38.9466 502.288 37.4958 500.152C35.3449 497.018 35.1513 494.917 34.4702 495.064C33.49 495.278 32.463 499.946 34.4576 502.752C35.5334 504.24 36.6725 504.059 39.4278 505.479C43.9211 507.769 47.596 511.695 47.011 512.713C46.7003 513.266 45.0785 513.085 43.8147 512.609C40.9453 511.371 41.0577 508.14 38.9604 507.881C37.8543 507.753 36.435 508.473 36.2269 509.329C35.7562 511.174 41.1251 512.411 41.1781 515.78C41.1945 516.883 40.6277 518.193 39.8674 518.412C39.1072 518.631 37.7687 517.122 34.6418 511.752C29.4268 502.746 29.0568 501.172 28.9833 499.824C28.6435 496.217 29.8766 495.361 30.1907 491.506C30.7503 484.708 27.4452 481.01 25.802 476.458C23.1452 469.064 27.0091 465.448 32.3808 443.729C36.0194 428.942 37.8432 421.453 36.7456 417.097C33.6139 404.934 22.4878 400.593 24.6714 390.989C24.8587 390.135 25.6782 386.502 28.1361 385.497Z" fill="#CF68C5"/>
</g>
<defs>
<clipPath id="clip0">
<rect width="163.15" height="161.807" fill="white" transform="translate(58.4492) rotate(36.2516)"/>
</clipPath>
<clipPath id="clip1">
<rect width="270.81" height="240.6" fill="white" transform="translate(201.626 59.4751) rotate(55.4119)"/>
</clipPath>
<clipPath id="clip2">
<rect width="177.259" height="157.485" fill="white" transform="translate(201.435 422.691) rotate(129.737)"/>
</clipPath>
</defs>
</svg>
