<svg width="458" height="412" viewBox="0 0 458 412" fill="none" xmlns="http://www.w3.org/2000/svg">
<g clip-path="url(#clip0)">
<path d="M409.41 268.678C419.222 273.376 424.891 281.075 424.219 281.753C423.547 282.43 418.515 277.648 408.619 275.182C404.419 274.134 403.602 274.572 398.992 273.696C389.686 272.003 378.803 267.736 379.182 265.831C379.561 263.599 395.931 262.179 409.41 268.678Z" fill="#CECAC2"/>
<path d="M414.489 243.548C425.312 248.311 432.602 253.368 432.751 255.886C432.856 258.107 427.359 258.244 424.018 257.85C420.386 257.322 416.884 256.182 413.708 254.493" fill="#CECAC2"/>
<path d="M407.594 278.539C388.398 313.214 378.798 330.563 358.629 346.802C322.85 375.605 256.089 401.924 229.955 382.274C204.247 362.967 242.891 318.099 207.793 272.79C195.061 256.3 184.123 254.794 169.797 231.474C160.424 216.222 162.628 209.34 149.559 176.232C139.132 149.823 136.418 149.552 136.961 143.543C139.824 112.629 216.006 74.7215 266.442 93.7297C320.746 114.201 304.671 185.343 372.778 214.935C387.158 221.182 410.086 227.65 415.993 244.514C419.517 254.533 415.681 264.044 407.594 278.539Z" fill="#A0988B"/>
<path d="M394.387 311.781C400.362 316.088 404.82 321.792 407.21 328.189C407.819 329.677 408.658 332.034 408.307 332.166C407.732 332.377 405.698 326.405 399.921 320.702C398.556 319.368 398.175 319.193 385.482 309.869C381.213 306.744 380.133 305.935 380.312 305.677C380.736 305.051 388.094 307.348 394.387 311.781Z" fill="#CECAC2"/>
<path d="M369.01 326.113C373.315 331.511 375.422 337.977 374.981 344.433C374.505 348.331 373.175 352.087 371.063 355.499C370.082 357.284 368.069 360.508 367.414 360.277C367.079 360.166 367.04 359.168 368.611 353.074C370.529 345.574 371.382 344.065 371.779 341.906C372.421 338.386 371.797 333.053 365.655 325.495" fill="#CECAC2"/>
<path d="M359.674 346.357C345.285 360.565 338.097 367.669 328.631 372.243C307.941 382.296 287.216 380.85 278.022 380.106C263.268 378.919 247.945 377.674 236.595 366.89C228.591 359.222 220.15 344.469 226.024 337.146C236.128 324.578 274.137 351.794 328.082 341.731C347.567 338.062 366.288 330.093 368.865 333.911C369.637 335.057 368.947 337.204 359.674 346.357Z" fill="#B5AFA5"/>
<path d="M242.294 222.325C261.48 229.156 284.086 224.942 304.887 226.094C332.836 227.624 358.046 238.903 363.852 241.513C378.209 247.409 393.537 251.13 409.165 252.515C411.578 252.727 416.043 253.025 416.518 251.762C417.259 249.75 407.427 245.107 399.517 241.178C373.355 228.148 374.909 226.281 360.751 219.968C347.142 213.885 331.355 211.053 299.793 205.404C264.69 199.125 251.7 199.192 241.848 204.957C239.799 206.156 232.069 210.672 233.005 215.424C233.7 218.744 238.325 220.919 242.294 222.325Z" fill="#DDD8CE"/>
<path d="M392.794 254.928C384.283 251.726 375.559 249.01 366.679 246.798C355.532 243.935 358.526 243.879 342.075 239.133C327.034 234.792 319.513 232.627 309.911 231.377C298.134 229.84 299.816 231.656 282.973 230.017C271.055 228.859 265.938 227.536 256.402 228.164C250.334 228.594 239.223 229.953 239.247 231.848C239.277 234.796 266.153 234.467 305.643 243.23C338.128 250.429 353.722 254.848 353.722 254.848C353.722 254.848 366.855 258.572 394.38 260.062C396.562 260.187 401.12 260.391 401.36 259.404C401.601 258.417 397.974 256.843 392.794 254.928Z" fill="#8E674C"/>
<path d="M230.064 232.11C240.444 226.305 271.937 232.846 282.062 234.86C319.776 242.367 318.734 241.785 329.448 244.467C354.332 250.717 351.789 251.798 365.171 254.022C387.793 257.825 399.099 259.714 405.49 259.486C409.327 259.334 414.818 258.915 416.02 261.036C417.341 263.393 413.194 268.636 407.613 270.457C402.032 272.278 399.268 269.337 390.397 269.461C382.344 269.58 381.792 272.025 374.581 272.491C366.344 273.02 362.598 270.111 351.924 266.99C338.367 263.005 338.579 265.998 323.176 262.325C311.242 259.542 311.203 257.773 289.58 250.821C278.852 247.378 273.488 245.651 266.434 244.162C250.67 240.82 242.779 239.159 232.299 239.73C227.862 239.973 223.38 240.585 222.596 239.099C221.64 237.371 227.592 233.492 230.064 232.11Z" fill="#DDD8CE"/>
<path d="M288.905 253.835C300.705 256.849 312.223 260.731 323.333 265.441C325.126 266.231 327.309 267.233 327.142 267.832C326.807 269.041 317.068 268.265 308.13 266.068C301.105 264.349 299.7 263.01 293.891 261.311C289.685 260.087 286.977 259.769 270.871 258.791C257.942 258.062 245.067 256.402 232.38 253.829C226.303 252.565 221.746 251.368 221.348 249.135C220.889 246.742 225.738 243.991 229.095 242.717C236.611 239.858 244.291 241.271 267.272 247.629C284.809 252.484 280.638 251.743 288.905 253.835Z" fill="#8E674C"/>
<path d="M336.885 266.271C336.597 264.565 327.789 264.826 313.312 263.124C304.07 262 304.697 261.585 283.989 257.91C231.137 248.515 233.718 252.637 225.072 249.915C222.452 249.007 219.596 248.852 216.926 249.473C213.352 250.44 209.62 253.363 210.2 255.536C210.924 258.288 219.463 257.586 230.547 261.854C237.112 264.382 238.55 266.332 243.565 268.94C252.009 273.32 263.926 273.601 287.392 273.99C306.111 274.304 312.747 273.499 318.16 272.51C326.067 271.054 337.211 268.215 336.885 266.271Z" fill="#DDD8CE"/>
<path d="M322.275 302.999C339.13 303.881 344.968 305.117 358.42 304.346C369.213 303.731 373.52 302.468 375.052 301.988C384.602 299.037 390.729 294.268 392.724 295.27C393.987 295.903 392.563 298.136 392.328 298.528C390.106 302.032 383.508 305.832 362.423 307.672C356.438 308.194 357.139 307.718 349.474 308.281C339.483 309.017 336.217 309.87 328.367 310.305C323.129 310.578 317.868 310.582 312.609 310.316C301.749 309.942 263.087 308.581 262.987 306.209C262.905 304.458 283.799 303.086 286.163 302.929C298.162 302.246 310.226 302.269 322.275 302.999V302.999Z" fill="#8E674C"/>
<path d="M266.837 279.738C275.595 272.17 293.357 282.671 314.155 279.441C315.628 279.223 318.071 278.749 318.847 279.743C320.632 281.923 313.498 290.681 303.173 294.601C301.692 295.156 300.163 295.614 298.599 295.972C291.449 297.696 270.993 302.627 264.894 295.716C261.465 291.853 262.121 283.814 266.837 279.738Z" fill="#DDD8CE"/>
<path d="M393.417 291.336C391.351 295.874 387.23 298.142 384.534 299.601C383.217 300.294 377.174 303.379 366.058 303.674C357.432 303.875 356.334 302.106 348.638 301.824C339.393 301.494 339.947 303.992 323.475 306.463C304.519 309.309 297.084 306.991 295.13 306.31C293.251 305.598 291.323 304.997 289.36 304.51C282.847 302.982 279.9 303.967 274.408 302.971C271.957 302.522 264.336 300.847 264.175 298.982C263.838 295.027 297.291 294.271 350.33 285.266C367.745 282.314 390.931 277.844 394.34 283.749C395.75 286.141 393.809 290.426 393.417 291.336Z" fill="#DDD8CE"/>
<path d="M338.598 275.545C363.272 274.924 364.076 280.758 384.212 278.896C391.396 278.216 399.946 276.651 402.334 279.932C403.653 281.752 402.857 284.669 401.54 286.46C400.224 288.251 397.751 290.298 395.127 289.839C392.503 289.379 392.667 286.934 389.903 286.189C387.14 285.444 386.28 287.559 382.148 287.711C378.352 287.857 377.463 286.136 373.514 286.112C370.259 286.101 368.282 287.263 366.357 287.998C359.153 290.72 353.597 287.054 344.752 286.738C336.921 286.463 336.899 289.182 322.923 292.611C313.589 294.887 312.868 293.105 293.998 294.583C278.145 295.821 266.809 297.819 266.657 297.193C266.601 296.987 267.693 296.606 271.055 295.73C283.719 292.399 288.424 292.492 293.838 290.72C301.277 288.272 300.873 285.314 308.233 281.198C317.073 276.268 325.723 275.872 338.598 275.545Z" fill="#8E674C"/>
<path d="M239.197 271.154C250.824 275.687 255.727 273.596 259.478 278.013C261.627 280.611 259.884 281.065 261.269 294.458C261.949 301.094 262.836 305.372 261.946 312.134C261.498 315.817 260.683 318.557 260.232 318.514C259.348 318.406 262.104 307.865 256.517 297.174C254.854 293.993 253.033 291.89 249.743 288.102C245.534 283.268 241.512 278.667 238.208 279.281C235.784 279.711 235.821 282.495 232.671 283.281C229.727 284.021 226.714 282.357 225.911 281.909C218.253 277.672 216.862 264.325 221.029 262.343C223.985 260.951 227.149 266.441 239.197 271.154Z" fill="#CCC3B4"/>
<path d="M361.816 321.372C360.039 321.996 357.104 322.773 347.646 322.545C339.538 322.342 338.144 321.682 332.163 321.62C327.407 321.593 322.67 321.936 318.011 322.644C307.496 323.947 296.092 322.315 273.818 318.508C246.696 313.924 242.366 311.96 241.089 308.581C239.717 304.991 241.95 300.064 245.483 298.776C249.563 297.286 254.714 300.869 258.006 302.776C269.758 309.591 284.19 309.348 313.069 308.854C332.578 308.516 331.562 306.185 346.635 306.955C355.302 307.402 360.883 308.443 369.157 306.4C375.897 304.743 380.701 303.575 385.829 300.191C388.877 298.155 391.845 295.456 397.128 294.755C397.727 294.676 402.371 294.061 403.188 295.492C404.512 297.826 394.795 304.027 393.793 304.665C383.184 311.365 379.605 309.948 369.874 316.592C366.543 318.862 365.266 320.214 361.816 321.372Z" fill="#CECAC2"/>
<path d="M372.151 319.124C362.888 320.602 358.522 320.141 350.453 320.609C334.761 321.515 334.46 324.213 322.975 324.895C301.491 326.172 278.875 318.13 276.154 317.144C273.114 316.039 263.341 312.338 252.826 314.517C250.82 314.928 248.21 315.463 248.148 316.413C247.967 319.662 278.167 324.831 301.64 327.254C311.18 328.239 351.353 332.05 376.326 321.699C376.848 321.482 385.638 317.843 385.243 317.013C384.944 316.392 379.445 317.978 372.151 319.124Z" fill="#75543D"/>
<path d="M307 337.602C321.01 336.537 324.449 332.493 342.932 331.878C351.139 331.603 352.518 332.273 358.118 331.389C376.452 328.701 389.294 317.412 388.354 316.106C387.714 315.199 381.034 319.889 367.175 323.016C357.012 325.285 350.493 325.018 322.98 324.849C297.542 324.699 302.499 324.928 295.096 324.764C260.085 324.01 243.816 320.957 243.31 323.138C242.803 325.319 259.766 331.039 272.912 333.993C282.907 336.307 293.475 338.644 307 337.602Z" fill="#B5AFA5"/>
<path d="M253.153 325.492C260.436 326.974 262.281 326.345 268.661 328.196C273.009 329.461 276.179 330.384 279.166 332.815C281.434 334.656 281.951 336.027 285.721 343.472C291.366 354.673 293.368 357.708 296.672 358.414C299.207 358.944 299.806 357.545 301.67 358.192C308.097 360.423 310.244 380.112 303.472 388.096C302.721 388.986 299.677 392.308 300.359 396.176C300.461 396.772 300.672 398.013 301.3 398.136C303.205 398.555 308.237 388.466 310.455 379.261C313.412 367.135 312.076 354.388 306.622 342.696C303.287 335.749 300.885 330.713 294.845 326.836C287.923 322.396 284.637 324.847 265.877 320.019C249.404 315.784 244.897 312.081 242.401 308.916C239.593 305.35 239.187 302.298 237.996 302.398C235.616 302.576 232.383 314.286 238.408 320.381C241.032 323.037 245.034 323.839 253.153 325.492Z" fill="#CCC3B4"/>
<path d="M284.775 326.02C285.508 325.502 291.563 329.369 295.218 335.339C299.2 341.817 299.192 348.93 298.272 349.111C297.641 349.232 296.762 345.995 293.076 339.401C288.042 330.448 284.099 326.51 284.775 326.02Z" fill="#8E674C"/>
<path d="M227.811 218.915C230.789 211.614 232.278 207.963 231.137 203.245C229.993 199.034 227.406 195.191 223.727 192.239C214.587 184.328 200.519 182.57 190.014 185.662C184.36 187.31 176.444 191.371 177.021 195.215C177.321 197.155 179.684 198.331 184.199 200.422C207.606 211.213 212.039 210.899 217.239 216.391C220.28 219.588 222.318 223.434 224.707 223.071C225.88 222.898 226.646 221.776 227.811 218.915Z" fill="#7C3414"/>
<path d="M212.446 201.381C218.767 204.487 221.898 205.954 224.087 208.779C226.365 211.978 227.637 215.628 227.767 219.344C227.897 223.061 226.882 226.706 224.827 229.897C222.988 232.465 221.006 233.334 219.715 236.904C218.423 240.473 219.375 242.341 217.402 244.239C214.746 246.802 210.071 246.245 209.833 246.216C208.065 245.905 206.39 245.241 204.94 244.276C203.491 243.311 202.306 242.072 201.479 240.655C200.59 239.157 200.356 237.774 199.714 237.766C198.685 237.745 198.858 241.166 197.071 241.977C194.065 243.34 187.001 236.652 186.006 235.689C179.913 229.82 168.111 218.466 171.413 206.075C171.838 204.457 173.442 198.425 179.293 195.702C183.204 193.841 187.085 194.43 193.523 195.365C200.145 196.405 206.549 198.441 212.446 201.381V201.381Z" fill="#CCC3B4"/>
<path d="M201.4 235.902C202.228 235.372 193.722 228.532 195.287 221.28C196.08 217.627 198.986 215.983 197.8 213.619C196.713 211.535 193.183 210.16 191.492 211.064C189.801 211.968 190.24 214.195 190.421 216.016C190.642 218.496 191.408 219.465 192.859 223.181C194.828 228.246 194.275 228.611 195.708 230.818C197.798 234.016 200.906 236.216 201.4 235.902Z" fill="#492415"/>
<path d="M174.614 143.73C171.449 140.892 163.872 142.494 159.717 144.383C155.486 146.358 152.363 149.732 151.017 153.781C148.44 162.299 155.179 172.219 160.72 172.485C169.505 173.074 180.968 149.433 174.614 143.73Z" fill="#8E674C"/>
<path d="M261.016 197.942C259.799 194.173 251.359 193.181 247.476 192.721C238.907 191.679 230.832 190.766 227.047 195.446C223.262 200.126 225.214 208.646 230.474 212.218C238.839 217.909 253.548 209.768 259.212 202.968C261.142 200.539 261.388 199.062 261.016 197.942Z" fill="#8E674C"/>
<path d="M184.129 185.016C202.732 193.891 224.717 192.792 231.765 192.457C236.522 192.23 240.912 191.724 247.502 192.724C254.566 193.839 261.355 196.158 267.48 199.546C286.518 209.572 307.615 201.017 335.486 210.575C362.908 219.973 390.794 244.825 410.207 249.347C412.943 249.984 417.311 250.644 417.732 249.714C418.375 248.285 409.014 244.284 409.823 242.151C410.352 240.662 415.061 242.157 418.918 239.963C423.233 237.532 424.585 231.598 423.603 227.332C422.027 220.458 414.115 217.217 406.489 212.61C400.011 208.703 400.812 208.064 378.19 186.084C347.78 156.532 350.13 161.339 335.736 146.282C313.676 123.202 309.772 113.556 291.565 105.173C283.952 101.677 276.341 98.1582 266.479 98.8279C253.986 99.645 253.234 106.271 224.54 122.314C215.028 127.835 205.151 132.874 194.958 137.408C187.883 140.496 186.727 140.636 183.606 142.616C174.763 148.234 163.455 160.025 166.936 170.834C169.211 177.91 177.024 181.64 184.129 185.016Z" fill="#994316"/>
<path d="M253.58 129.865C251.158 131.825 246.493 131.619 245.368 129.964C244.085 128.067 246.925 123.553 250.582 123.449C251.538 123.408 252.493 123.633 253.313 124.091C254.133 124.549 254.775 125.218 255.148 126.002C255.846 127.979 253.83 129.685 253.58 129.865Z" fill="#DDD8CE"/>
<path d="M278.453 114.502C277.471 116.626 273.787 118.608 272.136 118.302C270.268 117.911 270.363 114.266 273.14 112.582C274.443 111.783 276.617 111.206 277.869 111.814C279.289 112.478 278.477 114.306 278.453 114.502Z" fill="#DDD8CE"/>
<path d="M302.2 138.021C299.164 140.292 298.481 138.527 297.618 137.359C297.329 136.979 297.159 136.541 297.125 136.091C297.092 135.642 297.196 135.196 297.427 134.801C297.658 134.406 298.008 134.076 298.44 133.845C298.872 133.614 299.371 133.491 299.884 133.487C300.595 133.458 301.305 133.616 301.925 133.941C302.545 134.266 303.045 134.744 303.36 135.312C303.467 135.821 303.416 136.342 303.212 136.819C303.007 137.296 302.658 137.711 302.2 138.021Z" fill="#DDD8CE"/>
<path d="M277.656 145.398C274.619 147.669 273.935 145.915 273.074 144.736C272.783 144.356 272.613 143.918 272.579 143.468C272.546 143.018 272.651 142.572 272.884 142.178C273.117 141.783 273.469 141.454 273.903 141.226C274.337 140.997 274.838 140.876 275.352 140.877C276.06 140.847 276.769 141.004 277.387 141.33C278.005 141.655 278.502 142.133 278.814 142.7C279.356 144.086 277.819 145.266 277.656 145.398Z" fill="#DDD8CE"/>
<path d="M257.248 154.131C258.566 155.962 257.997 158.988 256.526 159.511C255.056 160.033 251.57 157.739 251.852 155.309C251.904 154.689 252.166 154.102 252.606 153.625C253.046 153.148 253.644 152.801 254.322 152.63C255.968 152.422 257.121 153.964 257.248 154.131Z" fill="#DDD8CE"/>
<path d="M221.201 150.646C220.053 152.375 217.256 153.671 215.584 152.766C213.912 151.862 213.437 148.393 215.473 146.853C217.255 145.528 220.552 145.847 221.587 147.363C222.622 148.879 221.348 150.43 221.201 150.646Z" fill="#DDD8CE"/>
<path d="M301.125 159.421C301.355 159.766 301.454 160.163 301.406 160.553C301.359 160.943 301.168 161.305 300.862 161.585C300.419 161.852 299.874 161.963 299.33 161.897C298.787 161.831 298.284 161.592 297.918 161.227C297.525 160.871 297.292 160.405 297.265 159.918C297.237 159.431 297.417 158.959 297.77 158.592C298.042 158.447 298.348 158.353 298.667 158.316C298.987 158.279 299.314 158.3 299.628 158.378C299.942 158.456 300.237 158.588 300.495 158.767C300.752 158.947 300.967 159.169 301.125 159.421V159.421Z" fill="#DDD8CE"/>
<path d="M298.233 183.205C298.463 183.55 298.562 183.947 298.514 184.337C298.467 184.727 298.276 185.089 297.97 185.369C297.517 185.617 296.974 185.714 296.436 185.642C295.898 185.571 295.4 185.336 295.03 184.979C294.659 184.623 294.441 184.167 294.413 183.692C294.384 183.218 294.549 182.756 294.876 182.388C295.147 182.24 295.452 182.144 295.772 182.105C296.091 182.066 296.419 182.086 296.733 182.163C297.048 182.239 297.344 182.371 297.602 182.551C297.86 182.73 298.075 182.953 298.233 183.205V183.205Z" fill="#DDD8CE"/>
<path d="M325.946 148.783C325.727 148.546 325.458 148.348 325.154 148.2C324.849 148.053 324.517 147.959 324.175 147.925C323.844 147.905 323.517 147.961 323.224 148.088C322.931 148.214 322.684 148.406 322.506 148.645C321.758 150.061 325.804 153.812 326.976 153.313C327.823 152.96 327.535 150.261 325.946 148.783Z" fill="#DDD8CE"/>
<path d="M360.769 186.768C360.541 186.531 360.218 186.378 359.87 186.344C359.705 186.333 359.542 186.36 359.395 186.422C359.249 186.484 359.125 186.579 359.036 186.698C358.668 187.412 360.697 189.236 361.27 189.037C361.844 188.838 361.616 187.514 360.769 186.768Z" fill="#DDD8CE"/>
<path d="M336.679 194.703C336.862 194.833 337.013 194.993 337.123 195.174C337.234 195.355 337.301 195.553 337.32 195.755C337.34 195.957 337.311 196.159 337.236 196.348C337.162 196.538 337.042 196.71 336.886 196.855C336.699 196.921 336.497 196.953 336.292 196.949C336.088 196.945 335.885 196.904 335.696 196.83C335.507 196.756 335.336 196.649 335.194 196.517C335.051 196.385 334.94 196.229 334.866 196.06C334.677 195.301 335.999 194.457 336.679 194.703Z" fill="#DDD8CE"/>
<path d="M271.696 174.568C271.879 174.698 272.03 174.858 272.14 175.039C272.251 175.22 272.318 175.418 272.337 175.62C272.357 175.822 272.328 176.024 272.254 176.213C272.179 176.403 272.06 176.575 271.904 176.72C271.716 176.786 271.514 176.818 271.31 176.814C271.105 176.81 270.902 176.769 270.713 176.695C270.525 176.621 270.354 176.514 270.211 176.382C270.068 176.25 269.957 176.094 269.883 175.925C269.734 175.171 271.018 174.311 271.696 174.568Z" fill="#DDD8CE"/>
<path d="M340.509 172.143C340.673 172.243 340.813 172.369 340.922 172.516C341.03 172.662 341.105 172.826 341.14 172.996C341.176 173.166 341.172 173.339 341.129 173.506C341.086 173.673 341.005 173.829 340.89 173.965C340.317 174.386 338.672 173.695 338.644 173.049C338.685 172.876 338.768 172.713 338.887 172.572C339.005 172.43 339.158 172.313 339.333 172.227C339.509 172.142 339.704 172.09 339.907 172.076C340.109 172.061 340.315 172.084 340.509 172.143V172.143Z" fill="#DDD8CE"/>
<path d="M374.163 204.543C374.336 204.64 374.485 204.767 374.601 204.916C374.717 205.065 374.797 205.232 374.836 205.407C374.875 205.582 374.873 205.761 374.829 205.933C374.784 206.104 374.699 206.265 374.579 206.404C374.006 206.825 372.361 206.135 372.333 205.489C372.369 205.315 372.448 205.151 372.562 205.008C372.676 204.864 372.824 204.744 372.996 204.655C373.168 204.567 373.361 204.511 373.562 204.491C373.763 204.472 373.967 204.489 374.163 204.543V204.543Z" fill="#DDD8CE"/>
<path d="M281.572 98.9931C286.939 94.7394 271.467 73.0209 269.326 70.0268C261.323 58.7146 247.744 39.7147 222.171 27.4571C168.229 1.58546 110.318 29.4956 106.308 31.508C80.0021 44.6638 66.8628 63.136 55.7944 78.6825C39.1224 102.287 28.7533 129.005 25.4317 156.918C17.4541 224.383 53.9702 276.103 65.1876 291.497C73.8091 303.341 99.3134 335.882 143.81 360.43C162.559 370.797 182.815 378.815 203.965 384.241C215.925 387.191 228.123 389.226 240.418 390.322L259.812 391.583C275.456 385.787 278.565 382.812 278.108 381.168C277.454 378.834 269.917 379.996 260.483 375.718C253.79 372.662 248.217 367.968 244.465 362.228C238.537 352.803 241.516 343.177 242.664 335.618C247.054 306.678 229.115 280.232 226.53 276.483C213.231 256.944 202.753 262.014 181.171 234.68C172.313 223.463 166.007 215.488 162.918 203.325C161.678 198.431 158.888 184.797 156.957 174.562C155.645 167.615 153.965 158.298 147.263 155.789C144.701 154.823 142.259 155.181 140.621 153.334C138.437 150.802 139.607 146.365 141.807 143.584C144.008 140.802 147.437 139.595 152.54 138.288C161.774 135.904 171.274 134.294 180.912 133.48C194.876 132.573 193.739 133.767 198.629 132.889C211.354 130.605 212.108 123.746 228.118 113.392C238.923 106.4 256.096 95.2988 273.425 98.563C276.934 99.2351 279.851 100.361 281.572 98.9931Z" fill="#F0E7E0"/>
<path d="M196.723 113.86C201.745 111.707 206.207 108.702 209.857 105.013C213.343 101.465 213.258 100.076 215.394 98.0465C220.786 92.9312 229.691 93.8508 242.952 94.7511C278.341 97.2445 281.435 95.5998 282.261 93.8778C283.624 91.0412 279.671 86.2028 275.926 83.8315C271.126 80.7826 265.805 81.2337 260.583 81.65C230.155 84.0824 232.718 83.0623 230.048 83.8591C209.197 90.0615 210.573 104.855 187.238 112.531C177.776 115.644 170.419 115.544 170.55 116.343C170.715 117.519 184.27 119.086 196.723 113.86Z" fill="#9A511F"/>
<path d="M270.115 70.4845C268.683 73.1142 257.919 67.5409 244.031 68.4804C230.84 69.3176 221.495 75.5409 217.381 78.2999C202.263 88.3655 202.323 98.665 186.461 104.832C183.832 105.844 177.226 108.381 175.188 106.299C172.065 103.116 180.953 90.4115 189.944 82.2526C197.69 75.3694 207.001 69.9767 217.314 66.3992C222.399 64.5229 227.676 63.046 233.085 61.9854C245.762 59.3216 254.627 57.596 262.458 61.8313C267.076 64.2971 271.084 68.6865 270.115 70.4845Z" fill="#9A511F"/>
<path d="M158.968 101.301C166.034 95.9687 165.586 89.1852 168.645 82.209C175.025 67.6461 192.609 61.4318 202.029 58.1149C228.624 48.7559 253.031 57.3787 254.323 52.3723C254.962 49.763 248.799 45.8008 243.895 43.9309C235.24 40.6236 227.49 42.6599 215.51 45.981C172.527 57.8913 167.331 60.2967 165.104 66.0538C163.369 70.5158 164.467 74.154 160.506 80.1677C157.414 84.8851 154.91 85.4217 151.931 91.2978C150.305 94.5346 150.252 95.965 147.991 99.4634C145.315 103.612 143.31 104.899 143.791 105.682C144.708 107.067 153.053 105.757 158.968 101.301Z" fill="#9A511F"/>
<path d="M218.873 26.5886C207.703 24.2487 197.619 30.0434 191.573 33.4903C181.491 39.2735 181.143 43.1214 172.768 44.8949C167.997 45.9033 165.234 45.2636 161.112 47.6478C159.021 48.8655 158.066 49.9994 152.401 55.9342C146.263 62.3372 146.731 61.6816 146.131 62.4264C146.131 62.4264 141.955 67.5727 138.76 89.217C141.62 95.9902 142.056 96.0432 142.056 96.0432C144.287 96.3146 144.451 83.1802 152.209 68.7497C155.066 63.4313 157.548 58.885 162.909 55.016C168.27 51.1469 171.218 51.5872 182.491 47.5728C197.141 42.3452 195.604 40.3357 205.438 37.6884C219.818 33.8064 230.106 36.2376 230.587 33.6091C230.941 31.4676 224.91 27.8486 218.873 26.5886Z" fill="#9A511F"/>
<path d="M75.9401 209.696C67.4983 211.386 58.8854 212.445 50.1928 212.861C35.5218 213.414 25.1749 209.258 24.499 210.519C23.9839 211.45 29.4076 214.224 35.05 215.751C42.5939 217.837 49.1756 217.259 57.4247 216.521C64.2655 215.914 71.0056 214.747 77.5571 213.035C80.7595 211.381 84.202 209.404 83.5402 208.786C82.8785 208.169 79.0297 209.079 75.9401 209.696Z" fill="#9A511F"/>
<path d="M195.106 20.4145C195.363 22.5954 184.682 22.7332 172.713 28.2752C162.125 33.1557 156.089 39.9333 144.003 53.4869C134.698 63.8973 130.033 69.2062 130.565 74.5279C131.133 79.336 130.916 84.168 129.918 88.877C129.26 91.8693 128.62 93.0532 127.88 93.08C126.319 93.1355 124.687 87.937 124.485 87.2816C121.866 78.9607 125.652 70.3088 128.849 64.0737C134.678 52.7149 140.021 42.2781 152.678 31.6212C160.895 24.6532 169.675 17.45 182.351 17.3328C188.173 17.2699 194.91 18.7201 195.106 20.4145Z" fill="#9A511F"/>
<path d="M107.899 166.036C105.57 166.022 87.4193 165.882 78.996 164.858C67.9697 163.423 59.7882 158.538 52.907 154.418C37.0309 144.94 29.3166 133.57 27.7785 134.539C26.6611 135.244 29.5692 141.848 34.3974 147.646C42.5765 157.507 53.3621 161.471 71.136 168.014C75.0225 169.572 79.1213 170.652 83.3129 171.224C90.2839 172.072 90.5167 170.488 99.1653 170.652C107.814 170.816 112.154 172.477 119.681 170.624C120.883 170.326 123.828 169.574 123.697 168.776C123.462 167.298 113.623 166.452 112.655 166.37C109.921 166.049 107.913 166.038 107.899 166.036Z" fill="#9A511F"/>
<path d="M70.3252 60.4491C73.2906 61.1836 67.4802 75.9093 73.4236 94.4594C76.6011 104.355 82.1467 112.296 85.9217 117.72C92.5404 127.194 95.8365 131.929 99.9545 134.532C103.325 136.671 108.953 139.424 110.189 144.235C110.332 144.825 110.759 146.489 109.852 147.01C107.712 148.303 99.6541 141.739 97.0326 139.609C88.5567 132.726 81.2907 124.782 75.4864 116.054C70.5334 108.457 66.8533 100.303 64.5632 91.8514C60.612 76.6394 63.8676 69.1497 64.9134 66.9404C65.1974 66.3675 68.3332 59.9731 70.3252 60.4491Z" fill="#9A511F"/>
<path d="M134.88 20.6482C136.043 22.0981 121.99 27.4801 112.937 41.5543C110.709 44.9984 108.45 50.3545 103.927 61.1013C100.916 68.2351 100.227 70.5929 99.7787 73.1786C98.8854 78.2102 99.8539 78.3981 99.9105 89.8303C99.958 98.1422 99.4609 103 102.191 104.126C103.821 104.827 105.077 103.531 107.121 104.457C109.661 105.607 109.038 108.195 111.527 110.426C114.016 112.656 115.91 111.181 119.06 112.931C124.957 116.218 127.136 126.179 125.216 130.175C124.958 130.551 124.796 130.973 124.743 131.414C124.689 131.855 124.745 132.304 124.905 132.73C125.578 133.805 127.199 133.477 128.36 134.506C129.521 135.535 128.687 136.999 129.251 139.077C130.256 142.821 134.688 142.846 135.837 146.619C136.43 148.572 135.996 151.042 134.648 151.544C132.951 152.167 130.186 149.565 127.314 146.855C123.71 143.438 121.446 141.34 120.905 138.19C120.364 135.04 122.048 134.965 121.38 131.858C120.612 128.26 118.302 127.979 117.898 124.577C117.562 121.837 118.992 121.205 118.176 118.769C118.012 118.247 117.002 115.426 114.439 114.576C111.876 113.727 110.506 115.629 108.704 114.802C106.433 113.755 107.906 110.347 105.283 108.229C103.211 106.54 101.304 107.897 98.6544 106.547C96.4579 105.439 96.1697 103.733 93.3694 95.4717C90.9227 88.2699 90.2809 87.0469 90.496 84.3978C90.711 81.7487 91.5761 81.0245 92.5011 77.936C95.0765 69.4291 90.9856 65.9409 93.1212 58.9575C93.5255 57.6165 95.523 54.9622 99.5154 49.6767C103.636 44.1321 108.079 38.781 112.827 33.6437C119.075 26.997 121.591 25.3638 123.25 24.3973C128.031 21.7662 134.163 19.7082 134.88 20.6482Z" fill="#9A511F"/>
</g>
<defs>
<clipPath id="clip0">
<rect width="416.834" height="364.166" fill="white" transform="matrix(-0.992685 -0.120735 -0.120735 0.992685 457.753 50.3267)"/>
</clipPath>
</defs>
</svg>
