<svg width="398" height="446" viewBox="0 0 398 446" fill="none" xmlns="http://www.w3.org/2000/svg">
<g clip-path="url(#clip0)">
<path d="M367.176 417.331C363.816 389.564 362.598 366.965 362.089 352.137C360.445 304.343 364.768 291.684 353.411 278.818C342.053 265.952 328.758 267.091 313.677 246.545C306.935 237.378 303.547 228.924 305.223 227.608C307.996 225.326 322.276 246.1 346.741 249.326C352.95 250.165 359.683 251.064 362.78 247.407C370.735 237.726 347.373 203.662 328.456 182.232C308.22 159.73 284.381 140.744 257.912 126.048C193.545 87.5729 115.342 24.2107 122.296 9.93949C129.25 -4.33167 220.92 20.8869 297.831 64.1639C337.517 86.4769 373.618 107.316 404.225 151.096C419.473 172.964 461.082 232.525 448.834 283.048C446.435 293.012 439.328 313.288 443.646 339.82C446.367 356.512 450.675 357.792 451.572 370.683C453.256 394.656 441.18 431.095 414.143 436.66C390.408 441.583 369.471 419.876 367.176 417.331Z" fill="#8C831E"/>
<path d="M304.787 292.633C266.556 261.254 212.75 260.409 213.856 252.417C214.415 248.309 228.796 248.984 230.042 242.952C231.287 236.92 218.12 231.789 199.762 217.26C183.767 204.602 172.072 195.103 169.592 180.602C167.612 169.241 171.435 155.996 177.919 154.029C183.068 152.454 186.541 158.996 197.774 161.936C206.849 164.33 212.812 162.227 218.359 161.871C239.606 160.446 259.984 184.571 281.256 209.75C299.488 231.375 306.048 244.667 314.992 243.223C325.384 241.354 328.583 220.979 332.907 221.885C337.232 222.79 333.317 238.962 337.358 257.29C343.375 284.536 359.733 287.291 367.01 311.587C374.481 336.567 366.991 366.334 357.696 368.063C345.858 370.282 343.419 324.294 304.787 292.633Z" fill="#9E9221"/>
<path d="M355.3 336.355C345.225 322.569 326.92 297.522 294.09 279.27C258.909 259.749 249.539 271.659 204.96 252.774C161.49 234.351 143.236 211.523 137.478 216.641C130.82 222.546 145.878 261.428 176.767 288.649C213.16 320.736 237.566 306.637 303.355 339.351C346.466 360.801 370.458 384.035 375.976 378.38C381.495 372.725 360.371 343.344 355.3 336.355Z" fill="#70661C"/>
<path d="M361.399 421.279C333.776 419.479 323.462 401.378 305.613 407.477C293.662 411.522 287.402 423.365 284.165 421.27C280.928 419.176 288.997 407.742 284.852 398.604C279.854 387.468 259.02 385.196 245.175 386.088C206.413 388.565 180.74 418.548 175.612 413.338C171.896 409.627 186.469 395.296 181.274 386.249C176.08 377.202 159.661 384.571 136.508 376.847C120.964 371.594 119.339 365.442 107.048 359.418C69.3897 341.001 27.1569 371.47 22.1037 362.75C17.6748 355.144 42.689 319.265 78.9408 311.316C105.306 305.538 128.815 316.509 145.898 300.228C151.963 294.43 153.474 288.761 160.714 286.969C172.697 284.165 178.333 297.017 194.885 297.322C207.884 297.558 210 289.726 222.331 290.961C233.523 292.106 235.967 299.017 247.48 304.768C265.024 313.504 292.014 313.663 303.208 301.281C310.353 293.129 305.181 286.529 312.9 259.225C314.67 252.629 320.025 233.78 323.847 234.355C329.252 234.906 320.953 269.042 339.129 303.495C345.809 317.435 356.022 329.387 368.757 338.166C383.806 348.172 390.88 344.887 399.453 354.17C411.689 367.432 415.098 393.4 402.772 408.404C390.445 423.408 367.859 421.814 361.399 421.279Z" fill="#A6A119"/>
</g>
<defs>
<clipPath id="clip0">
<rect width="425.579" height="448.864" fill="white" transform="translate(0.264648 426.056) rotate(-87.462)"/>
</clipPath>
</defs>
</svg>
