<svg width="441" height="664" viewBox="0 0 441 664" fill="none" xmlns="http://www.w3.org/2000/svg">
<g clip-path="url(#clip0)">
<path d="M-49.6856 492.437C-54.2834 481.587 -35.9492 472.186 -25.5231 451.692C-11.2978 423.495 -16.1289 381.22 -37.3618 360.48C-50.2662 347.87 -58.0831 354.017 -74.9592 338.365C-93.3153 321.187 -105.123 293.832 -97.6595 285.191C-96.4414 283.729 -94.7712 282.705 -92.8799 282.26C-90.9886 281.814 -88.9696 281.97 -87.1021 282.704C-83.6248 284.921 -85.6956 290.785 -84.6693 298.921C-81.8726 321.158 -59.4657 334.408 -56.7222 336.023C-53.1497 338.055 -48.6405 340.644 -46.6784 338.996C-43.4718 336.371 -54.641 324.499 -59.2502 307.13C-66.2016 280.443 -50.5679 268.149 -61.1024 246.927C-65.2132 238.681 -67.4841 240.706 -74.0839 230.737C-91.5128 204.397 -90.6359 167.057 -79.1046 162.429C-76.5102 161.642 -73.6706 161.768 -71.0522 162.786C-68.4337 163.804 -66.1921 165.653 -64.6955 168.029C-62.4733 173.208 -69.3363 178.666 -67.1569 181.447C-64.9776 184.229 -57.339 182.45 -51.6634 179.327C-44.2887 175.285 -42.1846 169.448 -38.9371 170.585C-37.8083 171.218 -36.8885 172.175 -36.3069 173.319C-35.7253 174.464 -35.511 175.739 -35.6943 176.966C-36.7587 185.071 -55.9382 181.759 -62.9975 193.513C-66.5271 199.39 -65.3941 206.512 -63.9839 215.54C-63.6808 217.416 -61.3462 232.187 -57.5736 232.546C-53.801 232.904 -54.388 219.196 -45.9907 202.133C-35.4656 180.565 -23.3826 178.12 -24.4641 165.424C-25.273 156.206 -31.6967 156.092 -35.6265 141.431C-37.9315 133.088 -40.1156 117.18 -33.0134 113.335C-30.882 112.321 -28.4165 112.092 -26.039 112.688C-23.6614 113.284 -21.5197 114.667 -19.9803 116.602C-18.2842 119.565 -20.7513 122.375 -22.2826 128.26C-24.7879 138.125 -23.3662 149.998 -20.0339 151.098C-16.7015 152.199 -9.01614 142.742 -5.58082 132.693C-2.14549 122.645 -4.24187 115.679 0.0167397 113.811C2.1621 113.236 4.4871 113.434 6.58974 114.369C8.69238 115.304 10.4405 116.918 11.5318 118.932C13.2966 122.424 11.4651 126.227 7.2112 133.873C-0.845822 148.275 -5.20833 154.625 -5.20833 154.625C-21.3176 178.183 -23.0167 182.777 -21.189 185.375C-19.3613 187.974 -14.8044 187.714 -13.8925 187.621C-5.53628 187.007 -2.04283 177.636 5.97321 164.985C14.7306 151.157 25.3053 134.564 35.5463 136.07C38.0357 136.531 40.3558 137.762 42.1647 139.583C43.9735 141.404 45.1753 143.718 45.5929 146.184C45.6844 150.563 40.2156 152.753 27.7789 165.565C24.9058 168.462 23.7919 169.755 24.2426 170.701C25.367 172.934 35.8825 172.88 42.0213 167.354C46.8278 163.048 46.0283 158.036 49.5275 157.436C51.8838 157.54 54.1743 158.47 55.9871 160.06C57.7999 161.649 59.016 163.794 59.4169 166.109C60.2058 173.106 49.3616 180.502 39.0595 182.2C28.7575 183.898 26.2446 179.007 16.4534 180.965C8.52982 182.616 7.90562 186.304 -2.43551 192.065C-18.3341 200.94 -22.7108 195.468 -30.5725 202.418C-35.3609 206.635 -34.3604 209.291 -42.9597 236.74C-47.8206 252.34 -49.9875 257.233 -47.7987 258.71C-43.2294 262.45 -22.7663 246.025 -21.5294 244.991C-13.9489 238.86 -9.67028 233.701 -6.31028 235.244C-3.93847 236.293 -2.42906 240.573 -3.05038 244.054C-5.31268 256.48 -33.0627 250.983 -42.0707 267.703C-44.8571 272.876 -44.9715 279.344 -45.1926 292.339C-45.3546 301.655 -45.4947 306.317 -43.2182 307.55C-37.5846 310.535 -17.0767 295.144 -13.6947 275.498C-12.9561 270.853 -13.0514 265.526 -9.89055 264.386C-6.72971 263.247 0.0960593 267.837 0.598231 272.395C1.1004 276.953 -4.90113 279.862 -3.67187 282.443C-2.44261 285.024 1.67211 285.032 5.29988 284.275C14.2383 282.405 14.4337 273.117 22.2543 271.592C27.462 270.606 33.535 273.53 34.0782 276.336C34.8814 280.458 23.5579 283.473 24.3126 287.45C25.0673 291.427 38.0746 291.051 38.9961 295.165C39.6345 297.787 35.4378 301.281 31.2231 303.028C19.545 307.904 9.8624 298.298 -2.71519 298.081C-10.7235 297.93 -21.9375 301.558 -35.0641 319.159C-34.1162 332.941 -30.9126 346.608 -25.5789 359.627C-18.5626 376.708 -15.1769 374.546 -12.3315 385.904C-8.78674 400.354 -12.7481 410.024 -11.0206 441.936C-10.6251 447.509 -10.447 450.49 -8.80414 451.205C-3.66505 453.364 11.599 433.628 17.1765 410.688C19.3417 404.205 20.1059 397.272 19.4217 390.321C16.4296 370.025 -0.950677 364.039 -1.15262 345.029C-1.13982 339.468 0.328429 334.088 3.10987 329.411C5.06909 326.133 8.30525 320.75 13.2261 320.999C14.9977 321.087 16.7228 321.759 18.1255 322.907C19.5282 324.055 20.5276 325.613 20.9638 327.333C20.9771 330.651 15.293 330.722 12.984 336.128C11.6852 339.212 11.5889 343.753 13.9388 345.781C16.8738 348.184 22.517 346.189 24.763 345.351C29.9155 343.479 31.7099 340.538 33.7272 341.612C34.6916 342.214 35.4543 343.093 35.9042 344.122C36.3541 345.151 36.4677 346.277 36.2286 347.334C35.0317 352.811 24.0626 350.289 19.6582 357.235C18.6512 359.368 18.1051 361.707 18.0532 364.11C18.0013 366.512 18.4445 368.929 19.356 371.213C20.9684 377.204 25.6024 386.037 29.6609 385.842C33.7194 385.647 35.2069 376.209 38.911 357.667C45.6559 324.658 46.6394 319.374 48.5567 307.505C53.4282 277.058 53.1966 273.666 50.6542 269.695C42.7374 257.388 25.1799 258.764 21.696 246.621C19.5996 239.656 24.4119 234.933 20.564 229.632C16.7162 224.33 12.1507 227.049 5.85478 221.948C-0.441153 216.847 -4.60823 206.559 -1.26917 201.051C0.723411 197.8 5.37748 195.993 7.72072 197.281C10.7205 199.265 6.95071 206.047 11.2712 211.316C13.2943 213.812 16.741 215.794 18.3838 214.671C21.3017 212.808 13.6831 202.11 17.8103 196.932C19.2109 195.448 21.1202 194.524 23.2098 194.318C25.2994 194.112 27.4386 194.638 29.2596 195.805C32.5948 198.535 29.9161 203.849 30.2915 214.55C30.6329 224.022 33.2929 233.404 38.0434 241.892C41.2309 247.389 48.7523 257.797 52.9099 256.529C57.0675 255.26 53.4741 244.34 55.5067 225.322C57.4028 210.686 60.9681 196.402 66.1358 182.737C70.2554 171.989 73.0922 167.434 71.6 160.071C70.1078 152.708 65.3708 151.35 61.4372 141.254C58.1153 132.655 56.0171 119.704 61.0733 116.862C63.0491 116.192 65.2307 116.195 67.2837 116.87C69.3367 117.546 71.1476 118.856 72.4387 120.601C75.7663 125.11 71.7354 129.421 74.0624 138.623C75.023 142.349 77.6177 149.249 80.3993 149.322C84.5036 149.479 88.8061 134.629 88.5993 120.864C88.3192 111.411 86.2675 101.989 82.5484 93.0764C76.5546 77.6715 71.1249 75.799 70.1358 64.9633C69.425 57.1899 71.1384 46.0467 76.976 44.6311C78.7669 44.3022 80.6518 44.5703 82.3418 45.3942C84.0317 46.2181 85.4333 47.5524 86.3317 49.1924C88.511 53.8109 82.6477 57.0952 82.5352 65.8744C82.4428 71.3629 84.6602 78.1123 87.6952 78.7595C90.7303 79.4067 93.5624 74.586 99.3133 65.3829C105.574 55.2849 106.126 51.9571 109.396 51.4322C115.295 50.4864 123.907 59.426 122.722 64.0724C121.932 66.9427 117.936 66.2442 112.523 69.3192C102.086 75.2643 99.4409 87.9542 98.6109 91.8942C96.6326 101.456 97.7589 113.349 100.802 114.055C103.844 114.76 105.551 101.04 118.608 89.1034C122.126 85.8942 132.519 76.3963 141.224 79.8474C146.692 82.0135 150.56 88.8549 149.102 91.8609C147.644 94.8668 142.86 92.6825 136.077 94.1643C133.615 94.7216 128.052 96.4144 119.682 105.415C106.015 120.002 104.011 133.269 89.6722 158.067C80.7327 173.479 73.176 182.778 77.144 188.546C78.0707 189.651 79.2176 190.559 80.5058 191.205C81.7939 191.852 83.1925 192.223 84.6053 192.291C95.7612 193.497 107.714 179.712 109.266 166.18C110.202 158.232 106.837 156.422 108.81 149.113C111.675 138.808 121.431 130.836 124.888 132.669C127.542 134.054 126.559 141.175 126.422 141.955C125.199 151.138 118.328 154.7 120.183 158.423C120.767 159.365 121.618 160.124 122.623 160.599C123.627 161.075 124.737 161.243 125.804 161.082C132.201 160.072 130.626 144.032 135.779 143.316C139.26 142.806 145.041 149.218 145.043 155.203C145.045 161.189 139.732 163.664 132.215 170.057C113.443 186.186 117.04 194.38 104.152 199.578C92.8414 204.073 88.3827 198.428 79.794 203.681C66.8475 211.876 65.7011 232.669 69.0582 234.42C71.4605 235.704 75.4647 226.593 87.6383 223.698C89.4908 223.272 96.9188 221.478 98.9285 224.331C100.938 227.183 96.3108 235.626 89.7957 240.319C82.3705 245.579 76.8254 243.508 71.2661 246.148C53.758 254.336 57.1216 299.084 63.895 300.744C70.6683 302.404 93.2194 266.008 95.696 261.894C96.2426 260.756 97.0367 259.761 98.0249 258.976C99.0131 258.192 100.172 257.635 101.425 257.345C102.765 257.181 104.148 257.453 105.368 258.12C106.588 258.788 107.58 259.816 108.196 261.05C109.653 265.393 101.594 270.816 102.199 271.574C102.804 272.332 117.146 259.505 122.949 263.1C125.926 264.907 126.808 271.246 124.473 274.847C121.408 279.476 114.897 277.087 104.159 280.475C98.52 282.338 93.3106 285.179 88.7644 288.87C81.0356 295.011 74.9799 302.945 71.0837 312.035C62.4645 329.913 61.442 337.423 53.4745 357.567C39.4921 393.837 32.6215 410.26 32.6215 410.26C28.8717 419.264 26.8229 424.148 28.2418 425.205C31.577 427.935 49.7741 410.128 62.3927 393.896C75.9891 376.469 82.7615 367.787 82.7778 356.2C82.7569 339.963 71.3953 331.66 76.5192 319.004C79.6972 311.107 87.5741 306.111 89.3961 307.288C91.218 308.464 88.4202 312.63 89.4027 320.889C89.4865 321.535 90.4518 329.201 92.2957 329.398C94.1396 329.595 94.0244 314.698 103.08 309.828C107.532 307.383 113.979 307.673 115.755 310.334C117.531 312.995 113.101 319.973 106.889 328.378C99.7837 337.942 95.1144 341.469 94.4692 349.13C94.4063 350.023 94.0156 355.74 96.1616 356.657C99.1366 357.99 105.2 349.358 107.712 345.745C143.948 294.673 158.727 283.831 153.343 267.613C150.363 258.665 142.753 252.855 143.123 240.087C143.133 233.271 145.496 231.269 143.766 226.441C140.466 216.863 129.197 217.77 124.597 208.283C119.998 198.796 124.946 186.626 128.702 186.393C131.276 186.243 134.55 192.178 135.88 195.996C137.722 201.231 136.327 203.344 138.705 206.97C140.705 209.972 144.554 212.755 147.069 211.927C149.585 211.099 149.631 207.777 150.564 203.712C152.825 193.804 158.782 182.513 162.95 182.932C165.762 183.24 168.23 188.934 168.552 193.712C169.047 199.367 166.174 202.265 162.505 209.129C157.859 217.696 155.167 227.247 154.606 237.151C154.607 238.307 154.358 252.696 158.548 253.974C160.656 254.597 163.233 251.72 173.585 234.787C189.456 208.934 190.457 204.241 190.843 200.096C191.574 191.718 189.189 190.343 190.711 180.251C191.204 176.927 193.683 160.426 201.004 159.647C202.346 159.553 203.709 159.857 204.921 160.522C206.132 161.187 207.137 162.181 207.808 163.38C209.536 167.052 205.083 170.178 202.127 179.097C200.226 184.89 199.266 192.187 201.175 193.121C203.696 194.396 209.037 182.496 215.369 183.742C216.94 184.197 218.365 185.099 219.46 186.332C220.555 187.565 221.27 189.073 221.513 190.662C222.496 198.92 205.395 200.826 200.53 215.479C199.096 219.817 198.373 226.416 201.154 228.326C205.506 231.311 216.726 221.755 219.943 218.982C235.642 205.587 239.172 192.361 243.986 193.624C247.221 194.435 249.713 201.462 248.955 207.56C247.212 223.298 223.697 234.128 205.406 236.741C194.963 238.271 190.797 236.488 185.217 240.582C177.848 246.046 179.911 252.984 173.548 266.882C165.569 284.182 154.586 290.047 157.026 293.462C159.466 296.877 171.877 293.283 180.249 289.112C186.979 285.274 193.091 280.51 198.412 274.952C212.203 261.779 216.246 254.118 221.471 255.56C223.133 256.165 224.594 257.253 225.654 258.675C226.714 260.097 227.32 261.784 227.391 263.503C227.31 273.673 200.98 273.38 197.31 288.275C196.292 292.376 196.993 297.78 199.852 299.595C204.959 302.883 218.413 295.156 226.805 285.858C231 281.208 232.755 277.5 235.936 277.9C238.198 278.669 240.138 280.228 241.378 282.271C242.619 284.315 243.071 286.699 242.648 288.958C241.675 292.256 237.958 292.782 230.556 295.7C215.669 301.571 216.727 304.905 208.773 306.32C199.823 307.865 198.125 303.746 184.791 302.752C175.822 301.92 166.891 303.03 158.624 306.004C148.007 310.331 144.874 317.425 133.346 332.87C130.515 336.327 122.179 346.511 104.706 366.224C93.8379 379.478 82.1988 392.084 69.8426 403.983C48.1016 423.194 31.6284 429.709 33.2979 433.386C34.9674 437.062 49.3585 429.892 78.0948 429.898C96.2927 429.782 105.227 432.476 109.394 426.91C111.913 423.356 110.369 416.055 107.153 401.612C103.937 387.169 101.222 381.639 104.263 376.359C107.304 371.08 114.05 368.623 116.439 370.263C118.828 371.904 115.927 376.196 115.386 386.724C115.164 391.214 115.111 401.145 116.993 401.635C118.875 402.126 121.249 392.626 126.794 380C135.019 361.378 142.659 352.725 155.434 338.615C159.887 333.652 164.247 329.346 169.779 329.938C175.31 330.529 179.863 334.833 179.584 337.964C179.305 341.095 175.377 341.607 172.162 343.017C157.834 349.293 149.978 366.852 152.437 369.495C154.897 372.138 168.233 364.42 176.296 358.789C188.097 350.496 192.234 343.332 197.32 345.081C199.185 345.932 200.718 347.398 201.643 349.214C202.567 351.03 202.822 353.076 202.361 354.981C200.906 357.779 195.792 355.589 191.67 359.196C188.563 361.902 187.136 366.98 188.675 368.502C191.753 371.547 203.402 359.561 210.157 363.83C211.593 364.796 212.691 366.189 213.276 367.79C213.862 369.391 213.902 371.108 213.391 372.671C212.036 375.552 207.477 375.337 196.971 375.923C196.971 375.923 185.438 376.404 175.832 377.727C167.91 378.343 160.167 380 152.804 382.656C145.655 385.124 139.237 389.155 134.007 394.46C131.568 397.031 121.925 407.247 124.556 418.797C124.669 420.078 125.051 421.337 125.679 422.493C126.306 423.649 127.165 424.675 128.199 425.506C132.732 428.271 137.448 422.578 147.838 419.955C161.011 416.723 166.111 422.945 172.863 418.235C175.673 416.231 174.948 415.008 181.596 401.919C189.186 387.135 191.419 385.972 193.256 386.11C194.784 386.459 196.18 387.298 197.221 388.492C198.262 389.687 198.888 391.169 199 392.702C199.062 398.002 190.397 398.993 189.784 405.525C189.649 406.806 189.822 408.118 190.288 409.357C190.754 410.595 191.501 411.725 192.468 412.657C194.136 414.022 197.435 415.095 214.975 407.616C232.516 400.137 234.077 397.006 234.765 395.417C235.753 392.786 236.194 389.957 236.063 387.093C235.931 384.23 235.23 381.387 234 378.728C229.808 369.627 222.992 371.081 217.783 361.726C215.972 358.126 214.896 354.243 214.621 350.31C214.347 346.377 214.878 342.477 216.184 338.843C216.904 336.807 218.531 331.893 221.272 331.879C224.012 331.865 227.142 336.684 228.076 341.123C229.472 347.515 225.765 349.73 227.182 355.824C228.19 360.376 231.568 365.504 234.393 365.454C237.219 365.405 237.919 358.629 242.576 347.428C249.212 331.496 254.877 330.359 256.054 318.987C256.773 312.121 254.658 312.595 255.189 304.053C255.882 294.608 258.779 285.573 263.656 277.651C266.949 271.79 273.925 259.39 279.394 260.875C282.452 261.698 284.766 266.9 284.195 271C283.445 276.475 277.937 277.216 272.82 283.263C266.028 291.561 265.18 302.94 267.064 303.905C268.947 304.869 273.81 295.254 287.996 283.98C296.42 277.227 300.74 275.829 303.967 277.263C305.039 277.753 305.985 278.497 306.715 279.425C307.445 280.353 307.936 281.436 308.143 282.571C308.905 288.445 299.421 293.227 292.873 297.211C272.161 310.334 257.711 333.361 261.831 339.148C264.089 342.309 273.147 341.587 278.918 338.28C285.717 334.396 286.738 327.569 290.56 328.072C292.272 328.675 293.761 329.823 294.785 331.328C295.808 332.833 296.306 334.606 296.196 336.36C295.642 344.726 277.775 348.998 274.772 349.741C263.495 352.426 258.484 350.109 254.391 354.633C252.127 357.399 251.583 360.785 250.821 367.773C249.793 376.853 249.206 383.354 252.078 385.494C257.16 389.287 272.012 379.922 282.275 369.426C293.137 358.265 292.596 352.258 308.288 329.618C323.076 308.286 327.911 307.414 330.397 308.189C332.135 309.075 333.588 310.45 334.562 312.129C335.536 313.809 335.985 315.712 335.849 317.586C335.685 324.591 326.679 325.251 318.311 336.563C317.024 338.134 310.732 346.842 312.955 349.501C315.801 352.829 330.593 345.987 340.475 339.903C354.634 331.178 356.829 324.891 369.913 320.746C376.332 318.757 385.375 317.235 386.607 319.609C387.24 320.809 385.753 322.899 380.961 327.323C368.648 338.555 356.631 344.729 356.985 345.386C357.338 346.043 386.748 330.8 392.026 337.01C393.718 339.025 392.788 342.883 391.316 345.09C386.585 353.658 373.345 352.006 346.644 354.821C325.854 357.015 315.468 358.067 308.334 362.359C294.653 370.635 295.583 379.638 281.973 383.404C275.359 384.417 269.369 387.514 264.877 392.245C263.771 393.596 261.532 396.331 262.391 397.663C264.498 400.805 285.207 397.757 298.283 385.049C301.778 381.664 304.709 377.607 308.332 378.42C310.181 379.062 311.773 380.326 312.819 381.982C313.866 383.638 314.297 385.577 314.035 387.445C312.665 393.2 300.454 393.284 300.734 395.664C300.883 397.047 305.096 398.501 309.196 398.392C318.525 398.154 322.943 390.171 326.167 391.812C328.528 393.01 329.36 398.73 327.942 402.504C323.07 415.261 293.773 402.67 251.407 412.714C231.027 417.606 222.758 424.17 186.202 432.356C181.796 433.316 177.279 434.343 171.167 435.482C149.16 439.185 126.742 440.881 104.189 440.549C62.0514 441.332 40.7116 441.816 27.4288 446.271C3.39707 454.263 -13.9214 468.275 -12.9837 469.988C-12.0461 471.7 1.77896 463.385 26.1766 458.212C41.3662 454.898 58.4569 451.303 79.1953 454.683C103.29 458.659 106.182 467.85 121.222 464.991C132.567 462.835 144.902 454.979 153.578 449.483C162.944 443.554 169.548 437.936 173.451 440.448C174.558 441.236 175.376 442.364 175.764 443.64C176.153 444.915 176.088 446.259 175.581 447.441C173.498 450.461 166.364 446.248 163.791 449.391C163.16 450.363 162.869 451.525 162.959 452.711C163.049 453.897 163.515 455.046 164.29 455.994C167.875 460.188 177.061 455.635 179.417 459.085C179.886 460.194 180.015 461.398 179.786 462.54C179.556 463.681 178.98 464.708 178.131 465.487C173.757 469.675 165.206 462.36 153.057 464.069C146.18 465.054 137.999 468.856 138.372 472.415C138.788 477.69 158.218 485.459 174.178 480.728C183.017 478.095 188.638 471.568 199.346 458.759C215.866 439.054 220.402 426.231 228.252 427.461C229.926 427.741 231.505 428.506 232.786 429.657C234.068 430.809 234.992 432.294 235.44 433.922C236.157 441.28 215.952 445.685 217.235 450.515C217.727 452.703 222.237 454.61 226.183 454.008C234.014 453.016 234.893 443.028 241.22 442.852C243.387 442.902 245.513 443.698 247.23 445.104C248.947 446.51 250.148 448.436 250.625 450.551C250.856 456.461 238.025 462.337 226.758 463.717C215.491 465.097 208.553 461.256 204.176 465.651C200.909 468.962 200.278 475.584 203.041 478.265C207.483 482.637 220.265 476.617 232.902 470.636C242.457 466.738 251.35 461.53 259.331 455.158C275.73 441.18 275.854 429.733 289.271 426.543C295.404 425.107 303.222 425.627 304.622 428.611C305.647 430.762 302.957 433.232 295.131 441.839C280.679 457.725 280.826 459.315 274.807 463.469C265.978 469.628 260.034 470.221 260.463 472.147C261.091 474.918 274.333 477.726 282.236 472.018C286.427 468.939 285.89 465.717 289.851 457.884C296.241 445.11 307.28 434.618 310.175 436.253C311.748 437.121 311.272 441.718 309.949 445.307C306.506 453.46 297.352 453.211 296.663 459.156C296.325 462.291 298.395 466.295 300.824 466.866C306.059 468.159 309.448 452.928 318.988 452.706C322.108 452.636 325.83 454.213 326.467 456.361C327.104 458.509 322.86 462.332 307.719 471.303C282.327 486.265 277.876 487.346 274.062 487.583C263.853 488.623 261.405 485.149 250.48 484.343C231.216 482.904 220.816 492.343 207.959 497.094C187.076 504.777 176.753 493.912 115.133 479.166C73.1775 469.18 51.9303 464.175 39.6176 467.377C5.24085 476.507 -6.81376 508.109 -34.0597 502.131C-36.481 501.619 -46.7878 499.376 -49.6856 492.437Z" fill="#D6D077"/>
</g>
<defs>
<clipPath id="clip0">
<rect width="502" height="446" fill="white" transform="translate(51.9199 0.868164) rotate(39.3028)"/>
</clipPath>
</defs>
</svg>
