<svg width="1440" height="1296" viewBox="0 0 1440 1296" fill="none" xmlns="http://www.w3.org/2000/svg">
<g clip-path="url(#clip0)">
<path d="M286.3 710.169C305.332 706.18 302.038 690.461 323.922 672.211C345.806 653.961 372.332 650.309 409.964 645.126C437.617 641.258 451.455 639.328 455.968 645.51C464.593 657.274 436.934 694.393 399.637 711.152C381.332 719.358 352.121 732.344 322.5 724.83C317.224 723.522 306.973 720.349 296.576 723.917C287.05 727.2 278.463 735.758 276.562 737.711C269.907 744.373 269.005 747.985 265.482 747.873C259.272 747.673 258.477 736.526 248.409 730.537C236.188 723.255 221.293 731.532 219.201 727.905C217.11 724.278 227.075 714.153 241.402 709.63C260.203 703.843 270.147 713.561 286.3 710.169Z" fill="#2B6178"/>
<path d="M589.746 575.174C603.537 576.613 607.458 568.633 625.314 562.692C639.195 558.125 651.17 558.184 664.467 558.349C695.547 558.675 738.494 568.719 740.629 579.703C742.644 590.164 707.702 600.17 682.607 602.182C664.72 603.606 644.806 605.178 623.527 595.834C614.379 591.797 608.762 587.417 600.235 588.037C586.375 589.022 581.273 602.046 572.761 599.173C569.076 597.859 569.451 595.226 563.686 589.535C552.217 578.198 539.635 577.9 539.152 573.931C538.669 569.963 549.819 566.298 561.31 566.779C574.82 567.569 577.988 574.003 589.746 575.174Z" fill="#2B6178"/>
<path d="M223.122 881.706C245.375 863.427 261.546 866.102 288.417 854.5C330.204 836.435 359.733 800.258 354.022 792.688C348.311 785.119 303.935 799.516 272.769 819.788C257.216 829.911 243.836 838.613 231.145 854.445C222.361 865.426 220.214 871.956 209.692 878.68C192.954 889.251 171.78 889.756 172.008 890.409C172.237 891.062 189.812 886.416 194.744 892.427C198.685 897.194 192.134 905.722 194.114 907C196.857 908.869 210.104 892.412 223.122 881.706Z" fill="#2B6178"/>
<path d="M106.182 814.511C124.803 794.915 149.736 757.032 138.902 746.287C128.36 735.875 84.1058 750.865 59.3527 775.8C47.8845 787.421 38.9497 800.994 32.9753 815.868C26.9805 832.691 30.3172 838.865 22.4487 846.055C9.6502 857.801 -7.92445 849.571 -20.2015 862.874C-26.5287 869.768 -28.6806 879.475 -25.8474 881.811C-23.0142 884.147 -16.4877 876.479 -4.85098 877.561C5.24535 878.506 8.36294 885.151 17.1252 884.157C21.7927 883.403 25.921 881.186 28.823 877.874C36.2468 870.206 31.8379 862.94 36.0858 855.191C41.9623 844.456 56.3711 847.326 75.4105 838.857C88.4142 833.153 95.5165 825.667 106.182 814.511Z" fill="#2B6178"/>
<path d="M455.926 577.504C481.036 565.092 518.791 537.769 512.226 524.612C505.661 511.455 457.548 512.24 424.589 527.688C409.273 534.915 395.715 544.719 384.567 556.627C375.045 567.664 373.817 574.133 368.355 578.453C366.875 579.585 365.236 580.537 363.475 581.288C350.576 587.486 341.016 583.599 328.027 585.808C313.345 588.307 302.667 597.194 303.768 599.645C304.869 602.095 315.669 596.819 325.606 602.098C336.712 607.977 336.603 621.591 342.287 621.97C346.665 622.272 347.555 614.379 356.632 605.31C361.456 600.698 367.075 596.84 373.296 593.867C388.385 586.986 399.124 592.459 417.271 590.739C431.999 589.332 441.579 584.604 455.926 577.504Z" fill="#2B6178"/>
<path d="M625.29 472.12C645.298 469.782 644.634 457.401 668.87 442.116C702.331 421.016 740.709 421.222 751.811 421.359C768.933 421.651 807.426 424.985 811.568 436.524C816.6 450.53 768.654 469.624 746.529 476.537C711.923 487.326 690.018 494.271 664.445 487.697C656.67 485.704 644.653 481.444 636.715 486.025C628.777 490.606 632.149 500.133 621.937 505.916C620.808 506.566 612.553 511.171 604.083 508.541C594.506 505.563 595.328 496.639 585.325 490.971C572.052 483.474 556.372 491.151 554.024 487.524C551.676 483.897 562.041 474.235 577.227 470.247C596.719 465.255 607.044 474.263 625.29 472.12Z" fill="#2B6178"/>
<path d="M574.879 382.528C586.606 382.567 589.171 375.226 603.652 368.54C614.824 363.373 624.8 362.354 636.179 361.354C670.651 358.133 712.749 370.344 713.803 379.616C714.663 387.058 688.47 391.789 664.346 396.114C641.477 400.223 625.47 402.843 605.049 397.853C593.952 395.042 591.75 392.588 584.737 393.062C563.735 394.451 552.858 418.499 550.803 417.218C549.44 416.367 557.885 406.912 554.108 397.584C549.343 385.778 528.267 382.338 528.795 378.844C529.243 376.077 542.701 376.939 550.066 377.78C565.173 379.481 566.84 382.499 574.879 382.528Z" fill="#2B6178"/>
<path d="M309.945 516.13C334.768 497.257 353.85 498.02 393.151 485.564C436.271 471.886 495.544 444.821 490.545 433.526C485.75 422.669 418.189 418.467 371.782 443.096C351.824 453.668 334.123 467.282 319.378 483.402C308.423 496.376 305.902 504.169 292.432 511.901C271.224 524.081 243.947 523.943 244.248 524.827C244.548 525.712 267.077 520.613 273.675 528.064C278.931 533.962 270.782 544.025 273.378 545.659C276.912 547.971 293.531 528.599 309.945 516.13Z" fill="#2B6178"/>
<path d="M927.449 463.388C933.171 462.564 939.038 462.418 944.907 462.954C970.327 465.425 977.656 472.337 995.29 472.629C1013.37 472.966 1031.97 464.639 1031.06 456.56C1030.2 449.256 1013.28 441.716 1000.45 439.088C978.573 434.586 958.686 442.341 948.297 446.392C934.399 451.799 929.182 456.87 918.03 454.931C911.017 453.32 904.123 451.177 897.422 448.525C887.518 444.882 881.583 441.898 880.608 443.197C879.404 444.849 888.433 450.01 890.328 459.079C891.666 465.181 888.623 467.39 890.553 469.382C894.103 473.231 906.205 466.246 927.449 463.388Z" fill="#2B6178"/>
<path d="M148.859 653.965C155.188 648.216 154.351 644.236 163.838 627.972C164.062 627.343 169.07 618.973 172.698 614.114C185.038 597.54 204.434 592.674 217.741 589.502C224.405 587.921 261.898 579.029 267.201 589.541C271.531 598.105 252.51 615.157 229.458 634.455C210.471 650.33 197.079 661.223 176.364 663.172C165.099 664.212 162.039 661.795 155.875 665.568C137.497 676.857 137.838 715.034 135.427 714.175C133.994 713.664 137.855 690.958 130.02 685.467C120.515 678.833 99.5091 701.741 97.0449 698.873C95.441 697.044 103.51 685.694 112.459 677.197C117.757 672.229 123.629 667.801 129.986 663.981C142.261 656.44 143.392 658.947 148.859 653.965Z" fill="#2B6178"/>
<path d="M837.154 540.894C854.624 542.797 855.688 529.957 879.143 521.758C902.597 513.558 926.443 517.642 960.284 523.458C985.113 527.732 997.55 529.877 999.947 535.739C1004.53 546.977 971.34 568.037 934.912 571.133C917.049 572.635 888.549 574.92 864.758 561.548C860.484 559.156 852.467 554.103 842.589 554.128C833.525 554.169 823.932 558.503 821.857 559.433C814.435 562.78 812.755 565.338 809.753 564.268C804.439 562.489 806.516 553.784 799.304 546.617C790.537 537.912 775.585 540.451 774.696 537.047C773.807 533.643 784.935 528.598 798.445 528.884C816.164 529.298 822.349 539.277 837.154 540.894Z" fill="#2B6178"/>
<path d="M1085.63 472.097C1092.95 473.927 1096.17 470.018 1106.69 468.325C1113.89 467.34 1121.32 467.608 1128.61 469.115C1145.5 471.704 1167.55 480.317 1167.19 486.315C1166.83 491.976 1146.48 494.558 1132.47 493.659C1122.46 492.994 1111.45 492.297 1101.14 485.696C1096.72 482.861 1094.26 480.111 1089.51 479.768C1081.79 479.301 1077.16 485.658 1073.03 483.521C1071.17 482.56 1071.76 481.172 1069.42 477.663C1064.72 470.795 1057.88 469.638 1058.21 467.491C1058.54 465.344 1065.11 464.234 1071.27 465.424C1078.61 466.918 1079.41 470.655 1085.63 472.097Z" fill="#2B6178"/>
<path d="M1052.8 410.221C1072.92 410.39 1106.16 405.655 1106.53 396.135C1106.89 386.615 1076.28 373.1 1050.06 372.378C1037.96 372.085 1026.06 373.795 1014.94 377.426C1005.14 381.025 1002.22 384.33 997.216 385.29C995.902 385.499 994.554 385.563 993.2 385.482C983.003 385.325 978.22 380.259 969.269 377.755C959.106 374.911 949.341 376.92 949.186 378.649C949.032 380.377 957.676 380.507 962.154 386.426C967.165 393.083 962.397 400.852 965.918 402.769C968.579 404.221 971.862 399.971 980.667 397.345C985.307 396.093 990.181 395.515 995.119 395.634C1006.99 396.047 1011.93 402.334 1023.98 406.651C1033.61 410.059 1041.28 410.116 1052.8 410.221Z" fill="#2B6178"/>
<path d="M1218.54 390.265C1229.2 393.425 1232.57 387.443 1249.18 385.406C1265.18 383.688 1281.71 386.449 1296.65 393.334C1305.1 397.12 1323.3 406.899 1321.94 413.23C1320.26 420.888 1290.7 419.685 1277.61 418.222C1257.15 415.918 1244.16 414.536 1233.28 405.946C1230 403.339 1225.3 398.78 1219.98 399.241C1214.66 399.702 1213.5 404.912 1206.7 405.508C1205.03 405.704 1203.3 405.578 1201.64 405.139C1199.97 404.699 1198.4 403.954 1197.02 402.952C1193.12 399.504 1196.2 395.478 1192.91 390.671C1188.52 384.302 1178.42 384.59 1178.34 382.367C1178.26 380.143 1186.29 377.814 1195.04 379.169C1206.32 380.95 1208.8 387.368 1218.54 390.265Z" fill="#2B6178"/>
<path d="M1279.53 510.66C1285.78 512.179 1288.59 508.744 1297.62 507.158C1303.77 506.228 1310.14 506.381 1316.4 507.608C1335.42 510.358 1355.44 521.999 1354.2 526.841C1353.21 530.786 1338.31 529.867 1324.61 529.034C1311.62 528.224 1302.54 527.575 1292.67 522.341C1287.32 519.498 1286.57 517.88 1282.77 517.305C1271.34 515.379 1260.79 526.279 1259.94 525.358C1259.38 524.75 1265.75 520.981 1265.57 515.726C1265.37 509.092 1254.76 504.625 1255.73 502.912C1256.5 501.54 1263.53 503.7 1267.3 505.065C1274.85 507.825 1275.15 509.578 1279.53 510.66Z" fill="#2B6178"/>
<path d="M1071.64 328.153C1089.64 324.549 1098.93 328.98 1122.21 331.49C1147.76 334.237 1185.35 334.119 1186.22 327.727C1187.09 321.335 1154.67 305.208 1124.2 306.906C1110.97 307.681 1098.1 310.338 1086.04 314.783C1076.73 318.553 1073.17 321.631 1064.16 322.467C1049.96 323.675 1036.39 317.789 1036.27 318.272C1036.15 318.755 1048.91 321.151 1049.98 326.061C1050.82 329.952 1043.77 332.994 1044.5 334.26C1045.72 336.138 1059.75 330.524 1071.64 328.153Z" fill="#2B6178"/>
<path d="M1372.82 467.177C1376.01 466.912 1379.24 467.019 1382.45 467.498C1396.25 469.626 1399.76 473.528 1409.37 474.254C1418.98 474.98 1430.22 471.12 1430.37 466.758C1430.5 462.801 1421.8 458.216 1414.94 456.389C1403.23 453.29 1391.71 456.846 1385.62 458.678C1377.54 461.149 1374.2 463.756 1368.25 462.322C1364.54 461.229 1360.92 459.862 1357.43 458.237C1352.26 455.963 1349.23 454.175 1348.61 454.844C1347.99 455.514 1352.35 458.738 1352.64 463.668C1352.87 466.996 1351.07 468.092 1351.93 469.2C1353.67 471.374 1360.88 468.043 1372.82 467.177Z" fill="#2B6178"/>
<path d="M841.376 345.902C848.473 343.537 848.952 340.323 861.842 331.126C862.32 330.793 868.989 326.034 873.528 323.512C888.961 314.947 906.949 317.126 919.154 318.914C925.306 319.779 959.847 324.564 961.22 334.018C962.333 341.687 941.067 348.563 915.714 355.903C894.843 361.959 880.192 365.954 862.028 361.105C852.132 358.448 850.235 355.714 843.877 356.65C824.933 359.459 813.784 387.938 811.991 386.567C810.923 385.752 820.984 370.035 815.954 363.577C809.87 355.761 785.185 366.335 783.952 363.608C783.154 361.746 793.386 355.764 803.428 352.115C809.459 349.998 815.758 348.472 822.225 347.562C835.031 345.722 835.246 347.925 841.376 345.902Z" fill="#2B6178"/>
</g>
<defs>
<clipPath id="clip0">
<rect width="1235.8" height="935.129" fill="white" transform="translate(284.899) rotate(19.6136)"/>
</clipPath>
</defs>
</svg>
