<svg width="313" height="360" viewBox="0 0 313 360" fill="none" xmlns="http://www.w3.org/2000/svg">
<g clip-path="url(#clip0)">
<path d="M124.755 276.509C119.977 277.546 116.699 280.325 116.923 280.691C117.147 281.057 119.843 279.487 124.427 279.435C126.372 279.412 126.684 279.689 128.791 279.783C133.037 280.008 138.239 279.27 138.271 278.398C138.336 277.382 131.324 275.064 124.755 276.509Z" fill="#CECAC2"/>
<path d="M125.14 264.991C119.913 265.952 116.2 267.408 115.874 268.494C115.598 269.454 117.987 270.084 119.49 270.258C121.133 270.404 122.783 270.268 124.347 269.859" fill="#CECAC2"/>
<path d="M124.527 281.01C129.327 298.165 131.727 306.748 138.864 315.941C151.526 332.248 177.994 350.681 191.462 344.797C204.707 339.019 192.458 315.389 212.506 299.212C219.785 293.32 224.724 293.796 233.408 285.083C239.088 279.384 238.838 276.146 247.987 263.021C255.285 252.552 256.5 252.715 256.886 250.031C258.839 236.214 229.451 211.736 205.422 214.819C179.55 218.142 179.204 250.922 146.349 256.802C139.412 258.043 128.714 258.495 124.382 265.258C121.802 269.275 122.494 273.832 124.527 281.01Z" fill="#A0988B"/>
<path d="M126.857 296.917C123.797 298.181 121.256 300.214 119.547 302.764C119.127 303.351 118.515 304.295 118.655 304.389C118.885 304.541 120.393 302.14 123.512 300.245C124.247 299.803 124.432 299.766 130.949 297.004C133.141 296.08 133.697 295.839 133.646 295.707C133.525 295.389 130.069 295.631 126.857 296.917Z" fill="#CECAC2"/>
<path d="M136.469 305.817C134.027 307.731 132.434 310.34 131.958 313.21C131.762 314.964 131.954 316.745 132.524 318.455C132.768 319.338 133.314 320.957 133.625 320.924C133.783 320.91 133.903 320.478 133.848 317.649C133.787 314.17 133.57 313.422 133.621 312.436C133.705 310.83 134.531 308.563 138 305.894" fill="#CECAC2"/>
<path d="M138.453 315.638C143.273 323.344 145.68 327.196 149.346 330.178C157.352 336.72 166.566 338.237 170.664 338.865C177.24 339.875 184.071 340.92 190.153 337.38C194.448 334.856 199.67 329.279 197.86 325.468C194.744 318.923 175.299 326.885 152.75 316.891C144.609 313.266 137.247 307.839 135.724 309.242C135.268 309.663 135.347 310.674 138.453 315.638Z" fill="#B5AFA5"/>
<path d="M202.65 273.564C193.551 274.562 184.101 270.375 174.884 268.722C162.502 266.493 150.307 268.812 147.497 269.352C140.607 270.441 133.517 270.48 126.539 269.465C125.462 269.307 123.478 268.975 123.401 268.373C123.286 267.416 128.067 266.405 131.934 265.507C144.727 262.521 144.241 261.543 151.087 260.25C157.67 259.001 164.868 259.4 179.257 260.202C195.26 261.095 200.935 262.472 204.646 266.014C205.418 266.751 208.33 269.528 207.428 271.509C206.78 272.889 204.531 273.36 202.65 273.564Z" fill="#DDD8CE"/>
<path d="M133.449 272.218C137.503 271.7 141.6 271.417 145.713 271.37C150.885 271.274 149.581 270.939 157.268 270.569C164.296 270.23 167.81 270.063 172.139 270.512C177.449 271.061 176.526 271.681 184.062 272.71C189.394 273.44 191.769 273.391 195.874 274.655C198.484 275.472 203.202 277.218 202.995 278.045C202.677 279.331 190.956 276.4 172.777 276.138C157.823 275.918 150.545 276.234 150.545 276.234C150.545 276.234 144.415 276.501 132.222 274.299C131.255 274.127 129.241 273.744 129.238 273.287C129.235 272.831 130.985 272.518 133.449 272.218Z" fill="#835C41"/>
<path d="M206.984 279.112C203.047 275.496 188.595 275.091 183.958 274.922C166.686 274.295 167.201 274.149 162.238 274.211C150.707 274.364 151.707 275.101 145.624 274.686C135.336 274.003 130.195 273.657 127.423 272.895C125.761 272.43 123.403 271.678 122.657 272.481C121.835 273.375 123.106 276.098 125.358 277.473C127.609 278.848 129.123 277.848 132.99 278.822C136.5 279.709 136.488 280.836 139.593 281.787C143.141 282.873 145.081 281.989 150.073 281.731C156.415 281.394 156.012 282.681 163.129 282.672C168.637 282.692 168.838 281.922 179.015 281.124C184.064 280.73 186.589 280.531 189.828 280.611C197.07 280.784 200.693 280.876 205.217 282.212C207.132 282.779 209.029 283.511 209.526 282.943C210.123 282.286 207.922 279.972 206.984 279.112Z" fill="#DDD8CE"/>
<path d="M178.997 282.511C173.524 282.606 168.084 283.11 162.737 284.017C161.87 284.177 160.812 284.389 160.823 284.668C160.844 285.232 165.184 285.902 169.32 285.868C172.571 285.845 173.324 285.405 176.041 285.264C178.007 285.165 179.225 285.306 186.37 286.549C192.1 287.571 197.903 288.18 203.719 288.37C206.507 288.447 208.625 288.396 209.03 287.461C209.479 286.462 207.643 284.756 206.307 283.851C203.317 281.821 199.812 281.642 189.102 282.04C180.929 282.345 182.829 282.454 178.997 282.511Z" fill="#835C41"/>
<path d="M156.724 282.976C157.027 282.259 160.852 283.287 167.36 284.043C171.519 284.51 171.288 284.264 180.725 284.804C204.814 286.174 203.258 287.71 207.322 287.416C208.561 287.29 209.826 287.519 210.93 288.067C212.393 288.861 213.722 290.526 213.243 291.416C212.641 292.545 208.979 291.352 203.689 292.07C200.556 292.494 199.725 293.198 197.261 293.819C193.114 294.859 187.873 293.746 177.57 291.483C169.35 289.68 166.532 288.639 164.267 287.646C160.96 286.189 156.38 283.792 156.724 282.976Z" fill="#DDD8CE"/>
<path d="M159.305 300.554C151.842 299.192 149.16 299.127 143.357 297.395C138.701 296.007 136.948 295.008 136.328 294.639C132.457 292.358 130.272 289.637 129.296 289.869C128.678 290.015 129.069 291.139 129.131 291.335C129.739 293.097 132.231 295.443 141.262 298.434C143.825 299.283 143.568 299.003 146.862 300.044C151.155 301.401 152.495 302.113 155.883 303.117C158.146 303.78 160.446 304.327 162.773 304.756C167.562 305.718 184.612 309.132 184.902 308.105C185.119 307.348 176.123 304.581 175.106 304.268C169.929 302.724 164.65 301.484 159.305 300.554V300.554Z" fill="#835C41"/>
<path d="M185.963 296.128C182.917 291.91 174.061 294.661 165.3 291.092C164.678 290.844 163.659 290.383 163.216 290.738C162.209 291.506 164.421 296.076 168.53 298.861C169.121 299.257 169.742 299.616 170.389 299.935C173.337 301.43 181.772 305.707 185.156 303.318C187.057 301.984 187.603 298.4 185.963 296.128Z" fill="#DDD8CE"/>
<path d="M129.401 288.076C129.834 290.275 131.401 291.694 132.429 292.612C132.933 293.052 135.256 295.028 140.087 296.309C143.839 297.292 144.502 296.632 147.897 297.306C151.975 298.121 151.474 299.155 158.421 301.944C166.417 305.154 169.909 304.912 170.834 304.816C171.73 304.7 172.635 304.637 173.544 304.627C176.551 304.634 177.738 305.371 180.243 305.505C181.362 305.562 184.868 305.62 185.132 304.821C185.689 303.126 171.137 299.327 148.874 289.889C141.564 286.792 131.887 282.433 129.784 284.663C128.919 285.562 129.324 287.638 129.401 288.076Z" fill="#DDD8CE"/>
<path d="M155.014 286.854C144.287 284.024 143.331 286.492 134.717 283.59C131.646 282.548 128.069 280.977 126.684 282.164C125.918 282.823 125.965 284.181 126.355 285.101C126.745 286.021 127.614 287.173 128.809 287.244C130.004 287.315 130.186 286.229 131.472 286.189C132.758 286.15 132.915 287.164 134.706 287.659C136.351 288.116 136.918 287.456 138.648 287.855C140.072 288.188 140.817 288.901 141.582 289.422C144.451 291.36 147.261 290.332 151.162 291.111C154.615 291.803 154.343 292.994 160.1 295.943C163.946 297.906 164.446 297.202 172.546 299.805C179.351 301.99 184.102 304.039 184.233 303.781C184.278 303.697 183.84 303.417 182.461 302.685C177.268 299.915 175.2 299.468 173.016 298.132C170.017 296.29 170.5 295.038 167.708 292.475C164.353 289.402 160.611 288.332 155.014 286.854Z" fill="#835C41"/>
<path d="M198.942 295.24C193.387 296.017 191.459 294.595 189.361 296.137C188.152 297.051 188.867 297.43 186.873 303.144C185.887 305.976 185.056 307.755 184.744 310.804C184.558 312.462 184.63 313.744 184.832 313.772C185.23 313.817 185.117 308.921 188.669 304.824C189.726 303.605 190.741 302.875 192.573 301.559C194.914 299.881 197.151 298.286 198.532 298.897C199.547 299.337 199.243 300.551 200.539 301.221C201.75 301.85 203.24 301.435 203.638 301.322C207.426 300.263 209.418 294.57 207.802 293.271C206.653 292.355 204.7 294.428 198.942 295.24Z" fill="#CCC3B4"/>
<path d="M140.107 304.489C140.82 304.947 142.023 305.591 146.183 306.472C149.75 307.223 150.428 307.079 153.05 307.673C155.133 308.154 157.169 308.795 159.134 309.588C163.597 311.248 168.754 311.716 178.89 312.361C191.227 313.168 193.325 312.759 194.234 311.413C195.206 309.985 194.74 307.599 193.328 306.669C191.698 305.595 189.074 306.627 187.437 307.12C181.59 308.882 175.304 307.28 162.725 304.069C154.228 301.899 154.914 300.984 148.242 299.758C144.405 299.055 141.856 298.931 138.449 297.18C135.673 295.757 133.693 294.748 131.802 292.736C130.68 291.53 129.662 290.041 127.424 289.187C127.17 289.09 125.203 288.34 124.697 288.881C123.876 289.764 127.483 293.484 127.855 293.867C131.8 297.897 133.512 297.649 137.079 301.563C138.3 302.902 138.718 303.625 140.107 304.489Z" fill="#CECAC2"/>
<path d="M135.82 302.434C139.718 304.041 141.675 304.292 145.156 305.333C151.925 307.357 151.777 308.568 156.729 310.057C165.993 312.844 176.718 311.671 178.01 311.522C179.454 311.354 184.112 310.749 188.484 312.792C189.319 313.18 190.405 313.684 190.334 314.107C190.076 315.546 176.332 314.675 165.815 313.301C161.541 312.743 143.576 310.244 133.727 303.128C133.521 302.979 130.055 300.476 130.313 300.153C130.509 299.913 132.749 301.177 135.82 302.434Z" fill="#75543D"/>
<path d="M162.398 317.271C156.381 315.353 155.296 313.227 147.276 311.042C143.716 310.071 143.043 310.221 140.685 309.253C132.946 306.177 128.5 299.908 129.047 299.434C129.421 299.104 131.856 301.848 137.592 304.652C141.802 306.698 144.681 307.257 156.731 310.036C167.872 312.608 165.681 312.195 168.935 312.89C184.325 316.191 191.757 316.542 191.752 317.549C191.748 318.556 183.736 319.298 177.68 319.227C173.069 319.203 168.205 319.129 162.398 317.271Z" fill="#B5AFA5"/>
<path d="M187.204 317.558C183.866 317.451 183.124 316.984 180.142 317.132C178.109 317.235 176.627 317.31 175.069 318.063C173.886 318.633 173.518 319.179 171.097 322.044C167.467 326.358 166.276 327.478 164.758 327.444C163.595 327.413 163.478 326.739 162.595 326.829C159.553 327.138 156.572 335.526 158.706 339.72C158.943 340.187 159.929 341.955 159.23 343.576C159.124 343.827 158.903 344.347 158.615 344.336C157.739 344.322 156.584 339.388 156.568 335.132C156.532 329.522 158.438 324.086 162.036 319.538C164.215 316.845 165.788 314.892 168.831 313.823C172.319 312.599 173.502 314.011 182.207 313.845C189.851 313.701 192.206 312.549 193.626 311.423C195.224 310.155 195.718 308.862 196.228 309.029C197.251 309.354 197.45 314.81 194.183 316.851C192.76 317.741 190.927 317.676 187.204 317.558Z" fill="#CCC3B4"/>
<path d="M173.319 314.51C173.052 314.207 170.003 315.271 167.786 317.503C165.372 319.923 164.638 323.035 165.022 323.209C165.285 323.328 166.005 322.003 168.301 319.502C171.431 316.108 173.564 314.795 173.319 314.51Z" fill="#835C41"/>
<path d="M209.338 273.575C208.793 270.073 208.52 268.321 209.508 266.376C210.445 264.653 211.975 263.241 213.89 262.331C218.708 259.819 225.043 260.509 229.317 262.95C231.618 264.257 234.659 266.854 234.008 268.475C233.676 269.293 232.521 269.562 230.329 270.008C218.973 272.301 217.067 271.704 214.223 273.567C212.562 274.65 211.272 276.12 210.265 275.714C209.77 275.517 209.551 274.946 209.338 273.575Z" fill="#7C3414"/>
<path d="M217.876 267.499C214.789 268.201 213.268 268.519 212.018 269.527C210.69 270.69 209.755 272.154 209.313 273.766C208.87 275.378 208.937 277.078 209.504 278.686C210.043 280 210.819 280.586 211.014 282.281C211.209 283.976 210.599 284.694 211.265 285.729C212.161 287.125 214.263 287.366 214.37 287.378C215.175 287.425 215.977 287.308 216.711 287.037C217.445 286.765 218.092 286.346 218.6 285.812C219.144 285.249 219.39 284.668 219.672 284.731C220.124 284.829 219.693 286.307 220.391 286.847C221.564 287.755 225.347 285.562 225.882 285.245C229.155 283.309 235.495 279.568 235.335 273.806C235.317 273.054 235.241 270.25 232.964 268.452C231.447 267.233 229.688 267.088 226.776 266.83C223.772 266.598 220.76 266.824 217.876 267.499V267.499Z" fill="#CCC3B4"/>
<path d="M219.127 283.742C218.82 283.424 223.249 281.315 223.317 277.981C223.349 276.301 222.248 275.28 223.012 274.37C223.703 273.571 225.39 273.336 226.036 273.906C226.681 274.477 226.258 275.405 225.991 276.183C225.637 277.245 225.201 277.589 224.182 279.064C222.795 281.075 222.999 281.292 222.143 282.108C220.898 283.29 219.31 283.93 219.127 283.742Z" fill="#492415"/>
<path d="M240.399 246.208C242.078 245.295 245.225 246.781 246.847 248.038C248.492 249.34 249.508 251.14 249.677 253.05C249.921 257.043 245.945 260.683 243.494 260.224C239.591 259.571 237.029 248.043 240.399 246.208Z" fill="#835C41"/>
<path d="M196.99 260.959C197.913 259.437 201.708 259.878 203.453 260.079C207.309 260.512 210.935 260.95 212.105 263.39C213.275 265.829 211.538 269.353 208.868 270.37C204.619 271.991 199.03 266.905 197.258 263.344C196.666 262.082 196.711 261.41 196.99 260.959Z" fill="#835C41"/>
<path d="M231.957 263.278C222.901 265.23 213.399 262.47 210.352 261.593C208.295 261 206.428 260.324 203.442 260.078C200.237 259.833 197.027 260.143 193.997 260.99C184.631 263.401 176.291 257.472 163.111 258.762C150.144 260.029 135.371 268.007 126.412 267.972C125.149 267.966 123.17 267.802 123.083 267.351C122.95 266.66 127.458 265.881 127.326 264.864C127.249 264.158 125.035 264.324 123.575 262.964C121.94 261.453 121.964 258.718 122.836 256.954C124.238 254.111 128.034 253.514 131.847 252.29C135.085 251.253 134.801 250.891 146.974 243.623C163.338 233.852 161.812 235.71 169.668 230.618C181.709 222.811 184.417 218.997 193.249 217.219C196.941 216.479 200.634 215.729 204.878 217.045C210.257 218.697 209.899 221.673 220.785 231.665C224.373 235.066 228.17 238.294 232.158 241.333C234.931 243.418 235.422 243.599 236.582 244.788C239.867 248.162 243.59 254.492 240.947 258.858C239.218 261.717 235.415 262.538 231.957 263.278Z" fill="#BA541E"/>
<path d="M207.301 231.956C208.157 233.064 210.219 233.458 210.882 232.851C211.64 232.155 210.866 229.886 209.278 229.461C208.864 229.344 208.423 229.343 208.017 229.459C207.61 229.574 207.26 229.8 207.016 230.104C206.506 230.896 207.211 231.852 207.301 231.956Z" fill="#DDD8CE"/>
<path d="M198.016 222.658C198.225 223.689 199.631 224.937 200.384 224.975C201.242 224.998 201.578 223.394 200.538 222.369C200.051 221.885 199.161 221.407 198.55 221.543C197.86 221.686 198.026 222.57 198.016 222.658Z" fill="#DDD8CE"/>
<path d="M185.192 230.482C186.284 231.79 186.766 231.089 187.264 230.667C187.43 230.531 187.55 230.357 187.611 230.164C187.673 229.971 187.673 229.765 187.613 229.569C187.553 229.372 187.434 229.191 187.269 229.045C187.104 228.9 186.899 228.794 186.675 228.739C186.367 228.653 186.04 228.648 185.735 228.726C185.43 228.804 185.162 228.961 184.965 229.177C184.866 229.388 184.834 229.621 184.874 229.851C184.914 230.081 185.024 230.299 185.192 230.482Z" fill="#DDD8CE"/>
<path d="M195.16 236.253C196.253 237.561 196.734 236.865 197.233 236.439C197.399 236.303 197.519 236.129 197.581 235.935C197.642 235.742 197.642 235.536 197.581 235.34C197.52 235.143 197.4 234.963 197.234 234.817C197.068 234.672 196.862 234.568 196.637 234.515C196.33 234.428 196.004 234.423 195.7 234.502C195.396 234.58 195.129 234.737 194.933 234.953C194.553 235.503 195.103 236.179 195.16 236.253Z" fill="#DDD8CE"/>
<path d="M203.181 242.189C202.415 242.853 202.35 244.236 202.939 244.616C203.528 244.997 205.29 244.356 205.419 243.263C205.461 242.987 205.406 242.703 205.264 242.449C205.121 242.194 204.895 241.981 204.616 241.836C203.918 241.574 203.254 242.129 203.181 242.189Z" fill="#DDD8CE"/>
<path d="M219.307 244.402C219.63 245.278 220.719 246.134 221.544 245.912C222.369 245.69 222.937 244.222 222.206 243.338C221.564 242.573 220.088 242.371 219.479 242.927C218.869 243.482 219.265 244.293 219.307 244.402Z" fill="#DDD8CE"/>
<path d="M183.443 239.952C183.306 240.079 183.222 240.243 183.202 240.418C183.183 240.594 183.229 240.772 183.333 240.926C183.499 241.089 183.726 241.194 183.971 241.222C184.215 241.249 184.46 241.197 184.658 241.075C184.867 240.96 185.017 240.78 185.079 240.57C185.142 240.36 185.112 240.135 184.996 239.938C184.892 239.846 184.768 239.773 184.632 239.724C184.496 239.675 184.351 239.65 184.206 239.652C184.06 239.653 183.917 239.68 183.786 239.732C183.655 239.784 183.538 239.859 183.443 239.952V239.952Z" fill="#DDD8CE"/>
<path d="M182.243 250.655C182.106 250.782 182.022 250.945 182.002 251.121C181.983 251.296 182.028 251.474 182.133 251.628C182.305 251.784 182.533 251.882 182.776 251.907C183.018 251.932 183.261 251.88 183.46 251.763C183.659 251.645 183.801 251.468 183.863 251.264C183.924 251.059 183.9 250.84 183.796 250.645C183.692 250.553 183.569 250.479 183.433 250.429C183.297 250.379 183.152 250.353 183.006 250.354C182.861 250.355 182.718 250.382 182.586 250.434C182.455 250.486 182.338 250.561 182.243 250.655V250.655Z" fill="#DDD8CE"/>
<path d="M173.69 232.727C173.811 232.646 173.949 232.587 174.097 232.554C174.246 232.521 174.401 232.515 174.554 232.535C174.701 232.561 174.838 232.619 174.953 232.705C175.068 232.791 175.156 232.9 175.209 233.023C175.39 233.72 173.231 234.941 172.77 234.601C172.436 234.359 172.842 233.209 173.69 232.727Z" fill="#DDD8CE"/>
<path d="M154.522 245.729C154.646 245.648 154.803 245.615 154.959 245.636C155.032 245.649 155.101 245.677 155.159 245.72C155.216 245.762 155.26 245.817 155.287 245.878C155.374 246.228 154.297 246.816 154.067 246.669C153.837 246.523 154.074 245.967 154.522 245.729Z" fill="#DDD8CE"/>
<path d="M164.234 251.697C164.141 251.735 164.058 251.789 163.991 251.857C163.924 251.924 163.874 252.004 163.845 252.09C163.816 252.177 163.807 252.268 163.82 252.359C163.833 252.449 163.867 252.537 163.921 252.616C163.996 252.665 164.081 252.7 164.171 252.719C164.261 252.739 164.353 252.742 164.444 252.729C164.534 252.716 164.62 252.687 164.696 252.644C164.772 252.601 164.837 252.545 164.887 252.478C165.048 252.166 164.557 251.66 164.234 251.697Z" fill="#DDD8CE"/>
<path d="M194.743 249.629C194.65 249.667 194.567 249.721 194.5 249.789C194.433 249.857 194.383 249.936 194.354 250.023C194.324 250.109 194.316 250.2 194.329 250.291C194.342 250.381 194.376 250.469 194.429 250.549C194.504 250.597 194.589 250.632 194.679 250.651C194.769 250.671 194.862 250.674 194.952 250.661C195.043 250.648 195.128 250.619 195.205 250.576C195.281 250.533 195.346 250.477 195.395 250.41C195.539 250.096 195.067 249.587 194.743 249.629Z" fill="#DDD8CE"/>
<path d="M164.899 241.433C164.817 241.459 164.743 241.5 164.68 241.553C164.617 241.606 164.568 241.67 164.535 241.74C164.502 241.811 164.485 241.887 164.487 241.965C164.488 242.042 164.508 242.119 164.544 242.19C164.751 242.434 165.542 242.302 165.621 242.023C165.621 241.943 165.602 241.863 165.564 241.789C165.527 241.714 165.473 241.647 165.405 241.592C165.337 241.536 165.257 241.493 165.17 241.466C165.083 241.439 164.99 241.427 164.899 241.433V241.433Z" fill="#DDD8CE"/>
<path d="M146.821 252.113C146.735 252.138 146.657 252.178 146.591 252.231C146.524 252.284 146.472 252.349 146.437 252.421C146.401 252.494 146.384 252.573 146.386 252.652C146.387 252.732 146.408 252.811 146.446 252.884C146.653 253.128 147.444 252.996 147.523 252.717C147.525 252.637 147.508 252.557 147.473 252.483C147.438 252.408 147.385 252.34 147.319 252.284C147.253 252.227 147.175 252.182 147.089 252.153C147.003 252.124 146.912 252.11 146.821 252.113V252.113Z" fill="#DDD8CE"/>
<path d="M198.261 215.552C196.354 213.135 205.373 205.241 206.62 204.153C211.293 200.036 219.202 193.134 231.657 190.425C257.931 184.703 280.364 202.914 281.909 204.21C292.05 212.691 295.881 222.133 299.11 230.079C303.954 242.132 305.719 254.892 304.277 267.444C300.771 297.777 279.438 316.61 272.936 322.18C267.937 326.465 253.409 338.053 231.403 344.175C222.128 346.765 212.438 348.172 202.625 348.352C197.089 348.402 191.543 348.027 186.052 347.232L177.439 345.772C171.198 341.615 170.147 339.992 170.517 339.32C171.046 338.367 174.221 339.657 178.791 338.764C182.035 338.121 184.959 336.646 187.195 334.525C190.765 331.018 190.46 326.499 190.742 323.074C191.822 309.962 202.41 300.255 203.93 298.884C211.772 291.718 215.829 295.021 228.102 285.305C233.139 281.317 236.723 278.483 239.336 273.484C240.386 271.472 243.019 265.799 244.925 261.523C246.219 258.621 247.92 254.72 251.111 254.318C252.332 254.161 253.363 254.571 254.271 253.933C255.488 253.052 255.437 250.99 254.763 249.545C254.089 248.101 252.714 247.217 250.618 246.117C246.827 244.116 242.839 242.427 238.708 241.072C232.695 239.227 233.068 239.867 231.021 238.977C225.693 236.658 226.074 233.58 220.146 227.392C216.145 223.213 209.785 216.578 201.868 216.209C200.264 216.139 198.871 216.329 198.261 215.552Z" fill="#F0E7E0"/>
<path d="M233.827 230.852C231.854 229.389 230.214 227.612 229 225.621C227.844 223.707 228.025 223.109 227.301 222C225.474 219.203 221.484 218.682 215.59 217.701C199.855 215.122 198.672 214.082 198.489 213.243C198.187 211.861 200.418 210.155 202.301 209.506C204.717 208.671 206.997 209.42 209.238 210.143C222.293 214.362 221.279 213.65 222.363 214.275C230.84 219.15 228.704 225.477 238.113 231.254C241.929 233.597 245.157 234.315 245.017 234.651C244.823 235.149 238.732 234.428 233.827 230.852Z" fill="#D06B0E"/>
<path d="M206.228 204.272C206.581 205.57 211.867 204.249 217.843 206.1C223.526 207.834 226.967 211.524 228.481 213.158C234.049 219.127 232.954 223.626 239.253 227.967C240.297 228.682 242.923 230.477 244.03 229.778C245.726 228.709 243.157 222.232 240.07 217.731C237.396 213.918 233.883 210.594 229.744 207.96C227.715 206.612 225.56 205.419 223.304 204.394C218.036 201.915 214.338 200.241 210.474 201.281C208.199 201.881 205.991 203.385 206.228 204.272Z" fill="#D06B0E"/>
<path d="M251.642 229.274C249.104 226.209 250.003 223.289 249.389 219.92C248.108 212.89 241.063 208.349 237.287 205.921C226.626 199.071 215.057 200.311 215.011 197.987C215.002 196.78 218.109 195.686 220.447 195.377C224.576 194.828 227.754 196.522 232.649 199.217C250.212 208.882 252.236 210.473 252.613 213.222C252.909 215.353 252.051 216.831 253.16 219.871C254.023 222.255 255.063 222.75 255.756 225.628C256.132 227.213 256.007 227.844 256.633 229.608C257.373 231.7 258.116 232.471 257.825 232.763C257.28 233.274 253.766 231.836 251.642 229.274Z" fill="#D06B0E"/>
<path d="M233.189 190.387C238.317 190.522 242.126 194.102 244.413 196.236C248.223 199.811 247.976 201.53 251.455 203.174C253.437 204.109 254.712 204.116 256.267 205.586C257.056 206.335 257.356 206.93 259.218 210.113C261.239 213.55 261.102 213.215 261.287 213.603C261.287 213.603 262.58 216.287 261.733 226.084C259.78 228.75 259.584 228.728 259.584 228.728C258.58 228.615 259.87 222.854 257.973 215.738C257.275 213.116 256.661 210.87 254.718 208.622C252.774 206.374 251.439 206.261 246.925 203.337C241.06 199.531 241.941 198.812 237.914 196.634C232.028 193.446 227.276 193.442 227.338 192.243C227.406 191.269 230.419 190.312 233.189 190.387Z" fill="#D06B0E"/>
<path d="M276.714 285.29C280.231 286.904 283.888 288.26 287.647 289.344C294.006 291.106 298.962 290.362 299.127 290.983C299.256 291.444 296.596 292.094 293.97 292.177C290.454 292.307 287.636 291.372 284.104 290.194C281.176 289.22 278.349 288.01 275.661 286.582C274.432 285.526 273.131 284.305 273.485 284.104C273.838 283.902 275.427 284.699 276.714 285.29Z" fill="#D06B0E"/>
<path d="M244.223 190.151C243.885 191.078 248.542 192.246 253.202 195.911C257.327 199.143 259.264 202.733 263.144 209.914C266.134 215.432 267.624 218.237 266.84 220.51C266.092 222.554 265.687 224.689 265.634 226.852C265.612 228.229 265.769 228.813 266.09 228.902C266.767 229.088 268.02 226.984 268.176 226.718C270.184 223.35 269.426 219.174 268.674 216.116C267.302 210.543 266.048 205.425 261.617 199.452C258.746 195.552 255.653 191.492 250.121 190.126C247.582 189.495 244.485 189.43 244.223 190.151Z" fill="#D06B0E"/>
<path d="M267.265 262.881C268.285 263.116 276.238 264.937 280.028 265.363C284.999 265.878 289.084 264.59 292.52 263.502C300.447 261.003 304.999 256.83 305.572 257.413C305.987 257.838 304.031 260.424 301.318 262.459C296.718 265.924 291.59 266.539 283.138 267.558C281.277 267.836 279.372 267.884 277.48 267.699C274.343 267.347 274.406 266.63 270.606 265.805C266.807 264.98 264.736 265.257 261.637 263.666C261.142 263.411 259.932 262.777 260.072 262.441C260.328 261.819 264.718 262.47 265.15 262.534C266.379 262.677 267.259 262.881 267.265 262.881Z" fill="#D06B0E"/>
<path d="M294.645 220.599C293.272 220.612 294.287 227.655 289.764 235.152C287.348 239.15 284.099 242.048 281.886 244.029C278.009 247.486 276.076 249.215 274.005 249.927C272.309 250.513 269.563 251.133 268.523 253.109C268.4 253.352 268.04 254.036 268.383 254.357C269.185 255.145 273.39 253.11 274.757 252.45C279.178 250.318 283.179 247.598 286.623 244.382C289.576 241.573 292.031 238.389 293.909 234.93C297.215 228.686 296.567 225.073 296.339 223.999C296.274 223.719 295.566 220.597 294.645 220.599Z" fill="#D06B0E"/>
<path d="M270.539 196.498C269.88 197.012 275.468 200.823 277.969 207.917C278.586 209.654 279.018 212.231 279.882 217.4C280.459 220.832 280.516 221.935 280.444 223.112C280.313 225.405 279.87 225.387 278.66 230.381C277.777 234.011 277.491 236.187 276.18 236.397C275.395 236.534 274.98 235.837 273.989 236.03C272.759 236.27 272.764 237.466 271.444 238.184C270.124 238.901 269.449 238.06 267.89 238.498C264.97 239.325 262.984 243.455 263.409 245.402C263.483 245.593 263.51 245.794 263.488 245.993C263.465 246.191 263.395 246.382 263.28 246.552C262.874 246.952 262.2 246.64 261.585 246.97C260.971 247.3 261.184 248.026 260.721 248.877C259.894 250.41 257.953 249.961 257.059 251.492C256.597 252.285 256.531 253.41 257.068 253.77C257.746 254.218 259.225 253.366 260.762 252.479C262.693 251.359 263.9 250.676 264.464 249.354C265.027 248.033 264.298 247.825 264.912 246.535C265.621 245.041 266.661 245.158 267.19 243.712C267.621 242.549 267.062 242.124 267.671 241.144C267.797 240.932 268.531 239.803 269.74 239.697C270.949 239.592 271.351 240.565 272.225 240.39C273.327 240.168 273.036 238.525 274.403 237.871C275.484 237.347 276.177 238.138 277.476 237.822C278.551 237.565 278.854 236.849 280.936 233.526C282.752 230.63 283.16 230.162 283.341 228.981C283.521 227.8 283.218 227.394 283.134 225.947C282.889 221.96 285.04 220.858 284.83 217.583C284.792 216.954 284.194 215.586 282.996 212.861C281.769 210.009 280.381 207.208 278.837 204.469C276.793 200.914 275.862 199.939 275.237 199.344C273.419 197.697 270.95 196.162 270.539 196.498Z" fill="#D06B0E"/>
</g>
<g clip-path="url(#clip1)">
<path d="M16.8331 100.89C12.9927 102.625 10.7308 105.557 10.9851 105.826C11.2395 106.094 13.2296 104.285 17.0832 103.416C18.7188 103.046 19.0314 103.223 20.8241 102.924C24.4429 102.349 28.6943 100.79 28.5639 100.049C28.4366 99.1814 22.109 98.4899 16.8331 100.89Z" fill="#CECAC2"/>
<path d="M15.0827 91.1142C10.8504 92.865 7.98363 94.7605 7.90406 95.7344C7.84418 96.5935 9.97159 96.6943 11.2691 96.5703C12.6801 96.3974 14.0462 95.9861 15.2909 95.3594" fill="#CECAC2"/>
<path d="M17.4513 104.725C24.5856 118.319 28.1532 125.121 35.8237 131.584C49.4306 143.047 75.0573 153.817 85.3481 146.433C95.4704 139.179 80.8929 121.469 94.8771 104.226C99.9503 97.9496 104.199 97.4612 109.949 88.5541C113.71 82.7285 112.916 80.0444 118.264 67.3357C122.53 57.1987 123.583 57.117 123.425 54.7853C122.584 42.7887 93.4086 27.4498 73.7122 34.375C52.5052 41.8335 58.1154 69.523 31.4842 80.3942C25.8614 82.689 16.9264 84.9958 14.4929 91.4754C13.0415 95.3252 14.4449 99.0413 17.4513 104.725Z" fill="#A0988B"/>
<path d="M22.2778 117.712C19.9269 119.328 18.1512 121.499 17.1702 123.956C16.9213 124.527 16.5761 125.432 16.7109 125.486C16.9317 125.573 17.7709 123.278 20.0577 121.119C20.5979 120.614 20.7468 120.55 25.7428 117.049C27.4231 115.876 27.8486 115.572 27.7816 115.47C27.6226 115.224 24.7534 116.05 22.2778 117.712Z" fill="#CECAC2"/>
<path d="M31.9825 123.482C30.2688 125.535 29.3967 128.021 29.5116 130.525C29.6623 132.039 30.1449 133.505 30.9333 134.844C31.2977 135.544 32.0496 136.81 32.3053 136.726C32.4359 136.686 32.4598 136.3 31.9038 133.927C31.2262 131.005 30.9087 130.414 30.7738 129.574C30.5554 128.205 30.8433 126.145 33.287 123.272" fill="#CECAC2"/>
<path d="M35.4227 131.402C40.8723 137.029 43.5945 139.842 47.2208 141.695C55.1464 145.768 63.1849 145.387 66.752 145.178C72.476 144.846 78.421 144.496 82.9094 140.418C86.0753 137.518 89.472 131.877 87.2603 128.991C83.4563 124.036 68.5014 134.247 47.6974 129.884C40.1833 128.294 33.0021 125.047 31.9711 126.503C31.6623 126.94 31.9109 127.777 35.4227 131.402Z" fill="#B5AFA5"/>
<path d="M81.9515 84.3839C74.4625 86.8636 65.7446 85.0365 57.6791 85.3025C46.842 85.6535 36.9816 89.8035 34.7108 90.7642C29.0997 92.9231 23.1316 94.2319 17.0674 94.6331C16.1312 94.6942 14.3993 94.7709 14.2262 94.278C13.9568 93.4921 17.8046 91.7794 20.9016 90.3261C31.146 85.5061 30.5605 84.7696 36.0978 82.4471C41.4208 80.2091 47.559 79.2491 59.8306 77.3341C73.4789 75.2061 78.5092 75.3444 82.2747 77.6619C83.0576 78.1442 86.0123 79.9597 85.6087 81.7918C85.3109 83.0717 83.5008 83.8739 81.9515 84.3839Z" fill="#DDD8CE"/>
<path d="M23.3866 95.7092C26.7104 94.5429 30.1123 93.5667 33.5704 92.7867C37.9121 91.7744 36.7529 91.7267 43.165 90.0309C49.0272 88.4798 51.9585 87.7065 55.6877 87.3055C60.262 86.8119 59.5951 87.5009 66.1319 87.0116C70.7571 86.6664 72.7505 86.1981 76.4377 86.5236C78.784 86.7427 83.0753 87.365 83.0496 88.0988C83.0125 89.2401 72.6071 88.8802 57.2383 91.9325C44.5956 94.4395 38.5186 96.0163 38.5186 96.0163C38.5186 96.0163 33.4006 97.3448 22.7279 97.684C21.8818 97.7136 20.1152 97.7531 20.0305 97.3688C19.9459 96.9844 21.3641 96.4061 23.3866 95.7092Z" fill="#835C41"/>
<path d="M86.6037 88.2791C82.6343 85.9411 70.3814 88.2018 66.4429 88.8943C51.773 91.4757 52.1812 91.2592 48.009 92.205C38.3185 94.4106 39.294 94.8512 34.0923 95.5965C25.2987 96.8737 20.904 97.5075 18.4307 97.3642C16.9461 97.272 14.8234 97.0624 14.3394 97.8732C13.8074 98.7746 15.3685 100.841 17.5139 101.595C19.6594 102.348 20.7552 101.233 24.1896 101.358C27.3073 101.473 27.4999 102.425 30.2885 102.668C33.4739 102.944 34.9497 101.849 39.1103 100.733C44.3946 99.3071 44.2866 100.464 50.2835 99.1753C54.9292 98.2006 54.9597 97.516 63.3936 95.0105C67.5781 93.77 69.6701 93.1476 72.4147 92.632C78.5487 91.4738 81.6187 90.8989 85.6722 91.2107C87.3886 91.3432 89.1192 91.6187 89.4356 91.0502C89.8205 90.3891 87.5492 88.8355 86.6037 88.2791Z" fill="#DDD8CE"/>
<path d="M63.6288 96.1838C59.0328 97.2489 54.5388 98.653 50.1957 100.381C49.4945 100.671 48.6406 101.04 48.6999 101.274C48.8191 101.745 52.5976 101.529 56.0777 100.755C58.8134 100.15 59.369 99.6437 61.6333 99.0358C63.2725 98.5981 64.3239 98.4985 70.5697 98.2591C75.5832 98.0885 80.5833 97.5571 85.5191 96.6703C87.8832 96.2331 89.6583 95.809 89.8319 94.9476C90.0304 94.0251 88.1761 92.9177 86.887 92.3954C84.0012 91.2231 81.015 91.7039 72.0602 93.9675C65.2268 95.6961 66.8483 95.4452 63.6288 96.1838Z" fill="#835C41"/>
<path d="M44.941 100.585C45.0674 99.9271 48.4759 100.104 54.0971 99.5701C57.6859 99.2147 57.4468 99.0488 65.4982 97.8045C86.0468 94.6229 85.012 96.197 88.3836 95.2176C89.4059 94.8888 90.5133 94.8535 91.542 95.117C92.9179 95.5224 94.3378 96.6864 94.0945 97.523C93.7904 98.5824 90.4894 98.2367 86.1603 99.794C83.5957 100.716 83.0222 101.459 81.0574 102.425C77.7495 104.049 73.1321 104.054 64.0412 104.002C56.7893 103.962 54.2263 103.593 52.1388 103.163C49.0889 102.531 44.7978 101.335 44.941 100.585Z" fill="#DDD8CE"/>
<path d="M50.2802 114.935C43.7454 115.131 41.4736 115.559 36.271 115.144C32.0965 114.813 30.4395 114.286 29.8503 114.087C26.1774 112.862 23.846 110.962 23.0647 111.333C22.5702 111.567 23.1023 112.444 23.19 112.598C24.02 113.974 26.5425 115.503 34.6918 116.397C37.0053 116.651 36.7379 116.461 39.7015 116.745C43.5641 117.117 44.8214 117.475 47.8579 117.712C49.8839 117.863 51.9214 117.91 53.9601 117.852C58.1692 117.801 73.1533 117.608 73.2125 116.691C73.2594 116.013 65.1799 115.301 64.2659 115.22C59.6249 114.852 54.9526 114.756 50.2802 114.935V114.935Z" fill="#835C41"/>
<path d="M71.9513 106.406C68.625 103.399 61.6559 107.312 53.6295 105.882C53.0607 105.785 52.1189 105.58 51.8095 105.958C51.0995 106.787 53.7867 110.24 57.7511 111.847C58.3199 112.075 58.9081 112.266 59.5108 112.418C62.2648 113.147 70.1438 115.234 72.5658 112.61C73.9271 111.144 73.7425 108.025 71.9513 106.406Z" fill="#DDD8CE"/>
<path d="M22.8311 109.803C23.5919 111.578 25.1682 112.492 26.1998 113.081C26.7038 113.36 29.0172 114.607 33.3195 114.818C36.6583 114.97 37.0987 114.295 40.0817 114.252C43.6647 114.204 43.4286 115.166 49.7863 116.266C57.1026 117.532 60.0021 116.698 60.7646 116.451C61.4984 116.192 62.2502 115.976 63.0146 115.804C65.5501 115.269 66.6828 115.676 68.8186 115.338C69.7715 115.185 72.7372 114.602 72.816 113.881C72.9804 112.353 60.0318 111.771 39.5695 107.825C32.8509 106.531 23.9103 104.6 22.5393 106.857C21.9724 107.771 22.6871 109.447 22.8311 109.803Z" fill="#DDD8CE"/>
<path d="M44.1971 104.162C34.6471 103.708 34.2851 105.96 26.5033 105.065C23.7272 104.74 20.4294 104.06 19.4763 105.31C18.9496 106.003 19.233 107.14 19.7273 107.845C20.2217 108.549 21.1617 109.364 22.1817 109.208C23.2018 109.053 23.1596 108.105 24.2362 107.84C25.3127 107.576 25.6275 108.402 27.2262 108.497C28.695 108.586 29.0543 107.927 30.584 107.952C31.8444 107.976 32.5999 108.443 33.339 108.745C36.1054 109.861 38.2889 108.489 41.7168 108.443C44.7519 108.404 44.7371 109.458 50.1198 110.906C53.7148 111.868 54.0095 111.185 61.3044 111.92C67.433 112.537 71.8059 113.408 71.87 113.167C71.8933 113.088 71.4739 112.931 70.1794 112.563C65.3037 111.163 63.481 111.158 61.3997 110.426C58.54 109.413 58.722 108.271 55.9072 106.613C52.5266 104.628 49.1803 104.4 44.1971 104.162Z" fill="#835C41"/>
<path d="M82.7296 103.321C78.1875 104.976 76.3067 104.124 74.8162 105.802C73.9614 106.789 74.6326 106.98 73.9802 112.155C73.6595 114.719 73.2792 116.368 73.5652 118.994C73.7068 120.424 73.999 121.493 74.1737 121.48C74.5172 121.446 73.5411 117.34 75.7969 113.248C76.4684 112.03 77.1918 111.232 78.4989 109.793C80.1705 107.957 81.768 106.21 83.0421 106.477C83.977 106.664 83.9388 107.742 85.152 108.073C86.2856 108.385 87.4669 107.767 87.7818 107.601C90.7838 106.026 91.438 100.869 89.8415 100.066C88.7088 99.5009 87.4359 101.6 82.7296 103.321Z" fill="#CCC3B4"/>
<path d="M34.8097 121.708C35.4927 121.965 36.6225 122.291 40.2873 122.285C43.4289 122.276 43.9742 122.033 46.2912 122.06C48.1334 122.091 49.9646 122.265 51.763 122.579C55.8238 123.175 60.2543 122.641 68.9129 121.36C79.4562 119.819 81.15 119.096 81.6738 117.798C82.2362 116.42 81.4137 114.492 80.0567 113.963C78.4895 113.351 76.4637 114.694 75.1724 115.404C70.5624 117.941 64.9754 117.723 53.7958 117.282C46.2438 116.982 46.6575 116.088 40.8136 116.256C37.4531 116.354 35.2828 116.709 32.0963 115.846C29.5005 115.146 27.65 114.653 25.6935 113.298C24.5308 112.483 23.4048 111.412 21.3647 111.095C21.1334 111.059 19.3404 110.781 19.0115 111.328C18.4786 112.22 22.1883 114.706 22.5708 114.961C26.6213 117.648 28.0196 117.13 31.7307 119.787C33.001 120.695 33.4836 121.23 34.8097 121.708Z" fill="#CECAC2"/>
<path d="M30.8262 120.748C34.4009 121.401 36.0954 121.26 39.2161 121.511C45.2853 121.998 45.3786 123.045 49.8204 123.409C58.1297 124.089 66.9574 121.17 68.0195 120.812C69.2067 120.41 73.0232 119.061 77.0763 119.996C77.8496 120.172 78.856 120.402 78.8718 120.771C78.9137 122.031 67.1736 123.771 58.0623 124.507C54.3592 124.806 38.7689 125.934 29.1871 121.71C28.9868 121.621 25.6143 120.136 25.7744 119.818C25.8958 119.58 28.0114 120.242 30.8262 120.748Z" fill="#75543D"/>
<path d="M55.8967 128.467C50.4804 127.934 49.1833 126.338 42.0306 125.94C38.855 125.763 38.3152 126.01 36.1539 125.619C29.0771 124.42 24.2016 119.937 24.5768 119.439C24.8325 119.094 27.3788 120.968 32.7188 122.299C36.6352 123.265 39.1621 123.218 49.8181 123.39C59.6706 123.552 57.7493 123.598 60.6175 123.598C74.1825 123.609 80.5093 122.567 80.6866 123.417C80.8638 124.266 74.2453 126.334 69.1288 127.365C65.2382 128.174 61.1253 128.988 55.8967 128.467Z" fill="#B5AFA5"/>
<path d="M76.8548 124.243C74.0217 124.754 73.3127 124.495 70.8259 125.156C69.1311 125.609 67.8954 125.939 66.7177 126.854C65.8235 127.548 65.6116 128.074 64.0871 130.925C61.8042 135.213 61.0025 136.372 59.717 136.616C58.7308 136.8 58.5109 136.253 57.7835 136.487C55.275 137.296 54.2732 144.902 56.8269 148.053C57.1102 148.404 58.2601 149.716 57.9626 151.208C57.9181 151.439 57.8257 151.917 57.5814 151.959C56.84 152.105 54.9784 148.154 54.199 144.571C53.1586 139.849 53.7862 134.924 55.9994 130.444C57.351 127.782 58.3248 125.853 60.6974 124.403C63.4167 122.744 64.668 123.721 71.9746 122.014C78.3908 120.516 80.1682 119.121 81.162 117.917C82.2805 116.56 82.4641 115.382 82.9245 115.431C83.8446 115.52 84.9953 120.083 82.6095 122.391C81.5701 123.397 80.0133 123.673 76.8548 124.243Z" fill="#CCC3B4"/>
<path d="M64.6038 124.174C64.3245 123.967 61.9464 125.412 60.4793 127.693C58.8813 130.167 58.8228 132.922 59.1773 133C59.4207 133.052 59.7891 131.806 61.2737 129.284C63.3005 125.861 64.8614 124.37 64.6038 124.174Z" fill="#835C41"/>
<path d="M87.5899 83.1893C86.4997 80.336 85.9546 78.9093 86.4373 77.092C86.9168 75.471 87.952 74.005 89.4021 72.8936C93.0101 69.909 98.4735 69.3499 102.515 70.638C104.69 71.3254 107.721 72.9664 107.464 74.4499C107.331 75.1989 106.406 75.6335 104.639 76.4044C95.4812 80.3809 93.7673 80.2211 91.7059 82.3032C90.5006 83.515 89.6782 84.9868 88.7562 84.8253C88.3034 84.7482 88.0164 84.3072 87.5899 83.1893Z" fill="#7C3414"/>
<path d="M93.6915 76.5314C91.2166 77.6793 89.9915 78.2205 89.1195 79.2954C88.2094 80.5148 87.6855 81.9172 87.6028 83.3553C87.5202 84.7934 87.882 86.2139 88.65 87.4674C89.3403 88.4779 90.1001 88.8315 90.5694 90.2251C91.0388 91.6186 90.654 92.3338 91.4015 93.0859C92.4081 94.1012 94.2234 93.926 94.3157 93.9168C95.0031 93.8116 95.6575 93.5689 96.2273 93.2077C96.797 92.8466 97.2666 92.3769 97.5989 91.8357C97.9564 91.2631 98.0589 90.7293 98.3076 90.7317C98.7064 90.7329 98.6096 92.0561 99.2945 92.3855C100.447 92.9395 103.241 90.4102 103.634 90.0462C106.044 87.8258 110.713 83.5309 109.541 78.704C109.391 78.0734 108.822 75.7237 106.579 74.6186C105.081 73.8641 103.573 74.0586 101.072 74.365C98.498 74.7105 96.0007 75.4436 93.6915 76.5314V76.5314Z" fill="#CCC3B4"/>
<path d="M97.6717 89.996C97.3556 89.7835 100.709 87.2079 100.165 84.3862C99.8901 82.9644 98.7788 82.3026 99.2586 81.3974C99.6973 80.6 101.076 80.0978 101.724 80.4626C102.371 80.8274 102.181 81.6857 102.096 82.3894C101.989 83.348 101.683 83.7168 101.09 85.1434C100.283 87.0876 100.494 87.2337 99.92 88.076C99.0831 89.2965 97.8602 90.1218 97.6717 89.996Z" fill="#492415"/>
<path d="M108.841 54.5321C110.091 53.4603 113.012 54.1461 114.605 54.9138C116.226 55.7152 117.406 57.0487 117.892 58.6284C118.817 61.9495 116.121 65.733 113.973 65.7878C110.566 65.9401 106.331 56.6856 108.841 54.5321Z" fill="#835C41"/>
<path d="M74.9118 74.7798C75.4154 73.3305 78.6928 73.0195 80.2005 72.8747C83.5278 72.5452 86.663 72.2618 88.0882 74.1069C89.5134 75.9519 88.684 79.2346 86.6162 80.5724C83.3276 82.7038 77.7014 79.4239 75.5669 76.7417C74.8405 75.7845 74.7577 75.2103 74.9118 74.7798Z" fill="#835C41"/>
<path d="M104.799 70.4387C97.5187 73.7147 89.0139 73.0989 86.2874 72.9085C84.4471 72.7792 82.7517 72.5454 80.1907 72.8757C77.4454 73.2465 74.7963 74.0856 72.3952 75.3451C64.9357 79.0631 56.8394 75.5675 45.9634 79.028C35.2628 82.4306 24.2485 91.8139 16.6914 93.3974C15.6263 93.6202 13.9291 93.838 13.774 93.4741C13.5374 92.9152 17.1972 91.4468 16.9024 90.6138C16.7102 90.0325 14.8739 90.5709 13.399 89.6878C11.7489 88.7091 11.2769 86.3995 11.6939 84.7556C12.3635 82.1072 15.4558 80.9207 18.4489 79.2024C20.9915 77.7453 20.6867 77.4911 29.6374 69.1743C41.6696 57.9929 40.7181 59.8341 46.4225 54.1276C55.1648 45.3801 56.7604 41.6785 63.8836 38.5896C66.8623 37.3015 69.8401 36.0044 73.6535 36.349C78.4843 36.7734 78.7184 39.3459 89.6917 45.8069C93.328 48.0271 97.1092 50.0639 101.018 51.9079C103.731 53.165 104.177 53.2291 105.369 54.023C108.745 56.2753 113.022 60.9391 111.58 65.095C110.638 67.8155 107.58 69.1927 104.799 70.4387Z" fill="#BA541E"/>
<path d="M78.3808 48.4801C79.3019 49.2601 81.11 49.221 81.56 48.5896C82.0734 47.8661 81.0126 46.0933 79.5973 46.0213C79.2276 45.9972 78.8555 46.076 78.534 46.2465C78.2125 46.4169 77.958 46.6703 77.8068 46.9705C77.5197 47.7303 78.2857 48.4083 78.3808 48.4801Z" fill="#DDD8CE"/>
<path d="M68.8811 42.3153C69.2429 43.1462 70.6526 43.9455 71.2946 43.8413C72.0215 43.7061 72.0162 42.2937 70.9553 41.6178C70.4576 41.297 69.6208 41.0548 69.1305 41.2794C68.5749 41.524 68.8735 42.2393 68.8811 42.3153Z" fill="#DDD8CE"/>
<path d="M59.4814 51.2182C60.6375 52.1239 60.9173 51.4461 61.2615 51.0013C61.3767 50.8565 61.4464 50.6885 61.4633 50.5147C61.4802 50.3408 61.4437 50.1674 61.3576 50.0124C61.2715 49.8575 61.1389 49.7266 60.9736 49.6334C60.8082 49.5402 60.6162 49.488 60.4173 49.4823C60.1426 49.4647 59.8659 49.5198 59.6231 49.6404C59.3803 49.761 59.1826 49.9417 59.0555 50.1589C59.0097 50.3552 59.0251 50.5573 59.1 50.7437C59.175 50.9302 59.3068 51.0941 59.4814 51.2182Z" fill="#DDD8CE"/>
<path d="M68.9226 54.2872C70.0787 55.1929 70.3589 54.5196 70.7027 54.0702C70.8184 53.9256 70.8883 53.7575 70.9051 53.5835C70.9219 53.4096 70.8849 53.2361 70.7982 53.0813C70.7114 52.9265 70.5779 52.7961 70.4118 52.7037C70.2457 52.6114 70.053 52.5604 69.8539 52.5563C69.5798 52.5383 69.3037 52.5932 69.0617 52.7139C68.8196 52.8345 68.6229 53.0152 68.4971 53.2324C68.2754 53.7644 68.8604 54.2346 68.9226 54.2872Z" fill="#DDD8CE"/>
<path d="M76.7502 57.8458C76.2239 58.5434 76.4181 59.7205 76.983 59.9354C77.5479 60.1503 78.9177 59.2924 78.8294 58.3486C78.8149 58.108 78.7183 57.8787 78.552 57.69C78.3857 57.5014 78.1573 57.362 77.8962 57.2899C77.2604 57.1949 76.8008 57.7821 76.7502 57.8458Z" fill="#DDD8CE"/>
<path d="M90.7402 56.8078C91.1699 57.4875 92.2418 58.0134 92.8971 57.6776C93.5524 57.3419 93.7667 56.0025 92.9914 55.3886C92.3126 54.86 91.033 54.9551 90.6191 55.5333C90.2053 56.1115 90.6852 56.723 90.7402 56.8078Z" fill="#DDD8CE"/>
<path d="M59.7121 59.515C59.6201 59.6466 59.5785 59.7996 59.5935 59.9511C59.6085 60.1026 59.6793 60.2444 59.7954 60.3554C59.9646 60.4627 60.1749 60.5105 60.3859 60.4896C60.5969 60.4687 60.7937 60.3806 60.9387 60.2422C61.0939 60.1078 61.1881 59.9292 61.2029 59.7409C61.2178 59.5526 61.1522 59.368 61.0189 59.2231C60.9146 59.1645 60.7971 59.1255 60.6737 59.1085C60.5502 59.0914 60.4234 59.0968 60.3011 59.1241C60.1787 59.1514 60.0633 59.2002 59.962 59.2674C59.8608 59.3347 59.7757 59.4189 59.7121 59.515V59.515Z" fill="#DDD8CE"/>
<path d="M60.6271 68.7505C60.5351 68.8821 60.4935 69.0351 60.5085 69.1866C60.5235 69.3381 60.5943 69.4799 60.7103 69.5909C60.8834 69.6908 61.093 69.733 61.302 69.71C61.511 69.687 61.7059 69.6004 61.8524 69.4654C61.9989 69.3305 62.0874 69.1558 62.1024 68.9724C62.1174 68.789 62.0579 68.6086 61.9343 68.4631C61.8306 68.4035 61.7133 68.3637 61.5899 68.3459C61.4665 68.3282 61.3395 68.3329 61.2169 68.3599C61.0943 68.3869 60.9786 68.4355 60.8772 68.5026C60.7757 68.5698 60.6906 68.6542 60.6271 68.7505V68.7505Z" fill="#DDD8CE"/>
<path d="M50.192 55.1808C50.2789 55.0909 50.385 55.0165 50.504 54.9621C50.6231 54.9076 50.7528 54.8743 50.8854 54.8639C51.0136 54.8591 51.1401 54.8836 51.2523 54.9351C51.3645 54.9865 51.4587 55.0631 51.5254 55.1571C51.8029 55.712 50.2038 57.1298 49.754 56.9261C49.4291 56.7822 49.564 55.7396 50.192 55.1808Z" fill="#DDD8CE"/>
<path d="M36.3775 69.5902C36.4679 69.5 36.5944 69.4437 36.7295 69.4334C36.7934 69.4306 36.8565 69.4424 36.9126 69.4678C36.9687 69.4931 37.0158 69.531 37.0493 69.5778C37.1857 69.8577 36.3842 70.5465 36.1638 70.4645C35.9434 70.3825 36.0429 69.8716 36.3775 69.5902Z" fill="#DDD8CE"/>
<path d="M45.6386 72.8715C45.5667 72.92 45.5068 72.9807 45.4625 73.0499C45.4182 73.119 45.3905 73.195 45.3812 73.2732C45.3719 73.3513 45.3812 73.4298 45.4085 73.5038C45.4358 73.5777 45.4805 73.6455 45.5397 73.7029C45.6117 73.7302 45.6896 73.7444 45.7689 73.7445C45.8481 73.7447 45.927 73.7308 46.0008 73.7036C46.0746 73.6765 46.1417 73.6367 46.1981 73.5867C46.2545 73.5367 46.299 73.4774 46.3289 73.4125C46.4087 73.1203 45.9041 72.782 45.6386 72.8715Z" fill="#DDD8CE"/>
<path d="M70.9775 65.6355C70.9057 65.6841 70.8457 65.7448 70.8014 65.8139C70.7571 65.883 70.7295 65.9591 70.7202 66.0372C70.7109 66.1153 70.7202 66.1938 70.7474 66.2678C70.7747 66.3418 70.8194 66.4096 70.8787 66.4669C70.9506 66.4943 71.0286 66.5085 71.1078 66.5086C71.1871 66.5087 71.266 66.4948 71.3397 66.4677C71.4135 66.4405 71.4806 66.4007 71.537 66.3507C71.5934 66.3007 71.6379 66.2415 71.6679 66.1766C71.7323 65.8858 71.2426 65.5416 70.9775 65.6355Z" fill="#DDD8CE"/>
<path d="M44.3502 64.1015C44.2859 64.1386 44.2304 64.1865 44.1871 64.2423C44.1439 64.2981 44.1137 64.3607 44.0985 64.4262C44.0832 64.4918 44.0832 64.559 44.0983 64.6239C44.1135 64.6888 44.1436 64.75 44.1868 64.8038C44.4053 64.9717 45.0481 64.7185 45.0648 64.4686C45.0502 64.401 45.0196 64.3373 44.9748 64.2814C44.93 64.2256 44.8722 64.1789 44.8048 64.1443C44.7375 64.1097 44.6623 64.088 44.584 64.0807C44.5057 64.0733 44.4261 64.0804 44.3502 64.1015V64.1015Z" fill="#DDD8CE"/>
<path d="M31.0378 76.3577C30.9699 76.3938 30.911 76.4417 30.8648 76.4983C30.8186 76.5549 30.7861 76.6189 30.7694 76.6864C30.7527 76.7539 30.7522 76.8232 30.7678 76.8901C30.7835 76.957 30.815 77.02 30.8603 77.0749C31.0788 77.2429 31.7216 76.9897 31.7383 76.7397C31.7255 76.6722 31.6967 76.6081 31.6537 76.5516C31.6107 76.4951 31.5545 76.4473 31.4885 76.4113C31.4226 76.3754 31.3485 76.3521 31.2709 76.3428C31.1933 76.3336 31.1139 76.3386 31.0378 76.3577V76.3577Z" fill="#DDD8CE"/>
<path d="M67.808 36.2823C65.7661 34.5886 71.9459 26.3115 72.801 25.1705C75.9979 20.8589 81.4209 13.6183 91.4304 9.09246C112.544 -0.46038 134.73 10.8489 136.265 11.6629C146.339 16.9851 151.267 24.2523 155.419 30.3686C161.672 39.654 165.456 50.0906 166.501 60.9289C169.007 87.1247 154.419 106.838 149.942 112.703C146.501 117.215 136.342 129.597 118.898 138.718C111.548 142.571 103.634 145.501 95.3964 147.42C90.7393 148.459 85.998 149.141 81.2268 149.46L73.7052 149.78C67.6971 147.4 66.519 146.221 66.71 145.589C66.9835 144.69 69.8923 145.206 73.5828 143.63C76.201 142.505 78.4001 140.735 79.9026 138.545C82.2797 134.946 81.2091 131.193 80.8302 128.255C79.38 117.01 86.5557 106.923 87.5893 105.494C92.9086 98.042 96.9223 100.096 105.517 89.6972C109.044 85.4295 111.555 82.3957 112.856 77.712C113.379 75.8275 114.577 70.5717 115.413 66.6248C115.982 63.9458 116.713 60.3523 119.33 59.4386C120.331 59.0867 121.273 59.2461 121.923 58.5452C122.791 57.5836 122.377 55.8551 121.548 54.7589C120.72 53.6627 119.403 53.1657 117.438 52.6155C113.882 51.6121 110.217 50.9064 106.492 50.508C101.092 50.0361 101.522 50.5081 99.6358 50.1261C94.7278 49.1315 94.4951 46.4686 88.3843 42.3204C84.2603 39.5192 77.7058 35.0719 70.9668 36.1862C69.6021 36.4161 68.4624 36.8269 67.808 36.2823Z" fill="#F0E7E0"/>
<path d="M100.539 42.7735C98.6123 41.8962 96.9105 40.6939 95.5288 39.234C94.2093 37.8298 94.2545 37.2927 93.4448 36.4881C91.401 34.4605 87.9445 34.7396 82.8009 34.9736C69.0744 35.6333 67.8905 34.9696 67.5856 34.2956C67.0822 33.1853 68.655 31.3457 70.1256 30.4598C72.0111 29.3206 74.0676 29.5412 76.0864 29.7476C87.849 30.9526 86.8654 30.5354 87.8923 30.8671C95.9136 33.4493 95.2529 39.1665 104.223 42.3409C107.861 43.6283 110.711 43.653 110.653 43.9612C110.579 44.4154 105.316 44.905 100.539 42.7735Z" fill="#D06B0E"/>
<path d="M72.4916 25.3409C73.0234 26.3717 77.2401 24.3064 82.6101 24.7903C87.7115 25.2285 91.2767 27.7194 92.846 28.8234C98.6136 32.8522 98.5012 36.8403 104.591 39.3655C105.6 39.7802 108.136 40.8201 108.944 40.0314C110.181 38.8255 106.849 33.8288 103.437 30.5914C100.497 27.8588 96.9377 25.6899 92.9746 24.2153C91.0219 23.4447 88.9911 22.8271 86.9055 22.3696C82.0192 21.2284 78.601 20.4836 75.5314 22.056C73.7221 22.971 72.1319 24.6362 72.4916 25.3409Z" fill="#D06B0E"/>
<path d="M115.268 38.2359C112.578 36.1098 112.81 33.4866 111.685 30.7586C109.34 25.0637 102.585 22.5051 98.9652 21.1392C88.747 17.2849 79.2203 20.4132 78.7632 18.4632C78.5383 17.4472 80.9595 15.966 82.8748 15.2843C86.2551 14.0783 89.239 14.9339 93.8496 16.3236C110.392 21.3076 112.384 22.2841 113.197 24.5329C113.83 26.2758 113.373 27.6753 114.855 30.0384C116.012 31.892 116.977 32.1215 118.08 34.4228C118.681 35.6904 118.69 36.2448 119.535 37.6192C120.535 39.2491 121.301 39.7646 121.108 40.0636C120.741 40.592 117.52 40.0126 115.268 38.2359Z" fill="#D06B0E"/>
<path d="M92.7152 8.78437C97.0614 7.97476 100.916 10.306 103.228 11.6932C107.082 14.0199 107.184 15.5131 110.412 16.2723C112.251 16.7041 113.326 16.4802 114.902 17.4392C115.701 17.9288 116.061 18.3762 118.204 20.7235C120.526 23.2563 120.35 22.9983 120.576 23.2919C120.576 23.2919 122.149 25.321 123.199 33.7307C122.033 36.329 121.863 36.3458 121.863 36.3458C120.997 36.4316 121.047 31.3437 118.168 25.6882C117.107 23.6039 116.185 21.8218 114.142 20.2771C112.1 18.7324 110.954 18.8774 106.623 17.2253C100.995 15.0742 101.608 14.3093 97.8221 13.1991C92.2871 11.5714 88.2817 12.424 88.1183 11.4019C87.9996 10.5695 90.3665 9.22011 92.7152 8.78437Z" fill="#D06B0E"/>
<path d="M146.485 80.9317C149.739 81.659 153.066 82.1435 156.429 82.3801C162.105 82.7207 166.148 81.2008 166.399 81.6951C166.59 82.0599 164.466 83.0873 162.268 83.63C159.328 84.3726 156.784 84.0918 153.596 83.735C150.952 83.4407 148.352 82.9305 145.83 82.2109C144.604 81.5423 143.288 80.7472 143.549 80.5137C143.811 80.2801 145.294 80.666 146.485 80.9317Z" fill="#D06B0E"/>
<path d="M101.973 6.59931C101.854 7.44165 105.99 7.58736 110.577 9.83707C114.635 11.8186 116.914 14.4955 121.477 19.8489C124.991 23.9609 126.752 26.0571 126.5 28.1135C126.238 29.9706 126.28 31.8437 126.626 33.6759C126.855 34.8405 127.093 35.3045 127.379 35.3213C127.983 35.3562 128.66 33.3571 128.744 33.1051C129.83 29.9053 128.439 26.522 127.255 24.0798C125.095 19.6305 123.117 15.5425 118.307 11.3061C115.185 8.53655 111.847 5.67112 106.939 5.51613C104.685 5.44144 102.063 5.94483 101.973 6.59931Z" fill="#D06B0E"/>
<path d="M134.486 63.7473C135.388 63.7617 142.418 63.8645 145.689 63.5406C149.972 63.0804 153.182 61.2592 155.883 59.7233C162.113 56.1901 165.199 51.8534 165.786 52.2421C166.213 52.5249 165.029 55.0572 163.109 57.2606C159.857 61.009 155.646 62.4508 148.706 64.8308C147.187 65.4005 145.591 65.7835 143.962 65.9687C141.255 66.2368 141.179 65.6214 137.828 65.6101C134.478 65.5989 132.783 66.2046 129.883 65.4219C129.421 65.2962 128.287 64.9796 128.344 64.6715C128.448 64.1014 132.265 63.8588 132.641 63.8351C133.703 63.7345 134.481 63.7478 134.486 63.7473Z" fill="#D06B0E"/>
<path d="M149.949 23.182C148.795 23.4408 150.917 29.1938 148.455 36.3262C147.139 40.1311 144.923 43.1584 143.414 45.2263C140.769 48.8377 139.452 50.643 137.835 51.6157C136.511 52.4149 134.308 53.4321 133.787 55.2848C133.727 55.5119 133.547 56.1527 133.894 56.3621C134.711 56.8815 137.889 54.4091 138.922 53.607C142.264 51.0146 145.147 48.0011 147.47 44.6712C149.454 41.7721 150.949 38.6462 151.909 35.3928C153.571 29.5359 152.375 26.6073 151.989 25.7427C151.884 25.5183 150.725 23.0149 149.949 23.182Z" fill="#D06B0E"/>
<path d="M125.294 7.21015C124.831 7.76159 130.227 9.96735 133.611 15.4961C134.444 16.8491 135.273 18.9428 136.931 23.1438C138.036 25.9325 138.282 26.8516 138.433 27.8568C138.736 29.8131 138.359 29.8774 138.238 34.3043C138.148 37.5228 138.299 39.4083 137.232 39.821C136.594 40.0782 136.119 39.5655 135.319 39.9065C134.326 40.3299 134.545 41.3375 133.562 42.1797C132.579 43.0218 131.858 42.4342 130.623 43.0846C128.31 44.3067 127.381 48.1455 128.09 49.7095C128.186 49.8572 128.245 50.0223 128.262 50.1935C128.279 50.3647 128.254 50.538 128.188 50.7019C127.918 51.1123 127.293 50.9711 126.835 51.3596C126.376 51.748 126.687 52.3222 126.45 53.1221C126.028 54.5632 124.312 54.5346 123.834 55.9858C123.588 56.737 123.735 57.6975 124.252 57.9035C124.904 58.1595 125.997 57.1755 127.133 56.1511C128.558 54.8589 129.453 54.0661 129.69 52.8509C129.927 51.6357 129.275 51.5918 129.561 50.3944C129.889 49.0076 130.786 48.9188 130.972 47.6048C131.126 46.5468 130.578 46.2896 130.915 45.3534C130.983 45.1526 131.398 44.0686 132.398 43.762C133.398 43.4553 133.912 44.2034 134.617 43.8988C135.506 43.5129 134.965 42.1806 135.999 41.3831C136.816 40.7469 137.543 41.2888 138.58 40.7888C139.44 40.3786 139.567 39.7206 140.723 36.5455C141.733 33.7777 141.992 33.3096 141.931 32.2818C141.871 31.2541 141.542 30.9661 141.211 29.7621C140.287 26.4454 141.901 25.1299 141.135 22.407C140.99 21.8842 140.239 20.839 138.739 18.7576C137.191 16.5747 135.516 14.4641 133.722 12.4335C131.36 9.80547 130.399 9.15123 129.766 8.76258C127.937 7.70232 125.58 6.85233 125.294 7.21015Z" fill="#D06B0E"/>
</g>
<defs>
<clipPath id="clip0">
<rect width="187.355" height="163.682" fill="white" transform="translate(126.254 176) rotate(6.40302)"/>
</clipPath>
<clipPath id="clip1">
<rect width="161.465" height="141.064" fill="white" transform="translate(0 15.9126) rotate(-5.65571)"/>
</clipPath>
</defs>
</svg>
