<svg xmlns="http://www.w3.org/2000/svg" viewBox="0 0 643.66 231.48"><defs><style>.cls-1{fill:#2b6178;}</style></defs><g id="Layer_2" data-name="Layer 2"><g id="Layer_2-2" data-name="Layer 2"><path class="cls-1" d="M145.32,147.19c8.29-.87,8.27-8.11,19-15.26s22.09-7.5,38.24-8c11.86-.36,17.79-.55,19.16,2.46,2.61,5.74-12.16,21.1-29.16,26.83-8.34,2.81-21.66,7.23-33.38,2.42-2.09-.85-6.09-2.78-10.73-1.68-4.26,1-8.6,4.48-9.54,5.23-3.35,2.68-4,4.27-5.5,4-2.57-.39-1.95-5.46-5.63-8.65-4.47-3.87-11.4-.87-12-2.61-.5-1.56,4.47-5.82,10.83-7.15C135,143.06,138.29,147.92,145.32,147.19Z"/><path class="cls-1" d="M283.55,101.22c5.63,1.32,7.95-2.08,15.9-3.84,6.18-1.38,11.15-.73,16.69,0,12.94,1.67,30,8.28,29.93,13.36-.06,4.81-15.46,7.62-26.14,7.29-7.59-.24-16-.5-24.1-5.76-3.47-2.26-5.44-4.51-9.05-4.65-5.87-.23-9.11,5.38-12.42,3.67-1.44-.75-1-1.94-3-4.79-3.8-5.66-9-6.42-8.88-8.25s5.14-3,9.87-2.14C278,97.06,278.75,100.1,283.55,101.22Z"/><path class="cls-1" d="M104.19,221.4c10.85-7.15,17.37-5.15,29.58-9.07,19-6.09,34.43-21,32.71-24.64s-21.49.63-36.24,8.24c-7.36,3.8-13.69,7.07-20.35,13.58-4.62,4.52-6.07,7.36-11.08,9.86-7.9,3.94-16.77,3.13-16.75,3.46s7.77-.93,9.32,2c1.23,2.35-2.23,5.87-1.52,6.54C90.85,232.34,97.83,225.59,104.19,221.4Z"/><path class="cls-1" d="M61.2,185.37c9.46-7.92,23.14-23.76,19.53-29.14-3.5-5.21-23.25-.62-35.73,9.4a61.89,61.89,0,0,0-14.47,16.78c-3.93,7.3-3.09,10.24-7,13.1-6.36,4.66-13,.09-19.27,5.52-3.24,2.8-5,7.05-4,8.26s4.36-1.95,9.12-.89c4.13.92,4.86,4.07,8.6,4a8.84,8.84,0,0,0,5.42-2.26c3.76-3.1,2.54-6.58,5-9.87,3.37-4.55,9.14-2.55,17.81-5.43C52.17,192.93,55.78,189.91,61.2,185.37Z"/><path class="cls-1" d="M227.54,95.71c11.55-4.36,29.69-14.81,28.05-21.08-1.59-6.08-21.75-8.25-36.84-2.9a61.86,61.86,0,0,0-19.18,11.08c-4.94,4.51-6,7.37-8.66,9a10.42,10.42,0,0,1-2.26,1c-5.91,2.17-9.57-.06-15.18.3-6.34.41-11.55,3.89-11.31,5s5.21-.69,8.9,2.17c4.12,3.2,2.87,9.32,5.24,9.78,1.81.35,2.88-3.15,7.42-6.81A29.93,29.93,0,0,1,191.67,99c6.88-2.36,10.89.62,18.61.75C216.53,99.87,220.93,98.2,227.54,95.71Z"/><path class="cls-1" d="M307.27,56.5c8.55-.08,9.34-5.69,20.77-11.39,15.78-7.87,31.77-5.9,36.38-5.27,7.12,1,22.89,4.36,23.63,9.76.89,6.56-20.76,12.82-30.59,14.85-15.37,3.17-25.11,5.23-35.21,1-3.07-1.28-7.72-3.78-11.43-2.11s-3.12,6.14-7.85,8.28c-.52.24-4.37,1.91-7.67.31-3.74-1.82-2.63-5.8-6.31-8.83-4.9-4-12.1-1.34-12.77-3.09-.59-1.57,4.49-5.6,11.17-6.66C296,52,299.48,56.57,307.27,56.5Z"/><path class="cls-1" d="M294,13.66c4.89.59,6.59-2.59,13.21-4.9C312.28,7,316.52,7,321.36,7.11c14.66.24,31.16,7.84,30.81,12-.28,3.4-11.62,4.25-22,5-9.89.74-16.82,1.17-24.87-2.14-4.38-1.81-5.09-3-8.06-3.16-8.85-.38-15.5,9.9-16.24,9.23-.5-.45,3.84-4.3,3.07-8.69-1-5.55-9.47-8.13-8.94-9.68.41-1.23,6-.18,9,.56C290.17,11.81,290.61,13.25,294,13.66Z"/><path class="cls-1" d="M171.91,60.9c12-7.29,19.88-6,37.36-9.7,19.16-4.05,46.23-13.35,45.11-18.68C253.31,27.4,225.5,22.18,204,31a91.69,91.69,0,0,0-25.35,15.64C173,52,171.24,55.35,165,58.17c-9.9,4.45-21.27,3-21.23,3.46s9.89-.78,12,2.89c1.68,2.92-2.59,7.06-1.65,7.92C155.39,73.64,164,65.72,171.91,60.9Z"/><path class="cls-1" d="M434.09,67.35a29.29,29.29,0,0,1,7.32.66c10.4,2.36,12.88,5.79,20.15,6.8,7.52,1,16-1.8,16.31-5.48.27-3.34-6.14-7.56-11.26-9.38-8.74-3.09-17.71-.58-22.39.74-6.27,1.76-8.91,3.78-13.36,2.37a53.78,53.78,0,0,1-8.05-3.89c-3.82-2.13-6-3.77-6.56-3.22s2.63,3.42,2.67,7.61c0,2.81-1.44,3.67-.8,4.66C419.35,70.12,425,67.6,434.09,67.35Z"/><path class="cls-1" d="M92.83,115.14c3.13-2.29,3.13-4.13,8.48-11,.19-.25,3-3.79,4.9-5.81,6.58-6.86,15.09-8.11,20.91-8.88,2.92-.39,19.33-2.57,20.64,2.43,1.06,4.07-8.34,10.82-19.62,18.39-9.29,6.23-15.83,10.49-24.63,10.34-4.79-.07-5.86-1.32-8.76.08C86.11,124.89,83,142.11,82,141.61c-.55-.31,3-10.35.22-13.2-3.39-3.45-14.13,5.84-14.89,4.47-.51-.91,3.84-5.62,8.27-9a49.09,49.09,0,0,1,8.42-5.12C89.86,115.92,90.11,117.11,92.83,115.14Z"/><path class="cls-1" d="M389.74,97.86c7.12,1.71,8.67-4,19.16-6.57s20.1.46,33.71,4.74c10,3.14,15,4.71,15.49,7.48.95,5.29-14.72,13.15-30.18,12.76-7.58-.2-19.67-.56-28.44-7.75-1.56-1.27-4.49-4-8.62-4.42-3.78-.44-8.15,1.05-9.1,1.37-3.38,1.15-4.3,2.2-5.48,1.6-2.06-1.06-.44-4.88-2.83-8.46-2.91-4.36-9.35-4-9.44-5.52s5-3.31,10.6-2.52C382,91.61,383.7,96.41,389.74,97.86Z"/><path class="cls-1" d="M499.35,79c2.9,1.18,4.58-.42,9.12-.67a25,25,0,0,1,9.07,1.42c6.83,2,15.28,7,14.61,9.65C531.52,92,522.8,92.13,517,91c-4.1-.78-8.65-1.64-12.39-5.12-1.6-1.49-2.39-2.85-4.34-3.24-3.16-.63-5.62,2.07-7.2.88-.69-.52-.33-1.12-1-2.79-1.36-3.33-4.12-4.18-3.8-5.14s3.16-1.12,5.63-.28C496.85,76.35,496.88,78,499.35,79Z"/><path class="cls-1" d="M491,49.53c8.38,1.06,22.66.56,23.61-3.73S503.9,33.91,493.06,32.32a42.11,42.11,0,0,0-15.11.55c-4.4,1.13-5.93,2.51-8.07,2.67a6.86,6.86,0,0,1-1.69-.11c-4.27-.58-5.8-3.08-9.33-4.65-4-1.78-8.24-1.35-8.45-.58s3.39,1.25,4.74,4.15c1.52,3.23-1.14,6.51.16,7.54,1,.79,2.73-1,6.63-1.72a20.18,20.18,0,0,1,6.18-.08c4.92.77,6.43,3.84,11.09,6.38C483,48.52,486.17,48.92,491,49.53Z"/><path class="cls-1" d="M561.84,48.64c4.18,2,6.09-.58,13.2-.68a34.14,34.14,0,0,1,19.13,5.89c3.19,2.12,9.94,7.42,8.82,10.2-1.35,3.38-13.58,1.38-18.91.08-8.34-2-13.64-3.3-17.41-7.68-1.14-1.33-2.71-3.62-5-3.67S558.5,55,555.62,55c-.32,0-2.65-.09-3.82-1.63-1.32-1.75.31-3.41-.66-5.74-1.28-3.08-5.51-3.45-5.36-4.45s3.71-1.67,7.25-.63C557.55,43.84,558,46.87,561.84,48.64Z"/><path class="cls-1" d="M576.87,105.86c2.47,1,3.94-.42,7.85-.69a21.31,21.31,0,0,1,7.79,1.12c7.7,2.17,15,8.4,14.12,10.53-.76,1.72-6.9.58-12.54-.47-5.35-1-9.09-1.74-12.75-4.58-2-1.54-2.15-2.27-3.69-2.75-4.6-1.43-9.95,3-10.23,2.51-.18-.3,2.8-1.69,3.18-4.07.48-3-3.55-5.53-3-6.26.44-.57,3.18.74,4.63,1.54C575.2,104.38,575.17,105.19,576.87,105.86Z"/><path class="cls-1" d="M505.91,13.47c7.81-.74,11.3,1.7,20.81,4,10.42,2.49,26.12,4.28,27,1.44S542.52,7.18,529.66,6.46a54.23,54.23,0,0,0-16.59,1.68c-4.21,1.25-6,2.49-9.8,2.39-6-.14-11.18-3.46-11.27-3.25s5,1.92,5,4.18c0,1.8-3.18,2.81-3,3.45C494.4,15.79,500.74,14,505.91,13.47Z"/><path class="cls-1" d="M619.57,90.86a15.9,15.9,0,0,1,4,.61c5.58,1.64,6.7,3.56,10.65,4.36s9-.39,9.41-2.35c.39-1.77-2.85-4.27-5.55-5.42-4.6-2-9.74-.94-12.43-.41-3.59.72-5.19,1.71-7.56.79a26,26,0,0,1-4.16-2.37c-2-1.27-3.07-2.23-3.39-1.95s1.2,1.92.92,4.17c-.19,1.5-1.06,1.91-.78,2.46C611.23,91.81,614.52,90.66,619.57,90.86Z"/><path class="cls-1" d="M408.3,10.19c3.17-.71,3.65-2.14,9.82-5.66.22-.12,3.42-1.94,5.53-2.85,7.18-3.11,14.47-1.21,19.43.16,2.5.69,16.49,4.54,16.25,8.86-.2,3.51-9.66,5.58-20.87,7.64-9.23,1.7-15.69,2.8-22.85-.28-3.9-1.68-4.45-3-7.19-2.9-8.16.33-15.25,12.63-15.88,11.92-.37-.42,5.18-7,3.63-10.16-1.86-3.83-13.08-.24-13.35-1.56-.17-.87,4.61-3.07,9.14-4.21A40.49,40.49,0,0,1,400.18,10C405.67,9.8,405.57,10.81,408.3,10.19Z"/></g></g></svg>