<svg width="410" height="794" viewBox="0 0 410 794" fill="none" xmlns="http://www.w3.org/2000/svg">
<path d="M221.184 545.022C241.799 612.484 368.598 665.59 429.422 683.71C435.69 481.137 448.226 73.2043 448.226 62.0535C448.226 48.1151 368.831 17.4504 340.276 15.3596C311.722 13.2688 274.81 80.8705 269.935 118.504C265.06 156.138 178.701 242.557 159.897 261.374C141.093 280.191 113.235 388.214 113.235 404.243C113.235 420.273 195.415 460.694 221.184 545.022Z" fill="#14232C"/>
<g clip-path="url(#clip0)">
<path d="M185.286 263.269C182.28 266.536 176.198 261.71 167.543 261.325C155.652 260.837 141.9 269.08 138.091 279.595C135.775 285.987 139.102 287.712 136.36 295.94C133.326 304.914 125.779 313.227 121.652 312.012C120.96 311.822 120.349 311.408 119.901 310.829C119.454 310.249 119.193 309.532 119.154 308.777C119.373 307.239 121.707 307.036 124.339 305.416C131.533 300.993 132.589 291.241 132.716 290.048C132.857 288.506 133.042 286.555 132.171 286.139C130.771 285.447 128.438 291.129 123.196 295.416C115.122 301.958 108.469 298.509 102.829 305.429C100.639 308.124 101.688 308.588 99.2958 312.405C92.9732 322.488 80.0252 328.004 76.6408 324.768C75.9668 324.001 75.5678 323.007 75.5091 321.95C75.4504 320.893 75.7357 319.836 76.3179 318.952C77.7486 317.383 80.6903 318.887 81.3051 317.706C81.9199 316.525 80.1198 314.182 78.1642 312.721C75.6286 310.82 73.2983 311.007 73.1822 309.716C73.2238 309.23 73.4086 308.766 73.7107 308.388C74.0129 308.01 74.4171 307.738 74.8666 307.609C77.8133 306.712 79.6647 313.809 84.7972 314.4C87.3634 314.695 89.6304 313.197 92.5084 311.307C93.1046 310.911 97.8093 307.809 97.3446 306.459C96.88 305.108 92.2679 307.445 85.1054 307.222C76.0659 306.97 73.3448 303.205 69.1572 305.554C66.1202 307.268 67.0818 309.489 62.6639 313.121C60.1602 315.212 55.0422 318.439 52.6166 316.602C51.9367 316.028 51.4742 315.218 51.3083 314.309C51.1424 313.401 51.2835 312.45 51.7074 311.621C52.4599 310.577 53.8083 310.986 56.0662 310.595C59.8412 309.918 63.6932 307.581 63.5517 306.266C63.4102 304.951 58.9684 303.787 54.9855 304.174C51.0026 304.56 48.9393 306.365 47.6349 305.195C47.1036 304.548 46.8092 303.719 46.8025 302.852C46.7959 301.985 47.0774 301.134 47.5984 300.446C48.5216 299.296 50.1116 299.332 53.3977 299.601C59.5941 300.122 62.4524 300.63 62.4524 300.63C73.0448 302.487 74.8855 302.355 75.4923 301.323C76.0992 300.291 75.3004 298.768 75.1263 298.469C73.614 295.698 69.8545 295.959 64.2653 295.179C58.1565 294.329 50.8162 293.285 49.7378 289.537C49.5079 288.611 49.569 287.623 49.912 286.719C50.255 285.814 50.8618 285.042 51.6429 284.514C53.1312 283.801 54.7345 285.336 61.0675 287.607C62.5091 288.142 63.1262 288.323 63.3807 288.021C63.9716 287.287 62.3152 283.687 59.463 282.442C57.2366 281.464 55.6417 282.519 54.8907 281.411C54.5592 280.587 54.5216 279.656 54.7847 278.786C55.0477 277.917 55.5942 277.165 56.3258 276.667C58.6038 275.307 62.8306 277.875 65.018 281.146C67.2054 284.416 65.9185 286.04 68.1158 289.094C69.9163 291.556 71.279 291.195 74.8664 293.846C80.3881 297.919 79.1922 300.273 82.8016 301.887C84.9942 302.874 85.7498 302.117 96.5071 300.791C102.617 300.029 104.633 300.01 104.799 299.029C105.371 296.879 96.5475 292.416 95.9998 292.153C92.7156 290.507 90.279 289.843 90.2851 288.45C90.2756 287.472 91.509 286.288 92.8001 285.959C97.416 284.799 99.8523 295.177 106.992 295.663C109.201 295.813 111.438 294.845 115.931 292.897C119.153 291.501 120.774 290.823 120.843 289.85C120.989 287.452 112.514 282.813 105.247 284.713C103.538 285.183 101.725 286.045 100.842 285.138C99.9583 284.231 100.47 281.175 101.956 280.292C103.441 279.41 105.374 281.016 106.068 280.192C106.762 279.368 106.124 277.955 105.299 276.828C103.266 274.053 100.048 275.433 98.3067 272.987C97.1571 271.354 97.2143 268.815 98.0927 268.191C99.3819 267.273 102.18 270.689 103.427 269.811C104.674 268.932 102.519 264.528 103.787 263.571C104.587 262.943 106.44 263.839 107.695 265.013C111.188 268.26 109.4 273.079 111.285 277.428C112.48 280.199 115.472 283.482 123.556 285.244C128.137 282.772 132.327 279.544 135.963 275.686C140.731 270.617 139.462 269.793 142.915 267.047C147.321 263.58 151.256 263.433 161.936 257.869C163.787 256.865 164.782 256.34 164.771 255.665C164.712 253.565 155.562 251.402 146.822 253.062C144.261 253.329 141.763 254.147 139.485 255.464C132.987 259.652 133.641 266.548 127.15 269.579C125.24 270.441 123.165 270.775 121.127 270.549C119.697 270.387 117.346 270.116 116.665 268.388C116.419 267.767 116.381 267.07 116.556 266.41C116.732 265.75 117.111 265.164 117.633 264.747C118.769 264.226 119.679 266.165 121.894 266.115C123.154 266.08 124.727 265.406 125.057 264.284C125.424 262.902 123.861 261.277 123.223 260.637C121.778 259.16 120.49 259.003 120.544 258.143C120.6 257.719 120.783 257.32 121.066 257.005C121.349 256.691 121.718 256.477 122.118 256.394C124.183 255.951 125.027 260.108 128.096 260.537C128.985 260.55 129.872 260.373 130.705 260.017C131.537 259.66 132.297 259.132 132.939 258.463C134.743 256.977 137.052 254.011 136.353 252.649C135.654 251.287 132.184 252.247 125.245 253.864C112.869 256.692 110.903 257.177 106.532 258.368C95.3261 261.44 94.1985 262.047 93.2321 263.538C90.2426 268.172 93.4496 273.981 89.8259 277.068C87.7627 278.873 85.3929 277.957 84.1731 280.103C82.9534 282.249 84.5976 283.392 83.8281 286.347C83.0585 289.302 80.1779 292.334 77.7679 292.046C76.3422 291.869 74.9972 290.554 75.0742 289.549C75.2873 288.211 78.2017 288.448 79.3365 286.145C79.8778 285.062 80.0207 283.57 79.3797 283.182C78.2859 282.471 75.802 286.751 73.3825 286.142C72.6552 285.892 72.0407 285.381 71.6446 284.696C71.2486 284.011 71.0958 283.195 71.2125 282.389C71.6297 280.819 73.8702 280.91 77.4832 279.115C80.68 277.522 83.4848 275.148 85.6571 272.196C87.0464 270.246 89.4461 266.044 88.3632 264.815C87.2804 263.586 84.0932 266.52 77.2513 268.785C71.9342 270.415 66.4779 271.416 60.9845 271.772C56.655 272.033 54.6504 271.769 52.3565 273.428C50.0626 275.087 50.3346 276.924 47.4832 279.846C45.0505 282.325 40.9337 285.062 39.1708 283.77C38.6332 283.197 38.2943 282.448 38.2063 281.638C38.1182 280.829 38.2858 280.003 38.6834 279.288C39.712 277.444 41.8193 278.156 44.6138 275.924C45.7426 275.014 47.7061 273.049 47.2976 272.083C46.7123 270.65 40.9468 271.487 36.2562 273.703C33.0564 275.271 30.1433 277.443 27.6647 280.107C23.3128 284.563 23.5162 286.718 19.9524 288.745C17.3961 290.2 13.3058 291.348 11.9108 289.565C11.519 289.002 11.3174 288.314 11.3368 287.606C11.3563 286.897 11.5957 286.209 12.0185 285.645C13.2636 284.178 15.3038 285.678 18.3336 284.349C20.2311 283.526 22.2015 281.714 21.9508 280.571C21.7 279.429 19.6049 279.208 15.5514 278.669C11.1115 278.094 9.88373 278.423 9.19417 277.382C7.95084 275.506 9.67653 271.158 11.4554 270.841C12.5633 270.665 12.946 272.145 14.8443 273.523C18.5098 276.178 23.2759 275.109 24.757 274.78C28.3458 273.97 32.2509 271.731 32.0192 270.577C31.7874 269.423 26.8138 270.974 20.6845 268.354C19.0354 267.647 14.1577 265.56 13.9858 262.036C13.8773 259.822 15.622 257.429 16.8805 257.461C18.139 257.493 18.1348 259.475 19.6998 261.572C20.2744 262.329 21.7218 263.974 26.114 265.444C33.2476 267.861 38.112 266.482 48.8537 267.539C55.5341 268.206 59.902 269.35 61.2629 267.09C61.4978 266.6 61.6304 266.065 61.6516 265.522C61.6728 264.98 61.5821 264.442 61.3857 263.947C60.0615 259.931 53.4699 257.977 48.5851 259.553C45.7124 260.47 45.6157 261.906 42.8006 262.368C38.8185 262.99 34.5636 260.884 34.6539 259.413C34.7157 258.286 37.3123 257.514 37.6013 257.44C40.9424 256.429 43.2349 258.232 44.2233 257.015C44.4554 256.668 44.5833 256.258 44.5899 255.839C44.5964 255.42 44.4813 255.013 44.26 254.672C42.9169 252.635 37.6589 255.674 36.6105 254.017C35.8933 252.902 37.1927 249.92 39.2461 248.987C41.2996 248.054 42.9764 249.492 46.3407 251.075C54.7989 255.003 57.0499 252.493 60.8409 256.105C64.1449 259.286 62.9028 261.695 66.043 263.823C70.8713 266.989 78.1843 264.143 78.262 262.719C78.3284 261.694 74.5788 261.74 71.6889 258.014C71.2543 257.444 69.4818 255.175 70.1474 254.041C70.8131 252.908 74.4307 253.18 77.0558 254.684C80.0173 256.413 80.1702 258.638 81.9422 260.134C87.4787 264.866 102.308 256.741 101.822 254.159C101.337 251.576 85.3367 249.508 83.5392 249.299C83.0636 249.289 82.5985 249.171 82.1754 248.955C81.7522 248.738 81.3807 248.427 81.086 248.042C80.8209 247.608 80.6987 247.091 80.7378 246.568C80.7768 246.046 80.9749 245.546 81.3025 245.142C82.5655 243.965 85.6818 245.886 85.8475 245.56C86.0133 245.235 79.3784 242.312 79.7079 239.761C79.8642 238.458 81.9017 237.168 83.5007 237.408C85.5667 237.739 85.7609 240.345 88.5962 243.501C90.1139 245.146 91.9002 246.491 93.8748 247.475C97.1857 249.171 100.851 250.012 104.577 249.933C112.054 250.106 114.789 249.287 122.942 248.883C137.565 248.03 144.27 247.829 144.27 247.829C147.943 247.713 149.938 247.656 150.08 247.004C150.497 245.435 141.553 241.965 134.018 240.164C125.921 238.213 121.887 237.242 117.909 239.041C112.341 241.578 111.262 246.77 106.121 246.983C102.917 247.123 99.9755 245.198 100.095 244.39C100.215 243.581 102.081 243.892 104.761 242.269C104.97 242.139 107.45 240.614 107.23 239.951C107.01 239.287 101.917 241.647 98.8353 239.299C97.303 238.152 96.3984 235.895 97.0348 234.871C97.6712 233.847 100.755 234.281 104.607 235.103C108.995 236.051 110.933 237.103 113.662 236.131C113.978 236.014 116 235.257 115.981 234.378C115.974 233.15 112.068 232.414 110.437 232.115C87.2696 227.638 81.2476 224.256 76.5217 228.629C73.9157 231.046 73.1079 234.562 68.6695 236.424C66.3293 237.482 65.2741 236.983 63.8871 238.329C61.1149 240.953 63.1813 244.678 60.6428 247.734C58.1043 250.79 53.158 250.988 52.4931 249.736C52.0406 248.876 53.5668 246.828 54.6698 245.777C56.1789 244.329 57.1211 244.479 57.9949 243.098C58.7133 241.944 59.0687 240.19 58.3928 239.456C57.7169 238.722 56.5699 239.224 55.0296 239.537C51.2781 240.304 46.476 240.019 45.9707 238.524C45.6381 237.511 47.2075 235.777 48.7967 234.923C50.6598 233.872 52.1015 234.406 55.0284 234.596C58.6913 234.855 62.3877 234.291 65.8733 232.941C66.2697 232.761 71.2455 230.605 71.0312 228.968C70.9166 228.148 69.5281 227.711 62.1058 226.797C50.7632 225.379 48.9972 225.767 47.5146 226.28C44.5262 227.334 44.4261 228.366 40.7262 229.416C39.5091 229.765 33.4614 231.485 32.0538 229.094C31.8123 228.649 31.7044 228.133 31.7437 227.614C31.783 227.095 31.9678 226.595 32.2745 226.179C33.2652 225.013 35.0315 226.054 38.5521 225.679C40.8357 225.429 43.4892 224.622 43.512 223.821C43.5571 222.758 38.6419 222.779 38.0832 220.412C37.9944 219.802 38.0819 219.173 38.3345 218.605C38.587 218.037 38.993 217.557 39.5001 217.226C42.1805 215.603 45.4986 221.173 51.2839 220.56C52.9956 220.376 55.3726 219.597 55.5944 218.345C55.9407 216.387 50.9144 214.026 49.4617 213.354C42.4202 210.054 37.3324 210.903 37.0161 209.054C36.7904 207.818 38.8131 205.868 41.0236 205.179C46.695 203.325 54.0737 209.706 57.8193 215.575C59.971 218.92 60.0082 220.627 62.2821 221.904C65.3046 223.581 67.3638 221.792 73.1236 221.811C80.3024 221.853 84.0255 224.708 84.817 223.339C85.6086 221.97 82.4422 218.271 79.7072 216.049C77.3419 214.337 74.7552 212.983 72.0193 212.022C65.3514 209.343 62.093 209.149 61.774 207.131C61.7225 206.467 61.8683 205.796 62.1911 205.211C62.514 204.626 62.9981 204.155 63.5771 203.863C67.079 202.307 71.0799 211.386 76.7623 210.325C78.328 210.036 80.0727 208.953 80.2502 207.69C80.5828 205.426 75.836 202.013 71.3384 200.582C69.0896 199.867 67.544 199.842 67.1855 198.688C67.0972 197.793 67.3297 196.884 67.8377 196.14C68.3458 195.396 69.093 194.87 69.9341 194.663C71.2173 194.483 71.977 195.677 74.131 197.762C78.4644 201.955 79.4433 201.073 81.168 203.581C83.0922 206.412 81.9433 207.636 83.6794 212.366C84.7911 215.573 86.5631 218.464 88.8712 220.837C92.0098 223.806 94.9319 223.776 102.027 225.325C103.654 225.758 108.447 227.032 117.932 229.956C124.173 231.621 130.311 233.65 136.318 236.036C146.296 240.503 151.098 245.141 152.099 243.995C153.1 242.85 148.399 239.029 143.924 229.168C141.05 222.942 140.582 219.457 138.024 218.895C136.412 218.584 134.147 220.251 129.693 223.604C125.238 226.957 123.764 228.75 121.479 228.529C119.193 228.308 117.3 226.377 117.49 225.301C117.681 224.226 119.606 224.553 123.302 223.099C124.877 222.475 128.293 220.947 128.168 220.224C128.043 219.502 124.414 220.168 119.218 220.232C111.548 220.311 107.388 219.037 100.557 216.852C98.1606 216.097 96.0043 215.272 95.3455 213.282C94.6866 211.292 95.4543 209.059 96.572 208.667C97.6898 208.275 98.4772 209.543 99.4619 210.427C103.847 214.365 111.095 214.325 111.619 213.07C112.143 211.814 107.417 208.441 104.229 206.552C99.5459 203.794 96.4434 203.491 96.2511 201.473C96.2527 200.701 96.5169 199.946 96.9959 199.346C97.4749 198.746 98.1371 198.34 98.8628 198.201C100.05 198.265 100.094 200.361 101.974 201.213C103.387 201.857 105.351 201.556 105.634 200.791C106.199 199.261 100.272 197.131 100.684 194.148C100.792 193.505 101.099 192.911 101.557 192.461C102.015 192.011 102.598 191.729 103.214 191.661C104.414 191.678 105.05 193.275 106.888 196.789C106.888 196.789 108.849 200.671 110.799 203.76C112.245 206.383 114.02 208.781 116.078 210.894C118.038 212.962 120.421 214.537 123.056 215.505C124.318 215.941 129.325 217.658 132.878 214.956C133.3 214.718 133.673 214.391 133.971 213.995C134.27 213.6 134.489 213.145 134.613 212.661C134.855 210.675 132.167 209.944 129.649 206.788C126.488 202.771 127.828 200.052 125.161 198.469C124.035 197.817 123.728 198.257 118.202 198.015C111.947 197.713 111.2 197.128 110.962 196.477C110.843 195.898 110.914 195.288 111.161 194.745C111.409 194.202 111.82 193.756 112.329 193.479C114.137 192.632 115.827 195.451 118.164 194.643C118.624 194.49 119.048 194.226 119.4 193.874C119.752 193.521 120.024 193.089 120.193 192.612C120.401 191.827 120.256 190.528 114.957 185.674C109.659 180.821 108.341 180.773 107.689 180.785C106.632 180.856 105.593 181.145 104.631 181.636C103.669 182.127 102.803 182.81 102.082 183.647C99.6124 186.503 101.173 188.615 98.7747 191.859C97.8217 193.042 96.6568 194.016 95.3503 194.722C94.0437 195.429 92.6226 195.855 91.1723 195.973C90.3618 196.043 88.4221 196.25 87.9905 195.312C87.5588 194.374 88.7247 192.549 90.1023 191.537C92.078 190.063 93.4153 190.99 95.2856 189.554C96.6904 188.499 97.9235 186.541 97.4664 185.58C97.0094 184.618 94.5755 185.433 90.007 185.58C83.5068 185.785 82.2343 184.018 78.149 185.386C75.6813 186.209 76.1733 186.86 73.1599 188.009C69.8112 189.243 66.2602 189.656 62.7822 189.216C60.2585 188.999 54.9173 188.538 54.5748 186.43C54.381 185.253 55.8052 183.648 57.3007 183.205C59.2961 182.61 60.4082 184.384 63.2802 185.198C67.1853 186.236 71.2217 184.754 71.2592 183.958C71.2968 183.161 67.2403 182.99 61.1622 179.879C57.5331 178.041 56.3804 176.777 56.3698 175.446C56.371 175.002 56.479 174.561 56.6837 174.166C56.8884 173.771 57.1832 173.434 57.5406 173.186C59.437 172.01 62.5552 174.519 64.9421 176.145C72.6713 181.207 82.8229 182.578 84.1667 180.263C84.8994 178.996 83.2408 176.001 81.207 174.536C78.8156 172.808 76.3138 173.521 75.8913 172.132C75.8315 171.45 75.9932 170.76 76.3501 170.175C76.707 169.589 77.2381 169.142 77.8571 168.907C80.8136 167.793 85.0624 173.258 85.7854 174.173C88.4632 177.624 88.4488 179.704 90.6384 180.404C91.9401 180.75 93.1869 180.409 95.703 179.582C98.9785 178.52 101.301 177.709 101.588 176.39C102.097 174.055 96.5707 170.419 91.3707 168.532C85.8493 166.544 83.8725 167.665 73.6602 165.808C64.0373 164.057 62.9851 162.534 62.8637 161.56C62.8972 160.826 63.1425 160.113 63.5669 159.517C63.9913 158.922 64.5746 158.471 65.2388 158.226C67.6677 157.191 69.2968 160.178 74.4817 161.287C75.2213 161.484 79.189 162.287 79.7553 161.109C80.4535 159.615 75.8019 155.605 72.1751 153.163C66.9762 149.663 64.477 149.89 61.0168 146.046C59.3342 144.153 57.4036 141.288 58.026 140.495C58.3393 140.091 59.2879 140.276 61.5522 141.231C67.3243 143.706 71.3144 146.867 71.4847 146.644C71.655 146.42 61.8439 138.704 63.1524 135.926C63.5802 135.031 65.0488 134.749 66.0353 134.911C69.7121 135.199 71.2077 139.999 76.3328 148.722C80.3241 155.513 82.3029 158.913 84.8866 160.692C89.8572 164.097 92.8012 162.376 96.2137 166.459C97.5913 168.57 99.5872 170.143 101.91 170.947C102.546 171.116 103.833 171.458 104.156 170.956C104.906 169.744 100.635 163.113 94.2376 160.606C92.5315 159.934 90.6829 159.561 90.3976 158.191C90.33 157.457 90.5157 156.713 90.9209 156.096C91.3261 155.479 91.924 155.03 92.6058 154.829C94.7939 154.402 96.7245 158.578 97.4979 158.112C97.9488 157.845 97.7914 156.173 97.1155 154.784C95.5809 151.62 92.1532 151.347 92.2143 149.986C92.2575 148.989 94.0906 147.812 95.6062 147.711C100.742 147.396 100.986 159.409 111.031 172.38C115.884 178.611 119.425 180.425 127.928 191.693C128.944 193.055 129.999 194.445 131.342 196.365C136.041 203.338 140.115 210.766 143.514 218.556C150.347 232.892 153.837 240.138 157.434 244.002C163.92 251.002 171.425 254.762 171.867 254.173C172.308 253.585 167.302 250.136 161.726 242.571C158.223 237.876 154.327 232.572 152.257 224.93C149.868 216.043 152.571 213.619 149.247 208.904C146.74 205.348 142.123 202.339 138.886 200.218C135.393 197.929 132.436 196.538 132.691 194.807C132.788 194.305 133.048 193.849 133.425 193.517C133.802 193.185 134.273 192.998 134.758 192.987C136.118 193.231 135.784 196.336 137.264 196.729C137.695 196.794 138.139 196.713 138.532 196.497C138.925 196.282 139.247 195.943 139.451 195.529C140.332 193.646 137.339 191.203 138.156 189.857C138.463 189.524 138.856 189.292 139.283 189.193C139.711 189.094 140.153 189.131 140.552 189.301C142.671 190.15 141.493 194.223 143.972 198.125C145.381 200.331 147.96 202.546 149.123 201.864C150.868 200.899 150.507 193.023 146.397 188.284C144.117 185.661 141.002 184.749 134.939 183.07C125.605 180.472 120.499 180.913 119.698 178.028C119.533 177.41 119.55 176.749 119.745 176.13C119.941 175.511 120.307 174.962 120.795 174.555C123.208 173.163 127.867 179.409 129.324 178.217C129.998 177.707 129.95 175.862 129.129 174.602C127.569 172.07 124.005 173.324 122.959 171.181C122.638 170.43 122.58 169.576 122.795 168.768C123.01 167.96 123.484 167.248 124.135 166.755C126.127 165.755 130.142 169.242 132.37 172.893C134.599 176.544 134.362 179.522 136.552 180.34C138.196 180.945 140.567 180.13 141.057 178.764C141.864 176.559 137.808 173.111 133.787 169.707C130.961 167.036 127.789 164.796 124.36 163.05C117.01 159.601 113.063 161.341 109.878 157.235C108.43 155.354 107.391 152.591 108.196 151.645C108.775 150.959 110.041 151.497 114.213 152.841C121.915 155.325 122.438 155.027 124.801 156.445C128.289 158.515 129.419 160.462 130.013 160.015C130.866 159.368 129.766 154.387 126.577 152.565C124.867 151.606 123.846 152.293 120.541 152.154C115.163 151.951 109.844 149.798 109.953 148.55C110.006 147.875 111.658 147.322 113.095 147.217C116.429 147.128 117.769 150.308 119.916 149.618C121.045 149.246 122.096 147.912 121.914 146.99C121.542 144.992 115.788 146.202 114.226 142.963C113.716 141.904 113.677 140.381 114.315 139.828C114.953 139.275 116.925 140.135 122.362 143.933C131.451 150.315 132.515 151.673 133.191 152.945C135.137 156.286 134.327 157.667 135.752 161.541C138.259 168.375 143.118 170.473 146.751 174.144C152.64 180.112 150.52 185.346 155.059 208.786C158.168 224.736 159.761 232.806 162.777 236.532C171.265 246.905 183.985 246.118 186.178 256.397C186.38 257.308 187.216 261.194 185.286 263.269Z" fill="#CF68C5"/>
</g>
<g clip-path="url(#clip1)">
<path d="M146.265 405.92C180.667 384.228 204.376 360.359 207.259 363.45C210.142 366.541 189.073 384.053 194.201 410.254C194.78 413.407 197.242 425.108 206.405 432.984C216.803 441.958 230.121 441.073 238.083 437.163C246.045 433.253 249.169 426.368 252.717 418.428C268.706 382.382 267.508 372.784 278.234 348.521C287.004 328.648 293.103 323.205 289.86 311.838C287.893 305.039 284.411 302.518 271.565 283.916C257.757 263.932 259.514 263.558 254.89 258.465C239.506 241.139 224.152 250.351 184.971 237.95C155.008 228.444 146.62 217.518 131.841 222.327C121.678 225.454 110.881 235.424 112.439 247.753C113.586 256.749 121.256 266.098 127.706 271.054C133.189 275.408 137.705 276.582 137.659 277.777C137.524 280.409 115.531 270.803 99.6993 279.374C88.7526 285.275 80.1817 300.214 84.8508 313.189C88.5259 323.424 99.4522 329.757 103.194 331.932C114.434 338.482 123.126 337.52 123.537 339.37C124.336 343.12 86.5987 338.072 69.8757 361.214C68.8513 362.662 56.0025 381.11 64.5197 401.311C68.7631 410.491 75.8549 418.186 84.3062 422.782C94.9344 428.179 109.59 429.031 146.265 405.92Z" fill="#97759D"/>
<path d="M85.5457 375.88C93.4262 378.699 97.1601 390.203 97.7694 396.938C98.3786 403.673 96.8771 414.475 89.8675 415.429C83.6163 416.276 76.8904 408.498 73.945 403.435C70.011 396.689 67.8125 386.263 72.7874 380.107C75.2924 376.948 80.1876 373.987 85.5457 375.88Z" fill="#423B44"/>
<path d="M100.97 318.414C99.4387 317.866 97.967 317 96.6452 315.868C95.3235 314.736 94.1794 313.363 93.283 311.832C91.8952 309.565 91.0481 307.04 90.8359 304.535C90.6237 302.031 91.0546 299.646 92.0808 297.645C93.2923 295.301 95.2947 293.637 97.7597 292.927C100.225 292.217 103.006 292.502 105.648 293.736C111.876 297.001 114.723 305.448 113.123 311.299C112.404 313.978 110.815 316.135 108.611 317.426C106.407 318.716 103.716 319.064 100.97 318.414V318.414Z" fill="#423B44"/>
<path d="M128.201 258.193C122.84 255.03 122.204 246.335 122.084 244.754C121.963 243.173 121.293 233.335 127.882 230.996C129.697 230.378 131.733 230.352 133.769 230.922C135.805 231.492 137.765 232.636 139.439 234.231C144.92 239.716 144.33 249.073 140.955 254.004C138.504 257.552 133.034 261.03 128.201 258.193Z" fill="#423B44"/>
<path d="M216.202 409.966C220.45 410.094 224.809 411.979 228.412 415.245C229.832 416.54 235.129 421.439 234.816 426.024C234.459 431.59 226.298 434.148 219.613 432.63C212.927 431.112 203.836 424.001 203.977 417.975C204.07 412.617 210.998 409.879 216.202 409.966Z" fill="#423B44"/>
</g>
<g clip-path="url(#clip2)">
<path d="M331.643 555.04C329.108 549.029 318.302 552.682 306.141 548.916C289.455 543.686 274.53 525.458 274.486 509.024C274.457 499.035 279.914 498.302 280.209 485.562C280.469 471.645 274.161 456.402 267.85 456.032C266.8 455.952 265.749 456.22 264.842 456.799C263.936 457.378 263.219 458.24 262.79 459.265C262.328 461.501 265.456 462.941 268.291 466.488C276.043 476.177 272.66 490.188 272.243 491.9C271.672 494.103 270.96 496.893 269.548 497.036C267.269 497.297 266.864 488.281 261.744 479.749C253.828 466.693 242.914 468.158 238.551 455.787C236.862 450.973 238.543 450.853 237.13 444.385C233.394 427.302 218.227 413.244 211.94 416.038C210.627 416.765 209.582 417.941 208.976 419.373C208.37 420.806 208.239 422.409 208.605 423.921C209.805 426.801 214.62 426.181 214.884 428.12C215.147 430.058 211.494 432.406 208.064 433.455C203.614 434.824 200.484 433.408 199.682 435.136C199.499 435.828 199.523 436.563 199.754 437.235C199.984 437.908 200.408 438.485 200.965 438.885C204.595 441.59 210.679 432.696 218.071 434.427C221.766 435.293 224.157 438.49 227.198 442.533C227.826 443.377 232.792 450.003 231.479 451.64C230.165 453.276 224.948 447.754 214.932 444.506C202.307 440.365 196.674 444.22 192.049 438.892C188.701 435.014 191.134 432.42 186.828 425.203C184.404 421.069 178.929 414.064 174.662 415.401C173.437 415.856 172.395 416.747 171.714 417.921C171.034 419.095 170.757 420.479 170.931 421.837C171.453 423.654 173.521 423.758 176.449 425.42C181.333 428.232 185.5 433.377 184.651 435.124C183.802 436.872 177.082 436.276 171.766 433.763C166.45 431.251 164.493 427.731 162.108 428.701C161.052 429.332 160.233 430.331 159.794 431.527C159.354 432.723 159.32 434.04 159.699 435.25C160.405 437.298 162.622 438.038 167.299 439.299C176.127 441.655 180.332 442.373 180.332 442.373C195.902 445.064 198.382 446.162 198.709 447.89C199.035 449.618 197.174 451.328 196.785 451.654C193.318 454.736 188.249 452.508 180.132 450.81C171.262 448.953 160.593 446.751 157.24 451.399C156.462 452.565 156.056 453.961 156.081 455.382C156.107 456.803 156.562 458.173 157.38 459.29C159.084 461.016 162.064 459.689 171.949 459.693C174.208 459.67 175.152 459.727 175.354 460.271C175.806 461.579 171.728 465.734 167.165 466.04C163.601 466.287 161.919 464.036 160.331 465.194C159.463 466.17 158.948 467.438 158.88 468.771C158.812 470.105 159.195 471.415 159.959 472.467C162.434 475.48 169.555 474.027 174.204 470.591C178.852 467.155 177.879 464.27 182.435 461.137C186.147 458.627 187.853 459.803 194.13 457.918C203.788 455.029 203.304 451.18 209.097 450.739C212.619 450.464 213.288 451.886 227.506 459.061C235.577 463.15 238.356 464.177 238.098 465.616C237.82 468.874 223.403 470.663 222.514 470.755C217.155 471.4 213.456 471.109 212.772 473.039C212.274 474.385 213.391 476.636 215.013 477.732C220.821 481.628 229.344 468.487 239.459 471.36C242.588 472.25 245.201 474.7 250.447 479.625C254.209 483.155 256.114 484.898 255.726 486.278C254.738 489.667 240.713 491.873 231.607 485.636C229.477 484.138 227.399 482.045 225.727 482.86C224.055 483.676 223.244 488.157 224.86 490.115C226.477 492.073 229.947 490.812 230.498 492.296C231.049 493.78 229.464 495.417 227.764 496.566C223.573 499.394 219.809 495.888 216.186 498.405C213.785 500.093 212.604 503.633 213.509 504.931C214.836 506.841 220.401 503.507 221.69 505.341C222.978 507.175 217.81 512.195 219.089 514.149C219.884 515.414 222.89 515.095 225.21 514.095C231.652 511.339 231.573 503.788 236.339 498.709C239.369 495.471 245.136 492.417 257.19 493.995C262.297 499.688 266.489 506.234 269.601 513.374C273.678 522.751 271.513 523.261 274.925 528.773C279.296 535.756 284.665 537.913 296.671 550.911C298.732 553.219 299.847 554.439 299.497 555.367C298.372 558.241 284.645 556.689 273.383 550.053C269.973 548.412 266.925 546.041 264.429 543.087C257.523 534.068 261.852 524.857 254.38 517.443C252.167 515.302 249.464 513.81 246.533 513.11C244.476 512.623 241.09 511.832 239.29 513.882C238.641 514.619 238.243 515.563 238.157 516.563C238.072 517.563 238.305 518.562 238.82 519.398C240.132 520.683 242.354 518.454 245.392 519.623C247.117 520.297 248.958 522.01 248.857 523.726C248.678 525.818 245.709 527.29 244.509 527.858C241.778 529.182 239.918 528.76 239.566 529.976C239.433 530.591 239.488 531.233 239.723 531.809C239.958 532.384 240.361 532.864 240.874 533.177C243.511 534.815 246.741 529.485 251.198 530.416C252.434 530.839 253.574 531.525 254.548 532.431C255.522 533.337 256.311 534.446 256.866 535.689C258.623 538.641 260.343 543.889 258.7 545.425C257.057 546.962 252.735 543.911 243.942 538.228C228.231 528.172 225.754 526.524 220.301 522.706C206.33 512.894 205.072 511.493 204.476 508.952C202.643 501.06 209.963 494.618 206.485 488.55C204.528 485.03 200.796 485.119 200.175 481.546C199.554 477.972 202.396 477.208 202.799 472.74C203.202 468.271 200.724 462.648 197.249 461.849C195.189 461.386 192.676 462.537 192.283 463.964C191.914 465.921 196.062 467.04 196.487 470.789C196.698 472.555 196.155 474.689 195.075 474.908C193.21 475.348 191.9 468.195 188.252 467.836C187.122 467.82 186.018 468.221 185.131 468.972C184.243 469.722 183.626 470.775 183.387 471.948C183.185 474.326 186.328 475.312 190.433 479.59C194.063 483.38 196.763 488.056 198.301 493.217C199.253 496.604 200.485 503.606 198.377 504.768C196.27 505.93 193.319 500.289 184.982 493.759C178.439 488.865 171.391 484.77 163.97 481.551C158.113 479.04 155.21 478.409 152.861 474.976C150.513 471.543 151.801 469.138 149.309 463.68C147.176 459.044 142.843 453.214 139.763 454.125C138.735 454.651 137.894 455.519 137.371 456.595C136.847 457.67 136.669 458.895 136.863 460.081C137.37 463.142 140.637 463.205 143.394 467.679C144.503 469.498 146.242 473.191 145.198 474.323C143.677 476.014 136.119 471.993 130.733 466.6C127.087 462.842 124.137 458.392 122.032 453.477C118.227 445.153 119.578 442.274 115.657 437.701C112.844 434.42 107.758 430.801 104.944 432.573C104.122 433.158 103.501 434.01 103.177 434.999C102.852 435.987 102.841 437.059 103.146 438.048C104.139 440.696 107.705 439.634 111.235 442.977C113.45 445.058 115.275 448.542 114.361 449.997C113.447 451.452 110.44 450.717 104.567 449.45C98.1412 448.04 96.6068 446.976 95.1365 448.072C92.4852 450.049 92.7126 456.919 95.0151 458.24C96.4597 459.034 97.7239 457.178 101.034 456.214C107.421 454.364 113.481 458.209 115.366 459.399C119.926 462.303 124.215 467.338 123.321 468.819C122.427 470.3 116.32 465.684 106.543 466.264C103.911 466.423 96.1294 466.886 94.1415 471.674C92.8922 474.681 94.1164 478.857 95.8726 479.438C97.6289 480.018 98.6074 477.276 101.813 475.154C102.984 474.391 105.802 472.835 112.606 472.984C123.671 473.184 129.713 477.507 145.093 481.38C154.662 483.775 161.271 484.362 162.03 488.163C162.112 488.958 162.03 489.763 161.789 490.524C161.549 491.285 161.157 491.984 160.639 492.572C156.814 497.467 146.728 496.895 140.755 492.291C137.238 489.596 137.818 487.562 134.154 485.525C128.956 482.687 122.026 483.486 121.42 485.566C120.946 487.154 124.154 489.511 124.517 489.758C128.635 492.815 132.7 491.461 133.463 493.633C133.612 494.229 133.585 494.86 133.386 495.442C133.187 496.024 132.826 496.53 132.35 496.892C129.481 499.042 123.719 492.228 121.447 493.999C119.901 495.184 120.217 499.953 122.593 502.263C124.97 504.574 128.002 503.419 133.441 502.9C147.089 501.668 148.955 506.258 155.991 503.145C162.14 500.387 161.619 496.439 167.018 495.055C175.267 493.075 183.967 500.642 183.367 502.651C182.95 504.1 177.788 502.176 171.941 505.893C171.057 506.464 167.479 508.722 167.836 510.621C168.194 512.519 173.332 513.939 177.709 513.162C182.663 512.243 183.98 509.241 187.173 508.053C197.179 504.259 213.652 522.858 211.698 526.189C209.744 529.519 186.59 524.433 184.001 523.829C183.338 523.607 182.636 523.539 181.944 523.628C181.251 523.718 180.582 523.964 179.984 524.349C179.402 524.818 178.976 525.472 178.77 526.214C178.565 526.956 178.59 527.747 178.843 528.467C180.005 530.722 185.269 529.613 185.336 530.146C185.403 530.679 174.777 531.426 173.965 535.117C173.535 536.996 175.711 539.792 178.042 540.254C181.063 540.823 182.626 537.316 188.115 534.358C191.03 532.838 194.168 531.865 197.388 531.484C202.808 530.784 208.295 531.44 213.408 533.4C223.834 536.875 227.21 539.366 238.284 543.973C258.082 552.414 267.254 556.022 267.254 556.022C272.277 558.006 275.007 559.077 274.879 560.048C274.676 562.426 260.584 562.782 249.27 561.531C237.104 560.207 231.043 559.547 226.435 555.083C219.995 548.81 221.081 541.095 214.079 538.247C209.717 536.462 204.694 537.663 204.458 538.84C204.222 540.018 206.956 540.514 209.857 544.09C210.081 544.373 212.753 547.714 212.12 548.522C211.487 549.331 205.615 543.537 200.187 545.254C197.499 546.079 195.127 548.751 195.498 550.483C195.87 552.215 200.35 553.148 206.085 553.924C212.624 554.792 215.826 554.299 219.117 556.998C219.496 557.318 221.917 559.368 221.453 560.574C220.835 562.27 215.068 561.347 212.664 560.951C178.402 555.637 168.395 557.323 164.031 548.928C161.627 544.293 162.256 539.029 157.043 534.25C154.333 531.624 152.626 531.79 151.376 529.241C148.845 524.235 153.553 520.109 151.56 514.623C149.567 509.136 142.825 506.406 141.284 507.808C140.231 508.772 141.325 512.362 142.328 514.363C143.696 517.114 145.074 517.375 145.596 519.719C146.017 521.671 145.637 524.273 144.338 524.953C143.038 525.632 141.701 524.369 139.727 523.171C134.92 520.247 128.138 518.256 126.696 520.073C125.734 521.308 127.043 524.485 128.816 526.457C130.871 528.835 133.13 528.812 137.272 530.003C142.466 531.463 147.297 534.079 151.447 537.677C151.906 538.123 157.716 543.576 156.607 545.733C156.041 546.81 153.904 546.724 143.186 544.302C126.796 540.631 124.546 539.218 122.751 537.771C119.142 534.829 119.516 533.352 114.921 530.063C113.411 528.976 105.902 523.594 102.768 526.201C102.213 526.698 101.808 527.357 101.604 528.094C101.401 528.832 101.408 529.615 101.625 530.343C102.417 532.446 105.376 531.884 110.058 534.151C113.092 535.631 116.361 538.065 115.995 539.184C115.529 540.677 108.742 538.207 106.794 541.202C106.369 542.001 106.177 542.915 106.244 543.826C106.312 544.737 106.635 545.602 107.172 546.312C110.072 549.888 117.427 543.832 125.123 547.554C127.399 548.658 130.298 550.916 129.984 552.758C129.49 555.638 121.367 556.406 119.024 556.614C107.648 557.681 101.034 553.98 99.678 556.379C98.7519 557.977 100.581 561.677 103.295 563.729C110.218 569.108 123.591 563.949 131.685 557.693C136.322 554.136 137.221 551.794 140.999 551.157C146.012 550.339 147.971 553.835 155.946 556.67C165.894 560.176 172.461 558.077 172.875 560.364C173.29 562.65 167.075 566.192 162.189 567.908C158.068 569.1 153.818 569.689 149.558 569.658C139.006 570.052 134.404 568.702 132.96 571.333C132.559 572.226 132.428 573.226 132.584 574.196C132.74 575.166 133.175 576.057 133.831 576.748C137.901 580.64 147.942 570.071 155.274 574.36C157.295 575.538 159.17 577.901 158.788 579.737C158.124 583.033 149.865 585.395 142.934 585.14C139.469 585.013 137.32 584.279 136.251 585.696C135.684 586.892 135.555 588.263 135.888 589.544C136.221 590.825 136.993 591.924 138.053 592.628C139.738 593.514 141.382 592.241 145.396 590.427C153.471 586.78 154.386 588.487 158.017 585.874C162.084 582.916 161.103 580.652 165.853 574.974C168.983 571.091 172.869 567.972 177.239 565.837C183.054 563.29 187.08 564.783 197.661 566.163C200.126 566.373 207.386 566.992 221.956 567.658C231.413 568.456 240.909 568.697 250.402 568.381C266.418 567.159 275.361 563.131 276.177 565.212C276.993 567.294 268.593 570.242 257.509 581.657C250.442 588.838 248.065 593.426 244.247 592.933C241.864 592.562 239.56 589.133 235.065 582.283C230.57 575.434 229.422 572.222 226.152 571.393C222.882 570.563 219.304 572.294 219.034 573.876C218.763 575.458 221.587 575.962 225.977 579.808C227.845 581.453 231.809 585.263 231.278 586.2C230.747 587.137 226.058 584.414 218.905 581.745C208.337 577.827 201.953 577.522 191.421 577.152C187.732 577.005 184.34 577.076 182.441 579.5C180.541 581.925 180.494 585.394 181.845 586.491C183.196 587.588 184.915 586.226 186.715 585.493C194.735 582.224 204.739 585.879 204.84 587.875C204.941 589.872 196.73 592.19 191.384 593.219C183.538 594.707 179.096 593.586 177.828 596.28C177.447 597.349 177.438 598.524 177.802 599.591C178.167 600.659 178.881 601.549 179.815 602.102C181.488 602.603 182.591 599.727 185.614 599.482C187.887 599.292 190.454 600.685 190.465 601.883C190.487 604.28 181.232 604.282 180.322 608.611C180.151 609.554 180.281 610.528 180.691 611.378C181.101 612.228 181.767 612.907 182.585 613.307C184.252 613.88 185.925 611.987 190.211 608.041C190.211 608.041 194.852 603.646 199.083 600.342C202.384 597.434 206.03 594.998 209.925 593.099C213.663 591.212 217.74 590.218 221.865 590.188C223.826 590.211 231.604 590.323 235.176 595.825C235.641 596.364 235.993 597.001 236.21 597.696C236.427 598.391 236.503 599.128 236.434 599.86C235.784 602.726 231.703 602.403 226.653 605.517C220.287 609.501 220.79 613.927 216.315 614.791C214.435 615.134 214.229 614.374 206.467 611.964C197.667 609.275 196.344 609.713 195.69 610.495C195.239 611.237 195.034 612.115 195.107 612.989C195.179 613.863 195.526 614.684 196.092 615.32C198.172 617.389 201.909 614.33 204.74 616.607C205.3 617.048 205.755 617.623 206.067 618.286C206.379 618.948 206.539 619.681 206.536 620.425C206.435 621.614 205.588 623.338 195.851 627.418C186.114 631.498 184.268 630.91 183.371 630.57C181.945 629.947 180.652 629.031 179.565 627.874C178.479 626.717 177.62 625.342 177.039 623.827C175.042 618.652 178.25 616.506 176.544 610.828C175.813 608.72 174.686 606.795 173.23 605.168C171.774 603.542 170.02 602.248 168.073 601.365C166.987 600.865 164.408 599.615 163.345 600.698C162.282 601.781 162.989 604.883 164.391 606.967C166.391 609.987 168.701 609.37 170.574 612.283C171.993 614.44 172.726 617.76 171.616 618.863C170.506 619.966 167.545 617.63 161.301 615.158C152.413 611.646 149.776 613.458 144.806 609.537C141.802 607.174 142.806 606.517 139.209 603.432C135.191 600.063 130.486 597.728 125.458 596.608C121.86 595.655 114.244 593.641 112.724 596.386C111.871 597.918 113.044 600.844 114.892 602.199C117.356 604.013 119.775 602.112 124.151 602.413C130.067 602.917 134.913 606.97 134.569 608.09C134.225 609.211 128.531 607.432 118.58 608.716C112.649 609.456 110.427 610.632 109.752 612.467C109.533 613.082 109.463 613.744 109.55 614.393C109.637 615.041 109.877 615.653 110.248 616.173C112.287 618.742 117.845 616.821 121.953 615.758C135.156 612.595 149.875 615.741 150.584 619.61C150.968 621.726 147.187 625.044 143.647 626.06C139.481 627.262 136.376 625.034 135.101 626.745C134.68 627.658 134.561 628.692 134.764 629.679C134.967 630.666 135.48 631.548 136.218 632.181C139.754 635.189 148.344 629.741 149.798 628.835C155.215 625.393 156.228 622.51 159.603 622.629C161.575 622.797 163.13 623.888 166.199 626.281C170.201 629.376 173.009 631.651 172.752 633.617C172.297 637.099 162.848 639.384 154.72 639.41C146.097 639.418 143.921 636.885 128.876 634.382C114.699 632.025 112.487 633.608 111.836 634.894C111.518 635.926 111.503 637.034 111.794 638.069C112.085 639.103 112.668 640.016 113.464 640.685C116.309 643.323 120.046 640 127.767 641.041C128.887 641.137 134.773 641.998 134.971 643.906C135.194 646.321 126.771 649.555 120.542 651.132C111.615 653.389 108.271 651.835 101.577 655.432C98.3104 657.213 94.2174 660.218 94.6846 661.623C94.9171 662.337 96.3208 662.552 99.9263 662.357C109.138 661.8 116.225 659.41 116.35 659.804C116.474 660.198 99.0745 665.996 99.5044 670.488C99.6518 671.937 101.543 673.056 102.987 673.323C108.215 674.75 112.667 668.855 124.086 659.337C132.979 651.928 137.403 648.209 141.86 647.032C150.425 644.792 153.641 648.635 160.388 644.683C163.342 642.447 166.883 641.263 170.494 641.304C171.458 641.387 173.407 641.553 173.605 642.408C174.04 644.457 164.84 651.505 154.749 651.795C152.056 651.876 149.314 651.475 148.239 653.228C147.781 654.21 147.668 655.329 147.922 656.384C148.176 657.438 148.78 658.358 149.623 658.974C152.437 660.651 157.181 655.834 158.019 656.863C158.51 657.456 157.462 659.69 155.837 661.276C152.143 664.889 147.268 663.564 146.676 665.477C146.241 666.877 148.192 669.414 150.237 670.307C157.183 673.294 163.486 656.802 183.82 643.853C193.625 637.647 199.422 636.895 216.777 625.536C218.858 624.157 221.008 622.759 223.819 620.771C233.78 613.461 243.102 605.213 251.672 596.128C268.239 579.697 276.665 571.409 283.559 567.853C296.004 561.393 308.25 559.921 308.568 560.954C308.887 561.987 300.251 564.269 288.784 571.962C281.607 576.716 273.586 582.116 266.927 591.656C259.21 602.758 261.744 607.453 254.806 612.322C249.573 615.996 241.694 617.863 236.164 619.189C230.197 620.62 225.418 621.075 224.91 623.595C224.795 624.338 224.928 625.098 225.285 625.744C225.641 626.391 226.2 626.884 226.865 627.138C228.868 627.476 229.947 623.018 232.188 623.209C232.817 623.333 233.391 623.666 233.827 624.159C234.264 624.652 234.54 625.281 234.618 625.954C234.9 628.996 229.548 630.887 230.009 633.154C230.268 633.768 230.697 634.284 231.239 634.633C231.781 634.983 232.411 635.15 233.047 635.113C236.398 634.992 236.792 628.774 242.158 624.609C245.202 622.258 249.868 620.476 251.138 621.997C253.072 624.198 248.661 634.911 240.625 639.423C236.169 641.918 231.409 641.632 222.19 640.942C207.992 639.901 201.15 636.755 198.609 640.347C198.075 641.119 197.769 642.042 197.732 642.995C197.695 643.948 197.929 644.888 198.402 645.694C201.048 648.817 210.592 642.493 212.015 644.866C212.694 645.906 211.711 648.432 209.95 649.767C206.535 652.494 202.229 648.99 199.719 651.434C198.902 652.314 198.398 653.466 198.294 654.69C198.19 655.914 198.492 657.134 199.147 658.14C201.406 660.512 208.689 657.683 213.584 653.741C218.479 649.799 219.63 645.562 223.065 645.52C225.639 645.499 228.513 647.804 228.512 649.935C228.534 653.386 221.212 656.139 213.961 658.851C208.726 661.141 203.228 662.663 197.618 663.374C185.74 664.494 181.147 660.127 174.704 664.224C171.767 666.106 168.957 669.411 169.602 671.118C170.061 672.355 172.08 672.24 178.517 672.453C190.401 672.843 190.976 673.514 194.948 672.727C200.8 671.597 203.329 669.465 203.928 670.378C204.786 671.697 200.793 678.039 195.476 678.975C192.637 679.452 191.565 677.995 186.926 676.546C179.387 674.156 170.962 674.492 170.495 676.272C170.232 677.232 172.242 678.816 174.177 679.675C178.743 681.453 182.176 677.722 184.803 679.742C186.178 680.817 186.97 683.184 186.259 684.369C184.753 686.947 177.397 682.417 173.628 686.119C172.396 687.331 171.587 689.418 172.194 690.5C172.802 691.581 175.957 691.371 185.361 688.819C201.099 684.508 203.246 683.158 204.811 681.734C209.163 678.081 208.728 675.769 212.623 671.119C219.484 662.914 227.245 662.425 234.092 659.153C245.199 653.824 244.867 645.533 262.785 615.373C275.006 594.859 281.216 584.49 287.238 580.836C304.126 570.707 321.327 578.112 329.464 564.986C330.195 563.827 333.281 558.868 331.643 555.04Z" fill="#D6D077"/>
</g>
<g clip-path="url(#clip3)">
<path d="M367.982 736.74C373.631 707.729 372.803 683.294 375.875 683.307C378.946 683.32 377.725 703.192 394.146 713.525C396.103 714.788 403.523 719.312 412.255 718.383C422.182 717.348 428.345 709.858 430.241 703.697C432.136 697.536 430.047 692.454 427.611 686.622C416.493 660.209 410.816 656.064 403.315 638.305C397.163 623.767 397.319 617.828 389.687 613.885C385.109 611.541 382.041 612.128 365.798 609.665C348.345 607.022 349.022 605.906 344.023 605.818C327.191 605.333 324.422 618.047 298.347 632.611C278.396 643.737 268.436 642.737 263.622 652.954C260.216 659.89 260.117 670.569 267.419 675.884C272.752 679.757 281.52 680.352 287.355 679.406C292.39 678.672 295.26 676.866 295.87 677.486C297.195 678.868 281.159 685.726 277.813 698.373C275.485 707.106 279.125 719.082 288.317 723.071C295.565 726.223 304.358 723.593 307.372 722.695C316.437 720.007 320.255 714.927 321.439 715.631C323.822 717.076 302.359 734.537 306.28 754.912C306.537 756.175 309.904 772.162 324.838 777.713C331.809 780.038 339.414 780.117 346.055 777.932C354.204 774.994 361.953 767.66 367.982 736.74Z" fill="#97759D"/>
<path d="M321.846 753.921C327.262 751.153 335.211 754.905 339.079 757.936C342.947 760.968 347.917 767.141 344.932 771.327C342.267 775.057 334.801 774.744 330.655 773.782C325.125 772.505 318.512 768.477 317.731 762.779C317.306 759.879 318.176 755.814 321.846 753.921Z" fill="#423B44"/>
<path d="M299.11 717.142C298.057 717.679 296.866 718.027 295.609 718.163C294.351 718.299 293.055 718.221 291.798 717.933C289.907 717.539 288.149 716.73 286.718 715.595C285.286 714.46 284.238 713.045 283.69 711.505C283.053 709.696 283.169 707.808 284.021 706.15C284.872 704.491 286.408 703.161 288.377 702.377C293.206 700.706 299.095 703.406 301.396 707.166C302.455 708.88 302.806 710.796 302.392 712.605C301.977 714.414 300.822 716.012 299.11 717.142V717.142Z" fill="#423B44"/>
<path d="M280.794 672.741C276.45 674.003 271.531 670.01 270.634 669.286C269.737 668.563 264.196 664.018 266.239 659.366C266.816 658.098 267.816 657.008 269.132 656.214C270.447 655.42 272.029 654.952 273.706 654.86C279.339 654.69 283.998 659.662 284.927 663.903C285.585 666.968 284.702 671.595 280.794 672.741Z" fill="#423B44"/>
<path d="M404.949 701.736C407.132 699.552 410.3 698.183 413.823 697.903C415.216 697.795 420.447 697.431 422.717 699.88C425.486 702.84 422.776 708.434 418.643 711.217C414.511 713.999 406.22 715.271 403.101 712.195C400.311 709.478 402.312 704.448 404.949 701.736Z" fill="#423B44"/>
</g>
<g clip-path="url(#clip4)">
<path d="M170.385 152.409C202.442 167.045 231.001 172.896 230.129 176.454C229.258 180.011 206.561 173.055 190.004 189.212C187.994 191.128 180.682 198.469 179.324 208.851C177.757 220.648 184.722 229.881 191.336 233.795C197.951 237.71 204.424 236.705 211.864 235.507C245.583 229.981 251.971 224.555 274.65 220.809C293.218 217.73 300.06 219.566 306.758 211.818C310.753 207.164 310.927 203.443 318.31 185.3C326.239 165.803 327.344 166.898 328.84 161.129C334.094 141.751 320.126 134.996 310.511 100.709C303.174 74.4778 307.111 63.2096 296.607 54.7811C289.516 48.8998 277.163 45.8079 268.966 52.7912C262.991 57.8941 259.856 67.8923 259.326 74.9208C258.774 80.9625 260.067 84.7926 259.179 85.3269C257.207 86.4785 253.727 65.9764 239.998 58.5713C230.523 53.4387 215.625 54.3199 208.438 63.8648C202.764 71.3887 203.362 82.315 203.562 86.0597C204.151 97.3172 208.976 103.16 207.83 104.337C205.491 106.696 191.232 76.9469 166.518 75.8136C164.982 75.7587 145.509 75.2053 134.911 90.9706C130.273 98.4049 128.062 107.199 128.744 115.507C129.878 125.773 136.22 136.8 170.385 152.409Z" fill="#84648A"/>
<path d="M163.328 94.1363C165.027 101.186 158.462 109.355 153.87 112.995C149.278 116.634 140.735 120.675 136.715 116.047C133.133 111.918 135.577 103.35 137.848 98.8114C140.87 92.7568 147.383 86.2127 154.207 86.8959C157.687 87.2112 162.156 89.3538 163.328 94.1363Z" fill="#423B44"/>
<path d="M212.304 78.0296C211.974 76.6591 211.904 75.181 212.096 73.6856C212.289 72.1901 212.741 70.7088 213.425 69.3321C214.409 67.25 215.838 65.437 217.552 64.0941C219.266 62.7512 221.2 61.931 223.137 61.7245C225.412 61.4897 227.568 62.1512 229.254 63.6006C230.939 65.05 232.053 67.2014 232.413 69.702C233.004 75.7669 228.232 81.8412 223.232 83.4601C220.949 84.2106 218.631 84.0832 216.649 83.0984C214.667 82.1135 213.137 80.3284 212.304 78.0296V78.0296Z" fill="#423B44"/>
<path d="M268.883 69.1731C268.63 63.7859 274.631 59.1965 275.72 58.3584C276.808 57.5204 283.622 52.3635 288.445 56.0285C289.755 57.0506 290.74 58.5138 291.294 60.2604C291.847 62.0071 291.949 63.9711 291.588 65.9411C290.214 72.5185 283.152 76.5339 277.976 76.4287C274.24 76.3371 269.122 74.0235 268.883 69.1731Z" fill="#423B44"/>
<path d="M200.66 205.023C202.584 208.163 203.288 212.217 202.631 216.379C202.367 218.023 201.331 224.189 197.859 226.139C193.656 228.524 187.927 223.822 185.853 218.256C183.779 212.69 184.616 202.724 189.051 199.965C192.978 197.488 198.252 201.209 200.66 205.023Z" fill="#423B44"/>
</g>
<defs>
<clipPath id="clip0">
<rect width="189.16" height="168.058" fill="white" transform="translate(0.797852 304.979) rotate(-75.1153)"/>
</clipPath>
<clipPath id="clip1">
<rect width="239.195" height="239.195" fill="white" transform="translate(132.659 506.448) rotate(-123.232)"/>
</clipPath>
<clipPath id="clip2">
<rect width="277.943" height="246.937" fill="white" transform="matrix(-0.0848851 0.996391 0.996391 0.0848851 97.2314 405.739)"/>
</clipPath>
<clipPath id="clip3">
<rect width="173.829" height="173.829" fill="white" transform="translate(414.417 794) rotate(-169.981)"/>
</clipPath>
<clipPath id="clip4">
<rect width="207.262" height="207.262" fill="white" transform="translate(91.0605 190.28) rotate(-66.4606)"/>
</clipPath>
</defs>
</svg>
