<svg width="513" height="761" viewBox="0 0 513 761" fill="none" xmlns="http://www.w3.org/2000/svg">
<g clip-path="url(#clip0)">
<path d="M13.9803 681.297C45.4728 677.883 35.8826 619.011 80.1537 572.512C116.388 534.495 143.277 552.46 183.743 507.594C199.726 489.96 190.043 493.275 226.968 438.772C263.499 385.146 265.194 393.222 286.226 358.041C296.673 340.574 301.227 330.279 314.811 321.462C327.075 313.486 337.437 312.697 349.392 299.864C355.12 293.753 364.028 281.854 360.659 277.322C358.119 273.881 348.567 274.611 342.519 278.847C337.16 282.626 337.774 286.953 332.77 292.875C327.88 297.946 321.657 301.588 314.716 303.442C304.348 307.755 301.526 313.416 283.248 335.046C258.65 364.219 260.155 358.145 249.211 373.175C232.443 396.152 236.445 400.062 221.633 418.288C205.122 438.603 198.635 435.484 186.819 452.915C172.862 473.45 178.744 482.239 167.966 500.035C156.474 518.866 143.036 520.625 108.731 540.712C84.6719 555.371 61.8366 571.815 40.4074 589.912C11.5552 614.312 -25.2294 645.423 -16.6233 665.636C-12.2447 675.415 2.04197 682.54 13.9803 681.297Z" fill="#077935"/>
<path d="M49.3119 599.124C41.5166 596.676 41.326 573.614 40.9201 546.908C40.8493 531.359 40.5402 494.684 48.6469 493.856C52.5461 493.436 58.35 501.383 60.0682 509.119C64.1121 525.564 48.4666 534.261 53.258 550.176C55.2668 556.773 60.173 562.854 62.8296 562.322C68.8562 561.238 56.5367 526.285 73.2348 511.446C79.965 505.432 88.2155 505.678 90.1171 498.491C91.4849 492.665 86.9678 488.216 84.2295 482.282C75.7713 464.702 82.4862 436.426 100.354 426.246C114.489 418.235 136.288 421.119 139.999 429.219C143.709 437.318 124.827 445.776 117.324 472.754C113.505 486.756 117.658 487.978 114.753 503.202C111.848 518.425 105.932 525.938 83.7938 556.931C57.192 594.822 53.5415 600.408 49.3119 599.124Z" fill="#169939"/>
<path d="M28.9327 645.542C33.3284 659.521 79.8221 659.148 105.14 656.219C125.457 653.891 135.63 652.709 142.825 644.56C156.151 629.492 143.555 610.045 157.383 594.907C162.763 588.991 167.819 588.555 193.601 582.474C227.771 574.358 244.818 570.27 250.044 567.279C274.54 553.634 264.407 534.753 291.517 497.095C315.245 464.225 330.165 468.694 347.187 436.414C361.299 409.904 365.556 379.571 359.827 376.769C357.631 375.641 354.579 379.083 335.373 398.104C318.395 414.928 309.809 423.382 306.517 425.79C284.061 440.914 271.123 430.878 258.287 442.216C240.111 458.247 259.394 484.086 247.535 511.89C242.474 523.746 234.652 528.992 140.391 566.563C104.926 580.845 72.1151 600.377 43.0299 624.522C35.2349 630.986 26.7619 638.753 28.9327 645.542Z" fill="#138035"/>
<path d="M195.481 446.557C192.88 443.426 192.145 436.668 209.772 406.614C235.506 362.754 242.288 368.326 246.278 352.549C255.911 313.725 212.492 287.409 225.854 250.72C228.44 243.551 233.982 233.761 231.383 220.463C229.251 209.64 223.957 207.789 219.892 195.514C214.643 180.004 219.876 174.269 217.631 158.269C215.159 140.828 207.829 139.058 199.228 118.371C191.063 97.4637 188.127 75.1931 190.679 53.5268C191.143 41.4636 194.035 5.77437 206.906 3.85361C222.586 1.52476 244.827 50.224 251.213 63.7873C274.434 114.957 278.735 156.492 285.636 231.182C292.524 303.229 286.983 316.848 281.556 325.715C274.228 337.703 261.65 350.209 258.297 373.8C256.326 388.108 259.808 391.955 256.108 405.575C254.865 410.545 248.739 432.781 228.041 443.472C218.09 448.603 200.703 452.953 195.481 446.557Z" fill="#0F843F"/>
</g>
<defs>
<clipPath id="clip0">
<rect width="394.004" height="659.973" fill="white" transform="matrix(-0.776032 -0.630694 -0.630694 0.776032 513 248.496)"/>
</clipPath>
</defs>
</svg>
