<svg width="255" height="255" viewBox="0 0 255 255" fill="none" xmlns="http://www.w3.org/2000/svg">
<path d="M255 0H0V255H255V0Z" fill="#121F27"/>
<path d="M108.398 211.202H111.561L99.4868 240.028L97.9815 236.357L98.0378 236.22L108.398 211.202ZM81.3668 211.202L94.5362 244.334H97.6997L84.6752 211.202H81.3668ZM132.169 229.177V226.504H122.002L123.073 229.177H132.169ZM135.493 211.202H117.607V244.334H134.817L135.485 241.662H120.521V213.874H134.761L135.493 211.202ZM72.7858 244.334H75.6676V211.202H72.7858V244.334ZM38.7756 244.334H41.6413V219.106L38.7756 215.46V244.334ZM63.44 239.625L42.3658 211.346L42.2611 211.202H38.7756L63.5125 244.334H66.3057V211.202H63.44V239.625ZM29.784 232.566C29.784 239.11 26.9022 242.153 20.7361 242.153C14.57 242.153 11.6721 239.078 11.6721 232.566V211.202H8.75V232.517C8.75 238.152 10.8268 244.825 20.72 244.825C30.6131 244.825 32.6819 238.128 32.6819 232.517V211.202H29.784V232.566ZM198.829 213.874H210.267V244.334H213.181V211.202H198.78L198.829 213.874ZM189.604 244.334H192.389V211.202H189.523L189.604 244.334ZM225.481 211.202H215.629V213.874H224.757L234.03 231.076V244.334H236.952V230.593L226.673 211.202H225.481ZM244.358 211.202L236.88 225.297L238.635 228.146L247.715 211.202H244.358ZM160.19 220.282C160.19 214.446 156.117 211.097 149.033 211.097H141.595V244.334H144.509V213.745H149.009C154.016 213.745 157.002 216.2 157.002 220.314C157.002 224.427 153.839 227.221 148.534 227.663L147.946 227.72L158.942 244.31H162.532L152.663 229.418C157.509 228.026 160.19 224.798 160.19 220.282ZM176.209 226.408C172.836 224.435 169.648 222.576 169.648 219.163C169.648 214.059 174.607 213.657 176.137 213.657C178.406 213.717 180.635 214.266 182.673 215.267L183.18 215.508V212.417L182.979 212.321C180.797 211.353 178.426 210.885 176.04 210.952C170.405 210.952 166.533 214.301 166.533 219.082C166.533 224.266 170.405 226.512 174.148 228.678L174.333 228.782C178.197 230.98 181.143 232.936 181.143 236.502C181.143 240.382 177.626 242.137 174.358 242.137C171.736 242.157 169.153 241.497 166.863 240.221L166.34 239.907V243.103L166.533 243.199C168.939 244.313 171.562 244.879 174.213 244.858C180.226 244.858 184.259 241.332 184.259 236.091C184.235 231.149 179.96 228.613 176.185 226.408H176.209ZM135.179 127.79H143.632V100.276V96.718V69.1154H120.287V72.6815H135.204L135.179 127.79ZM17.2264 127.79V72.6815H26.3951C33.6962 72.6815 37.0771 77.0364 37.0771 83.9511C37.0771 91.6145 32.0943 96.0257 24.439 96.0257L25.3244 99.4066H26.9344C34.5977 99.4066 39.492 104.929 39.492 111.602C39.492 118.992 35.3061 124.16 26.4916 124.16H22.9578V127.718H26.3951C42.8648 127.718 48.387 119.169 48.387 111.425C48.387 104.567 43.8469 99.0524 33.7847 97.4505V97.1769C42.1565 94.5124 45.8594 88.4509 45.8594 82.4861C45.8594 76.167 40.6109 69.043 28.9549 69.043H8.7661V127.718H17.2264V127.79ZM170.341 100.864V127.79H178.616V69.1154H170.341V97.4022H148.993L150.53 100.864H170.341ZM128.571 154.169C128.571 171.074 153.227 170.905 153.227 183.631C153.227 191.56 148.003 195.134 142.247 195.134C137.361 195.047 132.619 193.466 128.659 190.602V195.48C133.17 197.665 138.138 198.742 143.149 198.62C154.483 198.62 161.8 191.649 161.8 182.842C161.8 165.503 136.966 166.115 136.966 153.131C136.966 146.071 141.676 143.366 147.165 143.366C151.79 143.468 156.277 144.957 160.045 147.641V142.763C157.252 141.362 152.72 139.881 145.926 139.881C134.238 139.881 128.571 146.506 128.571 154.169ZM207.989 157.663C207.989 146.594 199.795 140.315 186.899 140.315H170.341V197.742H178.616V143.809H186.11C194.917 143.809 199.36 149.565 199.36 157.751C199.36 166.469 195.44 172.394 186.633 172.394H184.025L185.506 175.791C201.187 175.783 207.989 166.55 207.989 157.663ZM89.5453 72.6815H106.015V127.79H114.475V69.1154H88.1205L89.5453 72.6815ZM72.0854 69.1154L69.3244 76.4729L79.1209 102.232H59.713L49.3851 127.79H54.0137L62.5545 105.798H80.4974L89.2234 127.79H97.8527L75.0236 69.1154H72.0854ZM239.206 197.742H247.659L225.393 140.315H222.519L219.814 147.56L229.402 172.74H210.404L200.302 197.75H204.834L213.198 176.233H230.714L239.206 197.742Z" fill="white"/>
</svg>
