<svg width="156" height="71" viewBox="0 0 156 71" fill="none" xmlns="http://www.w3.org/2000/svg">
<path fill-rule="evenodd" clip-rule="evenodd" d="M76.7539 35.6077C70.1995 27.0429 59.9468 26.7294 53.413 29.6925L52.5869 27.871C59.4934 24.7389 70.2459 24.9059 77.5036 33.3577C79.0895 31.3463 81.6265 29.0305 84.9066 27.5585C88.8407 25.793 93.8276 25.2535 99.4243 27.8763L98.5756 29.6873C93.5569 27.3354 89.1815 27.8323 85.7255 29.3832C82.2309 30.9514 79.6601 33.6093 78.3834 35.5497L77.6095 36.7258L76.7539 35.6077Z" fill="#585858"/>
<path fill-rule="evenodd" clip-rule="evenodd" d="M133.181 47.554C126.755 37.8974 116.784 37.594 110.462 40.8911L109.537 39.1178C116.342 35.5691 126.877 35.7902 133.968 45.2051C135.513 42.9744 137.971 40.4088 141.155 38.7661C145.033 36.7647 149.963 36.154 155.474 39.1242L154.525 40.8848C149.652 38.2585 145.423 38.8138 142.072 40.5433C138.667 42.3003 136.145 45.2896 134.882 47.4966L134.078 48.9015L133.181 47.554Z" fill="#585858"/>
<path fill-rule="evenodd" clip-rule="evenodd" d="M53.1814 69.554C46.7554 59.8974 36.7839 59.594 30.462 62.8911L29.5371 61.1178C36.3416 57.5691 46.877 57.7902 53.968 67.2051C55.5134 64.9744 57.9713 62.4088 61.1545 60.7661C65.0327 58.7647 69.9626 58.154 75.4739 61.1242L74.5251 62.8848C69.6519 60.2585 65.4231 60.8138 62.0717 62.5433C58.6673 64.3003 56.1446 67.2896 54.8819 69.4966L54.0781 70.9015L53.1814 69.554Z" fill="#585858"/>
<path fill-rule="evenodd" clip-rule="evenodd" d="M24.1814 10.554C17.7554 0.897396 7.78393 0.594025 1.46195 3.89114L0.537109 2.11782C7.34155 -1.43092 17.877 -1.20978 24.968 8.20507C26.5134 5.9744 28.9713 3.4088 32.1545 1.76606C36.0327 -0.235322 40.9626 -0.845972 46.4739 2.12418L45.5251 3.88478C40.6519 1.25851 36.4231 1.81378 33.0717 3.54335C29.6673 5.30028 27.1446 8.28963 25.8819 10.4966L25.0781 11.9015L24.1814 10.554Z" fill="#585858"/>
<path fill-rule="evenodd" clip-rule="evenodd" d="M117.26 10.5707C110.542 0.904653 100.087 0.583226 93.4462 3.89914L92.5527 2.10981C99.6393 -1.42876 110.637 -1.2147 118.035 8.25263C119.647 6.0067 122.228 3.41189 125.575 1.75817C129.606 -0.2337 134.725 -0.842201 140.458 2.1158L139.541 3.89315C134.428 1.25473 129.981 1.81215 126.461 3.55123C122.893 5.31402 120.257 8.30884 118.94 10.513L118.145 11.8434L117.26 10.5707Z" fill="#585858"/>
</svg>
