<svg width="255" height="251" viewBox="0 0 255 251" fill="none" xmlns="http://www.w3.org/2000/svg">
<g clip-path="url(#clip0)">
<path d="M254.998 221.361C253.781 219.814 252.585 218.245 251.305 216.739C243.612 207.717 235.919 198.709 228.226 189.715C222.394 182.938 216.575 176.154 210.77 169.363L207.602 165.744C207.361 165.548 207.166 165.301 207.033 165.02C206.899 164.74 206.83 164.433 206.83 164.123C206.83 163.813 206.899 163.506 207.033 163.226C207.166 162.945 207.361 162.698 207.602 162.502C208.232 161.707 208.84 160.85 209.553 160.097C210.267 159.344 210.246 158.883 209.407 158.193C202.231 152.239 195.077 146.257 187.943 140.247L176.656 130.918C175.879 130.269 175.837 129.746 175.963 128.701C176.33 126.155 176.33 123.57 175.963 121.024C174.785 115.711 172.466 110.716 169.165 106.383C166.186 102.095 163.144 97.8486 159.808 93.8326C156.472 89.8166 153.157 86.5536 149.653 82.9768C149.192 82.4748 148.248 82.0356 149.465 81.178L153.346 84.7757L173.299 103.35C177.663 107.533 182.048 111.507 186.391 115.628C186.825 116.03 187.126 116.556 187.251 117.134C187.441 118.334 188.059 119.426 188.992 120.208C191.09 122.154 193.063 124.266 195.14 126.253C195.42 126.515 195.623 126.848 195.727 127.217C195.831 127.586 195.831 127.976 195.727 128.345C195.328 129.957 195.429 131.653 196.017 133.206C196.605 134.76 197.653 136.099 199.021 137.046C200.313 138.11 201.894 138.765 203.562 138.925C205.229 139.085 206.907 138.744 208.379 137.946C209.902 137.274 211.19 136.165 212.079 134.761C212.969 133.357 213.419 131.72 213.372 130.06C213.364 128.772 213.069 127.502 212.51 126.341C211.951 125.18 211.141 124.157 210.138 123.345C209.135 122.533 207.964 121.952 206.71 121.645C205.455 121.338 204.148 121.312 202.882 121.568C202.156 121.835 201.366 121.876 200.617 121.685C199.868 121.495 199.194 121.082 198.685 120.501C196.587 118.41 194.489 116.464 192.391 114.498C192.014 114.143 191.405 113.641 191.006 113.724C189.412 114.101 188.552 113.097 187.608 112.197C182.971 107.805 178.355 103.371 173.697 98.9781L152.717 79.1491C152.507 78.9608 152.339 78.7307 152.129 78.5216C152.738 77.1411 153.346 77.7686 153.996 78.417C160.877 85.063 168.493 90.9084 176.698 95.8406C181.457 98.7336 186.648 100.852 192.076 102.116C195.1 102.917 198.272 102.988 201.329 102.325C201.868 102.181 202.439 102.202 202.966 102.384C203.493 102.567 203.954 102.903 204.287 103.35C213.687 113.431 223.17 123.471 232.632 133.511C233.115 134.013 233.66 134.474 234.311 135.101C235.129 134.327 235.968 133.574 236.723 132.779C238.108 131.378 238.549 131.315 240.059 132.487C244.486 135.917 248.913 139.368 253.361 142.778C253.869 143.068 254.412 143.293 254.977 143.447L254.998 221.361Z" fill="#E9E9E9"/>
<path d="M27.8664 0C25.9991 3.99508 23.922 7.9065 22.2645 11.9853C15.5015 28.4854 13.1239 46.4462 15.3618 64.1305C17.4892 82.4161 24.5032 99.7966 35.6712 114.456C51.5576 135.955 75.1742 150.489 101.572 155.013C121.092 158.633 141.244 156.578 159.625 149.094C160.248 148.835 160.894 148.639 161.556 148.508C161.785 148.457 162.022 148.452 162.253 148.495C162.484 148.538 162.704 148.628 162.898 148.759C166.591 152.315 170.242 155.913 174.123 159.72L170.955 161.205C161.215 165.635 150.929 168.758 140.365 170.492C131.349 171.929 122.2 172.35 113.09 171.747C97.9095 170.93 83.0479 167.082 69.3873 160.431C32.608 142.233 9.88586 113.055 2.10201 72.79C-2.50283 48.7523 0.594686 23.8795 10.9559 1.69425C11.3416 1.08339 11.7918 0.515411 12.2986 0H27.8664Z" fill="#E9E9E9"/>
<path d="M229.505 0C230.932 3.47217 232.442 6.88158 233.701 10.4583C236.986 19.2959 239.191 28.4958 240.268 37.8592C242.671 58.036 239.921 78.491 232.275 97.3252C232.086 97.7854 231.855 98.2456 231.603 98.7894C227.659 95.0453 223.798 91.3849 219.98 87.6827C219.861 87.4785 219.79 87.2502 219.772 87.0148C219.753 86.7794 219.789 86.543 219.875 86.3231C226.946 66.3939 227.823 44.802 222.393 24.3679C220.088 15.8805 216.771 7.69935 212.511 0L229.505 0Z" fill="#E9E9E9"/>
<path d="M146.697 242.967L154.775 233.576C155.992 234.559 157.083 235.667 158.321 236.4C159.587 237.233 160.937 237.934 162.349 238.491C163.245 238.864 164.22 239.01 165.187 238.915C166.154 238.82 167.082 238.487 167.888 237.947C172.084 235.228 172.315 231.066 168.224 228.221C166.15 226.933 163.974 225.813 161.719 224.874C160.272 224.184 158.782 223.619 157.293 223.013C150.411 220.085 148.313 212.555 148.9 207.179C149.321 203.058 151.28 199.246 154.39 196.498C157.499 193.751 161.531 192.27 165.685 192.349C168.729 192.165 171.78 192.583 174.661 193.581C177.542 194.58 180.196 196.137 182.469 198.164L175.105 206.238C172.441 205.213 169.944 204.146 167.342 203.288C166.693 203.101 166.012 203.05 165.342 203.138C164.672 203.225 164.027 203.45 163.448 203.797C162.869 204.145 162.368 204.608 161.977 205.158C161.585 205.707 161.312 206.331 161.174 206.991C160.901 207.802 160.871 208.675 161.087 209.503C161.303 210.331 161.756 211.079 162.391 211.655C163.951 212.993 165.654 214.158 167.468 215.127C169.818 216.424 172.336 217.407 174.728 218.599C185.449 223.975 187.169 237.424 177.833 245.791C174.499 248.839 170.233 250.679 165.722 251.013C161.211 251.347 156.719 250.156 152.971 247.632C150.83 246.23 148.963 244.578 146.697 242.967Z" fill="#E9E9E9"/>
<path d="M113.296 193.459H125.255V237.677H141.914V249.808H113.296V193.459Z" fill="#E9E9E9"/>
<path d="M192.226 193.459H204.227V249.746H192.226V193.459Z" fill="#E9E9E9"/>
<path d="M87.7419 226.488L88.5392 226.049C90.8293 225.025 92.8496 223.486 94.4408 221.551C96.0319 219.616 97.1503 217.339 97.7078 214.9C98.8418 211.466 98.7998 207.754 97.5884 204.347C96.377 200.94 94.0648 198.03 91.0149 196.075C87.7281 194.19 83.979 193.255 80.1889 193.377C74.9017 193.377 69.6985 193.377 64.3484 193.377H61.3691V249.852H73.4331V227.826C73.4331 227.826 74.587 228.496 74.7758 228.642C75.3727 229.105 75.8719 229.681 76.2445 230.337C78.5104 233.662 85.0774 243.368 88.6231 248.722C88.8676 249.091 89.2017 249.391 89.5943 249.596C89.9869 249.801 90.4251 249.903 90.8681 249.894C93.2389 249.894 95.6097 249.894 97.9805 249.894H103.394L87.7419 226.488ZM85.6439 211.26C85.6457 212.585 85.2459 213.878 84.4971 214.972C83.7483 216.066 82.6853 216.908 81.4477 217.389C78.9189 218.209 76.245 218.487 73.6009 218.205V203.563C76.5393 203.177 79.5278 203.596 82.245 204.776C83.4166 205.37 84.3724 206.315 84.9782 207.478C85.584 208.641 85.8094 209.963 85.6229 211.26H85.6439Z" fill="#E9E9E9"/>
<path d="M44.0586 219.331L43.1565 218.934L44.4153 217.742C46.7738 215.669 48.3199 212.831 48.7793 209.731C49.5346 203.811 46.6812 195.737 38.4777 194.189C36.5917 193.79 34.6761 193.545 32.75 193.457C26.9803 193.457 21.2316 193.457 15.4828 193.457C15.2316 193.435 14.9788 193.435 14.7275 193.457V249.807H33.1486C34.6736 249.778 36.1947 249.646 37.7015 249.41C39.5999 249.164 41.4739 248.758 43.3033 248.196C46.2465 247.138 48.8009 245.219 50.6324 242.689C52.4639 240.16 53.4874 237.139 53.569 234.021C53.6506 230.903 52.7865 227.833 51.0897 225.212C49.393 222.591 46.9425 220.541 44.0586 219.331ZM26.8754 203.163C28.5696 203.081 30.2677 203.137 31.9527 203.33C33.1292 203.511 34.2185 204.058 35.0659 204.891C35.9133 205.725 36.4757 206.803 36.6734 207.974C36.7635 209.246 36.4802 210.517 35.858 211.631C35.2358 212.745 34.3017 213.655 33.1696 214.249C31.1898 215.103 29.0107 215.393 26.8754 215.085V203.163ZM40.7856 234.266C40.6828 235.616 40.1185 236.891 39.1869 237.877C38.2552 238.863 37.0126 239.5 35.6663 239.683C32.749 240.027 29.8129 240.188 26.8754 240.164V224.77C30.6729 224.77 34.5334 224.079 37.9532 226.422C39.1413 227.312 40.0425 228.528 40.5458 229.922C41.0491 231.315 41.1324 232.826 40.7856 234.266Z" fill="#E9E9E9"/>
</g>
<defs>
<clipPath id="clip0">
<rect width="255" height="251" fill="white"/>
</clipPath>
</defs>
</svg>
