<svg width="7680" height="413" viewBox="0 0 7680 413" fill="none" xmlns="http://www.w3.org/2000/svg">
<g clip-path="url(#clip0)">
<path d="M436 297.5H0C10.3333 264.667 51.1 199 131.5 199C190.347 199 231.176 217.393 254.065 233.985C266.567 243.048 281.088 250.347 296.515 251.018C391.549 255.153 429.068 283.019 436 297.5Z" fill="url(#paint0_linear)" fill-opacity="0.75"/>
<path d="M989.5 197H366C366 193.72 366.124 190.683 366.356 187.874C368.288 164.484 398.972 131.321 421.862 126.141C442.768 121.41 462.545 104.72 473.525 86.3113C489.75 59.1117 521.121 45 541.5 45C643.649 45 701.881 73.2315 730.329 98.8844C745.295 112.38 763.707 124.474 783.692 127.071C809.091 130.373 828.112 137.14 840.972 143.826C853.118 150.143 866.289 155.742 879.929 156.915C936.476 161.778 975.833 184.818 989.5 197Z" fill="url(#paint1_linear)" fill-opacity="0.75"/>
<path d="M1413.5 108.5H981C981 80.8428 1030.39 63.9275 1070.96 55.7653C1089.28 52.078 1105.05 39.219 1119.07 26.8555C1134.84 12.9461 1161.01 0 1200.5 0C1246.17 0 1280.3 17.3136 1300.7 33.4084C1313.1 43.1891 1327.97 50.2914 1343.46 53.3513C1387.11 61.9708 1408.11 92.1819 1413.5 108.5Z" fill="url(#paint2_linear)" fill-opacity="0.75"/>
<path d="M421 412.5H853.5C853.5 384.843 804.112 367.927 763.544 359.765C745.217 356.078 729.455 343.219 715.433 330.856C699.657 316.946 673.492 304 634 304C588.33 304 554.202 321.314 533.796 337.408C521.396 347.189 506.531 354.291 491.037 357.351C447.393 365.971 426.392 396.182 421 412.5Z" fill="url(#paint3_linear)" fill-opacity="0.75"/>
<path d="M945 333.002H1499.5C1499.5 279.038 1479.84 248.869 1457.31 233.106C1434.07 216.844 1407.97 189.877 1383.75 175.117C1367.26 165.07 1346.18 161.912 1332.5 162.002C1300.97 162.002 1279.66 170.218 1265.71 180.869C1245.4 196.375 1222.93 217.905 1197.99 223.475C1172.18 229.241 1147.71 238.486 1131.36 245.826C1124.13 249.069 1116.34 250.916 1108.43 251.269C1015.41 255.413 960.987 306.783 945 333.002Z" fill="url(#paint4_linear)" fill-opacity="0.75"/>
<path d="M1980 297.5H1544C1554.33 264.667 1595.1 199 1675.5 199C1734.35 199 1775.18 217.393 1798.07 233.985C1810.57 243.048 1825.09 250.347 1840.52 251.018C1935.55 255.153 1973.07 283.019 1980 297.5Z" fill="url(#paint5_linear)" fill-opacity="0.75"/>
<path d="M2533.5 197H1910C1910 193.72 1910.12 190.683 1910.36 187.874C1912.29 164.484 1942.97 131.321 1965.86 126.141C1986.77 121.41 2006.54 104.72 2017.53 86.3113C2033.75 59.1117 2065.12 45 2085.5 45C2187.65 45 2245.88 73.2315 2274.33 98.8844C2289.3 112.38 2307.71 124.474 2327.69 127.071C2353.09 130.373 2372.11 137.14 2384.97 143.826C2397.12 150.143 2410.29 155.742 2423.93 156.915C2480.48 161.778 2519.83 184.818 2533.5 197Z" fill="url(#paint6_linear)" fill-opacity="0.75"/>
<path d="M2957.5 108.5H2525C2525 80.8428 2574.39 63.9275 2614.96 55.7653C2633.28 52.078 2649.05 39.219 2663.07 26.8555C2678.84 12.9461 2705.01 0 2744.5 0C2790.17 0 2824.3 17.3136 2844.7 33.4084C2857.1 43.1891 2871.97 50.2914 2887.46 53.3513C2931.11 61.9708 2952.11 92.1819 2957.5 108.5Z" fill="url(#paint7_linear)" fill-opacity="0.75"/>
<path d="M1965 412.5H2397.5C2397.5 384.843 2348.11 367.927 2307.54 359.765C2289.22 356.078 2273.45 343.219 2259.43 330.856C2243.66 316.946 2217.49 304 2178 304C2132.33 304 2098.2 321.314 2077.8 337.408C2065.4 347.189 2050.53 354.291 2035.04 357.351C1991.39 365.971 1970.39 396.182 1965 412.5Z" fill="url(#paint8_linear)" fill-opacity="0.75"/>
<path d="M2489 333.002H3043.5C3043.5 279.038 3023.84 248.869 3001.31 233.106C2978.07 216.844 2951.97 189.877 2927.75 175.117C2911.26 165.07 2890.18 161.912 2876.5 162.002C2844.97 162.002 2823.66 170.218 2809.71 180.869C2789.4 196.375 2766.93 217.905 2741.99 223.475C2716.18 229.241 2691.71 238.486 2675.36 245.826C2668.13 249.069 2660.34 250.916 2652.43 251.269C2559.41 255.413 2504.99 306.783 2489 333.002Z" fill="url(#paint9_linear)" fill-opacity="0.75"/>
<path d="M3624 297.5H3188C3198.33 264.667 3239.1 199 3319.5 199C3378.35 199 3419.18 217.393 3442.07 233.985C3454.57 243.048 3469.09 250.347 3484.52 251.018C3579.55 255.153 3617.07 283.019 3624 297.5Z" fill="url(#paint10_linear)" fill-opacity="0.75"/>
<path d="M4177.5 197H3554C3554 193.72 3554.12 190.683 3554.36 187.874C3556.29 164.484 3586.97 131.321 3609.86 126.141C3630.77 121.41 3650.54 104.72 3661.53 86.3113C3677.75 59.1117 3709.12 45 3729.5 45C3831.65 45 3889.88 73.2315 3918.33 98.8844C3933.3 112.38 3951.71 124.474 3971.69 127.071C3997.09 130.373 4016.11 137.14 4028.97 143.826C4041.12 150.143 4054.29 155.742 4067.93 156.915C4124.48 161.778 4163.83 184.818 4177.5 197Z" fill="url(#paint11_linear)" fill-opacity="0.75"/>
<path d="M4601.5 108.5H4169C4169 80.8428 4218.39 63.9275 4258.96 55.7653C4277.28 52.078 4293.05 39.219 4307.07 26.8555C4322.84 12.9461 4349.01 0 4388.5 0C4434.17 0 4468.3 17.3136 4488.7 33.4084C4501.1 43.1891 4515.97 50.2914 4531.46 53.3513C4575.11 61.9708 4596.11 92.1819 4601.5 108.5Z" fill="url(#paint12_linear)" fill-opacity="0.75"/>
<path d="M3609 412.5H4041.5C4041.5 384.843 3992.11 367.927 3951.54 359.765C3933.22 356.078 3917.45 343.219 3903.43 330.856C3887.66 316.946 3861.49 304 3822 304C3776.33 304 3742.2 321.314 3721.8 337.408C3709.4 347.189 3694.53 354.291 3679.04 357.351C3635.39 365.971 3614.39 396.182 3609 412.5Z" fill="url(#paint13_linear)" fill-opacity="0.75"/>
<path d="M4133 333.002H4687.5C4687.5 279.038 4667.84 248.869 4645.31 233.106C4622.07 216.844 4595.97 189.877 4571.75 175.117C4555.26 165.07 4534.18 161.912 4520.5 162.002C4488.97 162.002 4467.66 170.218 4453.71 180.869C4433.4 196.375 4410.93 217.905 4385.99 223.475C4360.18 229.241 4335.71 238.486 4319.36 245.826C4312.13 249.069 4304.34 250.916 4296.43 251.269C4203.41 255.413 4148.99 306.783 4133 333.002Z" fill="url(#paint14_linear)" fill-opacity="0.75"/>
<path d="M5171 297.5H4735C4745.33 264.667 4786.1 199 4866.5 199C4925.35 199 4966.18 217.393 4989.07 233.985C5001.57 243.048 5016.09 250.347 5031.52 251.018C5126.55 255.153 5164.07 283.019 5171 297.5Z" fill="url(#paint15_linear)" fill-opacity="0.75"/>
<path d="M5724.5 197H5101C5101 193.72 5101.12 190.683 5101.36 187.874C5103.29 164.484 5133.97 131.321 5156.86 126.141C5177.77 121.41 5197.54 104.72 5208.53 86.3113C5224.75 59.1117 5256.12 45 5276.5 45C5378.65 45 5436.88 73.2315 5465.33 98.8844C5480.3 112.38 5498.71 124.474 5518.69 127.071C5544.09 130.373 5563.11 137.14 5575.97 143.826C5588.12 150.143 5601.29 155.742 5614.93 156.915C5671.48 161.778 5710.83 184.818 5724.5 197Z" fill="url(#paint16_linear)" fill-opacity="0.75"/>
<path d="M6148.5 108.5H5716C5716 80.8428 5765.39 63.9275 5805.96 55.7653C5824.28 52.078 5840.05 39.219 5854.07 26.8555C5869.84 12.9461 5896.01 0 5935.5 0C5981.17 0 6015.3 17.3136 6035.7 33.4084C6048.1 43.1891 6062.97 50.2914 6078.46 53.3513C6122.11 61.9708 6143.11 92.1819 6148.5 108.5Z" fill="url(#paint17_linear)" fill-opacity="0.75"/>
<path d="M5156 412.5H5588.5C5588.5 384.843 5539.11 367.927 5498.54 359.765C5480.22 356.078 5464.45 343.219 5450.43 330.856C5434.66 316.946 5408.49 304 5369 304C5323.33 304 5289.2 321.314 5268.8 337.408C5256.4 347.189 5241.53 354.291 5226.04 357.351C5182.39 365.971 5161.39 396.182 5156 412.5Z" fill="url(#paint18_linear)" fill-opacity="0.75"/>
<path d="M5680 333.002H6234.5C6234.5 279.038 6214.84 248.869 6192.31 233.106C6169.07 216.844 6142.97 189.877 6118.75 175.117C6102.26 165.07 6081.18 161.912 6067.5 162.002C6035.97 162.002 6014.66 170.218 6000.71 180.869C5980.4 196.375 5957.93 217.905 5932.99 223.475C5907.18 229.241 5882.71 238.486 5866.36 245.826C5859.13 249.069 5851.34 250.916 5843.43 251.269C5750.41 255.413 5695.99 306.783 5680 333.002Z" fill="url(#paint19_linear)" fill-opacity="0.75"/>
<path d="M6718 297.5H6282C6292.33 264.667 6333.1 199 6413.5 199C6472.35 199 6513.18 217.393 6536.07 233.985C6548.57 243.048 6563.09 250.347 6578.52 251.018C6673.55 255.153 6711.07 283.019 6718 297.5Z" fill="url(#paint20_linear)" fill-opacity="0.75"/>
<path d="M7181.5 197H6558C6558 193.72 6558.12 190.683 6558.36 187.874C6560.29 164.484 6590.97 131.321 6613.86 126.141C6634.77 121.41 6654.54 104.72 6665.53 86.3113C6681.75 59.1117 6713.12 45 6733.5 45C6835.65 45 6893.88 73.2315 6922.33 98.8844C6937.3 112.38 6955.71 124.474 6975.69 127.071C7001.09 130.373 7020.11 137.14 7032.97 143.826C7045.12 150.143 7058.29 155.742 7071.93 156.915C7128.48 161.778 7167.83 184.818 7181.5 197Z" fill="url(#paint21_linear)" fill-opacity="0.75"/>
<path d="M7695.5 108.5H7263C7263 80.8428 7312.39 63.9275 7352.96 55.7653C7371.28 52.078 7387.05 39.219 7401.07 26.8555C7416.84 12.9461 7443.01 0 7482.5 0C7528.17 0 7562.3 17.3136 7582.7 33.4084C7595.1 43.1891 7609.97 50.2914 7625.46 53.3513C7669.11 61.9708 7690.11 92.1819 7695.5 108.5Z" fill="url(#paint22_linear)" fill-opacity="0.75"/>
<path d="M6654 412.5H7086.5C7086.5 384.843 7037.11 367.927 6996.54 359.765C6978.22 356.078 6962.45 343.219 6948.43 330.856C6932.66 316.946 6906.49 304 6867 304C6821.33 304 6787.2 321.314 6766.8 337.408C6754.4 347.189 6739.53 354.291 6724.04 357.351C6680.39 365.971 6659.39 396.182 6654 412.5Z" fill="url(#paint23_linear)" fill-opacity="0.75"/>
<path d="M7066 358.002H7620.5C7620.5 304.038 7600.84 273.869 7578.31 258.106C7555.07 241.844 7528.97 214.877 7504.75 200.117C7488.26 190.07 7467.18 186.912 7453.5 187.002C7421.97 187.002 7400.66 195.218 7386.71 205.869C7366.4 221.375 7343.93 242.905 7318.99 248.475C7293.18 254.241 7268.71 263.486 7252.36 270.826C7245.13 274.069 7237.34 275.916 7229.43 276.269C7136.41 280.413 7081.99 331.783 7066 358.002Z" fill="url(#paint24_linear)" fill-opacity="0.75"/>
</g>
<defs>
<linearGradient id="paint0_linear" x1="0.5" y1="248" x2="436.5" y2="248" gradientUnits="userSpaceOnUse">
<stop offset="0.442708" stop-color="#EFEFEF"/>
<stop offset="1" stop-color="#E6E6E6" stop-opacity="0.1"/>
</linearGradient>
<linearGradient id="paint1_linear" x1="366" y1="121" x2="990" y2="121" gradientUnits="userSpaceOnUse">
<stop offset="0.59375" stop-color="#EFEFEF"/>
<stop offset="1" stop-color="white" stop-opacity="0"/>
</linearGradient>
<linearGradient id="paint2_linear" x1="981" y1="68" x2="1414" y2="68" gradientUnits="userSpaceOnUse">
<stop offset="0.0001" stop-color="#EFEFEF"/>
<stop offset="1" stop-color="#EFEFEF" stop-opacity="0"/>
</linearGradient>
<linearGradient id="paint3_linear" x1="421" y1="372" x2="854" y2="372" gradientUnits="userSpaceOnUse">
<stop offset="0.0001" stop-color="#EFEFEF"/>
<stop offset="1" stop-color="#EFEFEF" stop-opacity="0"/>
</linearGradient>
<linearGradient id="paint4_linear" x1="1499.5" y1="247.501" x2="944.555" y2="247.501" gradientUnits="userSpaceOnUse">
<stop offset="0.59375" stop-color="#EFEFEF"/>
<stop offset="1" stop-color="white" stop-opacity="0"/>
</linearGradient>
<linearGradient id="paint5_linear" x1="1544.5" y1="248" x2="1980.5" y2="248" gradientUnits="userSpaceOnUse">
<stop offset="0.442708" stop-color="#EFEFEF"/>
<stop offset="1" stop-color="#E6E6E6" stop-opacity="0.1"/>
</linearGradient>
<linearGradient id="paint6_linear" x1="1910" y1="121" x2="2534" y2="121" gradientUnits="userSpaceOnUse">
<stop offset="0.59375" stop-color="#EFEFEF"/>
<stop offset="1" stop-color="white" stop-opacity="0"/>
</linearGradient>
<linearGradient id="paint7_linear" x1="2525" y1="68" x2="2958" y2="68" gradientUnits="userSpaceOnUse">
<stop offset="0.0001" stop-color="#EFEFEF"/>
<stop offset="1" stop-color="#EFEFEF" stop-opacity="0"/>
</linearGradient>
<linearGradient id="paint8_linear" x1="1965" y1="372" x2="2398" y2="372" gradientUnits="userSpaceOnUse">
<stop offset="0.0001" stop-color="#EFEFEF"/>
<stop offset="1" stop-color="#EFEFEF" stop-opacity="0"/>
</linearGradient>
<linearGradient id="paint9_linear" x1="3043.5" y1="247.501" x2="2488.56" y2="247.501" gradientUnits="userSpaceOnUse">
<stop offset="0.59375" stop-color="#EFEFEF"/>
<stop offset="1" stop-color="white" stop-opacity="0"/>
</linearGradient>
<linearGradient id="paint10_linear" x1="3188.5" y1="248" x2="3624.5" y2="248" gradientUnits="userSpaceOnUse">
<stop offset="0.442708" stop-color="#EFEFEF"/>
<stop offset="1" stop-color="#E6E6E6" stop-opacity="0.1"/>
</linearGradient>
<linearGradient id="paint11_linear" x1="3554" y1="121" x2="4178" y2="121" gradientUnits="userSpaceOnUse">
<stop offset="0.59375" stop-color="#EFEFEF"/>
<stop offset="1" stop-color="white" stop-opacity="0"/>
</linearGradient>
<linearGradient id="paint12_linear" x1="4169" y1="68" x2="4602" y2="68" gradientUnits="userSpaceOnUse">
<stop offset="0.0001" stop-color="#EFEFEF"/>
<stop offset="1" stop-color="#EFEFEF" stop-opacity="0"/>
</linearGradient>
<linearGradient id="paint13_linear" x1="3609" y1="372" x2="4042" y2="372" gradientUnits="userSpaceOnUse">
<stop offset="0.0001" stop-color="#EFEFEF"/>
<stop offset="1" stop-color="#EFEFEF" stop-opacity="0"/>
</linearGradient>
<linearGradient id="paint14_linear" x1="4687.5" y1="247.501" x2="4132.56" y2="247.501" gradientUnits="userSpaceOnUse">
<stop offset="0.59375" stop-color="#EFEFEF"/>
<stop offset="1" stop-color="white" stop-opacity="0"/>
</linearGradient>
<linearGradient id="paint15_linear" x1="4735.5" y1="248" x2="5171.5" y2="248" gradientUnits="userSpaceOnUse">
<stop offset="0.442708" stop-color="#EFEFEF"/>
<stop offset="1" stop-color="#E6E6E6" stop-opacity="0.1"/>
</linearGradient>
<linearGradient id="paint16_linear" x1="5101" y1="121" x2="5725" y2="121" gradientUnits="userSpaceOnUse">
<stop offset="0.59375" stop-color="#EFEFEF"/>
<stop offset="1" stop-color="white" stop-opacity="0"/>
</linearGradient>
<linearGradient id="paint17_linear" x1="5716" y1="68" x2="6149" y2="68" gradientUnits="userSpaceOnUse">
<stop offset="0.0001" stop-color="#EFEFEF"/>
<stop offset="1" stop-color="#EFEFEF" stop-opacity="0"/>
</linearGradient>
<linearGradient id="paint18_linear" x1="5156" y1="372" x2="5589" y2="372" gradientUnits="userSpaceOnUse">
<stop offset="0.0001" stop-color="#EFEFEF"/>
<stop offset="1" stop-color="#EFEFEF" stop-opacity="0"/>
</linearGradient>
<linearGradient id="paint19_linear" x1="6234.5" y1="247.501" x2="5679.56" y2="247.501" gradientUnits="userSpaceOnUse">
<stop offset="0.59375" stop-color="#EFEFEF"/>
<stop offset="1" stop-color="white" stop-opacity="0"/>
</linearGradient>
<linearGradient id="paint20_linear" x1="6282.5" y1="248" x2="6718.5" y2="248" gradientUnits="userSpaceOnUse">
<stop offset="0.442708" stop-color="#EFEFEF"/>
<stop offset="1" stop-color="#E6E6E6" stop-opacity="0.1"/>
</linearGradient>
<linearGradient id="paint21_linear" x1="6558" y1="121" x2="7182" y2="121" gradientUnits="userSpaceOnUse">
<stop offset="0.59375" stop-color="#EFEFEF"/>
<stop offset="1" stop-color="white" stop-opacity="0"/>
</linearGradient>
<linearGradient id="paint22_linear" x1="7263" y1="68" x2="7696" y2="68" gradientUnits="userSpaceOnUse">
<stop offset="0.0001" stop-color="#EFEFEF"/>
<stop offset="1" stop-color="#EFEFEF" stop-opacity="0"/>
</linearGradient>
<linearGradient id="paint23_linear" x1="6654" y1="372" x2="7087" y2="372" gradientUnits="userSpaceOnUse">
<stop offset="0.0001" stop-color="#EFEFEF"/>
<stop offset="1" stop-color="#EFEFEF" stop-opacity="0"/>
</linearGradient>
<linearGradient id="paint24_linear" x1="7620.5" y1="272.501" x2="7065.56" y2="272.501" gradientUnits="userSpaceOnUse">
<stop offset="0.59375" stop-color="#EFEFEF"/>
<stop offset="1" stop-color="white" stop-opacity="0"/>
</linearGradient>
<clipPath id="clip0">
<rect width="7680" height="413" fill="white"/>
</clipPath>
</defs>
</svg>
