<svg width="14" height="14" viewBox="0 0 14 14" fill="none" xmlns="http://www.w3.org/2000/svg">
<path fill-rule="evenodd" clip-rule="evenodd" d="M0.583008 4.08334C0.583008 2.15035 2.15001 0.583344 4.08301 0.583344H9.91634C11.8493 0.583344 13.4163 2.15035 13.4163 4.08334V9.91668C13.4163 11.8497 11.8493 13.4167 9.91634 13.4167H4.08301C2.15001 13.4167 0.583008 11.8497 0.583008 9.91668V4.08334ZM7.28144 5.2437C6.91733 5.18971 6.54547 5.2519 6.21874 5.42143C5.89202 5.59096 5.62707 5.8592 5.46158 6.18799C5.29609 6.51678 5.23849 6.88938 5.29697 7.25279C5.35545 7.61621 5.52703 7.95193 5.78731 8.21221C6.04758 8.47248 6.38331 8.64407 6.74672 8.70254C7.11013 8.76102 7.48274 8.70342 7.81153 8.53793C8.14032 8.37244 8.40855 8.10749 8.57808 7.78077C8.74761 7.45404 8.80981 7.08218 8.75581 6.71807C8.70074 6.34667 8.52767 6.00283 8.26218 5.73733C7.99669 5.47184 7.65284 5.29877 7.28144 5.2437ZM5.68141 4.38587C6.22595 4.10332 6.84572 3.99966 7.45257 4.08965C8.07158 4.18144 8.64465 4.46989 9.08714 4.91237C9.52963 5.35487 9.81807 5.92794 9.90986 6.54694C9.99985 7.15379 9.89619 7.77356 9.61364 8.3181C9.33109 8.86264 8.88403 9.30422 8.33605 9.58004C7.78806 9.85585 7.16706 9.95186 6.56137 9.85439C5.95568 9.75693 5.39614 9.47096 4.96235 9.03716C4.52855 8.60337 4.24258 8.04383 4.14512 7.43814C4.04766 6.83245 4.14366 6.21145 4.41947 5.66347C4.69529 5.11548 5.13687 4.66842 5.68141 4.38587ZM10.208 3.20834C9.88584 3.20834 9.62467 3.46951 9.62467 3.79168C9.62467 4.11384 9.88584 4.37501 10.208 4.37501H10.2138C10.536 4.37501 10.7972 4.11384 10.7972 3.79168C10.7972 3.46951 10.536 3.20834 10.2138 3.20834H10.208Z" fill="#F6F6F6"/>
</svg>
