<svg width="650" height="589" viewBox="0 0 650 589" fill="none" xmlns="http://www.w3.org/2000/svg">
<path d="M519.715 213.269C429.02 229.587 364.735 376.128 343.93 447.359L365.951 452.494C366.589 343.085 468.726 247.423 519.715 213.269Z" fill="#714A0F"/>
<path d="M514.08 215.497C534.814 235.154 562.236 286.777 506.052 336.012C512.484 315.736 523.095 263.248 514.08 215.497Z" fill="#2E7C31"/>
<path d="M516.994 215.878C497.642 224.614 456.815 255.917 448.325 311.235C439.904 270.838 441.848 195.209 516.994 215.878Z" fill="#2E7C31"/>
<path d="M520.26 222.742C498.874 199.129 440.468 168.327 377.927 234.025C394.843 185.105 446.99 114.361 520.26 222.742Z" fill="#2E7C31"/>
<path d="M513.232 219.131C517.732 198.143 515.721 154.78 471.68 149.234C494.827 143.35 535.544 149.091 513.232 219.131Z" fill="#2E7C31"/>
<path d="M514.452 215.584C541.181 226.407 589.404 266.115 568.466 338.365C594.707 306.835 620.64 238.138 514.452 215.584Z" fill="#2E7C31"/>
<path d="M514.079 215.497C530.297 212.326 567.785 212.671 587.994 239.42C586.39 220.419 569.361 189.033 514.079 215.497Z" fill="#2E7C31"/>
<path d="M514.161 219.84C513.94 219.816 513.546 219.621 513.407 219.557L511.987 219.06C511.82 218.88 511.446 218.792 511.434 218.487C511.431 218.4 511.527 218.322 511.585 218.265C511.665 218.186 511.651 218.084 511.662 217.978C511.689 217.719 511.503 217.414 511.404 217.189C511.268 216.882 511.125 216.595 511.029 216.268C510.938 215.96 510.8 215.647 510.756 215.329C510.688 214.84 510.735 214.387 510.975 213.955C511.075 213.774 511.26 213.641 511.414 213.512C511.662 213.304 511.897 213.073 512.178 212.909C512.843 212.524 513.575 212.352 514.331 212.312C514.967 212.279 515.586 212.273 516.204 212.457C516.821 212.64 517.397 212.848 517.941 213.201C518.357 213.471 518.71 213.873 518.903 214.332C519.048 214.677 519.163 215.04 519.164 215.421C519.165 215.785 519.031 216.184 518.898 216.517C518.635 217.178 518.195 217.857 517.659 218.325C517.381 218.569 517.105 218.794 516.768 218.946C516.561 219.04 516.355 219.138 516.153 219.244C515.801 219.43 515.418 219.57 515.033 219.664C514.89 219.699 514.744 219.717 514.603 219.753C514.476 219.786 514.288 219.853 514.161 219.84Z" fill="#2E7C31"/>
<path d="M216.594 84.849C322.315 142.094 342.148 349.92 338.849 446.677L309.467 444.05C353.34 308.218 265.832 147.986 216.594 84.849Z" fill="#714A0F"/>
<path d="M222.667 89.9101C188.951 105.803 133.898 158.576 183.417 242.521C183.723 214.771 192.002 145.399 222.667 89.9101Z" fill="#2E7C31"/>
<path d="M218.9 89.192C239.313 107.918 277.124 163.373 265.061 235.385C291.987 188.765 320.452 94.258 218.9 89.192Z" fill="#2E7C31"/>
<path d="M212.051 96.3643C248.19 75.8351 333.137 61.5116 383.812 168.451C382.823 100.928 347.086 -8.02224 212.051 96.3643Z" fill="#2E7C31"/>
<path d="M222.234 94.7597C225.226 66.9156 245.42 14.004 302.256 25.1109C275.976 8.37013 223.18 -1.13721 222.234 94.7597Z" fill="#2E7C31"/>
<path d="M222.169 89.8655C184.631 92.365 108.666 121.882 105.116 219.956C85.4724 170.175 81.3817 74.4635 222.169 89.8655Z" fill="#2E7C31"/>
<path d="M222.667 89.9101C203.865 79.3601 157.272 64.4839 121.311 89.3796C131.056 66.49 164.969 34.5505 222.667 89.9101Z" fill="#2E7C31"/>
<path d="M220.793 95.2584C221.077 95.3197 221.645 95.2382 221.843 95.2164L223.805 95.1798C224.086 95.0244 224.585 95.0688 224.725 94.6954C224.764 94.5894 224.677 94.4526 224.629 94.3588C224.561 94.2273 224.621 94.1072 224.65 93.9713C224.722 93.64 225.078 93.3373 225.292 93.0993C225.586 92.7741 225.879 92.4775 226.133 92.1107C226.371 91.7664 226.67 91.435 226.855 91.0586C227.139 90.4806 227.265 89.9001 227.144 89.2669C227.093 89.0024 226.919 88.7615 226.781 88.5385C226.558 88.1797 226.362 87.7973 226.079 87.48C225.413 86.7311 224.576 86.2197 223.656 85.8616C222.881 85.5602 222.117 85.3003 221.276 85.276C220.437 85.2517 219.638 85.2731 218.819 85.4887C218.194 85.6533 217.593 86.0077 217.166 86.4974C216.845 86.8659 216.554 87.2683 216.398 87.7409C216.249 88.191 216.251 88.7395 216.28 89.2066C216.337 90.1334 216.605 91.1548 217.077 91.9537C217.322 92.3686 217.573 92.7607 217.927 93.0867C218.146 93.2879 218.362 93.4938 218.568 93.7074C218.929 94.0805 219.346 94.4104 219.785 94.6844C219.947 94.7857 220.121 94.8681 220.281 94.9707C220.425 95.0631 220.631 95.2233 220.793 95.2584Z" fill="#2E7C31"/>
<path d="M556.5 495C568.5 505 623.833 523.167 650 531C228.4 644.2 41 565.5 0 512C38.6164 510.261 69.9457 491.753 85.2377 479.176C89.0918 476.006 93.7856 473.988 98.721 473.251C117.011 470.518 130.612 461.583 137.78 454.912C140.371 452.5 143.232 450.328 146.574 449.161C263.187 408.443 422.881 457.579 449 463C475.5 468.5 485 480 508.5 481.5C532 483 541.5 482.5 556.5 495Z" fill="#E8DF91"/>
</svg>
