<svg width="151" height="41" viewBox="0 0 151 41" fill="none" xmlns="http://www.w3.org/2000/svg">
<path d="M23.5409 10.5632H15.0378V33.6892H9.3183V10.5632H0.929652V5.93038H23.5409V10.5632Z" fill="#F7F7F7"/>
<path fill-rule="evenodd" clip-rule="evenodd" d="M24.4705 11.4929H15.9675V34.6188H8.38865V11.4929H0V5.00073H24.4705V11.4929ZM9.3183 10.5632V33.6892H15.0378V10.5632H23.5409V5.93038H0.929652V10.5632H9.3183Z" fill="#F7F7F7"/>
<path d="M30.4025 27.9697H20.3742L18.4677 33.6892H12.3859L22.7192 5.93038H28.0193L36.7212 33.6892H32.3281L30.4025 27.9697ZM21.9185 23.3368H28.8582L25.3693 12.9463L21.9185 23.3368Z" fill="#F7F7F7"/>
<path fill-rule="evenodd" clip-rule="evenodd" d="M32.3281 33.6892L30.4025 27.9697H20.3742L18.4677 33.6892H12.3859L22.7192 5.93038H28.0193L36.7212 33.6892H32.3281ZM21.0443 28.8993L19.1378 34.6188H11.0479L22.0733 5.00073H28.7022L37.7687 34.039L31.6601 34.6188L29.7345 28.8993H21.0443ZM28.8582 23.3368L25.3693 12.9463L21.9185 23.3368H28.8582ZM23.2068 22.4072H27.5654L25.3741 15.8813L23.2068 22.4072Z" fill="#F7F7F7"/>
<path d="M52.1549 25.6818L58.6125 5.93038H64.313L53.5748 33.6892H49.6765L43.2987 15.1198L36.921 33.6892H32.7049L23.2413 5.92981L28.0566 5.93038L34.4616 25.6437L40.8965 5.93038H45.7391L52.1549 25.6818Z" fill="#F7F7F7"/>
<path fill-rule="evenodd" clip-rule="evenodd" d="M53.5748 33.6892H49.6765L43.2987 15.1198L36.921 33.6892H32.7049L23.2413 5.92981L28.0566 5.93038L34.4616 25.6437L40.8965 5.93038H45.7391L52.1549 25.6818L58.6125 5.93038H64.313L53.5748 33.6892ZM52.1578 22.6815L57.9384 5.00072H65.6694L54.212 34.6188H49.0128L43.2987 17.9817L37.5846 34.6188H32.0396L21.9421 5L28.7321 5.0008L34.4636 22.6415L40.222 5.00072H46.4145L52.1578 22.6815Z" fill="#F7F7F7"/>
<path d="M64.1116 5.92965C63.0526 6.20256 62.0688 6.62219 61.16 7.18853C59.4187 8.26889 58.0778 9.82587 57.1373 11.8595C56.1967 13.8931 55.7264 16.2445 55.7264 18.9136V20.6104C55.7264 24.792 56.7433 28.0839 58.7769 30.4861C60.8232 32.8756 63.6258 34.0703 67.1846 34.0703C70.4384 34.0703 73.0566 33.2124 75.0394 31.4966C77.0349 29.7807 78.1407 27.4293 78.3567 24.4425H72.6372C72.5101 26.1329 72.0081 27.3848 71.1311 28.1983C70.2668 28.999 68.9513 29.3994 67.1846 29.3994C65.2272 29.3994 63.791 28.7067 62.8759 27.3213C61.9734 25.9359 61.5222 23.7434 61.5222 20.7438V18.6467C61.5477 15.7742 62.0306 13.658 62.9712 12.298C63.9244 10.9253 65.3543 10.2389 67.2608 10.2389C69.0148 10.2389 70.3176 10.6457 71.1692 11.4591C72.0335 12.2599 72.5355 13.5563 72.6753 15.3484H78.3949C78.0898 12.2471 76.9586 9.83858 75.0013 8.12272C73.7967 7.06679 72.3563 6.33577 70.6801 5.92965H64.1116Z" fill="#F7F7F7"/>
<path fill-rule="evenodd" clip-rule="evenodd" d="M58.7769 30.4861C56.7433 28.0839 55.7264 24.792 55.7264 20.6104V18.9136C55.7264 16.2445 56.1967 13.8931 57.1373 11.8595C58.0778 9.82587 59.4187 8.26889 61.16 7.18853C62.0688 6.62219 63.0526 6.20256 64.1116 5.92965H70.6801C72.3563 6.33577 73.7967 7.06679 75.0013 8.12272C76.7585 9.66312 77.8498 11.7618 78.2754 14.4187C78.3238 14.7214 78.3637 15.0313 78.3949 15.3484H72.6753C72.5355 13.5563 72.0335 12.2599 71.1692 11.4591C70.3176 10.6457 69.0148 10.2389 67.2608 10.2389C65.3543 10.2389 63.9244 10.9253 62.9712 12.298C62.0306 13.658 61.5477 15.7742 61.5222 18.6467V20.7438C61.5222 23.7434 61.9734 25.9359 62.8759 27.3213C63.791 28.7067 65.2272 29.3994 67.1846 29.3994C68.9513 29.3994 70.2668 28.999 71.1311 28.1983C72.0081 27.3848 72.5101 26.1329 72.6372 24.4425H78.3567C78.3338 24.7595 78.3008 25.0694 78.2579 25.3721C77.8959 27.9213 76.8231 29.9628 75.0394 31.4966C73.0566 33.2124 70.4384 34.0703 67.1846 34.0703C63.6258 34.0703 60.8232 32.8756 58.7769 30.4861ZM75.6469 32.2003C73.4574 34.0946 70.6055 35 67.1846 35C63.3941 35 60.3181 33.715 58.0708 31.0908L58.0673 31.0868C55.8506 28.4683 54.7968 24.939 54.7968 20.6104V18.9136C54.7968 16.1351 55.2866 13.6463 56.2935 11.4692C57.3028 9.28703 58.7594 7.58412 60.6691 6.39906C61.6598 5.7818 62.7312 5.32538 63.8795 5.02942L63.9937 5H70.7911L70.899 5.02614C72.7097 5.46482 74.2881 6.26127 75.6141 7.42365C77.783 9.32493 78.9967 11.9703 79.3201 15.2574L79.4204 16.2781H71.8154L71.7485 15.4207C71.6176 13.7428 71.1592 12.7171 70.5374 12.1411L70.5322 12.1363L70.5271 12.1314C69.9169 11.5485 68.8909 11.1686 67.2608 11.1686C65.6096 11.1686 64.4882 11.7437 63.7352 12.8276C62.9539 13.9579 62.4772 15.8461 62.4519 18.6508V20.7438C62.4519 23.6878 62.9018 25.656 63.6532 26.8114C64.3635 27.885 65.4761 28.4697 67.1846 28.4697C68.831 28.4697 69.8751 28.0944 70.4989 27.5167C71.1436 26.9186 71.5933 25.9268 71.7102 24.3728L71.7748 23.5128H79.3561L79.284 24.5095C79.0528 27.7056 77.8556 30.3005 75.6469 32.2003Z" fill="#F7F7F7"/>
<path d="M22.3115 15.2261H28.8191V23.593H22.3115V15.2261Z" fill="#F7F7F7"/>
<path d="M150.513 35.2766C150.32 35.03 150.13 34.78 149.926 34.54C148.704 33.1022 147.482 31.6666 146.26 30.2333C145.333 29.1533 144.408 28.0722 143.486 26.99L142.983 26.4133C142.945 26.382 142.914 26.3426 142.892 26.298C142.871 26.2533 142.86 26.2044 142.86 26.155C142.86 26.1055 142.871 26.0567 142.892 26.012C142.914 25.9673 142.945 25.9279 142.983 25.8966C143.083 25.77 143.18 25.6333 143.293 25.5133C143.406 25.3933 143.403 25.32 143.27 25.21C142.13 24.2611 140.993 23.3077 139.86 22.35L138.066 20.8633C137.943 20.76 137.936 20.6766 137.956 20.51C138.015 20.1043 138.015 19.6923 137.956 19.2866C137.769 18.4399 137.401 17.6439 136.876 16.9533C136.403 16.27 135.92 15.5933 135.39 14.9533C134.86 14.3133 134.333 13.7933 133.776 13.2233C133.703 13.1433 133.553 13.0733 133.746 12.9366L134.363 13.51L137.533 16.47C138.226 17.1366 138.923 17.77 139.613 18.4266C139.682 18.4907 139.73 18.5745 139.75 18.6666C139.78 18.858 139.878 19.032 140.026 19.1566C140.36 19.4666 140.673 19.8033 141.003 20.12C141.048 20.1617 141.08 20.2148 141.096 20.2736C141.113 20.3323 141.113 20.3945 141.096 20.4533C141.033 20.7102 141.049 20.9804 141.142 21.228C141.236 21.4756 141.402 21.689 141.62 21.84C141.825 22.0095 142.076 22.1138 142.341 22.1393C142.606 22.1649 142.872 22.1105 143.106 21.9833C143.348 21.8762 143.553 21.6995 143.694 21.4757C143.836 21.252 143.907 20.9912 143.9 20.7266C143.898 20.5214 143.852 20.319 143.763 20.1339C143.674 19.9489 143.545 19.7858 143.386 19.6564C143.226 19.527 143.04 19.4345 142.841 19.3856C142.642 19.3366 142.434 19.3324 142.233 19.3733C142.118 19.4158 141.992 19.4223 141.873 19.3919C141.754 19.3616 141.647 19.2958 141.566 19.2033C141.233 18.87 140.9 18.56 140.566 18.2466C140.506 18.19 140.41 18.11 140.346 18.1233C140.093 18.1833 139.956 18.0233 139.806 17.88C139.07 17.18 138.336 16.4733 137.596 15.7733L134.263 12.6133C134.23 12.5833 134.203 12.5466 134.17 12.5133C134.266 12.2933 134.363 12.3933 134.466 12.4966C135.559 13.5558 136.769 14.4873 138.073 15.2733C138.829 15.7343 139.654 16.0719 140.516 16.2733C140.997 16.401 141.501 16.4124 141.986 16.3066C142.072 16.2837 142.163 16.287 142.246 16.3161C142.33 16.3453 142.403 16.3988 142.456 16.47C143.95 18.0766 145.456 19.6766 146.96 21.2766C147.036 21.3566 147.123 21.43 147.226 21.53C147.356 21.4066 147.49 21.2866 147.61 21.16C147.83 20.9366 147.9 20.9266 148.14 21.1133C148.843 21.66 149.546 22.21 150.253 22.7533C150.334 22.7996 150.42 22.8354 150.51 22.86L150.513 35.2766Z" fill="#F7F7F7"/>
<path d="M114.427 0C114.13 0.636667 113.8 1.26 113.537 1.91C112.463 4.5395 112.085 7.40178 112.44 10.22C112.778 13.134 113.893 15.9038 115.667 18.24C118.191 21.6661 121.943 23.9824 126.137 24.7033C129.238 25.2801 132.44 24.9526 135.36 23.76C135.459 23.7187 135.562 23.6875 135.667 23.6667C135.704 23.6584 135.741 23.6577 135.778 23.6646C135.815 23.6715 135.85 23.6858 135.88 23.7067C136.467 24.2733 137.047 24.8467 137.664 25.4533L137.16 25.69C135.613 26.396 133.979 26.8937 132.3 27.17C130.868 27.399 129.415 27.4661 127.967 27.37C125.555 27.2399 123.194 26.6266 121.024 25.5667C115.18 22.6667 111.57 18.0167 110.334 11.6C109.602 7.76929 110.094 3.8055 111.74 0.27C111.802 0.172652 111.873 0.0821373 111.954 0H114.427Z" fill="#F7F7F7"/>
<path d="M146.463 0C146.689 0.553333 146.929 1.09667 147.129 1.66667C147.651 3.07505 148.002 4.54117 148.173 6.03333C148.554 9.24877 148.118 12.5085 146.903 15.51C146.873 15.5833 146.836 15.6567 146.796 15.7433C146.169 15.1467 145.556 14.5633 144.949 13.9733C144.93 13.9408 144.919 13.9044 144.916 13.8669C144.913 13.8294 144.919 13.7917 144.933 13.7567C146.056 10.5807 146.195 7.13976 145.333 3.88333C144.967 2.53075 144.439 1.22699 143.763 0L146.463 0Z" fill="#F7F7F7"/>
<path d="M133.307 38.72L134.59 37.2234C134.783 37.38 134.957 37.5567 135.153 37.6734C135.355 37.8063 135.569 37.918 135.793 38.0067C135.936 38.0661 136.091 38.0893 136.244 38.0742C136.398 38.0591 136.545 38.0061 136.673 37.92C137.34 37.4867 137.377 36.8234 136.727 36.37C136.397 36.1647 136.052 35.9863 135.693 35.8367C135.463 35.7267 135.227 35.6367 134.99 35.54C133.897 35.0734 133.563 33.8734 133.657 33.0167C133.723 32.36 134.035 31.7524 134.529 31.3146C135.023 30.8768 135.663 30.6408 136.323 30.6534C136.807 30.624 137.292 30.6907 137.749 30.8498C138.207 31.0088 138.629 31.257 138.99 31.58L137.82 32.8667C137.397 32.7034 137 32.5334 136.587 32.3967C136.483 32.3669 136.375 32.3587 136.269 32.3727C136.162 32.3866 136.06 32.4224 135.968 32.4778C135.876 32.5332 135.796 32.607 135.734 32.6946C135.672 32.7821 135.629 32.8816 135.607 32.9867C135.563 33.116 135.559 33.2551 135.593 33.3871C135.627 33.5191 135.699 33.6382 135.8 33.73C136.048 33.9433 136.318 34.1288 136.607 34.2834C136.98 34.49 137.38 34.6467 137.76 34.8367C139.463 35.6934 139.737 37.8367 138.253 39.17C137.724 39.6558 137.046 39.949 136.329 40.0022C135.613 40.0554 134.899 39.8656 134.303 39.4634C133.963 39.24 133.667 38.9767 133.307 38.72Z" fill="#F7F7F7"/>
<path d="M128 30.83H129.9V37.8767H132.547V39.81H128V30.83Z" fill="#F7F7F7"/>
<path d="M140.54 30.83H142.447V39.8H140.54V30.83Z" fill="#F7F7F7"/>
<path d="M123.94 36.0933L124.067 36.0233C124.431 35.8603 124.751 35.6149 125.004 35.3066C125.257 34.9982 125.435 34.6354 125.523 34.2466C125.703 33.6995 125.697 33.1079 125.504 32.5649C125.312 32.0219 124.945 31.5582 124.46 31.2466C123.938 30.9462 123.342 30.7973 122.74 30.8166C121.9 30.8166 121.073 30.8166 120.223 30.8166H119.75V39.8166H121.667V36.3066C121.667 36.3066 121.85 36.4133 121.88 36.4366C121.975 36.5104 122.054 36.6021 122.113 36.7066C122.473 37.2366 123.517 38.7833 124.08 39.6367C124.119 39.6954 124.172 39.7433 124.234 39.7759C124.297 39.8086 124.366 39.8249 124.437 39.8233C124.813 39.8233 125.19 39.8233 125.567 39.8233H126.427L123.94 36.0933ZM123.607 33.6666C123.607 33.8777 123.543 34.0839 123.424 34.2581C123.306 34.4324 123.137 34.5667 122.94 34.6433C122.538 34.7739 122.113 34.8182 121.693 34.7733V32.44C122.16 32.3784 122.635 32.4452 123.067 32.6333C123.253 32.728 123.405 32.8785 123.501 33.0638C123.597 33.2491 123.633 33.4599 123.603 33.6666H123.607Z" fill="#F7F7F7"/>
<path d="M117 34.9533L116.857 34.89L117.057 34.6999C117.431 34.3697 117.677 33.9174 117.75 33.4233C117.87 32.4799 117.417 31.1933 116.113 30.9466C115.814 30.883 115.509 30.844 115.203 30.8299C114.287 30.8299 113.373 30.8299 112.46 30.8299C112.42 30.8263 112.38 30.8263 112.34 30.8299V39.81H115.267C115.509 39.8054 115.75 39.7842 115.99 39.7466C116.291 39.7075 116.589 39.6429 116.88 39.5533C117.347 39.3846 117.753 39.0787 118.044 38.6757C118.335 38.2727 118.498 37.7912 118.511 37.2943C118.524 36.7973 118.386 36.3081 118.117 35.8904C117.847 35.4727 117.458 35.1461 117 34.9533ZM114.27 32.3766C114.539 32.3635 114.809 32.3724 115.077 32.4033C115.263 32.4322 115.436 32.5192 115.571 32.6521C115.706 32.7849 115.795 32.9568 115.827 33.1433C115.841 33.346 115.796 33.5485 115.697 33.7261C115.598 33.9037 115.45 34.0486 115.27 34.1433C114.955 34.2795 114.609 34.3257 114.27 34.2766V32.3766ZM116.48 37.3333C116.464 37.5485 116.374 37.7517 116.226 37.9088C116.078 38.0659 115.88 38.1675 115.667 38.1966C115.203 38.2514 114.737 38.277 114.27 38.2733V35.82C114.873 35.82 115.487 35.71 116.03 36.0833C116.219 36.225 116.362 36.4189 116.442 36.641C116.522 36.8631 116.535 37.1037 116.48 37.3333Z" fill="#F7F7F7"/>
<path fill-rule="evenodd" clip-rule="evenodd" d="M95 40L95 8.74228e-08L97 0L97 40L95 40Z" fill="#F6F6F6" fill-opacity="0.5"/>
</svg>
