<svg width="331" height="89" viewBox="0 0 331 89" fill="none" xmlns="http://www.w3.org/2000/svg">
<path d="M330.796 77.5969C330.371 77.0543 329.953 76.5044 329.506 75.9764C326.817 72.8138 324.129 69.6561 321.44 66.5032C319.402 64.1275 317.368 61.7495 315.34 59.3689L314.232 58.1004C314.148 58.0317 314.08 57.945 314.033 57.8467C313.987 57.7484 313.963 57.641 313.963 57.5322C313.963 57.4234 313.987 57.316 314.033 57.2177C314.08 57.1194 314.148 57.0327 314.232 56.964C314.452 56.6853 314.665 56.3847 314.914 56.1207C315.164 55.8568 315.156 55.6955 314.863 55.4535C312.355 53.3663 309.855 51.2692 307.362 49.1625L303.417 45.8923C303.146 45.665 303.131 45.4817 303.175 45.1151C303.304 44.2227 303.304 43.3165 303.175 42.4241C302.764 40.5617 301.953 38.8106 300.8 37.2916C299.759 35.7884 298.695 34.3 297.53 32.8922C296.364 31.4844 295.205 30.3406 293.981 29.0868C293.82 28.9108 293.49 28.7568 293.915 28.4562L295.271 29.7174L302.244 36.2284C303.769 37.6948 305.302 39.088 306.82 40.5324C306.971 40.6734 307.076 40.8577 307.12 41.0603C307.186 41.4812 307.403 41.864 307.729 42.1382C308.462 42.8201 309.151 43.5606 309.877 44.2572C309.975 44.3489 310.046 44.4658 310.082 44.5951C310.119 44.7244 310.119 44.8611 310.082 44.9904C309.943 45.5556 309.978 46.1498 310.184 46.6945C310.389 47.2392 310.755 47.7086 311.234 48.0406C311.685 48.4136 312.238 48.6429 312.82 48.6991C313.403 48.7553 313.989 48.6358 314.504 48.3559C315.036 48.1204 315.486 47.7317 315.797 47.2395C316.108 46.7472 316.265 46.1736 316.249 45.5916C316.246 45.1402 316.143 44.6949 315.948 44.2879C315.752 43.8808 315.469 43.5221 315.119 43.2375C314.768 42.9529 314.359 42.7495 313.921 42.6418C313.482 42.5341 313.025 42.5249 312.583 42.6148C312.329 42.7082 312.053 42.7225 311.791 42.6558C311.529 42.589 311.294 42.4443 311.116 42.2408C310.383 41.5076 309.65 40.8257 308.917 40.1365C308.785 40.0118 308.572 39.8358 308.433 39.8652C307.875 39.9972 307.575 39.6452 307.245 39.3299C305.624 37.7901 304.011 36.2357 302.384 34.6959L295.051 27.745C294.978 27.679 294.919 27.5983 294.846 27.525C295.059 27.0411 295.271 27.2611 295.499 27.4884C297.903 29.8181 300.565 31.8672 303.432 33.5961C305.095 34.6103 306.91 35.3528 308.807 35.7958C309.863 36.0766 310.972 36.1018 312.04 35.8691C312.229 35.8187 312.428 35.826 312.612 35.89C312.797 35.9541 312.957 36.0719 313.074 36.2284C316.359 39.7625 319.673 43.282 322.98 46.8015C323.148 46.9774 323.339 47.1387 323.566 47.3587C323.852 47.0874 324.146 46.8235 324.41 46.5448C324.894 46.0536 325.048 46.0316 325.575 46.4422C327.123 47.6447 328.67 48.8545 330.224 50.0497C330.402 50.1515 330.591 50.2303 330.789 50.2843L330.796 77.5969Z" fill="#F7F7F7"/>
<path d="M251.419 0C250.767 1.40046 250.041 2.77159 249.461 4.20137C247.098 9.9854 246.267 16.2815 247.049 22.4806C247.793 28.8906 250.244 34.9832 254.147 40.122C259.699 47.6584 267.952 52.7534 277.177 54.3392C283.999 55.6079 291.042 54.8876 297.466 52.2642C297.683 52.1734 297.909 52.1046 298.14 52.0589C298.22 52.0407 298.303 52.0392 298.384 52.0543C298.465 52.0694 298.541 52.1009 298.609 52.1469C299.9 53.3934 301.176 54.6545 302.532 55.989L301.425 56.5096C298.021 58.0626 294.426 59.1573 290.735 59.7651C287.584 60.2688 284.386 60.4164 281.203 60.205C275.897 59.9187 270.704 58.5698 265.93 56.2383C253.076 49.8592 245.135 39.6307 242.415 25.5162C240.806 17.0899 241.888 8.37085 245.509 0.593911C245.644 0.379778 245.801 0.180675 245.979 0H251.419Z" fill="#F7F7F7"/>
<path d="M321.886 0C322.385 1.21715 322.913 2.41231 323.353 3.66612C324.501 6.7641 325.271 9.98907 325.648 13.2713C326.487 20.3443 325.526 27.5146 322.854 34.1169C322.788 34.2782 322.708 34.4395 322.62 34.6302C321.241 33.3177 319.892 32.0345 318.558 30.7367C318.516 30.6652 318.491 30.5852 318.485 30.5026C318.478 30.4201 318.491 30.3372 318.521 30.2601C320.992 23.2741 321.299 15.7051 319.401 8.54206C318.595 5.56682 317.436 2.69897 315.947 0L321.886 0Z" fill="#F7F7F7"/>
<path d="M292.947 85.1713L295.77 81.8792C296.195 82.2238 296.577 82.6124 297.009 82.869C297.452 83.1614 297.924 83.4071 298.417 83.6022C298.73 83.733 299.071 83.784 299.409 83.7507C299.747 83.7174 300.071 83.6009 300.353 83.4116C301.819 82.4584 301.9 80.9993 300.47 80.0021C299.745 79.5505 298.985 79.1581 298.197 78.829C297.691 78.587 297.171 78.389 296.65 78.1764C294.245 77.1499 293.512 74.5103 293.717 72.6259C293.864 71.1814 294.549 69.8449 295.636 68.8819C296.722 67.9189 298.131 67.3996 299.583 67.4273C300.647 67.3627 301.713 67.5095 302.72 67.8594C303.727 68.2092 304.654 68.7552 305.449 69.4657L302.875 72.2959C301.944 71.9367 301.071 71.5627 300.162 71.2621C299.935 71.1966 299.697 71.1786 299.463 71.2093C299.229 71.24 299.003 71.3187 298.801 71.4405C298.599 71.5624 298.424 71.7247 298.287 71.9173C298.15 72.1099 298.055 72.3287 298.007 72.5599C297.911 72.8443 297.901 73.1503 297.976 73.4406C298.052 73.7309 298.21 73.993 298.432 74.195C298.977 74.6641 299.572 75.0723 300.206 75.4121C301.027 75.8667 301.907 76.2114 302.743 76.6293C306.49 78.5137 307.091 83.2283 303.828 86.1612C302.663 87.2297 301.172 87.8746 299.596 87.9917C298.019 88.1087 296.45 87.6912 295.14 86.8064C294.392 86.3152 293.739 85.7359 292.947 85.1713Z" fill="#F7F7F7"/>
<path d="M281.274 67.8158H285.454V83.3162H291.276V87.5689H281.274V67.8158Z" fill="#F7F7F7"/>
<path d="M308.858 67.8158H313.052V87.5468H308.858V67.8158Z" fill="#F7F7F7"/>
<path d="M272.345 79.3933L272.623 79.2394C273.424 78.8807 274.13 78.341 274.686 77.6628C275.242 76.9845 275.633 76.1864 275.827 75.3313C276.224 74.1276 276.209 72.8264 275.786 71.632C275.362 70.4376 274.554 69.4177 273.488 68.7323C272.34 68.0713 271.03 67.7438 269.705 67.7864C267.857 67.7864 266.039 67.7864 264.169 67.7864H263.128V87.5834H267.344V79.8626C267.344 79.8626 267.747 80.0972 267.813 80.1486C268.022 80.3107 268.196 80.5126 268.326 80.7425C269.118 81.9083 271.413 85.3105 272.653 87.1875C272.738 87.3167 272.855 87.422 272.992 87.4938C273.129 87.5656 273.282 87.6015 273.437 87.5981C274.266 87.5981 275.094 87.5981 275.923 87.5981H277.814L272.345 79.3933ZM271.611 74.0555C271.612 74.5197 271.472 74.9732 271.211 75.3566C270.949 75.74 270.577 76.0353 270.145 76.2038C269.261 76.4912 268.327 76.5886 267.403 76.4898V71.3572C268.43 71.2217 269.474 71.3687 270.424 71.7825C270.833 71.9907 271.167 72.3218 271.379 72.7294C271.59 73.1371 271.669 73.6008 271.604 74.0555H271.611Z" fill="#F7F7F7"/>
<path d="M257.079 76.8858L256.763 76.7464L257.203 76.3285C258.027 75.6021 258.568 74.6071 258.728 73.5203C258.992 71.4452 257.995 68.615 255.128 68.0724C254.469 67.9324 253.8 67.8466 253.127 67.8158C251.11 67.8158 249.101 67.8158 247.092 67.8158C247.004 67.8078 246.916 67.8078 246.828 67.8158V87.5688H253.266C253.799 87.5588 254.33 87.5123 254.857 87.4295C255.52 87.3436 256.175 87.2013 256.815 87.0043C257.843 86.6332 258.736 85.9604 259.376 85.0738C260.016 84.1873 260.374 83.1282 260.402 82.0351C260.431 80.9421 260.129 79.8658 259.536 78.9471C258.943 78.0284 258.086 77.3099 257.079 76.8858ZM251.073 71.2179C251.666 71.1891 252.259 71.2087 252.848 71.2766C253.259 71.3402 253.64 71.5316 253.936 71.8238C254.232 72.116 254.429 72.4941 254.498 72.9043C254.529 73.3503 254.43 73.7958 254.213 74.1864C253.995 74.577 253.669 74.8958 253.273 75.104C252.581 75.4037 251.82 75.5052 251.073 75.3973V71.2179ZM255.935 82.121C255.899 82.5944 255.702 83.0413 255.376 83.3869C255.05 83.7325 254.616 83.956 254.146 84.02C253.126 84.1405 252.1 84.1968 251.073 84.1887V78.7921C252.401 78.7921 253.75 78.5502 254.945 79.3714C255.36 79.6832 255.675 80.1096 255.851 80.5982C256.027 81.0867 256.056 81.6161 255.935 82.121Z" fill="#F7F7F7"/>
<path fill-rule="evenodd" clip-rule="evenodd" d="M208.686 87.9869L208.686 1.92301e-07L213.085 0L213.085 87.9869L208.686 87.9869Z" fill="#F6F6F6" fill-opacity="0.5"/>
<path fill-rule="evenodd" clip-rule="evenodd" d="M155.717 11H140.765L140.759 11.0016H127.445L114.73 49.8935L102.097 11.0016H88.4753L75.8087 49.8055L63.2011 11.0018L63.1353 11.0016L48.2654 11L48.266 11.0016H0V25.2822H18.4523V76.1517H42.0968L46.2905 63.5706H65.4062L69.6418 76.1517L70.4504 76.075L70.4766 76.1517H82.6738L95.2429 39.5555L107.812 76.1517H119.249L124.273 63.1637C125.234 65.0522 126.384 66.7935 127.729 68.3823L127.737 68.3912C132.68 74.1636 139.446 76.9901 147.784 76.9901C155.309 76.9901 161.582 74.9987 166.398 70.8317C171.257 66.6527 173.89 60.9448 174.399 53.9146L174.557 51.7221H157.881L157.739 53.6137C157.482 57.0321 156.493 59.2138 155.074 60.5294C153.702 61.8 151.406 62.6257 147.784 62.6257C144.026 62.6257 141.578 61.3395 140.016 58.9779C138.363 56.4363 137.374 52.107 137.374 45.6312V41.0273C137.429 34.8578 138.478 30.7045 140.197 28.2182C141.853 25.834 144.319 24.5689 147.952 24.5689C151.537 24.5689 153.794 25.4045 155.136 26.6866L155.148 26.6974L155.159 26.708C156.527 27.9752 157.535 30.2313 157.823 33.9221L157.97 35.808H174.699L174.478 33.5629C173.767 26.3323 171.097 20.5134 166.326 16.3312C163.409 13.7744 159.937 12.0225 155.954 11.0575L155.717 11ZM35.1232 47.0814L43.238 25.2822H35.1232V47.0814Z" fill="#F6F6F6"/>
</svg>
