<svg width="7680" height="358" viewBox="0 0 7680 358" fill="none" xmlns="http://www.w3.org/2000/svg">
<path d="M190.4 8C125.6 77.3333 60.8 77.3333 -4 8V332H1940V8C1875.2 77.3333 1810.4 77.3333 1745.6 8C1680.8 77.3333 1616 77.3333 1551.2 8C1486.4 77.3333 1421.6 77.3333 1356.8 8C1292 77.3333 1227.2 77.3333 1162.4 8C1097.6 77.3333 1032.8 77.3333 968 8C903.2 77.3333 838.4 77.3333 773.6 8C708.8 77.3333 644 77.3333 579.2 8C514.4 77.3333 449.6 77.3333 384.8 8C320 77.3333 255.2 77.3333 190.4 8Z" fill="#268AC2"/>
<path d="M190.4 8C125.6 77.3333 60.8 77.3333 -4 8V332H1940V8C1875.2 77.3333 1810.4 77.3333 1745.6 8C1680.8 77.3333 1616 77.3333 1551.2 8C1486.4 77.3333 1421.6 77.3333 1356.8 8C1292 77.3333 1227.2 77.3333 1162.4 8C1097.6 77.3333 1032.8 77.3333 968 8C903.2 77.3333 838.4 77.3333 773.6 8C708.8 77.3333 644 77.3333 579.2 8C514.4 77.3333 449.6 77.3333 384.8 8C320 77.3333 255.2 77.3333 190.4 8Z" fill="url(#paint0_linear)"/>
<path d="M2134.4 8C2069.6 77.3333 2004.8 77.3333 1940 8V332H3884V8C3819.2 77.3333 3754.4 77.3333 3689.6 8C3624.8 77.3333 3560 77.3333 3495.2 8C3430.4 77.3333 3365.6 77.3333 3300.8 8C3236 77.3333 3171.2 77.3333 3106.4 8C3041.6 77.3333 2976.8 77.3333 2912 8C2847.2 77.3333 2782.4 77.3333 2717.6 8C2652.8 77.3333 2588 77.3333 2523.2 8C2458.4 77.3333 2393.6 77.3333 2328.8 8C2264 77.3333 2199.2 77.3333 2134.4 8Z" fill="#268AC2"/>
<path d="M2134.4 8C2069.6 77.3333 2004.8 77.3333 1940 8V332H3884V8C3819.2 77.3333 3754.4 77.3333 3689.6 8C3624.8 77.3333 3560 77.3333 3495.2 8C3430.4 77.3333 3365.6 77.3333 3300.8 8C3236 77.3333 3171.2 77.3333 3106.4 8C3041.6 77.3333 2976.8 77.3333 2912 8C2847.2 77.3333 2782.4 77.3333 2717.6 8C2652.8 77.3333 2588 77.3333 2523.2 8C2458.4 77.3333 2393.6 77.3333 2328.8 8C2264 77.3333 2199.2 77.3333 2134.4 8Z" fill="url(#paint1_linear)"/>
<path d="M4078.4 8C4013.6 77.3333 3948.8 77.3333 3884 8V332H5828V8C5763.2 77.3333 5698.4 77.3333 5633.6 8C5568.8 77.3333 5504 77.3333 5439.2 8C5374.4 77.3333 5309.6 77.3333 5244.8 8C5180 77.3333 5115.2 77.3333 5050.4 8C4985.6 77.3333 4920.8 77.3333 4856 8C4791.2 77.3333 4726.4 77.3333 4661.6 8C4596.8 77.3333 4532 77.3333 4467.2 8C4402.4 77.3333 4337.6 77.3333 4272.8 8C4208 77.3333 4143.2 77.3333 4078.4 8Z" fill="#268AC2"/>
<path d="M4078.4 8C4013.6 77.3333 3948.8 77.3333 3884 8V332H5828V8C5763.2 77.3333 5698.4 77.3333 5633.6 8C5568.8 77.3333 5504 77.3333 5439.2 8C5374.4 77.3333 5309.6 77.3333 5244.8 8C5180 77.3333 5115.2 77.3333 5050.4 8C4985.6 77.3333 4920.8 77.3333 4856 8C4791.2 77.3333 4726.4 77.3333 4661.6 8C4596.8 77.3333 4532 77.3333 4467.2 8C4402.4 77.3333 4337.6 77.3333 4272.8 8C4208 77.3333 4143.2 77.3333 4078.4 8Z" fill="url(#paint2_linear)"/>
<path d="M6022.4 8C5957.6 77.3333 5892.8 77.3333 5828 8V332H7772V8C7707.2 77.3333 7642.4 77.3333 7577.6 8C7512.8 77.3333 7448 77.3333 7383.2 8C7318.4 77.3333 7253.6 77.3333 7188.8 8C7124 77.3333 7059.2 77.3333 6994.4 8C6929.6 77.3333 6864.8 77.3333 6800 8C6735.2 77.3333 6670.4 77.3333 6605.6 8C6540.8 77.3333 6476 77.3333 6411.2 8C6346.4 77.3333 6281.6 77.3333 6216.8 8C6152 77.3333 6087.2 77.3333 6022.4 8Z" fill="#268AC2"/>
<path d="M6022.4 8C5957.6 77.3333 5892.8 77.3333 5828 8V332H7772V8C7707.2 77.3333 7642.4 77.3333 7577.6 8C7512.8 77.3333 7448 77.3333 7383.2 8C7318.4 77.3333 7253.6 77.3333 7188.8 8C7124 77.3333 7059.2 77.3333 6994.4 8C6929.6 77.3333 6864.8 77.3333 6800 8C6735.2 77.3333 6670.4 77.3333 6605.6 8C6540.8 77.3333 6476 77.3333 6411.2 8C6346.4 77.3333 6281.6 77.3333 6216.8 8C6152 77.3333 6087.2 77.3333 6022.4 8Z" fill="url(#paint3_linear)"/>
<path d="M-4 8C60.8 77.3333 125.6 77.3333 190.4 8C255.2 77.3333 320 77.3333 384.8 8C449.6 77.3333 514.4 77.3333 579.2 8C644 77.3333 708.8 77.3333 773.6 8C838.4 77.3333 903.2 77.3333 968 8C1032.8 77.3333 1097.6 77.3333 1162.4 8C1227.2 77.3333 1292 77.3333 1356.8 8C1421.6 77.3333 1486.4 77.3333 1551.2 8C1616 77.3333 1680.8 77.3333 1745.6 8C1810.4 77.3333 1875.2 77.3333 1940 8C2004.8 77.3333 2069.6 77.3333 2134.4 8C2199.2 77.3333 2264 77.3333 2328.8 8C2393.6 77.3333 2458.4 77.3333 2523.2 8C2588 77.3333 2652.8 77.3333 2717.6 8C2782.4 77.3333 2847.2 77.3333 2912 8C2976.8 77.3333 3041.6 77.3333 3106.4 8C3171.2 77.3333 3236 77.3333 3300.8 8C3365.6 77.3333 3430.4 77.3333 3495.2 8C3560 77.3333 3624.8 77.3333 3689.6 8C3754.4 77.3333 3819.2 77.3333 3884 8C3948.8 77.3333 4013.6 77.3333 4078.4 8C4143.2 77.3333 4208 77.3333 4272.8 8C4337.6 77.3333 4402.4 77.3333 4467.2 8C4532 77.3333 4596.8 77.3333 4661.6 8C4726.4 77.3333 4791.2 77.3333 4856 8C4920.8 77.3333 4985.6 77.3333 5050.4 8C5115.2 77.3333 5180 77.3333 5244.8 8C5309.6 77.3333 5374.4 77.3333 5439.2 8C5504 77.3333 5568.8 77.3333 5633.6 8C5698.4 77.3333 5763.2 77.3333 5828 8C5892.8 77.3333 5957.6 77.3333 6022.4 8C6087.2 77.3333 6152 77.3333 6216.8 8C6281.6 77.3333 6346.4 77.3333 6411.2 8C6476 77.3333 6540.8 77.3333 6605.6 8C6670.4 77.3333 6735.2 77.3333 6800 8C6864.8 77.3333 6929.6 77.3333 6994.4 8C7059.2 77.3333 7124 77.3333 7188.8 8C7253.6 77.3333 7318.4 77.3333 7383.2 8C7448 77.3333 7512.8 77.3333 7577.6 8C7642.4 77.3333 7707.2 77.3333 7772 8" stroke="#A9D6EF" stroke-width="10"/>
<path d="M133.4 34C68.6 103.333 3.8 103.333 -61 34V358H1883V34C1818.2 103.333 1753.4 103.333 1688.6 34C1623.8 103.333 1559 103.333 1494.2 34C1429.4 103.333 1364.6 103.333 1299.8 34C1235 103.333 1170.2 103.333 1105.4 34C1040.6 103.333 975.8 103.333 911 34C846.2 103.333 781.4 103.333 716.6 34C651.8 103.333 587 103.333 522.2 34C457.4 103.333 392.6 103.333 327.8 34C263 103.333 198.2 103.333 133.4 34Z" fill="#268AC2"/>
<path d="M133.4 34C68.6 103.333 3.8 103.333 -61 34V358H1883V34C1818.2 103.333 1753.4 103.333 1688.6 34C1623.8 103.333 1559 103.333 1494.2 34C1429.4 103.333 1364.6 103.333 1299.8 34C1235 103.333 1170.2 103.333 1105.4 34C1040.6 103.333 975.8 103.333 911 34C846.2 103.333 781.4 103.333 716.6 34C651.8 103.333 587 103.333 522.2 34C457.4 103.333 392.6 103.333 327.8 34C263 103.333 198.2 103.333 133.4 34Z" fill="url(#paint4_linear)"/>
<path d="M2077.4 34C2012.6 103.333 1947.8 103.333 1883 34V358H3827V34C3762.2 103.333 3697.4 103.333 3632.6 34C3567.8 103.333 3503 103.333 3438.2 34C3373.4 103.333 3308.6 103.333 3243.8 34C3179 103.333 3114.2 103.333 3049.4 34C2984.6 103.333 2919.8 103.333 2855 34C2790.2 103.333 2725.4 103.333 2660.6 34C2595.8 103.333 2531 103.333 2466.2 34C2401.4 103.333 2336.6 103.333 2271.8 34C2207 103.333 2142.2 103.333 2077.4 34Z" fill="#268AC2"/>
<path d="M2077.4 34C2012.6 103.333 1947.8 103.333 1883 34V358H3827V34C3762.2 103.333 3697.4 103.333 3632.6 34C3567.8 103.333 3503 103.333 3438.2 34C3373.4 103.333 3308.6 103.333 3243.8 34C3179 103.333 3114.2 103.333 3049.4 34C2984.6 103.333 2919.8 103.333 2855 34C2790.2 103.333 2725.4 103.333 2660.6 34C2595.8 103.333 2531 103.333 2466.2 34C2401.4 103.333 2336.6 103.333 2271.8 34C2207 103.333 2142.2 103.333 2077.4 34Z" fill="url(#paint5_linear)"/>
<path d="M4021.4 34C3956.6 103.333 3891.8 103.333 3827 34V358H5771V34C5706.2 103.333 5641.4 103.333 5576.6 34C5511.8 103.333 5447 103.333 5382.2 34C5317.4 103.333 5252.6 103.333 5187.8 34C5123 103.333 5058.2 103.333 4993.4 34C4928.6 103.333 4863.8 103.333 4799 34C4734.2 103.333 4669.4 103.333 4604.6 34C4539.8 103.333 4475 103.333 4410.2 34C4345.4 103.333 4280.6 103.333 4215.8 34C4151 103.333 4086.2 103.333 4021.4 34Z" fill="#268AC2"/>
<path d="M4021.4 34C3956.6 103.333 3891.8 103.333 3827 34V358H5771V34C5706.2 103.333 5641.4 103.333 5576.6 34C5511.8 103.333 5447 103.333 5382.2 34C5317.4 103.333 5252.6 103.333 5187.8 34C5123 103.333 5058.2 103.333 4993.4 34C4928.6 103.333 4863.8 103.333 4799 34C4734.2 103.333 4669.4 103.333 4604.6 34C4539.8 103.333 4475 103.333 4410.2 34C4345.4 103.333 4280.6 103.333 4215.8 34C4151 103.333 4086.2 103.333 4021.4 34Z" fill="url(#paint6_linear)"/>
<path d="M5965.4 34C5900.6 103.333 5835.8 103.333 5771 34V358H7715V34C7650.2 103.333 7585.4 103.333 7520.6 34C7455.8 103.333 7391 103.333 7326.2 34C7261.4 103.333 7196.6 103.333 7131.8 34C7067 103.333 7002.2 103.333 6937.4 34C6872.6 103.333 6807.8 103.333 6743 34C6678.2 103.333 6613.4 103.333 6548.6 34C6483.8 103.333 6419 103.333 6354.2 34C6289.4 103.333 6224.6 103.333 6159.8 34C6095 103.333 6030.2 103.333 5965.4 34Z" fill="#268AC2"/>
<path d="M5965.4 34C5900.6 103.333 5835.8 103.333 5771 34V358H7715V34C7650.2 103.333 7585.4 103.333 7520.6 34C7455.8 103.333 7391 103.333 7326.2 34C7261.4 103.333 7196.6 103.333 7131.8 34C7067 103.333 7002.2 103.333 6937.4 34C6872.6 103.333 6807.8 103.333 6743 34C6678.2 103.333 6613.4 103.333 6548.6 34C6483.8 103.333 6419 103.333 6354.2 34C6289.4 103.333 6224.6 103.333 6159.8 34C6095 103.333 6030.2 103.333 5965.4 34Z" fill="url(#paint7_linear)"/>
<path d="M-61 34C3.8 103.333 68.6 103.333 133.4 34C198.2 103.333 263 103.333 327.8 34C392.6 103.333 457.4 103.333 522.2 34C587 103.333 651.8 103.333 716.6 34C781.4 103.333 846.2 103.333 911 34C975.8 103.333 1040.6 103.333 1105.4 34C1170.2 103.333 1235 103.333 1299.8 34C1364.6 103.333 1429.4 103.333 1494.2 34C1559 103.333 1623.8 103.333 1688.6 34C1753.4 103.333 1818.2 103.333 1883 34C1947.8 103.333 2012.6 103.333 2077.4 34C2142.2 103.333 2207 103.333 2271.8 34C2336.6 103.333 2401.4 103.333 2466.2 34C2531 103.333 2595.8 103.333 2660.6 34C2725.4 103.333 2790.2 103.333 2855 34C2919.8 103.333 2984.6 103.333 3049.4 34C3114.2 103.333 3179 103.333 3243.8 34C3308.6 103.333 3373.4 103.333 3438.2 34C3503 103.333 3567.8 103.333 3632.6 34C3697.4 103.333 3762.2 103.333 3827 34C3891.8 103.333 3956.6 103.333 4021.4 34C4086.2 103.333 4151 103.333 4215.8 34C4280.6 103.333 4345.4 103.333 4410.2 34C4475 103.333 4539.8 103.333 4604.6 34C4669.4 103.333 4734.2 103.333 4799 34C4863.8 103.333 4928.6 103.333 4993.4 34C5058.2 103.333 5123 103.333 5187.8 34C5252.6 103.333 5317.4 103.333 5382.2 34C5447 103.333 5511.8 103.333 5576.6 34C5641.4 103.333 5706.2 103.333 5771 34C5835.8 103.333 5900.6 103.333 5965.4 34C6030.2 103.333 6095 103.333 6159.8 34C6224.6 103.333 6289.4 103.333 6354.2 34C6419 103.333 6483.8 103.333 6548.6 34C6613.4 103.333 6678.2 103.333 6743 34C6807.8 103.333 6872.6 103.333 6937.4 34C7002.2 103.333 7067 103.333 7131.8 34C7196.6 103.333 7261.4 103.333 7326.2 34C7391 103.333 7455.8 103.333 7520.6 34C7585.4 103.333 7650.2 103.333 7715 34" stroke="#A9D6EF" stroke-width="10"/>
<defs>
<linearGradient id="paint0_linear" x1="6800" y1="8" x2="6800" y2="332" gradientUnits="userSpaceOnUse">
<stop stop-color="#268AC2"/>
<stop offset="1" stop-color="#052739"/>
</linearGradient>
<linearGradient id="paint1_linear" x1="6800" y1="8" x2="6800" y2="332" gradientUnits="userSpaceOnUse">
<stop stop-color="#268AC2"/>
<stop offset="1" stop-color="#052739"/>
</linearGradient>
<linearGradient id="paint2_linear" x1="6800" y1="8" x2="6800" y2="332" gradientUnits="userSpaceOnUse">
<stop stop-color="#268AC2"/>
<stop offset="1" stop-color="#052739"/>
</linearGradient>
<linearGradient id="paint3_linear" x1="6800" y1="8" x2="6800" y2="332" gradientUnits="userSpaceOnUse">
<stop stop-color="#268AC2"/>
<stop offset="1" stop-color="#052739"/>
</linearGradient>
<linearGradient id="paint4_linear" x1="6743" y1="34" x2="6743" y2="358" gradientUnits="userSpaceOnUse">
<stop stop-color="#268AC2"/>
<stop offset="1" stop-color="#052739"/>
</linearGradient>
<linearGradient id="paint5_linear" x1="6743" y1="34" x2="6743" y2="358" gradientUnits="userSpaceOnUse">
<stop stop-color="#268AC2"/>
<stop offset="1" stop-color="#052739"/>
</linearGradient>
<linearGradient id="paint6_linear" x1="6743" y1="34" x2="6743" y2="358" gradientUnits="userSpaceOnUse">
<stop stop-color="#268AC2"/>
<stop offset="1" stop-color="#052739"/>
</linearGradient>
<linearGradient id="paint7_linear" x1="6743" y1="34" x2="6743" y2="358" gradientUnits="userSpaceOnUse">
<stop stop-color="#268AC2"/>
<stop offset="1" stop-color="#052739"/>
</linearGradient>
</defs>
</svg>
