<svg width="7680" height="328" viewBox="0 0 7680 328" fill="none" xmlns="http://www.w3.org/2000/svg">
<path d="M189.7 8C125.467 76.4774 61.2333 76.4774 -3 8V328H1924V8C1859.77 76.4774 1795.53 76.4774 1731.3 8C1667.07 76.4774 1602.83 76.4774 1538.6 8C1474.37 76.4774 1410.13 76.4774 1345.9 8C1281.67 76.4774 1217.43 76.4774 1153.2 8C1088.97 76.4774 1024.73 76.4774 960.5 8C896.267 76.4774 832.033 76.4774 767.8 8C703.567 76.4774 639.333 76.4774 575.1 8C510.867 76.4774 446.633 76.4774 382.4 8C318.167 76.4774 253.933 76.4774 189.7 8Z" fill="#268AC2"/>
<path d="M189.7 8C125.467 76.4774 61.2333 76.4774 -3 8V328H1924V8C1859.77 76.4774 1795.53 76.4774 1731.3 8C1667.07 76.4774 1602.83 76.4774 1538.6 8C1474.37 76.4774 1410.13 76.4774 1345.9 8C1281.67 76.4774 1217.43 76.4774 1153.2 8C1088.97 76.4774 1024.73 76.4774 960.5 8C896.267 76.4774 832.033 76.4774 767.8 8C703.567 76.4774 639.333 76.4774 575.1 8C510.867 76.4774 446.633 76.4774 382.4 8C318.167 76.4774 253.933 76.4774 189.7 8Z" fill="url(#paint0_linear)"/>
<path d="M2109.7 8C2045.47 76.4774 1981.23 76.4774 1917 8V328H3844V8C3779.77 76.4774 3715.53 76.4774 3651.3 8C3587.07 76.4774 3522.83 76.4774 3458.6 8C3394.37 76.4774 3330.13 76.4774 3265.9 8C3201.67 76.4774 3137.43 76.4774 3073.2 8C3008.97 76.4774 2944.73 76.4774 2880.5 8C2816.27 76.4774 2752.03 76.4774 2687.8 8C2623.57 76.4774 2559.33 76.4774 2495.1 8C2430.87 76.4774 2366.63 76.4774 2302.4 8C2238.17 76.4774 2173.93 76.4774 2109.7 8Z" fill="#268AC2"/>
<path d="M2109.7 8C2045.47 76.4774 1981.23 76.4774 1917 8V328H3844V8C3779.77 76.4774 3715.53 76.4774 3651.3 8C3587.07 76.4774 3522.83 76.4774 3458.6 8C3394.37 76.4774 3330.13 76.4774 3265.9 8C3201.67 76.4774 3137.43 76.4774 3073.2 8C3008.97 76.4774 2944.73 76.4774 2880.5 8C2816.27 76.4774 2752.03 76.4774 2687.8 8C2623.57 76.4774 2559.33 76.4774 2495.1 8C2430.87 76.4774 2366.63 76.4774 2302.4 8C2238.17 76.4774 2173.93 76.4774 2109.7 8Z" fill="url(#paint1_linear)"/>
<path d="M4028.7 8C3964.47 76.4774 3900.23 76.4774 3836 8V328H5763V8C5698.77 76.4774 5634.53 76.4774 5570.3 8C5506.07 76.4774 5441.83 76.4774 5377.6 8C5313.37 76.4774 5249.13 76.4774 5184.9 8C5120.67 76.4774 5056.43 76.4774 4992.2 8C4927.97 76.4774 4863.73 76.4774 4799.5 8C4735.27 76.4774 4671.03 76.4774 4606.8 8C4542.57 76.4774 4478.33 76.4774 4414.1 8C4349.87 76.4774 4285.63 76.4774 4221.4 8C4157.17 76.4774 4092.93 76.4774 4028.7 8Z" fill="#268AC2"/>
<path d="M4028.7 8C3964.47 76.4774 3900.23 76.4774 3836 8V328H5763V8C5698.77 76.4774 5634.53 76.4774 5570.3 8C5506.07 76.4774 5441.83 76.4774 5377.6 8C5313.37 76.4774 5249.13 76.4774 5184.9 8C5120.67 76.4774 5056.43 76.4774 4992.2 8C4927.97 76.4774 4863.73 76.4774 4799.5 8C4735.27 76.4774 4671.03 76.4774 4606.8 8C4542.57 76.4774 4478.33 76.4774 4414.1 8C4349.87 76.4774 4285.63 76.4774 4221.4 8C4157.17 76.4774 4092.93 76.4774 4028.7 8Z" fill="url(#paint2_linear)"/>
<path d="M5948.7 8C5884.47 76.4774 5820.23 76.4774 5756 8V328H7683V8C7618.77 76.4774 7554.53 76.4774 7490.3 8C7426.07 76.4774 7361.83 76.4774 7297.6 8C7233.37 76.4774 7169.13 76.4774 7104.9 8C7040.67 76.4774 6976.43 76.4774 6912.2 8C6847.97 76.4774 6783.73 76.4774 6719.5 8C6655.27 76.4774 6591.03 76.4774 6526.8 8C6462.57 76.4774 6398.33 76.4774 6334.1 8C6269.87 76.4774 6205.63 76.4774 6141.4 8C6077.17 76.4774 6012.93 76.4774 5948.7 8Z" fill="#268AC2"/>
<path d="M5948.7 8C5884.47 76.4774 5820.23 76.4774 5756 8V328H7683V8C7618.77 76.4774 7554.53 76.4774 7490.3 8C7426.07 76.4774 7361.83 76.4774 7297.6 8C7233.37 76.4774 7169.13 76.4774 7104.9 8C7040.67 76.4774 6976.43 76.4774 6912.2 8C6847.97 76.4774 6783.73 76.4774 6719.5 8C6655.27 76.4774 6591.03 76.4774 6526.8 8C6462.57 76.4774 6398.33 76.4774 6334.1 8C6269.87 76.4774 6205.63 76.4774 6141.4 8C6077.17 76.4774 6012.93 76.4774 5948.7 8Z" fill="url(#paint3_linear)"/>
<path fill-rule="evenodd" clip-rule="evenodd" d="M2109.4 0L2113.02 3.88889C2144.65 37.8465 2175.56 54.0502 2205.79 54.0502C2236.01 54.0502 2266.92 37.8465 2298.55 3.88889L2302.17 0L2305.8 3.88889C2337.43 37.8465 2368.34 54.0502 2398.56 54.0502C2428.78 54.0502 2459.7 37.8465 2491.33 3.88889L2494.95 0L2498.57 3.88889C2530.2 37.8465 2561.11 54.0502 2591.34 54.0502C2621.56 54.0502 2652.47 37.8465 2684.1 3.88889L2687.72 0L2691.35 3.88889C2722.98 37.8465 2753.89 54.0502 2784.11 54.0502C2814.34 54.0502 2845.25 37.8465 2876.88 3.88889L2880.5 0L2884.12 3.88889C2915.75 37.8465 2946.66 54.0502 2976.89 54.0502C3007.11 54.0502 3038.02 37.8465 3069.65 3.88889L3073.28 0L3076.9 3.88889C3108.53 37.8465 3139.44 54.0502 3169.66 54.0502C3199.89 54.0502 3230.8 37.8465 3262.43 3.88889L3266.05 0L3269.67 3.88889C3301.3 37.8465 3332.22 54.0502 3362.44 54.0502C3392.66 54.0502 3423.57 37.8465 3455.2 3.88889L3458.83 0L3462.45 3.88889C3494.08 37.8465 3524.99 54.0502 3555.21 54.0502C3585.44 54.0502 3616.35 37.8465 3647.98 3.88889L3651.6 0L3655.22 3.88889C3686.86 37.8465 3717.77 54.0502 3747.99 54.0502C3778.21 54.0502 3809.12 37.8465 3840.76 3.88889L3848 10.6828C3815.37 45.7108 3782.02 64 3747.99 64C3715.21 64 3683.07 47.0384 3651.6 14.4998C3620.13 47.0384 3587.99 64 3555.21 64C3522.44 64 3490.3 47.0384 3458.83 14.4998C3427.35 47.0384 3395.22 64 3362.44 64C3329.66 64 3297.52 47.0384 3266.05 14.4998C3234.58 47.0384 3202.44 64 3169.66 64C3136.89 64 3104.75 47.0384 3073.28 14.4998C3041.8 47.0384 3009.66 64 2976.89 64C2944.11 64 2911.97 47.0384 2880.5 14.4998C2849.03 47.0384 2816.89 64 2784.11 64C2751.34 64 2719.2 47.0384 2687.72 14.4998C2656.25 47.0384 2624.11 64 2591.34 64C2558.56 64 2526.42 47.0384 2494.95 14.4998C2463.48 47.0384 2431.34 64 2398.56 64C2365.78 64 2333.65 47.0384 2302.17 14.4998C2270.7 47.0384 2238.56 64 2205.79 64C2173.01 64 2140.87 47.0384 2109.4 14.4998C2077.93 47.0384 2045.79 64 2013.01 64C1978.98 64 1945.63 45.7108 1913 10.6828L1920.24 3.88889C1951.88 37.8465 1982.79 54.0502 2013.01 54.0502C2043.23 54.0502 2074.14 37.8465 2105.78 3.88889L2109.4 0Z" fill="#A9D6EF"/>
<path fill-rule="evenodd" clip-rule="evenodd" d="M4028.4 0L4032.02 3.88889C4063.65 37.8465 4094.56 54.0502 4124.79 54.0502C4155.01 54.0502 4185.92 37.8465 4217.55 3.88889L4221.17 0L4224.8 3.88889C4256.43 37.8465 4287.34 54.0502 4317.56 54.0502C4347.78 54.0502 4378.7 37.8465 4410.33 3.88889L4413.95 0L4417.57 3.88889C4449.2 37.8465 4480.11 54.0502 4510.34 54.0502C4540.56 54.0502 4571.47 37.8465 4603.1 3.88889L4606.72 0L4610.35 3.88889C4641.98 37.8465 4672.89 54.0502 4703.11 54.0502C4733.34 54.0502 4764.25 37.8465 4795.88 3.88889L4799.5 0L4803.12 3.88889C4834.75 37.8465 4865.66 54.0502 4895.89 54.0502C4926.11 54.0502 4957.02 37.8465 4988.65 3.88889L4992.28 0L4995.9 3.88889C5027.53 37.8465 5058.44 54.0502 5088.66 54.0502C5118.89 54.0502 5149.8 37.8465 5181.43 3.88889L5185.05 0L5188.67 3.88889C5220.3 37.8465 5251.22 54.0502 5281.44 54.0502C5311.66 54.0502 5342.57 37.8465 5374.2 3.88889L5377.83 0L5381.45 3.88889C5413.08 37.8465 5443.99 54.0502 5474.21 54.0502C5504.44 54.0502 5535.35 37.8465 5566.98 3.88889L5570.6 0L5574.22 3.88889C5605.86 37.8465 5636.77 54.0502 5666.99 54.0502C5697.21 54.0502 5728.12 37.8465 5759.76 3.88889L5767 10.6828C5734.37 45.7108 5701.02 64 5666.99 64C5634.21 64 5602.07 47.0384 5570.6 14.4998C5539.13 47.0384 5506.99 64 5474.21 64C5441.44 64 5409.3 47.0384 5377.83 14.4998C5346.35 47.0384 5314.22 64 5281.44 64C5248.66 64 5216.52 47.0384 5185.05 14.4998C5153.58 47.0384 5121.44 64 5088.66 64C5055.89 64 5023.75 47.0384 4992.28 14.4998C4960.8 47.0384 4928.66 64 4895.89 64C4863.11 64 4830.97 47.0384 4799.5 14.4998C4768.03 47.0384 4735.89 64 4703.11 64C4670.34 64 4638.2 47.0384 4606.72 14.4998C4575.25 47.0384 4543.11 64 4510.34 64C4477.56 64 4445.42 47.0384 4413.95 14.4998C4382.48 47.0384 4350.34 64 4317.56 64C4284.78 64 4252.65 47.0384 4221.17 14.4998C4189.7 47.0384 4157.56 64 4124.79 64C4092.01 64 4059.87 47.0384 4028.4 14.4998C3996.93 47.0384 3964.79 64 3932.01 64C3897.98 64 3864.63 45.7108 3832 10.6828L3839.24 3.88889C3870.88 37.8465 3901.79 54.0502 3932.01 54.0502C3962.23 54.0502 3993.14 37.8465 4024.78 3.88889L4028.4 0Z" fill="#A9D6EF"/>
<path fill-rule="evenodd" clip-rule="evenodd" d="M5949.3 0L5952.92 3.88889C5984.53 37.8465 6015.43 54.0502 6045.63 54.0502C6075.84 54.0502 6106.74 37.8465 6138.35 3.88889L6141.97 0L6145.59 3.88889C6177.21 37.8465 6208.1 54.0502 6238.31 54.0502C6268.52 54.0502 6299.41 37.8465 6331.03 3.88889L6334.65 0L6338.27 3.88889C6369.88 37.8465 6400.78 54.0502 6430.99 54.0502C6461.19 54.0502 6492.09 37.8465 6523.7 3.88889L6527.32 0L6530.94 3.88889C6562.56 37.8465 6593.45 54.0502 6623.66 54.0502C6653.87 54.0502 6684.77 37.8465 6716.38 3.88889L6720 0L6723.62 3.88889C6755.23 37.8465 6786.13 54.0502 6816.34 54.0502C6846.55 54.0502 6877.44 37.8465 6909.06 3.88889L6912.68 0L6916.3 3.88889C6947.91 37.8465 6978.81 54.0502 7009.01 54.0502C7039.22 54.0502 7070.12 37.8465 7101.73 3.88889L7105.35 0L7108.97 3.88889C7140.59 37.8465 7171.48 54.0502 7201.69 54.0502C7231.9 54.0502 7262.79 37.8465 7294.41 3.88889L7298.03 0L7301.65 3.88889C7333.26 37.8465 7364.16 54.0502 7394.37 54.0502C7424.57 54.0502 7455.47 37.8465 7487.08 3.88889L7490.7 0L7494.32 3.88889C7525.94 37.8465 7556.83 54.0502 7587.04 54.0502C7617.25 54.0502 7648.14 37.8465 7679.76 3.88889L7687 10.6828C7654.39 45.7108 7621.06 64 7587.04 64C7554.28 64 7522.16 47.0384 7490.7 14.4998C7459.25 47.0384 7427.13 64 7394.37 64C7361.61 64 7329.48 47.0384 7298.03 14.4998C7266.57 47.0384 7234.45 64 7201.69 64C7168.93 64 7136.81 47.0384 7105.35 14.4998C7073.9 47.0384 7041.77 64 7009.01 64C6976.25 64 6944.13 47.0384 6912.68 14.4998C6881.22 47.0384 6849.1 64 6816.34 64C6783.58 64 6751.46 47.0384 6720 14.4998C6688.54 47.0384 6656.42 64 6623.66 64C6590.9 64 6558.78 47.0384 6527.32 14.4998C6495.87 47.0384 6463.75 64 6430.99 64C6398.23 64 6366.1 47.0384 6334.65 14.4998C6303.19 47.0384 6271.07 64 6238.31 64C6205.55 64 6173.43 47.0384 6141.97 14.4998C6110.52 47.0384 6078.39 64 6045.63 64C6012.87 64 5980.75 47.0384 5949.3 14.4998C5917.84 47.0384 5885.72 64 5852.96 64C5818.94 64 5785.61 45.7108 5753 10.6828L5760.24 3.88889C5791.86 37.8465 5822.75 54.0502 5852.96 54.0502C5883.17 54.0502 5914.06 37.8465 5945.68 3.88889L5949.3 0Z" fill="#A9D6EF"/>
<path fill-rule="evenodd" clip-rule="evenodd" d="M189.296 0L192.917 3.88889C224.531 37.8465 255.426 54.0502 285.634 54.0502C315.842 54.0502 346.737 37.8465 378.352 3.88889L381.972 0L385.593 3.88889C417.207 37.8465 448.102 54.0502 478.31 54.0502C508.518 54.0502 539.413 37.8465 571.028 3.88889L574.648 0L578.269 3.88889C609.883 37.8465 640.778 54.0502 670.986 54.0502C701.194 54.0502 732.089 37.8465 763.704 3.88889L767.324 0L770.945 3.88889C802.559 37.8465 833.454 54.0502 863.662 54.0502C893.87 54.0502 924.765 37.8465 956.379 3.88889L960 0L963.621 3.88889C995.235 37.8465 1026.13 54.0502 1056.34 54.0502C1086.55 54.0502 1117.44 37.8465 1149.06 3.88889L1152.68 0L1156.3 3.88889C1187.91 37.8465 1218.81 54.0502 1249.01 54.0502C1279.22 54.0502 1310.12 37.8465 1341.73 3.88889L1345.35 0L1348.97 3.88889C1380.59 37.8465 1411.48 54.0502 1441.69 54.0502C1471.9 54.0502 1502.79 37.8465 1534.41 3.88889L1538.03 0L1541.65 3.88889C1573.26 37.8465 1604.16 54.0502 1634.37 54.0502C1664.57 54.0502 1695.47 37.8465 1727.08 3.88889L1730.7 0L1734.32 3.88889C1765.94 37.8465 1796.83 54.0502 1827.04 54.0502C1857.25 54.0502 1888.14 37.8465 1919.76 3.88889L1927 10.6828C1894.39 45.7108 1861.06 64 1827.04 64C1794.28 64 1762.16 47.0384 1730.7 14.4998C1699.25 47.0384 1667.13 64 1634.37 64C1601.61 64 1569.48 47.0384 1538.03 14.4998C1506.57 47.0384 1474.45 64 1441.69 64C1408.93 64 1376.81 47.0384 1345.35 14.4998C1313.9 47.0384 1281.77 64 1249.01 64C1216.25 64 1184.13 47.0384 1152.68 14.4998C1121.22 47.0384 1089.1 64 1056.34 64C1023.58 64 991.456 47.0384 960 14.4998C928.544 47.0384 896.422 64 863.662 64C830.903 64 798.78 47.0384 767.324 14.4998C735.868 47.0384 703.746 64 670.986 64C638.227 64 606.104 47.0384 574.648 14.4998C543.192 47.0384 511.07 64 478.31 64C445.551 64 413.429 47.0384 381.972 14.4998C350.516 47.0384 318.394 64 285.634 64C252.875 64 220.753 47.0384 189.296 14.4998C157.84 47.0384 125.718 64 92.9585 64C58.9412 64 25.6109 45.7108 -7 10.6828L0.241084 3.88889C31.8555 37.8465 62.7505 54.0502 92.9585 54.0502C123.166 54.0502 154.061 37.8465 185.676 3.88889L189.296 0Z" fill="#A9D6EF"/>
<defs>
<linearGradient id="paint0_linear" x1="960.5" y1="8" x2="960.5" y2="328" gradientUnits="userSpaceOnUse">
<stop stop-color="#268AC2"/>
<stop offset="1" stop-color="#052739"/>
</linearGradient>
<linearGradient id="paint1_linear" x1="2880.5" y1="8" x2="2880.5" y2="328" gradientUnits="userSpaceOnUse">
<stop stop-color="#268AC2"/>
<stop offset="1" stop-color="#052739"/>
</linearGradient>
<linearGradient id="paint2_linear" x1="4799.5" y1="8" x2="4799.5" y2="328" gradientUnits="userSpaceOnUse">
<stop stop-color="#268AC2"/>
<stop offset="1" stop-color="#052739"/>
</linearGradient>
<linearGradient id="paint3_linear" x1="6719.5" y1="8" x2="6719.5" y2="328" gradientUnits="userSpaceOnUse">
<stop stop-color="#268AC2"/>
<stop offset="1" stop-color="#052739"/>
</linearGradient>
</defs>
</svg>
