<svg width="1440" height="358" viewBox="0 0 1440 358" fill="none" xmlns="http://www.w3.org/2000/svg">
<path d="M-29.6 8C-94.4 77.3333 -159.2 77.3333 -224 8V332H1720V8C1655.2 77.3333 1590.4 77.3333 1525.6 8C1460.8 77.3333 1396 77.3333 1331.2 8C1266.4 77.3333 1201.6 77.3333 1136.8 8C1072 77.3333 1007.2 77.3333 942.4 8C877.6 77.3333 812.8 77.3333 748 8C683.2 77.3333 618.4 77.3333 553.6 8C488.8 77.3333 424 77.3333 359.2 8C294.4 77.3333 229.6 77.3333 164.8 8C100 77.3333 35.2 77.3333 -29.6 8Z" fill="#268AC2"/>
<path d="M-29.6 8C-94.4 77.3333 -159.2 77.3333 -224 8V332H1720V8C1655.2 77.3333 1590.4 77.3333 1525.6 8C1460.8 77.3333 1396 77.3333 1331.2 8C1266.4 77.3333 1201.6 77.3333 1136.8 8C1072 77.3333 1007.2 77.3333 942.4 8C877.6 77.3333 812.8 77.3333 748 8C683.2 77.3333 618.4 77.3333 553.6 8C488.8 77.3333 424 77.3333 359.2 8C294.4 77.3333 229.6 77.3333 164.8 8C100 77.3333 35.2 77.3333 -29.6 8Z" fill="url(#paint0_linear)"/>
<path d="M-224 8C-159.2 77.3333 -94.4 77.3333 -29.6 8C35.2 77.3333 100 77.3333 164.8 8C229.6 77.3333 294.4 77.3333 359.2 8C424 77.3333 488.8 77.3333 553.6 8C618.4 77.3333 683.2 77.3333 748 8C812.8 77.3333 877.6 77.3333 942.4 8C1007.2 77.3333 1072 77.3333 1136.8 8C1201.6 77.3333 1266.4 77.3333 1331.2 8C1396 77.3333 1460.8 77.3333 1525.6 8C1590.4 77.3333 1655.2 77.3333 1720 8" stroke="#A9D6EF" stroke-width="10"/>
<path d="M-86.6 34C-151.4 103.333 -216.2 103.333 -281 34V358H1663V34C1598.2 103.333 1533.4 103.333 1468.6 34C1403.8 103.333 1339 103.333 1274.2 34C1209.4 103.333 1144.6 103.333 1079.8 34C1015 103.333 950.2 103.333 885.4 34C820.6 103.333 755.8 103.333 691 34C626.2 103.333 561.4 103.333 496.6 34C431.8 103.333 367 103.333 302.2 34C237.4 103.333 172.6 103.333 107.8 34C43 103.333 -21.8 103.333 -86.6 34Z" fill="#268AC2"/>
<path d="M-86.6 34C-151.4 103.333 -216.2 103.333 -281 34V358H1663V34C1598.2 103.333 1533.4 103.333 1468.6 34C1403.8 103.333 1339 103.333 1274.2 34C1209.4 103.333 1144.6 103.333 1079.8 34C1015 103.333 950.2 103.333 885.4 34C820.6 103.333 755.8 103.333 691 34C626.2 103.333 561.4 103.333 496.6 34C431.8 103.333 367 103.333 302.2 34C237.4 103.333 172.6 103.333 107.8 34C43 103.333 -21.8 103.333 -86.6 34Z" fill="url(#paint1_linear)"/>
<path d="M-281 34C-216.2 103.333 -151.4 103.333 -86.6 34C-21.8 103.333 43 103.333 107.8 34C172.6 103.333 237.4 103.333 302.2 34C367 103.333 431.8 103.333 496.6 34C561.4 103.333 626.2 103.333 691 34C755.8 103.333 820.6 103.333 885.4 34C950.2 103.333 1015 103.333 1079.8 34C1144.6 103.333 1209.4 103.333 1274.2 34C1339 103.333 1403.8 103.333 1468.6 34C1533.4 103.333 1598.2 103.333 1663 34" stroke="#A9D6EF" stroke-width="10"/>
<defs>
<linearGradient id="paint0_linear" x1="748" y1="8" x2="748" y2="332" gradientUnits="userSpaceOnUse">
<stop stop-color="#268AC2"/>
<stop offset="1" stop-color="#052739"/>
</linearGradient>
<linearGradient id="paint1_linear" x1="691" y1="34" x2="691" y2="358" gradientUnits="userSpaceOnUse">
<stop stop-color="#268AC2"/>
<stop offset="1" stop-color="#052739"/>
</linearGradient>
</defs>
</svg>
