<svg width="7680" height="1023" viewBox="0 0 7680 1023" fill="none" xmlns="http://www.w3.org/2000/svg">
<path d="M621.859 28.3285C354.14 -6.19273 86.4212 -6.19273 -181.298 28.3285V370.777L7850.27 423.655V81.207C7575.27 109.6 7307.55 100.85 7047.12 72.4563C6779.4 42.4289 6511.68 42.4289 6243.96 72.4563C5971.84 102.484 5704.12 86.4372 5440.8 56.4099C5173.08 25.3611 4905.36 25.3611 4637.65 56.4099C4379.35 87.4586 4111.63 112.256 3834.49 81.207C3566.77 52.201 3299.05 52.201 3031.33 81.207C2773.75 110.213 2506.03 57.3346 2228.17 28.3285C1960.45 1.36519 1692.74 1.36519 1425.02 28.3285C1127.99 55.2919 860.272 55.2919 621.859 28.3285Z" fill="#47A5D9"/>
<path fill-rule="evenodd" clip-rule="evenodd" d="M220.284 4.8752C89.4565 4.8752 -41.959 13.3031 -174.151 30.3487L-188.438 26.3084C-52.9104 8.83271 83.3931 0 220.284 0C357.069 0 493.267 8.819 628.69 26.2677C862.581 52.6924 1125.52 52.8047 1419.3 26.1488C1690.67 -1.16623 1962.76 -1.15835 2234.13 26.1724L2234.22 26.1809L2234.3 26.1897C2300.85 33.1374 2366.76 41.4365 2431.57 49.597C2434.95 50.0222 2438.32 50.4471 2441.7 50.8714C2509.97 59.4642 2576.99 67.8156 2643.23 74.3571C2775.76 87.4462 2901.81 92.9635 3024.85 79.1073L3024.94 79.097L3025.04 79.0869C3296.66 49.6576 3569.16 49.6576 3840.79 79.0869L3840.87 79.0956L3840.95 79.1045C4110.89 109.346 4372.19 85.4394 4630.85 54.3469L4630.94 54.3365L4631.02 54.3264C4766.54 38.6103 4902.66 30.6857 5039.23 30.6857C5175.78 30.6857 5311.9 38.609 5447.4 54.3226C5709.53 84.2132 5971.65 99.6832 6237.52 70.3515C6373.02 55.1555 6509.08 47.4982 6645.54 47.4982C6781.99 47.4982 6918.04 55.1538 7053.51 70.3465C7311.43 98.4615 7574.28 106.931 7844.21 79.0628L7856.35 83.3513C7576.28 112.267 7303.73 103.239 7040.79 74.5732L7040.72 74.5658L7040.66 74.5582C6908.44 59.7288 6776.79 52.3734 6645.54 52.3734C6514.3 52.3734 6382.64 59.7288 6250.43 74.5582L6250.39 74.5626L6250.35 74.5669C5972.01 105.28 5698.73 88.6612 5434.26 58.5027L5434.22 58.4981L5434.18 58.4933C5301.97 43.1607 5170.38 35.5609 5039.23 35.5609C4908.1 35.5609 4776.54 43.1576 4644.36 58.4838C4386.48 89.481 4112.4 115.157 3828.11 83.3182C3564.36 54.7479 3301.48 54.7474 3037.73 83.3167C2903.23 98.4538 2766.65 92.0348 2631.5 78.6875C2563.88 72.0094 2495.77 63.5154 2427.65 54.942C2424.37 54.5291 2421.08 54.1159 2417.8 53.7027C2352.78 45.5153 2287.71 37.3223 2222.14 30.4763C1958.17 3.89663 1694.94 3.89943 1430.97 30.4847L1430.74 30.5083L1430.5 30.5301C1130.46 57.7668 858.148 57.8843 615.358 30.4259L615.033 30.3891L614.72 30.3487C482.528 13.3031 351.112 4.8752 220.284 4.8752Z" fill="#98CCE9"/>
<path d="M343.011 129.402C64.8171 93.53 -213.377 93.53 -491.57 129.402V485.249L7854.24 540.196V184.349C7568.48 213.853 7290.28 204.76 7019.66 175.256C6741.47 144.054 6463.27 144.054 6185.08 175.256C5902.31 206.458 5624.11 189.784 5350.5 158.582C5072.3 126.318 4794.11 126.318 4515.92 158.582C4247.52 190.845 3969.32 216.613 3681.33 184.349C3403.14 154.208 3124.95 154.208 2846.75 184.349C2579.1 214.49 2300.9 159.543 2012.17 129.402C1733.98 101.384 1455.79 101.384 1177.59 129.402C868.945 157.42 590.751 157.42 343.011 129.402Z" fill="#2782B5"/>
<path fill-rule="evenodd" clip-rule="evenodd" d="M-74.2868 105.031C-210.233 105.031 -346.791 113.789 -484.155 131.501L-499 127.303C-358.17 109.143 -216.534 99.965 -74.2868 99.965C67.8498 99.965 209.377 109.129 350.098 127.26C593.14 154.719 866.364 154.836 1171.64 127.137C1453.63 98.7532 1736.37 98.7614 2018.35 127.161L2018.44 127.17L2018.53 127.179C2087.69 134.399 2156.17 143.023 2223.52 151.502C2227.03 151.944 2230.53 152.386 2234.04 152.827C2304.98 161.756 2374.62 170.434 2443.45 177.231C2581.18 190.833 2712.15 196.566 2840.01 182.167L2840.1 182.157L2840.2 182.146C3122.45 151.565 3405.62 151.565 3687.87 182.146L3687.96 182.155L3688.04 182.165C3968.54 213.589 4240.07 188.747 4508.84 156.438L4508.93 156.428L4509.02 156.417C4649.84 140.086 4791.29 131.851 4933.2 131.851C5075.1 131.851 5216.54 140.085 5357.34 156.413C5629.73 187.473 5902.11 203.548 6178.38 173.069C6319.17 157.279 6460.56 149.322 6602.36 149.322C6744.15 149.322 6885.52 157.277 7026.29 173.064C7294.3 202.279 7567.44 211.08 7847.92 182.121L7860.54 186.577C7569.52 216.624 7286.3 207.243 7013.07 177.456L7013 177.448L7012.93 177.44C6875.54 162.031 6738.74 154.388 6602.36 154.388C6465.98 154.388 6329.18 162.031 6191.79 177.44L6191.75 177.445L6191.71 177.449C5902.48 209.364 5618.5 192.095 5343.69 160.757L5343.65 160.752L5343.6 160.747C5206.23 144.814 5069.48 136.917 4933.2 136.917C4796.94 136.917 4660.23 144.811 4522.88 160.737C4254.91 192.947 3970.11 219.627 3674.7 186.543C3400.62 156.855 3127.46 156.854 2853.39 186.542C2713.63 202.271 2571.71 195.601 2431.27 181.731C2361 174.792 2290.22 165.966 2219.44 157.057C2216.03 156.628 2212.62 156.198 2209.21 155.769C2141.64 147.261 2074.03 138.748 2005.89 131.634C1731.6 104.014 1458.06 104.017 1183.77 131.642L1183.53 131.667L1183.28 131.69C871.503 159.992 588.533 160.114 336.245 131.581L335.907 131.543L335.581 131.501C198.217 113.789 61.6597 105.031 -74.2868 105.031Z" fill="#98CCE9"/>
<path d="M672.917 314.335C405.198 279.814 137.479 279.814 -130.24 314.335V1073.12L7901.33 1126V367.214C7626.33 395.607 7358.61 386.856 7098.18 358.463C6830.46 328.436 6562.74 328.436 6295.02 358.463C6022.89 388.49 5755.18 372.444 5491.86 342.416C5224.14 311.368 4956.42 311.368 4688.7 342.416C4430.41 373.465 4162.69 398.262 3885.55 367.214C3617.83 338.208 3350.11 338.208 3082.39 367.214C2824.81 396.22 2557.09 343.341 2279.23 314.335C2011.51 287.372 1743.79 287.372 1476.07 314.335C1179.05 341.298 911.33 341.298 672.917 314.335Z" fill="#146C9D"/>
<path fill-rule="evenodd" clip-rule="evenodd" d="M271.344 290.882C140.516 290.882 9.10053 299.31 -123.091 316.355L-137.378 312.315C-1.85084 294.839 134.453 286.007 271.344 286.007C408.129 286.007 544.327 294.826 679.75 312.274C913.641 338.699 1176.58 338.811 1470.36 312.155C1741.73 284.84 2013.82 284.848 2285.19 312.179L2285.28 312.187L2285.36 312.196C2351.91 319.144 2417.82 327.443 2482.63 335.604C2486.01 336.029 2489.38 336.454 2492.75 336.878C2561.03 345.471 2628.05 353.822 2694.28 360.364C2826.82 373.453 2952.86 378.97 3075.91 365.114L3076 365.103L3076.1 365.093C3347.72 335.664 3620.22 335.664 3891.85 365.093L3891.93 365.102L3892.01 365.111C4161.95 395.353 4423.25 371.446 4681.91 340.353L4681.99 340.343L4682.08 340.333C4817.59 324.617 4953.72 316.692 5090.29 316.692C5226.84 316.692 5362.96 324.616 5498.46 340.329C5760.59 370.22 6022.71 385.69 6288.58 356.358C6424.08 341.162 6560.14 333.505 6696.6 333.505C6833.05 333.505 6969.09 341.16 7104.57 356.353C7362.49 384.468 7625.34 392.938 7895.27 365.069L7907.41 369.358C7627.34 398.273 7354.79 389.246 7091.85 360.58L7091.78 360.572L7091.72 360.565C6959.5 345.735 6827.85 338.38 6696.6 338.38C6565.36 338.38 6433.7 345.735 6301.49 360.565L6301.45 360.569L6301.41 360.573C6023.07 391.287 5749.79 374.668 5485.32 344.509L5485.28 344.505L5485.24 344.5C5353.03 329.167 5221.44 321.567 5090.29 321.567C4959.16 321.567 4827.6 329.164 4695.42 344.49C4437.54 375.488 4163.46 401.163 3879.17 369.325C3615.42 340.754 3352.54 340.754 3088.79 369.323C2954.29 384.46 2817.71 378.041 2682.56 364.694C2614.94 358.016 2546.83 349.522 2478.71 340.949C2475.42 340.536 2472.14 340.122 2468.86 339.709C2403.84 331.522 2338.77 323.329 2273.2 316.483C2009.23 289.903 1746 289.906 1482.03 316.491L1481.8 316.515L1481.56 316.537C1181.52 343.773 909.208 343.891 666.418 316.432L666.093 316.396L665.779 316.355C533.587 299.31 402.172 290.882 271.344 290.882Z" fill="#98CCE9"/>
</svg>
